<svg width="48" height="48" viewBox="0 0 48 48" fill="none" xmlns="http://www.w3.org/2000/svg">
<g clip-path="url(#clip0_9169_256795)">
<path d="M0.25 9.33333C0.25 4.31675 4.31675 0.25 9.33333 0.25H38.6667C43.6833 0.25 47.75 4.31675 47.75 9.33333V38.6667C47.75 43.6833 43.6833 47.75 38.6667 47.75H9.33333C4.31675 47.75 0.25 43.6833 0.25 38.6667V9.33333Z" fill="#211C25" stroke="url(#paint0_linear_9169_256795)" stroke-width="0.5"/>
<g filter="url(#filter0_d_9169_256795)">
<path d="M37.0664 16.8402C37.0664 21.7225 33.0808 25.6804 28.1643 25.6804C23.2479 25.6804 19.2623 21.7225 19.2623 16.8402C19.2623 11.9579 23.2479 8 28.1643 8C33.0808 8 37.0664 11.9579 37.0664 16.8402Z" fill="url(#paint1_radial_9169_256795)"/>
<path d="M38.6849 32.1096C38.6849 34.7727 33.9747 36.9315 28.1643 36.9315C22.354 36.9315 17.6438 34.7727 17.6438 32.1096C17.6438 29.4465 22.354 27.2877 28.1643 27.2877C33.9747 27.2877 38.6849 29.4465 38.6849 32.1096Z" fill="url(#paint2_radial_9169_256795)"/>
<g filter="url(#filter1_bdi_9169_256795)">
<path d="M29.176 19.9087C29.176 24.791 25.1904 28.7488 20.274 28.7488C15.3575 28.7488 11.372 24.791 11.372 19.9087C11.372 15.0264 15.3575 11.0685 20.274 11.0685C25.1904 11.0685 29.176 15.0264 29.176 19.9087Z" fill="url(#paint3_radial_9169_256795)" fill-opacity="0.48" shape-rendering="crispEdges"/>
<path d="M30.7945 35.1781C30.7945 37.8411 26.0843 40 20.274 40C14.4636 40 9.75342 37.8411 9.75342 35.1781C9.75342 32.515 14.4636 30.3561 20.274 30.3561C26.0843 30.3561 30.7945 32.515 30.7945 35.1781Z" fill="url(#paint4_radial_9169_256795)" fill-opacity="0.48" shape-rendering="crispEdges"/>
<path d="M29.051 19.9087C29.051 24.7211 25.1222 28.6238 20.274 28.6238C15.4257 28.6238 11.497 24.7211 11.497 19.9087C11.497 15.0962 15.4257 11.1935 20.274 11.1935C25.1222 11.1935 29.051 15.0962 29.051 19.9087ZM30.6695 35.1781C30.6695 36.431 29.556 37.6055 27.661 38.474C25.777 39.3376 23.1654 39.875 20.274 39.875C17.3826 39.875 14.771 39.3376 12.8869 38.474C10.9919 37.6055 9.87842 36.431 9.87842 35.1781C9.87842 33.9251 10.9919 32.7506 12.8869 31.8821C14.771 31.0186 17.3826 30.4811 20.274 30.4811C23.1654 30.4811 25.777 31.0186 27.661 31.8821C29.556 32.7506 30.6695 33.9251 30.6695 35.1781Z" stroke="url(#paint5_linear_9169_256795)" stroke-width="0.25" shape-rendering="crispEdges"/>
</g>
</g>
<g filter="url(#filter2_f_9169_256795)">
<ellipse cx="34.9568" cy="14.9567" rx="9.33333" ry="3.33333" transform="rotate(45 34.9568 14.9567)" fill="url(#paint6_radial_9169_256795)"/>
</g>
</g>
<defs>
<filter id="filter0_d_9169_256795" x="-2" y="-2" width="64" height="64" filterUnits="userSpaceOnUse" color-interpolation-filters="sRGB">
<feFlood flood-opacity="0" result="BackgroundImageFix"/>
<feColorMatrix in="SourceAlpha" type="matrix" values="0 0 0 0 0 0 0 0 0 0 0 0 0 0 0 0 0 0 127 0" result="hardAlpha"/>
<feOffset dx="6" dy="6"/>
<feGaussianBlur stdDeviation="8"/>
<feColorMatrix type="matrix" values="0 0 0 0 0.541176 0 0 0 0 0.333333 0 0 0 0 0.913725 0 0 0 0.16 0"/>
<feBlend mode="normal" in2="BackgroundImageFix" result="effect1_dropShadow_9169_256795"/>
<feBlend mode="normal" in="SourceGraphic" in2="effect1_dropShadow_9169_256795" result="shape"/>
</filter>
<filter id="filter1_bdi_9169_256795" x="1.75342" y="3.06848" width="37.041" height="44.9315" filterUnits="userSpaceOnUse" color-interpolation-filters="sRGB">
<feFlood flood-opacity="0" result="BackgroundImageFix"/>
<feGaussianBlur in="BackgroundImageFix" stdDeviation="4"/>
<feComposite in2="SourceAlpha" operator="in" result="effect1_backgroundBlur_9169_256795"/>
<feColorMatrix in="SourceAlpha" type="matrix" values="0 0 0 0 0 0 0 0 0 0 0 0 0 0 0 0 0 0 127 0" result="hardAlpha"/>
<feOffset dy="4"/>
<feGaussianBlur stdDeviation="1"/>
<feComposite in2="hardAlpha" operator="out"/>
<feColorMatrix type="matrix" values="0 0 0 0 0.131489 0 0 0 0 0.0782986 0 0 0 0 0.229167 0 0 0 0.16 0"/>
<feBlend mode="normal" in2="effect1_backgroundBlur_9169_256795" result="effect2_dropShadow_9169_256795"/>
<feBlend mode="normal" in="SourceGraphic" in2="effect2_dropShadow_9169_256795" result="shape"/>
<feColorMatrix in="SourceAlpha" type="matrix" values="0 0 0 0 0 0 0 0 0 0 0 0 0 0 0 0 0 0 127 0" result="hardAlpha"/>
<feOffset/>
<feGaussianBlur stdDeviation="1"/>
<feComposite in2="hardAlpha" operator="arithmetic" k2="-1" k3="1"/>
<feColorMatrix type="matrix" values="0 0 0 0 1 0 0 0 0 1 0 0 0 0 1 0 0 0 0.48 0"/>
<feBlend mode="normal" in2="shape" result="effect3_innerShadow_9169_256795"/>
</filter>
<filter id="filter2_f_9169_256795" x="11.947" y="-8.0531" width="46.0195" height="46.0197" filterUnits="userSpaceOnUse" color-interpolation-filters="sRGB">
<feFlood flood-opacity="0" result="BackgroundImageFix"/>
<feBlend mode="normal" in="SourceGraphic" in2="BackgroundImageFix" result="shape"/>
<feGaussianBlur stdDeviation="8" result="effect1_foregroundBlur_9169_256795"/>
</filter>
<linearGradient id="paint0_linear_9169_256795" x1="24" y1="0" x2="24" y2="48" gradientUnits="userSpaceOnUse">
<stop stop-color="white" stop-opacity="0.24"/>
<stop offset="1" stop-color="white" stop-opacity="0"/>
</linearGradient>
<radialGradient id="paint1_radial_9169_256795" cx="0" cy="0" r="1" gradientUnits="userSpaceOnUse" gradientTransform="translate(17.6438 22.4652) scale(21.0411 19832.2)">
<stop stop-color="#3F7DD9"/>
<stop offset="1" stop-color="#8A53EF"/>
</radialGradient>
<radialGradient id="paint2_radial_9169_256795" cx="0" cy="0" r="1" gradientUnits="userSpaceOnUse" gradientTransform="translate(17.6438 22.4652) scale(21.0411 19832.2)">
<stop stop-color="#3F7DD9"/>
<stop offset="1" stop-color="#8A53EF"/>
</radialGradient>
<radialGradient id="paint3_radial_9169_256795" cx="0" cy="0" r="1" gradientUnits="userSpaceOnUse" gradientTransform="translate(9.75342 25.5337) scale(21.0411 19832.2)">
<stop stop-color="#3F7DD9"/>
<stop offset="1" stop-color="#8A53EF"/>
</radialGradient>
<radialGradient id="paint4_radial_9169_256795" cx="0" cy="0" r="1" gradientUnits="userSpaceOnUse" gradientTransform="translate(9.75342 25.5337) scale(21.0411 19832.2)">
<stop stop-color="#3F7DD9"/>
<stop offset="1" stop-color="#8A53EF"/>
</radialGradient>
<linearGradient id="paint5_linear_9169_256795" x1="14.0812" y1="16.356" x2="31.3437" y2="38.0348" gradientUnits="userSpaceOnUse">
<stop offset="0.331091" stop-color="white" stop-opacity="0.26"/>
<stop offset="1" stop-color="#8A53EF" stop-opacity="0.16"/>
</linearGradient>
<radialGradient id="paint6_radial_9169_256795" cx="0" cy="0" r="1" gradientUnits="userSpaceOnUse" gradientTransform="translate(25.6234 14.9566) scale(18.6667 4569.92)">
<stop stop-color="#3F7DD9"/>
<stop offset="1" stop-color="#8A53EF"/>
</radialGradient>
<clipPath id="clip0_9169_256795">
<rect width="48" height="48" rx="9" fill="white"/>
</clipPath>
</defs>
</svg>
