<svg width="48" height="48" viewBox="0 0 48 48" fill="none" xmlns="http://www.w3.org/2000/svg">
<g clip-path="url(#clip0_9169_256784)">
<path d="M9.33333 0.25H38.6667C43.6833 0.25 47.75 4.31675 47.75 9.33333V38.6667C47.75 43.6833 43.6833 47.75 38.6667 47.75H9.33333C4.31675 47.75 0.25 43.6833 0.25 38.6667V9.33333C0.25 4.31675 4.31675 0.25 9.33333 0.25Z" fill="#211C25" stroke="url(#paint0_linear_9169_256784)" stroke-width="0.5"/>
<g clip-path="url(#clip1_9169_256784)" filter="url(#filter0_d_9169_256784)">
<circle cx="32" cy="16" r="6" fill="url(#paint1_radial_9169_256784)"/>
<g filter="url(#filter1_bdi_9169_256784)">
<circle cx="24" cy="24" r="14" fill="url(#paint2_radial_9169_256784)" fill-opacity="0.48" shape-rendering="crispEdges"/>
<circle cx="24" cy="24" r="13.875" stroke="url(#paint3_linear_9169_256784)" stroke-width="0.25" shape-rendering="crispEdges"/>
</g>
<g filter="url(#filter2_bi_9169_256784)">
<path d="M31.5746 23.0316C31.3895 23.1736 31.164 23.2502 30.9324 23.25V23.2489H20.2666C19.9837 23.2489 19.7124 23.1344 19.5124 22.9305C19.3124 22.7266 19.2 22.45 19.2 22.1617C19.2 21.8733 19.3124 21.5968 19.5124 21.3929C19.7124 21.189 19.9837 21.0744 20.2666 21.0744H28.3192L27.1236 19.8567C26.9235 19.6528 26.811 19.3763 26.8109 19.0879C26.8108 18.7994 26.9231 18.5228 27.1231 18.3188C27.3231 18.1148 27.5944 18.0001 27.8773 18C28.1602 17.9999 28.4316 18.1144 28.6317 18.3182L31.4987 21.2408C31.6952 21.3659 31.8463 21.5529 31.9293 21.7734C32.0122 21.994 32.0225 22.236 31.9585 22.463C31.8945 22.69 31.7598 22.8896 31.5746 23.0316Z" fill="#DBE9FF" fill-opacity="0.24"/>
<path d="M16.4254 24.9684C16.6105 24.8264 16.836 24.7498 17.0676 24.75V24.7511H27.7334C28.0163 24.7511 28.2876 24.8656 28.4876 25.0695C28.6876 25.2734 28.8 25.55 28.8 25.8383C28.8 26.1267 28.6876 26.4032 28.4876 26.6071C28.2876 26.811 28.0163 26.9256 27.7334 26.9256H19.6808L20.8764 28.1433C20.9755 28.2442 21.0541 28.3641 21.1078 28.496C21.1614 28.6279 21.1891 28.7693 21.1891 28.9121C21.1892 29.055 21.1616 29.1964 21.1081 29.3283C21.0545 29.4603 20.976 29.5802 20.8769 29.6812C20.7779 29.7822 20.6603 29.8624 20.5309 29.9171C20.4015 29.9718 20.2628 29.9999 20.1227 30C19.9826 30.0001 19.8439 29.972 19.7144 29.9174C19.585 29.8628 19.4674 29.7827 19.3683 29.6818L16.5013 26.7592C16.3048 26.6341 16.1537 26.4471 16.0707 26.2266C15.9878 26.006 15.9775 25.764 16.0415 25.537C16.1055 25.31 16.2402 25.1104 16.4254 24.9684Z" fill="#DBE9FF" fill-opacity="0.24"/>
</g>
</g>
<g filter="url(#filter3_f_9169_256784)">
<ellipse cx="34.9565" cy="14.6227" rx="9.33333" ry="3.33333" transform="rotate(45 34.9565 14.6227)" fill="url(#paint4_radial_9169_256784)"/>
</g>
</g>
<defs>
<filter id="filter0_d_9169_256784" x="0" y="0" width="60" height="60" filterUnits="userSpaceOnUse" color-interpolation-filters="sRGB">
<feFlood flood-opacity="0" result="BackgroundImageFix"/>
<feColorMatrix in="SourceAlpha" type="matrix" values="0 0 0 0 0 0 0 0 0 0 0 0 0 0 0 0 0 0 127 0" result="hardAlpha"/>
<feOffset dx="6" dy="6"/>
<feGaussianBlur stdDeviation="8"/>
<feColorMatrix type="matrix" values="0 0 0 0 0.541176 0 0 0 0 0.333333 0 0 0 0 0.913725 0 0 0 0.16 0"/>
<feBlend mode="normal" in2="BackgroundImageFix" result="effect1_dropShadow_9169_256784"/>
<feBlend mode="normal" in="SourceGraphic" in2="effect1_dropShadow_9169_256784" result="shape"/>
</filter>
<filter id="filter1_bdi_9169_256784" x="2" y="2" width="44" height="44" filterUnits="userSpaceOnUse" color-interpolation-filters="sRGB">
<feFlood flood-opacity="0" result="BackgroundImageFix"/>
<feGaussianBlur in="BackgroundImageFix" stdDeviation="4"/>
<feComposite in2="SourceAlpha" operator="in" result="effect1_backgroundBlur_9169_256784"/>
<feColorMatrix in="SourceAlpha" type="matrix" values="0 0 0 0 0 0 0 0 0 0 0 0 0 0 0 0 0 0 127 0" result="hardAlpha"/>
<feOffset dy="4"/>
<feGaussianBlur stdDeviation="1"/>
<feComposite in2="hardAlpha" operator="out"/>
<feColorMatrix type="matrix" values="0 0 0 0 0.131489 0 0 0 0 0.0782986 0 0 0 0 0.229167 0 0 0 0.16 0"/>
<feBlend mode="normal" in2="effect1_backgroundBlur_9169_256784" result="effect2_dropShadow_9169_256784"/>
<feBlend mode="normal" in="SourceGraphic" in2="effect2_dropShadow_9169_256784" result="shape"/>
<feColorMatrix in="SourceAlpha" type="matrix" values="0 0 0 0 0 0 0 0 0 0 0 0 0 0 0 0 0 0 127 0" result="hardAlpha"/>
<feOffset/>
<feGaussianBlur stdDeviation="1"/>
<feComposite in2="hardAlpha" operator="arithmetic" k2="-1" k3="1"/>
<feColorMatrix type="matrix" values="0 0 0 0 1 0 0 0 0 1 0 0 0 0 1 0 0 0 0.48 0"/>
<feBlend mode="normal" in2="shape" result="effect3_innerShadow_9169_256784"/>
</filter>
<filter id="filter2_bi_9169_256784" x="12" y="14" width="24" height="20" filterUnits="userSpaceOnUse" color-interpolation-filters="sRGB">
<feFlood flood-opacity="0" result="BackgroundImageFix"/>
<feGaussianBlur in="BackgroundImageFix" stdDeviation="2"/>
<feComposite in2="SourceAlpha" operator="in" result="effect1_backgroundBlur_9169_256784"/>
<feBlend mode="normal" in="SourceGraphic" in2="effect1_backgroundBlur_9169_256784" result="shape"/>
<feColorMatrix in="SourceAlpha" type="matrix" values="0 0 0 0 0 0 0 0 0 0 0 0 0 0 0 0 0 0 127 0" result="hardAlpha"/>
<feOffset/>
<feGaussianBlur stdDeviation="1"/>
<feComposite in2="hardAlpha" operator="arithmetic" k2="-1" k3="1"/>
<feColorMatrix type="matrix" values="0 0 0 0 1 0 0 0 0 1 0 0 0 0 1 0 0 0 0.64 0"/>
<feBlend mode="normal" in2="shape" result="effect2_innerShadow_9169_256784"/>
</filter>
<filter id="filter3_f_9169_256784" x="11.9468" y="-8.38708" width="46.0195" height="46.0197" filterUnits="userSpaceOnUse" color-interpolation-filters="sRGB">
<feFlood flood-opacity="0" result="BackgroundImageFix"/>
<feBlend mode="normal" in="SourceGraphic" in2="BackgroundImageFix" result="shape"/>
<feGaussianBlur stdDeviation="8" result="effect1_foregroundBlur_9169_256784"/>
</filter>
<linearGradient id="paint0_linear_9169_256784" x1="24" y1="0" x2="24" y2="48" gradientUnits="userSpaceOnUse">
<stop stop-color="white" stop-opacity="0.24"/>
<stop offset="1" stop-color="white" stop-opacity="0"/>
</linearGradient>
<radialGradient id="paint1_radial_9169_256784" cx="0" cy="0" r="1" gradientUnits="userSpaceOnUse" gradientTransform="translate(26 15.9998) scale(12 8225.85)">
<stop stop-color="#3F7DD9"/>
<stop offset="1" stop-color="#8A53EF"/>
</radialGradient>
<radialGradient id="paint2_radial_9169_256784" cx="0" cy="0" r="1" gradientUnits="userSpaceOnUse" gradientTransform="translate(10 23.9995) scale(28 19193.7)">
<stop stop-color="#3F7DD9"/>
<stop offset="1" stop-color="#8A53EF"/>
</radialGradient>
<linearGradient id="paint3_linear_9169_256784" x1="15.7591" y1="15.1173" x2="30.6272" y2="40.791" gradientUnits="userSpaceOnUse">
<stop offset="0.331091" stop-color="white" stop-opacity="0.26"/>
<stop offset="1" stop-color="#8A53EF" stop-opacity="0.16"/>
</linearGradient>
<radialGradient id="paint4_radial_9169_256784" cx="0" cy="0" r="1" gradientUnits="userSpaceOnUse" gradientTransform="translate(25.6232 14.6226) scale(18.6667 4569.92)">
<stop stop-color="#3F7DD9"/>
<stop offset="1" stop-color="#8A53EF"/>
</radialGradient>
<clipPath id="clip0_9169_256784">
<rect width="48" height="48" rx="9" fill="white"/>
</clipPath>
<clipPath id="clip1_9169_256784">
<rect width="28" height="28" fill="white" transform="translate(10 10)"/>
</clipPath>
</defs>
</svg>
