<svg width="48" height="48" viewBox="0 0 48 48" fill="none" xmlns="http://www.w3.org/2000/svg">
<g clip-path="url(#clip0_9169_243841)">
<path d="M0.25 9.33333C0.25 4.31675 4.31675 0.25 9.33333 0.25H38.6667C43.6833 0.25 47.75 4.31675 47.75 9.33333V38.6667C47.75 43.6833 43.6833 47.75 38.6667 47.75H9.33333C4.31675 47.75 0.25 43.6833 0.25 38.6667V9.33333Z" fill="#211C25" stroke="url(#paint0_linear_9169_243841)" stroke-width="0.5"/>
<g filter="url(#filter0_d_9169_243841)">
<path d="M17.7368 33.4877C18.4905 34.2414 18.4905 35.4634 17.7368 36.2172C16.9757 36.9782 15.7392 36.9697 14.9886 36.1982L8.75226 29.7873C8.0528 29.0683 8.04598 27.9252 8.73683 27.1979C9.46041 26.4361 10.6697 26.4205 11.4126 27.1634L17.7368 33.4877Z" fill="url(#paint1_radial_9169_243841)"/>
<path d="M39.3297 18.7875C39.9926 19.4744 40.0229 20.5533 39.3995 21.2763C38.6984 22.0895 37.454 22.1354 36.6947 21.3762L30.3622 15.0437C29.61 14.2915 29.61 13.0718 30.3622 12.3196C31.1239 11.5579 32.3622 11.5689 33.1103 12.3439L39.3297 18.7875Z" fill="url(#paint2_radial_9169_243841)"/>
<g filter="url(#filter1_bdi_9169_243841)">
<path d="M39.1493 22.1921C38.779 22.4938 38.3281 22.6568 37.8647 22.6562V22.6539H16.5332C15.9674 22.6539 15.4248 22.4105 15.0248 21.9772C14.6247 21.544 14.4 20.9563 14.4 20.3435C14.4 19.7308 14.6247 19.1431 15.0248 18.7098C15.4248 18.2765 15.9674 18.0331 16.5332 18.0331H32.6385L30.2472 15.4455C29.8469 15.0123 29.622 14.4246 29.6218 13.8117C29.6216 13.1988 29.8462 12.6109 30.2461 12.1774C30.6461 11.7439 31.1887 11.5002 31.7546 11.5C32.3205 11.4998 32.8632 11.743 33.2635 12.1763L38.9974 18.3866C39.3903 18.6526 39.6926 19.05 39.8586 19.5186C40.0245 19.9872 40.045 20.5015 39.917 20.9839C39.7891 21.4663 39.5196 21.8904 39.1493 22.1921Z" fill="url(#paint3_radial_9169_243841)" fill-opacity="0.48" shape-rendering="crispEdges"/>
<path d="M8.85071 26.3079C9.221 26.0062 9.67192 25.8432 10.1353 25.8438V25.8461H31.4668C32.0326 25.8461 32.5752 26.0895 32.9752 26.5228C33.3753 26.956 33.6 27.5437 33.6 28.1565C33.6 28.7692 33.3753 29.3569 32.9752 29.7902C32.5752 30.2235 32.0326 30.4669 31.4668 30.4669H15.3615L17.7528 33.0545C17.951 33.269 18.1082 33.5237 18.2155 33.804C18.3229 34.0844 18.3781 34.3848 18.3782 34.6883C18.3783 34.9918 18.3233 35.2923 18.2161 35.5727C18.109 35.8531 17.9519 36.1079 17.7539 36.3226C17.5558 36.5372 17.3207 36.7076 17.0618 36.8238C16.803 36.94 16.5256 36.9999 16.2454 37C15.9652 37.0001 15.6878 36.9404 15.4289 36.8244C15.17 36.7084 14.9347 36.5383 14.7365 36.3237L9.00259 30.1134C8.60965 29.8474 8.30736 29.45 8.14144 28.9814C7.97552 28.5128 7.95499 27.9985 8.08296 27.5161C8.21092 27.0337 8.48043 26.6096 8.85071 26.3079Z" fill="url(#paint4_radial_9169_243841)" fill-opacity="0.48" shape-rendering="crispEdges"/>
<path d="M39.0703 22.0952C38.747 22.3587 38.3595 22.5089 37.9591 22.5289H37.8647H16.5332C16.0039 22.5289 15.4941 22.3013 15.1166 21.8924C14.7388 21.4832 14.525 20.9262 14.525 20.3435C14.525 19.7609 14.7388 19.2038 15.1166 18.7946C15.4941 18.3857 16.0039 18.1581 16.5332 18.1581H32.6385H32.9242L32.7303 17.9483L30.339 15.3606C29.961 14.9515 29.747 14.3945 29.7468 13.8116C29.7466 13.2288 29.9602 12.6716 30.338 12.2622C30.7155 11.8531 31.2253 11.6252 31.7546 11.625C32.284 11.6248 32.794 11.8523 33.1717 12.2611L38.9056 18.4714L38.9154 18.482L38.9273 18.4901C39.2971 18.7404 39.5833 19.1156 39.7407 19.5603C39.8982 20.0051 39.9178 20.4937 39.7962 20.9518C39.6747 21.4099 39.4192 21.8109 39.0703 22.0952ZM15.48 36.7103C15.2369 36.6014 15.0154 36.4414 14.8283 36.2389L9.09443 30.0286L9.08463 30.018L9.07266 30.0099C8.70293 29.7596 8.41673 29.3844 8.25927 28.9397C8.10179 28.4949 8.08224 28.0063 8.20378 27.5482C8.32531 27.0901 8.58079 26.6891 8.92967 26.4048C9.25304 26.1413 9.64046 25.9911 10.0409 25.9711H10.1353H31.4668C31.9961 25.9711 32.5059 26.1987 32.8834 26.6076C33.2612 27.0168 33.475 27.5738 33.475 28.1565C33.475 28.7391 33.2612 29.2962 32.8834 29.7054C32.5059 30.1143 31.9961 30.3419 31.4668 30.3419H15.3615H15.0758L15.2697 30.5517L17.661 33.1394C17.8481 33.3419 17.997 33.5828 18.0988 33.8487C18.2006 34.1146 18.2531 34.4 18.2532 34.6884C18.2533 34.9767 18.201 35.2621 18.0994 35.5281C17.9977 35.7941 17.849 36.0352 17.662 36.2378C17.475 36.4405 17.2536 36.6006 17.0106 36.7098C16.7677 36.8189 16.5077 36.8749 16.2454 36.875C15.983 36.8751 15.723 36.8193 15.48 36.7103Z" stroke="url(#paint5_linear_9169_243841)" stroke-width="0.25" shape-rendering="crispEdges"/>
</g>
</g>
<g filter="url(#filter2_f_9169_243841)">
<ellipse cx="34.9565" cy="14.6227" rx="9.33333" ry="3.33333" transform="rotate(45 34.9565 14.6227)" fill="url(#paint6_radial_9169_243841)"/>
</g>
</g>
<defs>
<filter id="filter0_d_9169_243841" x="-2" y="-2" width="64" height="64" filterUnits="userSpaceOnUse" color-interpolation-filters="sRGB">
<feFlood flood-opacity="0" result="BackgroundImageFix"/>
<feColorMatrix in="SourceAlpha" type="matrix" values="0 0 0 0 0 0 0 0 0 0 0 0 0 0 0 0 0 0 127 0" result="hardAlpha"/>
<feOffset dx="6" dy="6"/>
<feGaussianBlur stdDeviation="8"/>
<feColorMatrix type="matrix" values="0 0 0 0 0.541176 0 0 0 0 0.333333 0 0 0 0 0.913725 0 0 0 0.16 0"/>
<feBlend mode="normal" in2="BackgroundImageFix" result="effect1_dropShadow_9169_243841"/>
<feBlend mode="normal" in="SourceGraphic" in2="effect1_dropShadow_9169_243841" result="shape"/>
</filter>
<filter id="filter1_bdi_9169_243841" x="0" y="3.5" width="48" height="41.5" filterUnits="userSpaceOnUse" color-interpolation-filters="sRGB">
<feFlood flood-opacity="0" result="BackgroundImageFix"/>
<feGaussianBlur in="BackgroundImageFix" stdDeviation="4"/>
<feComposite in2="SourceAlpha" operator="in" result="effect1_backgroundBlur_9169_243841"/>
<feColorMatrix in="SourceAlpha" type="matrix" values="0 0 0 0 0 0 0 0 0 0 0 0 0 0 0 0 0 0 127 0" result="hardAlpha"/>
<feOffset dy="4"/>
<feGaussianBlur stdDeviation="1"/>
<feComposite in2="hardAlpha" operator="out"/>
<feColorMatrix type="matrix" values="0 0 0 0 0.131489 0 0 0 0 0.0782986 0 0 0 0 0.229167 0 0 0 0.16 0"/>
<feBlend mode="normal" in2="effect1_backgroundBlur_9169_243841" result="effect2_dropShadow_9169_243841"/>
<feBlend mode="normal" in="SourceGraphic" in2="effect2_dropShadow_9169_243841" result="shape"/>
<feColorMatrix in="SourceAlpha" type="matrix" values="0 0 0 0 0 0 0 0 0 0 0 0 0 0 0 0 0 0 127 0" result="hardAlpha"/>
<feOffset/>
<feGaussianBlur stdDeviation="1"/>
<feComposite in2="hardAlpha" operator="arithmetic" k2="-1" k3="1"/>
<feColorMatrix type="matrix" values="0 0 0 0 1 0 0 0 0 1 0 0 0 0 1 0 0 0 0.48 0"/>
<feBlend mode="normal" in2="shape" result="effect3_innerShadow_9169_243841"/>
</filter>
<filter id="filter2_f_9169_243841" x="11.9468" y="-8.38708" width="46.0195" height="46.0197" filterUnits="userSpaceOnUse" color-interpolation-filters="sRGB">
<feFlood flood-opacity="0" result="BackgroundImageFix"/>
<feBlend mode="normal" in="SourceGraphic" in2="BackgroundImageFix" result="shape"/>
<feGaussianBlur stdDeviation="8" result="effect1_foregroundBlur_9169_243841"/>
</filter>
<linearGradient id="paint0_linear_9169_243841" x1="24" y1="0" x2="24" y2="48" gradientUnits="userSpaceOnUse">
<stop stop-color="white" stop-opacity="0.24"/>
<stop offset="1" stop-color="white" stop-opacity="0"/>
</linearGradient>
<radialGradient id="paint1_radial_9169_243841" cx="0" cy="0" r="1" gradientUnits="userSpaceOnUse" gradientTransform="translate(14.5795 30.3303) rotate(135) scale(3.88689 8767.98)">
<stop stop-color="#3F7DD9"/>
<stop offset="1" stop-color="#8A53EF"/>
</radialGradient>
<radialGradient id="paint2_radial_9169_243841" cx="0" cy="0" r="1" gradientUnits="userSpaceOnUse" gradientTransform="translate(36.2992 15.4837) rotate(135) scale(3.88689 8822.5)">
<stop stop-color="#3F7DD9"/>
<stop offset="1" stop-color="#8A53EF"/>
</radialGradient>
<radialGradient id="paint3_radial_9169_243841" cx="0" cy="0" r="1" gradientUnits="userSpaceOnUse" gradientTransform="translate(8 24.2496) scale(32 17479.9)">
<stop stop-color="#3F7DD9"/>
<stop offset="1" stop-color="#8A53EF"/>
</radialGradient>
<radialGradient id="paint4_radial_9169_243841" cx="0" cy="0" r="1" gradientUnits="userSpaceOnUse" gradientTransform="translate(8 24.2496) scale(32 17479.9)">
<stop stop-color="#3F7DD9"/>
<stop offset="1" stop-color="#8A53EF"/>
</radialGradient>
<linearGradient id="paint5_linear_9169_243841" x1="14.5819" y1="16.1604" x2="26.4609" y2="41.9014" gradientUnits="userSpaceOnUse">
<stop offset="0.331091" stop-color="white" stop-opacity="0.26"/>
<stop offset="1" stop-color="#8A53EF" stop-opacity="0.16"/>
</linearGradient>
<radialGradient id="paint6_radial_9169_243841" cx="0" cy="0" r="1" gradientUnits="userSpaceOnUse" gradientTransform="translate(25.6232 14.6226) scale(18.6667 4569.92)">
<stop stop-color="#3F7DD9"/>
<stop offset="1" stop-color="#8A53EF"/>
</radialGradient>
<clipPath id="clip0_9169_243841">
<rect width="48" height="48" rx="9" fill="white"/>
</clipPath>
</defs>
</svg>
