<svg width="48" height="48" viewBox="0 0 48 48" fill="none" xmlns="http://www.w3.org/2000/svg">
<g clip-path="url(#clip0_9169_256804)">
<path d="M0.25 9.33333C0.25 4.31675 4.31675 0.25 9.33333 0.25H38.6667C43.6833 0.25 47.75 4.31675 47.75 9.33333V38.6667C47.75 43.6833 43.6833 47.75 38.6667 47.75H9.33333C4.31675 47.75 0.25 43.6833 0.25 38.6667V9.33333Z" fill="#211C25" stroke="url(#paint0_linear_9169_256804)" stroke-width="0.5"/>
<g filter="url(#filter0_d_9169_256804)">
<path d="M29.0324 19.5452C29.3674 18.7634 30.4683 18.7634 30.8034 19.5452L32.9058 24.4509C33.0477 24.7819 33.36 25.0066 33.717 25.0343L39.1086 25.4538C39.9737 25.5211 40.3174 26.6146 39.6483 27.1708L35.5936 30.5417C35.3076 30.7794 35.1823 31.1613 35.2714 31.5238L36.5193 36.6009C36.7245 37.4358 35.83 38.1073 35.0939 37.671L30.4072 34.8928C30.1052 34.7138 29.7306 34.7138 29.4286 34.8928L24.7419 37.671C24.0057 38.1073 23.1112 37.4358 23.3165 36.6009L24.5643 31.5238C24.6534 31.1613 24.5282 30.7794 24.2422 30.5417L20.1875 27.1708C19.5184 26.6146 19.8621 25.5211 20.7272 25.4538L26.1188 25.0343C26.4758 25.0066 26.7881 24.7819 26.93 24.4509L29.0324 19.5452Z" fill="url(#paint1_radial_9169_256804)"/>
<g filter="url(#filter1_bi_9169_256804)">
<path d="M20.7954 8.80449C21.2616 7.73184 22.7932 7.73184 23.2594 8.80449L26.1845 15.5356C26.3819 15.9898 26.8164 16.298 27.3131 16.3361L34.8145 16.9117C36.018 17.0041 36.4963 18.5044 35.5654 19.2676L29.924 23.8927C29.5261 24.2189 29.3519 24.7429 29.4758 25.2402L31.212 32.2065C31.4975 33.3521 30.253 34.2735 29.2288 33.6747L22.7081 29.8628C22.288 29.6172 21.7668 29.6172 21.3467 29.8628L14.826 33.6747C13.8018 34.2735 12.5573 33.3521 12.8428 32.2065L14.579 25.2402C14.7029 24.7429 14.5287 24.2189 14.1308 23.8927L8.4894 19.2676C7.55853 18.5044 8.03675 17.0041 9.24031 16.9117L16.7417 16.3361C17.2384 16.298 17.6729 15.9898 17.8703 15.5356L20.7954 8.80449Z" fill="url(#paint2_radial_9169_256804)" fill-opacity="0.32"/>
<path d="M21.0247 8.90413C21.4037 8.03196 22.6511 8.03196 23.0301 8.90413L25.9552 15.6352C26.1898 16.175 26.7056 16.5402 27.2939 16.5854L34.7954 17.161C35.7773 17.2363 36.161 18.456 35.4069 19.0743L29.7655 23.6994C29.2933 24.0866 29.0858 24.7091 29.2332 25.3007L30.9694 32.2669C31.2002 33.1931 30.1924 33.9485 29.355 33.4589L22.8343 29.647C22.3362 29.3558 21.7186 29.3558 21.2205 29.647L14.6998 33.4589C13.8624 33.9485 12.8545 33.1931 13.0854 32.2669L14.8216 25.3007C14.969 24.7091 14.7615 24.0865 14.2893 23.6994L8.64791 19.0743C7.89375 18.456 8.27751 17.2363 9.25943 17.161L16.7608 16.5854C17.3492 16.5402 17.865 16.175 18.0996 15.6352L21.0247 8.90413Z" stroke="url(#paint3_linear_9169_256804)" stroke-width="0.5"/>
</g>
<mask id="mask0_9169_256804" style="mask-type:alpha" maskUnits="userSpaceOnUse" x="8" y="8" width="29" height="26">
<path d="M20.9101 8.85431C21.3326 7.8819 22.7221 7.8819 23.1447 8.85431L26.0698 15.5854C26.2858 16.0824 26.761 16.4191 27.3035 16.4607L34.8049 17.0363C35.8977 17.1202 36.3287 18.4802 35.4861 19.1709L29.8448 23.796C29.4097 24.1527 29.2188 24.726 29.3545 25.2705L31.0907 32.2367C31.3489 33.2726 30.2227 34.111 29.2919 33.5668L22.7712 29.7549C22.3121 29.4865 21.7427 29.4865 21.2836 29.7549L14.7629 33.5668C13.8321 34.111 12.7059 33.2726 12.9641 32.2367L14.7003 25.2705C14.836 24.726 14.6451 24.1527 14.21 23.796L8.56866 19.1709C7.72614 18.4802 8.15713 17.1202 9.24987 17.0363L16.7513 16.4607C17.2938 16.4191 17.769 16.0824 17.985 15.5854L20.9101 8.85431Z" fill="url(#paint4_radial_9169_256804)" fill-opacity="0.48" stroke="url(#paint5_linear_9169_256804)" stroke-width="0.25"/>
</mask>
<g mask="url(#mask0_9169_256804)">
<path d="M6.68482 18.9602C6.68699 12.1804 12.242 6.68494 19.0941 6.68494C23.1651 6.68494 26.7782 8.62474 29.041 11.6212C27.3847 13.8269 24.3938 16.4653 18.994 18.8653C13.6377 21.2459 10.6122 23.822 8.9032 25.9726C7.50546 23.9862 6.68565 21.5719 6.68482 18.9682C6.68481 18.9669 6.68481 18.9655 6.68481 18.9642C6.68481 18.9629 6.68481 18.9615 6.68482 18.9602Z" fill="white" fill-opacity="0.04"/>
</g>
<g filter="url(#filter2_bi_9169_256804)">
<path d="M21.681 18.2867C21.8121 18.014 22.2429 18.014 22.374 18.2867L23.1967 19.998C23.2522 20.1135 23.3744 20.1918 23.5141 20.2015L25.6239 20.3478C25.9624 20.3713 26.0968 20.7528 25.835 20.9468L24.2484 22.1227C24.1365 22.2056 24.0875 22.3388 24.1224 22.4653L24.6107 24.2363C24.691 24.5276 24.3409 24.7619 24.0529 24.6096L22.2189 23.6405C22.1008 23.5781 21.9542 23.5781 21.836 23.6405L20.0021 24.6096C19.714 24.7619 19.364 24.5276 19.4443 24.2363L19.9326 22.4653C19.9675 22.3388 19.9185 22.2056 19.8066 22.1227L18.2199 20.9468C17.9581 20.7528 18.0926 20.3713 18.4311 20.3478L20.5409 20.2015C20.6806 20.1918 20.8028 20.1135 20.8583 19.998L21.681 18.2867Z" fill="#DBE9FF" fill-opacity="0.24"/>
</g>
</g>
<g filter="url(#filter3_f_9169_256804)">
<ellipse cx="34.9565" cy="14.6227" rx="9.33333" ry="3.33333" transform="rotate(45 34.9565 14.6227)" fill="url(#paint6_radial_9169_256804)"/>
</g>
</g>
<defs>
<filter id="filter0_d_9169_256804" x="-2" y="-2" width="64" height="64" filterUnits="userSpaceOnUse" color-interpolation-filters="sRGB">
<feFlood flood-opacity="0" result="BackgroundImageFix"/>
<feColorMatrix in="SourceAlpha" type="matrix" values="0 0 0 0 0 0 0 0 0 0 0 0 0 0 0 0 0 0 127 0" result="hardAlpha"/>
<feOffset dx="6" dy="6"/>
<feGaussianBlur stdDeviation="8"/>
<feColorMatrix type="matrix" values="0 0 0 0 0.541176 0 0 0 0 0.333333 0 0 0 0 0.913725 0 0 0 0.16 0"/>
<feBlend mode="normal" in2="BackgroundImageFix" result="effect1_dropShadow_9169_256804"/>
<feBlend mode="normal" in="SourceGraphic" in2="effect1_dropShadow_9169_256804" result="shape"/>
</filter>
<filter id="filter1_bi_9169_256804" x="0" y="0" width="44.0547" height="41.863" filterUnits="userSpaceOnUse" color-interpolation-filters="sRGB">
<feFlood flood-opacity="0" result="BackgroundImageFix"/>
<feGaussianBlur in="BackgroundImageFix" stdDeviation="4"/>
<feComposite in2="SourceAlpha" operator="in" result="effect1_backgroundBlur_9169_256804"/>
<feBlend mode="normal" in="SourceGraphic" in2="effect1_backgroundBlur_9169_256804" result="shape"/>
<feColorMatrix in="SourceAlpha" type="matrix" values="0 0 0 0 0 0 0 0 0 0 0 0 0 0 0 0 0 0 127 0" result="hardAlpha"/>
<feOffset/>
<feGaussianBlur stdDeviation="1"/>
<feComposite in2="hardAlpha" operator="arithmetic" k2="-1" k3="1"/>
<feColorMatrix type="matrix" values="0 0 0 0 1 0 0 0 0 1 0 0 0 0 1 0 0 0 0.48 0"/>
<feBlend mode="normal" in2="shape" result="effect2_innerShadow_9169_256804"/>
</filter>
<filter id="filter2_bi_9169_256804" x="14.0823" y="14.0822" width="15.8904" height="14.5753" filterUnits="userSpaceOnUse" color-interpolation-filters="sRGB">
<feFlood flood-opacity="0" result="BackgroundImageFix"/>
<feGaussianBlur in="BackgroundImageFix" stdDeviation="2"/>
<feComposite in2="SourceAlpha" operator="in" result="effect1_backgroundBlur_9169_256804"/>
<feBlend mode="normal" in="SourceGraphic" in2="effect1_backgroundBlur_9169_256804" result="shape"/>
<feColorMatrix in="SourceAlpha" type="matrix" values="0 0 0 0 0 0 0 0 0 0 0 0 0 0 0 0 0 0 127 0" result="hardAlpha"/>
<feOffset/>
<feGaussianBlur stdDeviation="1"/>
<feComposite in2="hardAlpha" operator="arithmetic" k2="-1" k3="1"/>
<feColorMatrix type="matrix" values="0 0 0 0 1 0 0 0 0 1 0 0 0 0 1 0 0 0 0.64 0"/>
<feBlend mode="normal" in2="shape" result="effect2_innerShadow_9169_256804"/>
</filter>
<filter id="filter3_f_9169_256804" x="11.9468" y="-8.38708" width="46.0195" height="46.0197" filterUnits="userSpaceOnUse" color-interpolation-filters="sRGB">
<feFlood flood-opacity="0" result="BackgroundImageFix"/>
<feBlend mode="normal" in="SourceGraphic" in2="BackgroundImageFix" result="shape"/>
<feGaussianBlur stdDeviation="8" result="effect1_foregroundBlur_9169_256804"/>
</filter>
<linearGradient id="paint0_linear_9169_256804" x1="24" y1="0" x2="24" y2="48" gradientUnits="userSpaceOnUse">
<stop stop-color="white" stop-opacity="0.24"/>
<stop offset="1" stop-color="white" stop-opacity="0"/>
</linearGradient>
<radialGradient id="paint1_radial_9169_256804" cx="0" cy="0" r="1" gradientUnits="userSpaceOnUse" gradientTransform="translate(19.8357 28.3832) scale(20.1644 12921)">
<stop stop-color="#3F7DD9"/>
<stop offset="1" stop-color="#8A53EF"/>
</radialGradient>
<radialGradient id="paint2_radial_9169_256804" cx="0" cy="0" r="1" gradientUnits="userSpaceOnUse" gradientTransform="translate(8 20.9311) scale(28.0548 17728.8)">
<stop stop-color="#3F7DD9"/>
<stop offset="1" stop-color="#8A53EF"/>
</radialGradient>
<linearGradient id="paint3_linear_9169_256804" x1="13.7704" y1="12.7267" x2="26.9269" y2="37.3703" gradientUnits="userSpaceOnUse">
<stop offset="0.331091" stop-color="white" stop-opacity="0.26"/>
<stop offset="1" stop-color="#8A53EF" stop-opacity="0.16"/>
</linearGradient>
<radialGradient id="paint4_radial_9169_256804" cx="0" cy="0" r="1" gradientUnits="userSpaceOnUse" gradientTransform="translate(8 20.9311) scale(28.0548 17728.8)">
<stop stop-color="#3F7DD9"/>
<stop offset="1" stop-color="#8A53EF"/>
</radialGradient>
<linearGradient id="paint5_linear_9169_256804" x1="13.7704" y1="12.7267" x2="26.9269" y2="37.3703" gradientUnits="userSpaceOnUse">
<stop offset="0.331091" stop-color="white" stop-opacity="0.26"/>
<stop offset="1" stop-color="#8A53EF" stop-opacity="0.16"/>
</linearGradient>
<radialGradient id="paint6_radial_9169_256804" cx="0" cy="0" r="1" gradientUnits="userSpaceOnUse" gradientTransform="translate(25.6232 14.6226) scale(18.6667 4569.92)">
<stop stop-color="#3F7DD9"/>
<stop offset="1" stop-color="#8A53EF"/>
</radialGradient>
<clipPath id="clip0_9169_256804">
<rect width="48" height="48" rx="9" fill="white"/>
</clipPath>
</defs>
</svg>
