<svg width="48" height="48" viewBox="0 0 48 48" fill="none" xmlns="http://www.w3.org/2000/svg">
<g clip-path="url(#clip0_9169_244740)">
<path d="M0.25 9.33333C0.25 4.31675 4.31675 0.25 9.33333 0.25H38.6667C43.6833 0.25 47.75 4.31675 47.75 9.33333V38.6667C47.75 43.6833 43.6833 47.75 38.6667 47.75H9.33333C4.31675 47.75 0.25 43.6833 0.25 38.6667V9.33333Z" fill="#211C25" stroke="url(#paint0_linear_9169_244740)" stroke-width="0.5"/>
<g filter="url(#filter0_d_9169_244740)">
<path d="M29.6091 23.0564C29.9509 22.7976 30.3418 22.5116 30.7556 22.2087L30.7571 22.2076C33.8138 19.9708 38 16.9074 38 13.6875V11.75C38 9.68225 36.0676 8 33.6923 8H14.3077C11.9324 8 10 9.68225 10 11.75V13.6875C10 16.9073 14.1859 19.9706 17.2426 22.2075L17.2444 22.2088C17.6582 22.5116 18.049 22.7976 18.3909 23.0565C18.716 23.3028 18.9026 23.6467 18.9026 24.0001C18.9026 24.3534 18.7161 24.6972 18.3909 24.9436C18.049 25.2025 17.658 25.4886 17.2441 25.7915L17.2428 25.7924C14.1862 28.0292 10 31.0926 10 34.3125V36.25C10 38.3177 11.9324 40 14.3077 40H33.6923C36.0676 40 38 38.3177 38 36.25C38 35.5596 37.3571 35 36.5641 35C35.7711 35 35.1282 35.5596 35.1282 36.25C35.1282 36.9393 34.4841 37.5 33.6923 37.5H14.3077C13.5159 37.5 12.8718 36.9393 12.8718 36.25V34.3125C12.8718 32.2572 16.764 29.4088 19.09 27.7065C19.514 27.3963 19.9152 27.1027 20.2758 26.8296C21.2281 26.1083 21.7744 25.0769 21.7744 24C21.7744 22.923 21.2281 21.8916 20.2759 21.1703C19.9156 20.8975 19.5155 20.6047 19.092 20.2948L19.0908 20.2939C16.7648 18.5918 12.8718 15.743 12.8718 13.6875V11.75C12.8718 11.0608 13.5159 10.5 14.3077 10.5H33.6923C34.4841 10.5 35.1282 11.0608 35.1282 11.75V13.6875C35.1282 15.7429 31.2355 18.5916 28.9096 20.2937C28.4856 20.6039 28.0848 20.8972 27.7242 21.1703C26.7719 21.8916 26.2256 22.923 26.2256 24C26.2256 25.077 26.7719 26.1084 27.7241 26.8296C28.1 27.1142 28.5187 27.4193 28.962 27.7424C30.359 28.7603 31.9423 29.9141 33.192 31.1416C33.718 31.6582 34.6255 31.7058 35.219 31.2479C35.8125 30.7901 35.8672 30.0001 35.3412 29.4834C33.95 28.1169 32.2071 26.8468 30.8064 25.8262L30.8053 25.8253L30.7955 25.8181C30.3666 25.5056 29.9615 25.2104 29.6091 24.9435C29.284 24.6972 29.0974 24.3533 29.0974 24C29.0974 23.6467 29.284 23.3027 29.6091 23.0564Z" fill="url(#paint1_radial_9169_244740)"/>
<path d="M29.6091 23.0564C29.9509 22.7976 30.3418 22.5116 30.7556 22.2087L30.7571 22.2076C33.8138 19.9708 38 16.9074 38 13.6875V11.75C38 9.68225 36.0676 8 33.6923 8H14.3077C11.9324 8 10 9.68225 10 11.75V13.6875C10 16.9073 14.1859 19.9706 17.2426 22.2075L17.2444 22.2088C17.6582 22.5116 18.049 22.7976 18.3909 23.0565C18.716 23.3028 18.9026 23.6467 18.9026 24.0001C18.9026 24.3534 18.7161 24.6972 18.3909 24.9436C18.049 25.2025 17.658 25.4886 17.2441 25.7915L17.2428 25.7924C14.1862 28.0292 10 31.0926 10 34.3125V36.25C10 38.3177 11.9324 40 14.3077 40H33.6923C36.0676 40 38 38.3177 38 36.25C38 35.5596 37.3571 35 36.5641 35C35.7711 35 35.1282 35.5596 35.1282 36.25C35.1282 36.9393 34.4841 37.5 33.6923 37.5H14.3077C13.5159 37.5 12.8718 36.9393 12.8718 36.25V34.3125C12.8718 32.2572 16.764 29.4088 19.09 27.7065C19.514 27.3963 19.9152 27.1027 20.2758 26.8296C21.2281 26.1083 21.7744 25.0769 21.7744 24C21.7744 22.923 21.2281 21.8916 20.2759 21.1703C19.9156 20.8975 19.5155 20.6047 19.092 20.2948L19.0908 20.2939C16.7648 18.5918 12.8718 15.743 12.8718 13.6875V11.75C12.8718 11.0608 13.5159 10.5 14.3077 10.5H33.6923C34.4841 10.5 35.1282 11.0608 35.1282 11.75V13.6875C35.1282 15.7429 31.2355 18.5916 28.9096 20.2937C28.4856 20.6039 28.0848 20.8972 27.7242 21.1703C26.7719 21.8916 26.2256 22.923 26.2256 24C26.2256 25.077 26.7719 26.1084 27.7241 26.8296C28.1 27.1142 28.5187 27.4193 28.962 27.7424C30.359 28.7603 31.9423 29.9141 33.192 31.1416C33.718 31.6582 34.6255 31.7058 35.219 31.2479C35.8125 30.7901 35.8672 30.0001 35.3412 29.4834C33.95 28.1169 32.2071 26.8468 30.8064 25.8262L30.8053 25.8253L30.7955 25.8181C30.3666 25.5056 29.9615 25.2104 29.6091 24.9435C29.284 24.6972 29.0974 24.3533 29.0974 24C29.0974 23.6467 29.284 23.3027 29.6091 23.0564Z" fill="url(#paint2_radial_9169_244740)"/>
<g filter="url(#filter1_bdi_9169_244740)">
<path d="M17.2569 32.9925L17.2384 33.0097C17.2326 33.0152 17.2268 33.0207 17.221 33.0261C16.4946 33.7064 17.0514 34.8125 18.1187 34.8125H29.8813C30.9486 34.8125 31.5054 33.7064 30.7792 33.0261C30.7672 33.015 30.7552 33.0037 30.7432 32.9925C29.7043 32.0256 25.9338 29.246 25.5231 28.9432C25.5021 28.9277 25.4899 28.9187 25.4873 28.9168C24.6314 28.2777 23.3687 28.2777 22.5128 28.9168C22.5104 28.9186 22.4996 28.9265 22.4811 28.9402L22.4801 28.941C22.0858 29.2316 18.2985 32.0231 17.2569 32.9925Z" fill="url(#paint3_radial_9169_244740)" fill-opacity="0.48" shape-rendering="crispEdges"/>
<path d="M25.5838 19.5529C25.5649 19.5671 25.5539 19.5753 25.5515 19.5772C24.6999 20.2242 23.4437 20.2242 22.5921 19.5772C22.5897 19.5753 22.5786 19.5671 22.5597 19.5529C22.377 19.4158 21.4568 18.7256 20.4225 17.9289C19.528 17.24 20.0787 15.9375 21.2645 15.9375H26.879C28.0649 15.9375 28.6155 17.24 27.7211 17.9289C26.6868 18.7256 25.7666 19.4158 25.5838 19.5529Z" fill="url(#paint4_radial_9169_244740)" fill-opacity="0.48" shape-rendering="crispEdges"/>
<path d="M17.3064 33.1173L17.3068 33.117L17.3237 33.1012L17.3237 33.1011L17.3421 33.084C18.3769 32.1209 22.1558 29.3353 22.5543 29.0416C22.5543 29.0416 22.5543 29.0416 22.5543 29.0416L22.5553 29.0408L22.5553 29.0408L22.5876 29.017L22.5876 29.017C23.3991 28.411 24.6009 28.411 25.4125 29.017L25.449 29.0439L25.5231 28.9432L25.449 29.0439C25.8637 29.3496 29.6259 32.1234 30.658 33.084L30.6937 33.1173C31.0148 33.4181 31.0491 33.8042 30.8911 34.1183C30.7317 34.4354 30.3703 34.6875 29.8813 34.6875H18.1187C17.6297 34.6875 17.2683 34.4354 17.1089 34.1183C16.9509 33.8042 16.9853 33.4181 17.3064 33.1173ZM25.4759 19.4776L25.4759 19.4777C24.6689 20.0908 23.4746 20.0908 22.6677 19.4777L22.6677 19.4776L22.6347 19.4529L22.6346 19.4528C22.4517 19.3156 21.5322 18.6259 20.4988 17.8299L20.4988 17.8299C20.098 17.5212 20.0259 17.0846 20.1785 16.7235C20.3324 16.3597 20.72 16.0625 21.2645 16.0625H26.879C27.4235 16.0625 27.8112 16.3597 27.965 16.7235C28.1177 17.0846 28.0456 17.5212 27.6448 17.8299C26.6112 18.626 25.6916 19.3158 25.5089 19.4529L25.5088 19.4529L25.4759 19.4776Z" stroke="url(#paint5_linear_9169_244740)" stroke-width="0.25" shape-rendering="crispEdges"/>
</g>
</g>
<g filter="url(#filter2_f_9169_244740)">
<ellipse cx="34.9565" cy="14.6227" rx="9.33333" ry="3.33333" transform="rotate(45 34.9565 14.6227)" fill="url(#paint6_radial_9169_244740)"/>
</g>
</g>
<defs>
<filter id="filter0_d_9169_244740" x="-2" y="-2" width="64" height="64" filterUnits="userSpaceOnUse" color-interpolation-filters="sRGB">
<feFlood flood-opacity="0" result="BackgroundImageFix"/>
<feColorMatrix in="SourceAlpha" type="matrix" values="0 0 0 0 0 0 0 0 0 0 0 0 0 0 0 0 0 0 127 0" result="hardAlpha"/>
<feOffset dx="6" dy="6"/>
<feGaussianBlur stdDeviation="8"/>
<feColorMatrix type="matrix" values="0 0 0 0 0.541176 0 0 0 0 0.333333 0 0 0 0 0.913725 0 0 0 0.16 0"/>
<feBlend mode="normal" in2="BackgroundImageFix" result="effect1_dropShadow_9169_244740"/>
<feBlend mode="normal" in="SourceGraphic" in2="effect1_dropShadow_9169_244740" result="shape"/>
</filter>
<filter id="filter1_bdi_9169_244740" x="8.89233" y="7.9375" width="30.2153" height="34.875" filterUnits="userSpaceOnUse" color-interpolation-filters="sRGB">
<feFlood flood-opacity="0" result="BackgroundImageFix"/>
<feGaussianBlur in="BackgroundImageFix" stdDeviation="4"/>
<feComposite in2="SourceAlpha" operator="in" result="effect1_backgroundBlur_9169_244740"/>
<feColorMatrix in="SourceAlpha" type="matrix" values="0 0 0 0 0 0 0 0 0 0 0 0 0 0 0 0 0 0 127 0" result="hardAlpha"/>
<feOffset dy="4"/>
<feGaussianBlur stdDeviation="1"/>
<feComposite in2="hardAlpha" operator="out"/>
<feColorMatrix type="matrix" values="0 0 0 0 0.131489 0 0 0 0 0.0782986 0 0 0 0 0.229167 0 0 0 0.16 0"/>
<feBlend mode="normal" in2="effect1_backgroundBlur_9169_244740" result="effect2_dropShadow_9169_244740"/>
<feBlend mode="normal" in="SourceGraphic" in2="effect2_dropShadow_9169_244740" result="shape"/>
<feColorMatrix in="SourceAlpha" type="matrix" values="0 0 0 0 0 0 0 0 0 0 0 0 0 0 0 0 0 0 127 0" result="hardAlpha"/>
<feOffset/>
<feGaussianBlur stdDeviation="1"/>
<feComposite in2="hardAlpha" operator="arithmetic" k2="-1" k3="1"/>
<feColorMatrix type="matrix" values="0 0 0 0 1 0 0 0 0 1 0 0 0 0 1 0 0 0 0.48 0"/>
<feBlend mode="normal" in2="shape" result="effect3_innerShadow_9169_244740"/>
</filter>
<filter id="filter2_f_9169_244740" x="11.9468" y="-8.38708" width="46.0195" height="46.0197" filterUnits="userSpaceOnUse" color-interpolation-filters="sRGB">
<feFlood flood-opacity="0" result="BackgroundImageFix"/>
<feBlend mode="normal" in="SourceGraphic" in2="BackgroundImageFix" result="shape"/>
<feGaussianBlur stdDeviation="8" result="effect1_foregroundBlur_9169_244740"/>
</filter>
<linearGradient id="paint0_linear_9169_244740" x1="24" y1="0" x2="24" y2="48" gradientUnits="userSpaceOnUse">
<stop stop-color="white" stop-opacity="0.24"/>
<stop offset="1" stop-color="white" stop-opacity="0"/>
</linearGradient>
<radialGradient id="paint1_radial_9169_244740" cx="0" cy="0" r="1" gradientUnits="userSpaceOnUse" gradientTransform="translate(10 23.9994) scale(28 21935.6)">
<stop stop-color="#3F7DD9"/>
<stop offset="1" stop-color="#8A53EF"/>
</radialGradient>
<radialGradient id="paint2_radial_9169_244740" cx="0" cy="0" r="1" gradientUnits="userSpaceOnUse" gradientTransform="translate(10 23.9994) scale(28 21935.6)">
<stop stop-color="#3F7DD9"/>
<stop offset="1" stop-color="#8A53EF"/>
</radialGradient>
<radialGradient id="paint3_radial_9169_244740" cx="0" cy="0" r="1" gradientUnits="userSpaceOnUse" gradientTransform="translate(16.8923 25.3747) scale(14.2154 12938.6)">
<stop stop-color="#3F7DD9"/>
<stop offset="1" stop-color="#8A53EF"/>
</radialGradient>
<radialGradient id="paint4_radial_9169_244740" cx="0" cy="0" r="1" gradientUnits="userSpaceOnUse" gradientTransform="translate(16.8923 25.3747) scale(14.2154 12938.6)">
<stop stop-color="#3F7DD9"/>
<stop offset="1" stop-color="#8A53EF"/>
</radialGradient>
<linearGradient id="paint5_linear_9169_244740" x1="19.8162" y1="19.3871" x2="30.9841" y2="33.9108" gradientUnits="userSpaceOnUse">
<stop offset="0.331091" stop-color="white" stop-opacity="0.26"/>
<stop offset="1" stop-color="#8A53EF" stop-opacity="0.16"/>
</linearGradient>
<radialGradient id="paint6_radial_9169_244740" cx="0" cy="0" r="1" gradientUnits="userSpaceOnUse" gradientTransform="translate(25.6232 14.6226) scale(18.6667 4569.92)">
<stop stop-color="#3F7DD9"/>
<stop offset="1" stop-color="#8A53EF"/>
</radialGradient>
<clipPath id="clip0_9169_244740">
<rect width="48" height="48" rx="9" fill="white"/>
</clipPath>
</defs>
</svg>
