<svg width="150" height="32" viewBox="0 0 150 32" fill="none" xmlns="http://www.w3.org/2000/svg">
<path d="M61.2 32H3.648C1.632 32 0 30.3326 0 28.2728V3.7272C0 1.66743 1.632 0 3.648 0H61.2V32Z" fill="url(#paint0_linear_895_34181)"/>
<path d="M146.352 32H61.2V0H146.352C148.368 0 150 1.66743 150 3.7272V28.2851C150 30.3326 148.368 32 146.352 32Z" fill="url(#paint1_linear_895_34181)"/>
<path d="M18.6958 19.4085C18.6958 20.6223 18.5278 21.5908 18.2038 22.3142C17.8798 23.0376 17.4478 23.5893 16.9318 23.9571C16.4158 24.3372 15.8398 24.5824 15.2038 24.705C14.5678 24.8276 13.9438 24.8889 13.3318 24.8889H7.2478V7.24602H13.9438C14.8078 7.24602 15.5038 7.39315 16.0558 7.6874C16.6078 7.98165 17.0398 8.36173 17.3638 8.83989C17.6878 9.31805 17.9038 9.84525 18.0238 10.4215C18.1438 10.9977 18.1918 11.574 18.1798 12.1257C18.1558 13.7318 17.7598 14.823 16.9918 15.3993C17.4958 15.6445 17.9038 16.0859 18.2278 16.7234C18.5398 17.3732 18.6958 18.2682 18.6958 19.4085ZM14.9518 12.187C14.9518 11.6353 14.8918 11.2184 14.7598 10.9487C14.6278 10.679 14.3758 10.5441 13.9918 10.5441H10.5238V14.0629H13.6798C14.1718 14.0629 14.4958 13.8912 14.6758 13.5602C14.8558 13.2169 14.9518 12.751 14.9518 12.187ZM15.4078 19.433C15.4078 18.9426 15.3718 18.5502 15.2878 18.2682C15.2158 17.9862 15.1078 17.7533 14.9878 17.5939C14.8678 17.4345 14.7358 17.3242 14.5798 17.2751C14.4358 17.2261 14.2918 17.2016 14.1478 17.2016H10.5238V21.4315H13.8718C14.4478 21.4315 14.8558 21.2721 15.0718 20.9656C15.2998 20.6468 15.4078 20.1441 15.4078 19.433ZM31.8238 24.8889H20.8558V7.24602H31.6318V10.6667H24.1198V13.9158H31.0318V17.3364H24.1198V21.4437H31.8238V24.8889ZM44.5198 19.6782C44.5198 23.3931 42.5638 25.2567 38.6518 25.2567C36.7558 25.2567 35.3038 24.705 34.3078 23.6138C33.3118 22.5104 32.8198 20.8184 32.8198 18.5257H35.9998C36.0238 19.0284 36.0838 19.5066 36.1678 19.9234C36.2518 20.3525 36.4078 20.7081 36.6238 21.0146C36.8398 21.3211 37.1158 21.5541 37.4638 21.7257C37.8118 21.8974 38.2558 21.9832 38.7958 21.9832C39.6838 21.9832 40.3198 21.8115 40.7158 21.4805C41.1118 21.1495 41.3158 20.4874 41.3158 19.5311C41.3158 19.0284 41.2318 18.6606 41.0758 18.4399C40.9198 18.2192 40.6678 18.0476 40.3318 17.9127C39.9478 17.7656 39.4798 17.6552 38.9398 17.5694C38.3998 17.4836 37.7758 17.3487 37.0798 17.1525C36.5398 16.9931 36.0358 16.8092 35.5798 16.6008C35.1238 16.3924 34.7158 16.1104 34.3678 15.7303C34.0198 15.3502 33.7558 14.8598 33.5638 14.259C33.3718 13.6583 33.2758 12.8613 33.2758 11.8805C33.2758 11.1571 33.3598 10.5318 33.5398 10.0046C33.7078 9.47744 33.9478 9.0238 34.2358 8.65598C34.5238 8.28817 34.8598 7.99391 35.2318 7.76096C35.6158 7.52801 35.9998 7.35636 36.3958 7.23376C36.7918 7.11115 37.1878 7.02533 37.5838 6.98855C37.9798 6.95177 38.3518 6.92725 38.6758 6.92725C39.8038 6.92725 40.7278 7.11115 41.4238 7.46671C42.1318 7.82227 42.6718 8.30043 43.0678 8.86441C43.4638 9.44066 43.7278 10.0905 43.8598 10.8016C43.9918 11.5249 44.0638 12.2361 44.0638 12.9349H40.9438C40.8958 12.6407 40.8598 12.3096 40.8238 11.9541C40.7998 11.5985 40.7158 11.2797 40.5958 11.0223C40.4878 10.7893 40.3078 10.5809 40.0318 10.397C39.7558 10.2131 39.3238 10.115 38.7358 10.115C38.2798 10.115 37.8958 10.1518 37.5958 10.2376C37.2958 10.3234 37.0678 10.446 36.8998 10.6054C36.7318 10.7648 36.6118 10.9855 36.5518 11.243C36.4918 11.5004 36.4558 11.8192 36.4558 12.1748C36.4558 12.6039 36.5518 12.9104 36.7318 13.0943C36.9118 13.2782 37.2598 13.4376 37.7638 13.5725C38.2918 13.7196 38.8198 13.8422 39.3598 13.9403C39.8998 14.0384 40.4158 14.161 40.9198 14.2958C41.4238 14.4307 41.8918 14.6146 42.3238 14.8476C42.7558 15.0805 43.1398 15.387 43.4638 15.7916C43.7878 16.1962 44.0518 16.7112 44.2318 17.3364C44.4358 17.9617 44.5198 18.7464 44.5198 19.6782ZM56.4358 10.6544H52.4878V24.8889H49.2118V10.6544H45.2638V7.24602H56.4238V10.6544H56.4358Z" fill="white"/>
<path d="M77.604 18.4033C77.532 19.3228 77.376 20.1933 77.136 21.027C76.896 21.8607 76.548 22.5841 76.092 23.1971C75.636 23.8224 75.036 24.3128 74.304 24.6807C73.572 25.0485 72.684 25.2324 71.64 25.2324C70.44 25.2324 69.42 25.024 68.58 24.6071C67.74 24.1902 67.068 23.5772 66.54 22.7925C66.024 21.9956 65.64 21.0148 65.412 19.85C65.172 18.6853 65.052 17.3611 65.052 15.8653C65.052 14.4922 65.184 13.2416 65.436 12.1381C65.688 11.0347 66.084 10.0906 66.624 9.30595C67.164 8.53354 67.848 7.93277 68.664 7.51591C69.492 7.09905 70.476 6.89062 71.616 6.89062C72.768 6.89062 73.704 7.07453 74.436 7.44235C75.168 7.81017 75.744 8.28833 76.188 8.87683C76.62 9.46534 76.932 10.1397 77.124 10.8876C77.316 11.6355 77.448 12.3956 77.532 13.1435H74.436C74.364 12.7512 74.28 12.3711 74.184 12.0155C74.1 11.66 73.956 11.3412 73.776 11.0837C73.596 10.8263 73.344 10.6178 73.032 10.4584C72.72 10.2991 72.3 10.2255 71.772 10.2255C71.136 10.2255 70.596 10.3358 70.164 10.5443C69.732 10.7527 69.372 11.096 69.108 11.5741C68.844 12.0523 68.652 12.6776 68.532 13.45C68.412 14.2224 68.364 15.1787 68.364 16.319C68.364 17.4715 68.448 18.391 68.604 19.1144C68.76 19.8255 68.988 20.3895 69.276 20.7818C69.564 21.1864 69.912 21.4561 70.332 21.6033C70.752 21.7504 71.208 21.824 71.724 21.824C72.252 21.824 72.66 21.7381 72.972 21.5787C73.284 21.4194 73.524 21.1864 73.704 20.8799C73.884 20.5734 74.028 20.2178 74.124 19.801C74.232 19.3841 74.328 18.9182 74.436 18.391H77.604V18.4033ZM90.744 24.8891H87.48V17.2753H82.56V24.8891H79.296V7.24618H82.56V13.8301H87.48V7.24618H90.744V24.8891ZM104.508 24.8891H101.088L100.188 21.2477H95.844L94.956 24.8891H91.656L96.384 7.24618H99.624L104.508 24.8891ZM99.372 17.9619L98.028 12.2853L96.648 17.9619H99.372ZM114.096 24.8891L109.104 14.1489V24.8891H105.84V7.24618H109.044L114.072 17.9128V7.24618H117.312V24.8891H114.096ZM132.036 24.8891H129.384V23.0991C129.192 23.5282 128.952 23.8715 128.664 24.1412C128.376 24.4109 128.064 24.6194 127.728 24.7787C127.392 24.9381 127.032 25.0362 126.672 25.0975C126.312 25.1588 125.952 25.1833 125.604 25.1833C124.404 25.1833 123.396 24.9504 122.592 24.4722C121.788 23.9941 121.14 23.3443 120.648 22.5105C120.156 21.6768 119.808 20.6837 119.604 19.5435C119.4 18.4033 119.292 17.1772 119.292 15.8653C119.292 9.8822 121.488 6.89062 125.892 6.89062C126.984 6.89062 127.896 7.07453 128.652 7.43009C129.408 7.78564 130.02 8.27607 130.488 8.86457C130.956 9.46534 131.292 10.1519 131.496 10.9121C131.7 11.6845 131.808 12.4814 131.808 13.2906H128.472C128.472 12.9351 128.448 12.5673 128.4 12.1872C128.352 11.8071 128.244 11.4761 128.076 11.1818C127.908 10.8876 127.644 10.6423 127.296 10.4584C126.948 10.2745 126.48 10.1764 125.88 10.1764C125.28 10.1764 124.764 10.2745 124.356 10.483C123.936 10.6914 123.6 11.0102 123.336 11.4515C123.072 11.8929 122.88 12.4692 122.76 13.168C122.64 13.8669 122.58 14.7128 122.58 15.6937C122.58 16.7726 122.628 17.7044 122.736 18.4768C122.844 19.2492 123.024 19.8745 123.288 20.3404C123.552 20.8186 123.9 21.1619 124.332 21.3826C124.764 21.6033 125.316 21.7136 125.988 21.7136C126.372 21.7136 126.732 21.6523 127.08 21.5297C127.428 21.4071 127.728 21.2109 127.98 20.9535C128.232 20.696 128.436 20.3527 128.58 19.9481C128.724 19.5435 128.784 19.0531 128.772 18.4768H125.7V15.2278H132.06V24.8891H132.036ZM145.032 24.8891H134.088V7.24618H144.84V10.6669H137.352V13.9159H144.24V17.3366H137.352V21.4439H145.032V24.8891Z" fill="#363636"/>
<defs>
<linearGradient id="paint0_linear_895_34181" x1="30.6004" y1="32" x2="30.6004" y2="0" gradientUnits="userSpaceOnUse">
<stop stop-color="#1C1C1C"/>
<stop offset="1" stop-color="#4B4B4B"/>
</linearGradient>
<linearGradient id="paint1_linear_895_34181" x1="105.6" y1="32" x2="105.6" y2="0" gradientUnits="userSpaceOnUse">
<stop stop-color="#BCBCBC"/>
<stop offset="1" stop-color="#F3F3F3"/>
</linearGradient>
</defs>
</svg>
