<svg width="150" height="32" viewBox="0 0 150 32" fill="none" xmlns="http://www.w3.org/2000/svg">
<path d="M43.9857 18.4237C44.026 18.6965 43.9742 18.9693 43.9166 19.2193C43.8188 19.6455 43.7842 20.0945 43.5828 20.498C43.5885 20.7082 43.4849 20.8901 43.4101 21.0776C43.3353 21.2538 43.2777 21.4413 43.2086 21.6175C43.1108 21.8732 42.9784 22.1119 42.8518 22.3506C42.7309 22.5836 42.6158 22.8222 42.4891 23.0552C42.2301 23.5155 41.9366 23.9531 41.6142 24.3736C41.3725 24.6805 41.1422 24.9931 40.9005 25.2999C40.8947 25.3056 40.889 25.3113 40.8775 25.3227C40.4573 25.7546 40.0543 26.2092 39.6111 26.6184C39.2946 26.9082 38.9952 27.2151 38.6441 27.4651C38.2757 27.7322 37.9189 28.0163 37.5562 28.2777C37.1073 28.6017 36.6353 28.8801 36.1863 29.204C35.9273 29.3916 35.6222 29.5109 35.3517 29.67C34.7703 30.0167 34.166 30.3122 33.5616 30.6077C33.245 30.7611 32.9169 30.8918 32.5888 31.0339C32.2089 31.1987 31.8175 31.3408 31.4319 31.4942C31.1095 31.6249 30.7814 31.7215 30.4591 31.8522C30.4015 31.875 30.3382 31.892 30.2806 31.9091C30.2806 31.9432 30.2806 31.9716 30.2806 32C30.1655 32 30.0504 32 29.9353 32C29.918 31.983 29.9065 31.9545 29.8892 31.9432C29.7223 31.8863 29.5554 31.8295 29.3885 31.7727C28.9913 31.6249 28.5884 31.4885 28.197 31.3237C27.8862 31.193 27.5753 31.068 27.2645 30.9373C26.9191 30.7952 26.5911 30.6191 26.2457 30.4827C25.8255 30.3122 25.4398 30.0735 25.0369 29.8633C24.9679 29.8292 24.8873 29.8007 24.8182 29.761C24.5419 29.6018 24.2656 29.437 23.9893 29.2666C23.713 29.1018 23.4368 28.9313 23.1662 28.7551C22.8496 28.5448 22.5388 28.3289 22.228 28.1129C22.0496 27.9879 21.8769 27.8515 21.7042 27.7095C21.543 27.5788 21.3991 27.4367 21.238 27.3117C20.9329 27.0787 20.6509 26.8229 20.3746 26.5672C20.1098 26.3172 19.8565 26.0614 19.6033 25.8057C19.563 25.7659 19.5169 25.7318 19.4824 25.6864C19.2637 25.3681 18.9643 25.1124 18.7456 24.7942C18.5557 24.5157 18.3312 24.2657 18.1297 23.9929C17.9973 23.811 17.888 23.6178 17.7728 23.4303C17.6577 23.2428 17.5369 23.0552 17.4448 22.8563C17.3527 22.6574 17.2433 22.4642 17.1454 22.271C16.9613 21.9016 16.7886 21.5265 16.6562 21.1344C16.5698 20.8844 16.4835 20.6343 16.4087 20.3843C16.3799 20.282 16.3741 20.174 16.3454 20.0661C16.3223 19.9638 16.2936 19.8615 16.2475 19.7649C16.2015 19.6626 16.2878 19.5376 16.1727 19.4523C16.1554 19.2705 16.1324 19.0886 16.1151 18.9068C16.1094 18.8727 16.1036 18.8386 16.1036 18.8045C16.0576 18.8045 16.0288 18.8045 16 18.8045C16 18.7079 16 18.6169 16 18.5203C16.0806 18.4465 16.0806 18.3669 16 18.293C16 12.8773 16 7.45587 16 2.04013C16.1784 1.98331 16.3569 1.92648 16.5296 1.86965C16.7713 1.79577 17.0131 1.74463 17.2548 1.67643C17.6692 1.55709 18.0894 1.47185 18.4981 1.35251C18.6363 1.31273 18.7802 1.30137 18.9183 1.2559C19.0795 1.21044 19.2464 1.17066 19.4133 1.13088C19.5342 1.10247 19.6723 1.10815 19.7875 1.06837C19.9141 1.02859 20.0637 1.05132 20.1731 0.960398C20.5185 0.943349 20.8523 0.852424 21.1919 0.789913C21.3473 0.761499 21.497 0.698988 21.6582 0.733085C21.7618 0.60238 21.9229 0.721719 22.0553 0.647842C22.1762 0.579648 22.3374 0.608062 22.4813 0.573965C22.677 0.52282 22.8842 0.528503 23.0856 0.511454C23.1144 0.511454 23.1547 0.517137 23.1662 0.500089C23.2526 0.403481 23.3677 0.471675 23.4655 0.454626C23.5634 0.431895 23.6612 0.409164 23.7591 0.397798C23.9893 0.375067 24.2368 0.397798 24.4498 0.329604C24.6973 0.244362 24.9448 0.323921 25.1866 0.238679C25.3593 0.176168 25.5722 0.204582 25.7622 0.18185C26.2227 0.130705 26.6831 0.136388 27.1436 0.113657C27.1897 0.113657 27.23 0.107974 27.276 0.102291C27.276 0.0568283 27.276 0.0284141 27.276 0C27.489 0 27.6962 0 27.9092 0C27.9149 0.0170485 27.9207 0.034097 27.9264 0.0454626C27.938 0.0284141 27.9495 0.0113657 27.9667 0C28.9855 0 29.9986 0 31.0174 0C31.0174 0.0795596 30.9541 0.0568283 30.9138 0.0568283C30.4821 0.0568283 30.0504 0.0568283 29.6187 0.0568283C29.5669 0.0568283 29.5151 0.0625111 29.4633 0.0681939C29.5554 0.113657 29.6763 0.0738767 29.7338 0.119339C29.8547 0.215947 29.9986 0.136388 30.131 0.215947C30.2461 0.284141 30.4188 0.244362 30.5627 0.284141C30.9886 0.403481 31.4088 0.551234 31.8405 0.659208C32.042 0.710353 32.2319 0.78423 32.4219 0.858107C32.8421 1.02291 33.2738 1.1593 33.6767 1.36388C34.189 1.63097 34.7243 1.8526 35.2193 2.15379C35.6971 2.44362 36.1806 2.71639 36.6295 3.05168C37.0152 3.3415 37.4066 3.62564 37.7865 3.92683C38.2757 4.31895 38.7017 4.77357 39.1507 5.21115C39.1794 5.23957 39.2082 5.2623 39.2312 5.29071C39.4442 5.61463 39.7263 5.87604 39.968 6.17723C40.1867 6.44433 40.3709 6.73415 40.5781 7.00693C40.7393 7.22287 40.8832 7.4445 41.0214 7.6775C41.194 7.97869 41.3897 8.26283 41.5567 8.5697C41.7581 8.95045 41.9423 9.33688 42.1208 9.729C42.3107 10.1552 42.4891 10.5814 42.6503 11.019C42.7366 11.2406 42.8287 11.4679 42.869 11.6953C42.9151 11.9453 43.0244 12.1669 43.0705 12.417C43.1108 12.6557 43.1971 12.8943 43.2547 13.133C43.318 13.3774 43.4043 13.6161 43.3986 13.8661C43.5137 14.0025 43.4331 14.1787 43.5022 14.3321C43.5713 14.4855 43.531 14.6787 43.577 14.8435C43.6231 14.997 43.5943 15.1618 43.6403 15.3039C43.6749 15.4061 43.6979 15.5028 43.6806 15.5937C43.6634 15.713 43.7439 15.8039 43.7439 15.9119C43.7439 16.0938 43.7152 16.2813 43.8015 16.4575C43.7612 16.8325 43.8591 17.1962 43.8591 17.5713C43.8591 17.9123 43.8591 18.2532 43.8591 18.5942C43.8591 18.6454 43.8591 18.7022 43.8591 18.7533C43.9109 18.6681 43.9109 18.5772 43.9166 18.4919C43.9339 18.4692 43.9684 18.4465 43.9857 18.4237ZM22.9245 10.3541C23.4713 10.3541 23.9893 10.3541 24.5074 10.3541C24.6628 10.3541 24.8124 10.3882 24.9506 10.4564C25.2326 10.5985 25.3996 10.8144 25.3996 11.1497C25.3938 13.9798 25.3996 16.8155 25.3996 19.6455C25.388 19.6569 25.365 19.6683 25.3593 19.6853C25.2499 19.9183 25.0772 20.0263 24.8124 20.0149C24.3923 20.0036 23.9663 20.0149 23.5461 20.0149C23.4713 20.0149 23.4022 20.0149 23.3274 20.0149C23.3274 20.1115 23.3562 20.1968 23.3216 20.2365C23.2065 20.3729 23.3389 20.5548 23.2123 20.6741C23.2526 20.8446 23.1547 20.998 23.149 21.1628C23.149 21.231 23.1087 21.2992 23.0972 21.3674C23.0856 21.4413 23.0972 21.5209 23.0799 21.5891C23.0108 21.8334 22.9475 22.0778 22.9935 22.3449C24.2138 22.3449 25.4283 22.3449 26.6659 22.3449C26.6659 23.3507 26.6659 24.3509 26.6659 25.3454C27.3048 25.3454 27.9264 25.3454 28.5711 25.3454C28.5711 24.3395 28.5711 23.3394 28.5711 22.3506C29.0604 22.3506 29.5266 22.3506 30.0044 22.3506C30.0044 23.3337 30.0044 24.3055 30.0044 25.2602C30.0619 25.3568 30.131 25.3568 30.2116 25.3568C30.7699 25.3568 31.3225 25.3568 31.8751 25.3568C31.9038 25.3284 31.9326 25.2999 31.9729 25.2602C31.9729 24.26 31.9729 23.2484 31.9729 22.2426C32.3586 22.2199 32.7327 22.1971 33.1068 22.1744C33.1356 22.1744 33.1759 22.1858 33.1932 22.1744C33.2795 22.0891 33.3889 22.1346 33.4867 22.1176C33.5846 22.1005 33.6825 22.0778 33.7803 22.0607C33.9357 22.038 34.0969 22.038 34.2408 21.9925C34.4192 21.9357 34.6034 21.8959 34.7761 21.8277C34.9603 21.7595 35.1387 21.68 35.3114 21.6004C35.6971 21.4299 36.0597 21.2083 36.3878 20.9469C36.6641 20.7253 36.8655 20.4298 37.0382 20.1115C37.2397 19.7251 37.3318 19.3159 37.4239 18.9068C37.4641 18.7192 37.4526 18.526 37.4757 18.3328C37.5159 17.9805 37.4872 17.6168 37.4872 17.2531C37.4008 17.128 37.4699 16.9746 37.4181 16.8553C37.2684 16.5086 37.1821 16.1392 36.9288 15.8324C36.6468 15.4914 36.3245 15.2186 35.9446 15.014C35.6165 14.8379 35.2481 14.7697 34.9085 14.6446C35.0869 14.5026 35.2538 14.3321 35.4495 14.2241C35.6971 14.0877 35.8525 13.8661 35.9849 13.6445C36.1633 13.3546 36.336 13.0421 36.336 12.6841C36.4281 12.559 36.382 12.417 36.3935 12.2806C36.4108 12.1442 36.4453 12.0135 36.4453 11.8771C36.4453 11.7635 36.3993 11.6498 36.3935 11.5305C36.3705 11.1611 36.2611 10.8144 36.1057 10.4848C35.9906 10.2405 35.841 10.0131 35.651 9.81993C35.5186 9.68922 35.3747 9.56988 35.2366 9.45054C34.897 9.17208 34.5056 8.99591 34.1142 8.81975C33.9703 8.75724 33.8033 8.74587 33.6479 8.70041C33.4465 8.6379 33.2507 8.5697 33.032 8.58675C32.9284 8.47878 32.7903 8.5697 32.6809 8.52424C32.5543 8.47309 32.4276 8.47309 32.301 8.47309C32.1859 8.47309 32.0765 8.47309 31.9556 8.47309C31.9556 7.42177 31.9556 6.3875 31.9556 5.35322C31.3225 5.35322 30.7066 5.35322 30.0907 5.35322C30.0619 5.38164 30.0331 5.40437 29.9928 5.43847C29.9928 6.40455 29.9928 7.37631 29.9928 8.35375C29.5151 8.35375 29.0489 8.35375 28.5596 8.35375C28.5596 7.3479 28.5596 6.34772 28.5596 5.35891C27.9207 5.35891 27.299 5.35891 26.6544 5.35891C26.6544 6.36477 26.6544 7.36494 26.6544 8.3708C25.3996 8.3708 24.1678 8.3708 22.9245 8.3708C22.9245 9.0357 22.9245 9.68354 22.9245 10.3541Z" fill="#F59B21"/>
<path d="M133.984 14.0701C133.957 14.0701 133.93 14.0701 133.904 14.0701C133.834 14.3029 133.818 14.5584 133.717 14.7799C133.717 15.1604 133.578 15.5124 133.492 15.8759C133.369 16.3869 133.278 16.9094 133.134 17.4204C133.054 17.7044 132.984 17.9996 132.931 18.2949C132.893 18.4937 132.84 18.6924 132.808 18.8968C132.765 19.1524 132.727 19.4136 132.69 19.6691C132.642 19.9701 132.631 20.2654 132.658 20.555C132.69 20.8616 132.722 21.1739 132.792 21.4806C132.856 21.7531 132.92 22.0314 132.968 22.3153C132.989 22.4346 133.011 22.5595 133.038 22.6844C132.834 22.7128 132.658 22.7412 132.481 22.7582C132.326 22.7753 132.182 22.8207 132.022 22.8264C131.872 22.8321 131.706 22.8491 131.567 22.8889C131.444 22.9229 131.321 22.8889 131.214 22.94C131.097 22.9911 130.979 22.9854 130.845 22.9911C130.68 22.7355 130.642 22.4232 130.535 22.1279C130.407 22.2131 130.279 22.2869 130.156 22.3778C129.824 22.622 129.46 22.7753 129.07 22.8889C128.717 22.9911 128.37 22.9797 128.017 22.9967C127.701 23.0138 127.396 22.9627 127.102 22.8718C126.883 22.8037 126.685 22.6674 126.482 22.5425C126.306 22.4346 126.135 22.321 125.985 22.179C125.878 22.0768 125.776 21.9633 125.691 21.8326C125.557 21.6396 125.445 21.4295 125.343 21.2137C125.242 20.9979 125.183 20.7708 125.167 20.5266C125.161 20.4414 125.129 20.3562 125.119 20.2654C125.103 20.1802 125.145 20.078 125.065 20.0042C125.06 19.9985 125.065 19.9871 125.065 19.9758C125.092 19.5953 124.953 19.2148 125.017 18.8401C125.044 18.6867 125.055 18.5334 125.065 18.3801C125.076 18.2268 125.092 18.0735 125.119 17.9201C125.194 17.5283 125.252 17.1308 125.402 16.7674C125.552 16.4096 125.707 16.0462 125.921 15.7169C126.161 15.3421 126.397 14.9673 126.696 14.6379C127.092 14.2007 127.557 13.8884 128.06 13.6158C128.396 13.4341 128.744 13.3035 129.097 13.1899C129.327 13.1161 129.578 13.082 129.819 13.048C130.081 13.0082 130.337 13.0082 130.599 13.0025C130.856 12.9968 131.118 13.0025 131.375 13.0025C131.546 13.0025 131.706 13.0593 131.872 13.0991C131.936 13.1161 132.011 13.1047 132.08 13.1161C132.145 13.1275 132.209 13.1672 132.273 13.1672C132.455 13.1672 132.62 13.2353 132.792 13.2808C132.936 13.3205 133.086 13.3489 133.225 13.4C133.374 13.4511 133.519 13.5193 133.663 13.5817C133.77 13.6328 133.877 13.6896 134 13.6839C133.984 13.8032 133.984 13.9395 133.984 14.0701ZM130.102 20.2086C130.214 19.9814 130.188 19.777 130.188 19.5783C130.188 19.5499 130.177 19.5101 130.188 19.4931C130.289 19.4022 130.22 19.2773 130.241 19.1751C130.262 19.0672 130.289 18.965 130.295 18.8571C130.3 18.6016 130.359 18.3574 130.423 18.1189C130.503 17.8066 130.578 17.4886 130.663 17.1762C130.786 16.7333 130.861 16.2847 130.99 15.8418C131.027 15.7169 131.032 15.5806 131.054 15.45C130.851 15.3705 130.669 15.3023 130.471 15.3194C130.236 15.3364 129.995 15.325 129.776 15.3875C129.599 15.4386 129.407 15.4784 129.247 15.609C129.065 15.7623 128.888 15.927 128.701 16.0633C128.482 16.2279 128.354 16.4551 128.199 16.6652C127.995 16.9491 127.851 17.2671 127.712 17.5851C127.562 17.9201 127.541 18.2892 127.477 18.6413C127.445 18.823 127.466 19.0218 127.471 19.2092C127.482 19.3909 127.493 19.5726 127.525 19.7543C127.546 19.8849 127.6 20.0042 127.642 20.1291C127.717 20.3506 127.883 20.5095 128.043 20.6629C128.166 20.7821 128.338 20.8559 128.493 20.873C128.878 20.9184 129.257 20.8616 129.605 20.6572C129.797 20.5379 129.952 20.3676 130.102 20.2086Z" fill="#9DB7CC"/>
<path d="M43.939 18.6603C43.9212 18.6833 43.8857 18.7064 43.8797 18.7352C43.8679 18.8215 43.8679 18.9136 43.8205 19C43.8205 18.9482 43.8205 18.8906 43.8205 18.8388C43.8205 18.4933 43.8205 18.1479 43.8205 17.8024C43.8205 17.4282 43.7197 17.0539 43.7612 16.6739C43.6723 16.4955 43.7079 16.3055 43.702 16.1212C43.702 16.0118 43.619 15.9197 43.6368 15.7988C43.6486 15.7009 43.6308 15.603 43.5953 15.5052C43.5479 15.3612 43.5775 15.2 43.5301 15.0388C43.4827 14.8718 43.5242 14.6761 43.4531 14.5206C43.382 14.3652 43.4649 14.1809 43.3464 14.0485C43.3464 13.7894 43.2575 13.5476 43.1983 13.3058C43.1331 13.0639 43.0501 12.8221 43.0086 12.5803C42.9612 12.327 42.8486 12.1024 42.8012 11.8491C42.7597 11.6188 42.659 11.3885 42.576 11.1639C42.4042 10.7264 42.2205 10.2888 42.0309 9.85697C41.8531 9.4597 41.6575 9.06242 41.4501 8.68242C41.2842 8.37152 41.0768 8.08364 40.899 7.77849C40.7627 7.54242 40.6087 7.31788 40.4428 7.09909C40.2294 6.82273 40.0339 6.52909 39.8146 6.25848C39.5657 5.95333 39.2754 5.68273 39.0561 5.3603C39.0324 5.33152 39.0028 5.30273 38.9732 5.2797C38.5169 4.83636 38.0724 4.37576 37.5687 3.97848C37.1836 3.67333 36.7806 3.38545 36.3776 3.09182C35.9154 2.75212 35.4177 2.48152 34.9258 2.18212C34.4162 1.87697 33.8651 1.65242 33.3377 1.38182C32.9288 1.17455 32.4785 1.03061 32.0459 0.869394C31.8503 0.794545 31.6548 0.719697 31.4474 0.667879C31.0029 0.558485 30.5703 0.408788 30.1318 0.287879C29.9896 0.247576 29.8059 0.287879 29.6874 0.218788C29.5511 0.138182 29.403 0.218788 29.2785 0.120909C29.2193 0.0748485 29.0948 0.115152 29 0.0690909C29.0533 0.0633333 29.1067 0.0575758 29.16 0.0575758C29.6044 0.0575758 30.0489 0.0575758 30.4933 0.0575758C30.5348 0.0575758 30.6 0.0806061 30.6 0C30.9555 0 31.3111 0 31.6666 0C31.6725 0.0172727 31.6785 0.0345455 31.6844 0.0460606C31.6962 0.0287879 31.7081 0.0115152 31.7259 0C31.9629 0 32.1999 0 32.437 0C32.437 0.0287879 32.437 0.0575758 32.437 0.115152C32.5673 0.115152 32.7036 0.120909 32.8399 0.115152C33.231 0.0978788 33.6103 0.218788 34.0014 0.172727C34.191 0.259091 34.4162 0.178485 34.594 0.241818C34.8251 0.322424 35.074 0.218788 35.2873 0.345455C35.2932 0.351212 35.3051 0.345455 35.3169 0.345455C35.5777 0.362727 35.8325 0.38 36.0932 0.40303C36.1939 0.414545 36.2947 0.443333 36.3954 0.460606C36.4843 0.477879 36.591 0.426061 36.6739 0.512424C36.6917 0.529697 36.751 0.518182 36.7865 0.518182C36.8991 0.523939 37.0058 0.512424 37.1184 0.57C37.2132 0.616061 37.3495 0.529697 37.4502 0.633333C37.468 0.650606 37.5273 0.633333 37.5628 0.639091C37.7228 0.656364 37.8828 0.662121 38.0428 0.702424C38.1969 0.73697 38.3509 0.742727 38.505 0.800303C38.6235 0.846364 38.7776 0.771515 38.8902 0.869394C39.1509 0.857879 39.3939 0.944243 39.6368 0.996061C39.9509 1.05939 40.2709 1.11697 40.585 1.19758C40.8516 1.26667 41.1301 1.30697 41.3968 1.38758C41.4916 1.41636 41.5983 1.42788 41.699 1.44515C41.8057 1.46818 41.9361 1.46242 42.019 1.52576C42.1138 1.59485 42.2442 1.50273 42.3094 1.61788C42.6768 1.62939 43.0027 1.83091 43.3642 1.84818C43.5479 1.96333 43.7731 1.95758 43.9923 2.04394C43.9923 2.09576 43.9923 2.17061 43.9923 2.24545C43.9923 7.61152 43.9923 12.9718 43.9923 18.3379C43.9982 18.4473 44.0219 18.5624 43.939 18.6603Z" fill="#F9B95F"/>
<path d="M86.3272 13.732C86.6197 13.6163 86.9064 13.4848 87.234 13.427C87.4446 13.3901 87.6494 13.3112 87.8541 13.2534C88.0063 13.2113 88.1759 13.2586 88.3105 13.1692C88.6966 13.1798 89.0652 13.0167 89.463 13.064C89.7146 12.9799 89.9779 12.9957 90.2295 13.0167C90.6799 13.0588 91.1363 13.0693 91.5692 13.2166C92.008 13.3691 92.4351 13.5374 92.7686 13.8477C93.0845 13.7057 93.3946 13.5532 93.7164 13.4217C94.1376 13.2481 94.278 13.185 94.7695 13.1061C94.9391 13.0798 95.1029 13.0746 95.2726 13.0588C95.4013 13.0483 95.53 13.0167 95.6587 13.0115C95.9279 13.0009 96.1911 13.0483 96.4544 13.0746C96.8171 13.1114 97.1799 13.2113 97.5133 13.3744C97.9989 13.611 98.5196 14.0476 98.7244 14.5157C98.7946 14.6682 98.8297 14.826 98.8824 14.9838C98.9175 15.0942 98.9292 15.2152 98.9409 15.3309C98.9526 15.4414 98.9233 15.5518 98.9994 15.6517C98.9701 15.8884 99.0462 16.1304 98.9467 16.367C98.8941 16.4985 98.9058 16.6511 98.8824 16.7878C98.859 16.8982 98.818 17.0087 98.7888 17.1192C98.7186 17.3663 98.6308 17.6083 98.5898 17.8607C98.5606 18.0291 98.5079 18.1974 98.4553 18.3604C98.3909 18.5603 98.3324 18.7549 98.2973 18.96C98.2681 19.1283 98.2154 19.2966 98.1686 19.4649C98.1394 19.5648 98.0926 19.6648 98.0691 19.77C98.0399 19.8751 98.034 19.9856 98.0048 20.0908C97.9404 20.3275 97.8644 20.5641 97.7942 20.8008C97.7591 20.9218 97.7415 21.0428 97.7123 21.1637C97.6655 21.3373 97.6187 21.5161 97.566 21.6897C97.5368 21.7896 97.5017 21.8948 97.4724 22C96.5597 22 95.6587 22 94.7285 22C94.7461 21.8948 94.7578 21.7896 94.787 21.6897C94.8631 21.4688 94.9157 21.2479 94.9684 21.0217C95.0152 20.8061 95.0737 20.5852 95.1439 20.3801C95.2492 20.075 95.2843 19.7542 95.4247 19.4596C95.4189 19.1914 95.5417 18.9442 95.6061 18.6865C95.6646 18.4393 95.7582 18.1974 95.8167 17.9502C95.8577 17.7556 95.9103 17.561 95.9571 17.3716C95.9922 17.2296 96.0098 17.0823 96.0624 16.9403C96.1209 16.7878 96.156 16.0672 96.1326 15.9147C96.1209 15.8306 95.9396 15.4151 95.8869 15.3519C95.764 15.2099 95.5885 15.1258 95.4013 15.0732C95.1322 14.9996 94.8982 15.0206 94.5705 15.0679C94.2488 15.1153 93.9679 15.2468 93.6696 15.3362C93.6345 15.3467 93.6052 15.373 93.5584 15.3993C93.5584 15.5308 93.5467 15.6675 93.5584 15.8043C93.5818 16.0725 93.4589 16.3144 93.4355 16.5722C93.3536 16.6195 93.3946 16.6984 93.3829 16.7615C93.3712 16.8246 93.3361 16.8877 93.3244 16.9508C93.2893 17.2243 93.1781 17.4768 93.1196 17.745C93.0728 17.9449 93.0026 18.1395 92.9617 18.3446C92.9148 18.576 92.8505 18.8127 92.7744 19.0389C92.7101 19.2387 92.6867 19.4386 92.6165 19.6385C92.5287 19.8857 92.4702 20.1434 92.4 20.4011C92.3532 20.5852 92.3122 20.7745 92.2596 20.9534C92.2069 21.1374 92.166 21.3215 92.1075 21.5003C92.0665 21.6161 92.0958 21.7528 91.9963 21.858C91.1012 21.858 90.2061 21.858 89.2934 21.858C89.2817 21.7791 89.2407 21.7002 89.3343 21.6266C89.3636 21.3794 89.4572 21.148 89.5157 20.906C89.5742 20.6641 89.6269 20.4221 89.7146 20.1907C89.738 20.1223 89.738 20.0592 89.7497 19.9961C89.7673 19.933 89.7907 19.8699 89.8082 19.8068C89.8901 19.4965 89.9545 19.1809 90.0656 18.8758C90.1359 18.6865 90.1476 18.4919 90.2178 18.3025C90.3114 18.0448 90.3465 17.7766 90.4459 17.5189C90.4927 17.3979 90.4869 17.2559 90.5103 17.1244C90.5512 16.9193 90.6039 16.7194 90.639 16.5143C90.6858 16.2618 90.6917 16.0146 90.6273 15.7096C90.5922 15.5255 90.5278 15.3677 90.4108 15.2099C90.2938 15.0469 90.13 14.989 89.9603 14.9154C89.8492 14.8681 89.7322 14.8523 89.6035 14.8575C89.4396 14.8681 89.27 14.8733 89.1062 14.8575C88.9072 14.8365 88.7376 14.9207 88.5153 14.9154C88.4802 15.0259 88.41 15.1363 88.4041 15.2573C88.3924 15.4624 88.3105 15.6465 88.2637 15.8411C88.2169 16.0409 88.1759 16.2408 88.1057 16.4354C87.9887 16.772 87.9361 17.1244 87.8249 17.461C87.7722 17.6346 87.743 17.8134 87.6903 17.9922C87.585 18.3394 87.5499 18.7023 87.4037 19.0441C87.4154 19.3387 87.2457 19.6069 87.2164 19.8962C87.193 20.1276 87.117 20.3643 87.0234 20.5852C86.9766 20.6956 87.0526 20.8324 86.9298 20.9165C86.8713 21.1743 86.8069 21.432 86.7426 21.6949C85.8357 21.6949 84.9289 21.6949 84.0162 21.6949C84.0045 21.6161 83.9694 21.5319 84.063 21.4635C84.0981 21.0743 84.2795 20.7167 84.3614 20.338C84.4199 20.0592 84.5311 19.7857 84.6013 19.507C84.6832 19.1914 84.7943 18.8758 84.8879 18.5603C84.9523 18.3394 84.9991 18.1132 85.0927 17.9028C85.1629 17.745 85.1863 17.5715 85.2331 17.4032C85.3033 17.1665 85.3794 16.9298 85.4437 16.6931C85.5315 16.3933 85.6076 16.0883 85.7012 15.7885C85.7597 15.5991 85.8006 15.4098 85.8708 15.2205C85.9469 14.9996 85.9703 14.7681 86.058 14.5525C86.1751 14.2843 86.216 14.0055 86.3272 13.732Z" fill="#9DB7CC"/>
<path d="M115.082 22.0004C114.692 22.3178 114.285 22.5015 113.878 22.6853C113.767 22.7354 113.645 22.7743 113.528 22.8189C113.412 22.8634 113.278 22.8523 113.168 22.9247C113.162 22.9302 113.15 22.9302 113.138 22.9302C112.795 22.9247 112.452 23.0527 112.12 22.9748C111.934 22.9302 111.747 22.9636 111.567 22.908C111.404 22.8579 111.241 22.8022 111.078 22.7632C110.874 22.7187 110.729 22.585 110.554 22.4904C110.333 22.3679 110.118 22.2231 109.932 22.0561C109.763 21.9058 109.641 21.7165 109.524 21.5272C109.321 21.1987 109.198 20.8368 109.117 20.4638C109.053 20.1742 108.995 19.8903 109 19.5896C109 19.2834 109 18.9772 109 18.671C109 18.5819 109.07 18.5151 109.064 18.4149C109.059 18.3202 109.03 18.2256 109.094 18.1198C109.134 18.0474 109.094 17.9361 109.123 17.8525C109.216 17.5797 109.262 17.2958 109.373 17.0341C109.565 16.5664 109.815 16.1266 110.112 15.7146C110.42 15.2803 110.805 14.9128 111.212 14.5676C111.474 14.3449 112.056 13.983 112.644 13.7826C112.842 13.7158 113.034 13.6156 113.243 13.5543C113.453 13.4931 113.668 13.4597 113.878 13.404C114.081 13.3483 114.297 13.3873 114.495 13.3428C114.797 13.2704 115.1 13.3205 115.402 13.2926C115.618 13.2704 115.81 13.365 116.019 13.3539C116.048 13.3539 116.078 13.3929 116.124 13.4263C116.159 13.3817 116.217 13.3483 116.223 13.3038C116.27 12.9475 116.374 12.6023 116.468 12.2571C116.514 12.0733 116.526 11.8785 116.63 11.7114C116.63 11.4331 116.753 11.1825 116.805 10.9208C116.84 10.7427 116.933 10.5701 116.927 10.3808C117.05 10.2973 116.968 10.1636 117.015 10.0523C117.096 9.85185 117.125 9.62914 117.178 9.40087C118.103 9.26725 119.04 9.13362 119.977 9C120.035 9.07795 119.965 9.13919 119.96 9.19487C119.936 9.48438 119.791 9.75163 119.767 10.0411C119.744 10.2806 119.651 10.5144 119.587 10.7482C119.529 10.9654 119.488 11.1881 119.424 11.4052C119.348 11.6613 119.267 11.923 119.215 12.1847C119.174 12.3907 119.127 12.5967 119.075 12.7971C118.935 13.2982 118.836 13.8104 118.685 14.3115C118.633 14.4953 118.603 14.6846 118.551 14.8739C118.493 15.0743 118.44 15.2747 118.4 15.4807C118.353 15.6756 118.312 15.8705 118.26 16.0653C118.208 16.2602 118.155 16.4495 118.109 16.6444C118.062 16.8281 118.033 17.0174 117.975 17.2011C117.94 17.3069 117.969 17.4517 117.905 17.5296C117.824 17.6243 117.917 17.7579 117.8 17.8247C117.824 18.0363 117.719 18.22 117.684 18.4204C117.666 18.5207 117.666 18.6487 117.608 18.7211C117.527 18.8213 117.626 18.9382 117.538 19.0273C117.463 19.1108 117.573 19.25 117.457 19.328C117.451 19.3335 117.457 19.3447 117.457 19.3558C117.474 19.7288 117.329 20.1019 117.405 20.4749C117.463 20.7644 117.439 21.0706 117.567 21.3546C117.602 21.4381 117.567 21.5439 117.626 21.6385C117.666 21.7109 117.591 21.8223 117.69 21.8891C117.684 22.1285 117.841 22.3289 117.853 22.5683C117.62 22.5906 117.387 22.6129 117.154 22.6407C117.055 22.6518 116.956 22.6797 116.857 22.6964C116.764 22.7075 116.665 22.6797 116.59 22.7521C116.578 22.7632 116.555 22.7521 116.532 22.7521C116.392 22.7632 116.258 22.7409 116.118 22.8022C115.996 22.8523 115.845 22.7855 115.705 22.8579C115.635 22.8913 115.536 22.8634 115.461 22.8634C115.28 22.7688 115.333 22.5795 115.251 22.4403C115.158 22.3289 115.141 22.173 115.082 22.0004ZM114.762 20.1965C114.774 20.0017 114.733 19.8346 114.82 19.6843C114.78 19.328 114.914 18.9939 114.937 18.6431C114.937 18.6097 114.948 18.5763 114.954 18.5374C114.989 18.4037 115.036 18.2701 115.053 18.1309C115.082 17.9249 115.146 17.7245 115.199 17.5241C115.245 17.3403 115.292 17.151 115.338 16.9673C115.408 16.6722 115.478 16.3716 115.548 16.0765C115.589 15.8983 115.676 15.7257 115.612 15.5253C115.565 15.5253 115.519 15.5253 115.466 15.5253C115.263 15.5253 115.059 15.5197 114.855 15.5253C114.657 15.5364 114.46 15.5531 114.268 15.5809C114.128 15.6032 113.971 15.6255 113.854 15.6979C113.563 15.8649 113.255 16.0152 113.022 16.2658C112.888 16.405 112.749 16.5441 112.632 16.6945C112.51 16.8559 112.423 17.0397 112.306 17.2067C112.149 17.435 112.102 17.7022 112.015 17.9528C111.893 18.2868 111.823 18.6209 111.841 18.9716C111.846 19.122 111.846 19.2667 111.841 19.417C111.835 19.6398 111.876 19.8625 111.963 20.0629C112.172 20.5696 112.376 20.8201 113.051 20.8702C113.121 20.8758 113.191 20.9036 113.243 20.9147C113.313 20.898 113.365 20.8646 113.412 20.8702C113.54 20.898 113.651 20.8312 113.767 20.8034C113.913 20.77 114.07 20.7254 114.192 20.6475C114.396 20.5194 114.576 20.3524 114.762 20.1965Z" fill="#9DB7CC"/>
<path d="M47 22.2997C47.0293 22.1207 47.0411 21.964 47.088 21.8129C47.1291 21.6618 47.1701 21.5108 47.2112 21.3597C47.2464 21.2142 47.2874 21.0687 47.3109 20.9232C47.352 20.677 47.4165 20.4252 47.5103 20.1902C47.5573 20.0727 47.5279 19.9496 47.5866 19.8321C47.6687 19.6643 47.657 19.4516 47.7215 19.2726C47.7802 19.1215 47.786 18.9648 47.833 18.8138C47.874 18.6739 47.9151 18.5284 47.9503 18.3829C48.0559 17.9521 48.1673 17.5212 48.2788 17.0904C48.3316 16.8945 48.3668 16.6987 48.4196 16.5028C48.5427 16.0664 48.6307 15.6188 48.7539 15.1823C48.8067 14.9921 48.8419 14.785 48.8947 14.5948C48.9944 14.2311 49.0472 13.8618 49.1763 13.5037C49.2467 13.3135 49.2584 13.1064 49.3053 12.9106C49.364 12.6532 49.4226 12.3958 49.4989 12.1496C49.5576 11.9482 49.5986 11.7411 49.6514 11.5397C49.7042 11.3551 49.7511 11.1648 49.7863 10.9746C49.8215 10.7899 49.8509 10.5997 49.9447 10.4206C49.9799 10.3479 49.974 10.2528 50.0034 10.1632C50.0327 10.0849 49.9799 9.97858 50.0679 9.91143C50.062 9.71559 50.1735 9.53654 50.1911 9.3463C50.4375 9.32391 50.6838 9.31832 50.9243 9.27355C51.1824 9.22879 51.4405 9.18962 51.6986 9.15605C51.8394 9.13926 51.9861 9.15045 52.1151 9.10569C52.25 9.06093 52.3732 9.07212 52.5023 9.05533C52.5844 9.04974 52.6607 9.01057 52.7428 9.00497C52.819 8.99378 52.8953 9.00497 52.9833 9.00497C53.0009 9.0945 53.0302 9.18403 52.9422 9.25677C52.9422 9.55333 52.7897 9.81631 52.7545 10.1073C52.731 10.3535 52.6313 10.5997 52.5668 10.8403C52.4964 11.1033 52.426 11.3606 52.3498 11.6236C52.2559 11.9705 52.162 12.3119 52.0741 12.6588C52.0213 12.8602 51.9391 13.0617 51.9333 13.2799C51.9333 13.3526 51.8863 13.431 51.8629 13.5149C52.0741 13.5037 52.2383 13.375 52.4377 13.3694C52.5257 13.2687 52.6665 13.3302 52.778 13.2687C52.8718 13.2127 53.0185 13.2407 53.1299 13.2015C53.3528 13.1232 53.5816 13.1512 53.8104 13.1512C54.3794 13.1512 54.8897 13.3358 55.359 13.638C55.6699 13.8394 55.9515 14.0688 56.1978 14.3318C56.2682 14.4046 56.3386 14.4829 56.3855 14.5668C56.5498 14.8634 56.7258 15.1599 56.8255 15.4845C56.8724 15.6356 56.9017 15.7922 56.9369 15.9433C57.0367 16.3909 56.9897 16.8442 56.9839 17.2918C56.978 17.8346 56.8431 18.3549 56.6671 18.8697C56.5732 19.1439 56.3973 19.3789 56.3445 19.6643C56.0336 20.0895 55.8165 20.5651 55.4646 20.968C55.2651 21.1918 55.0598 21.4156 54.8311 21.6059C54.3911 21.964 53.8984 22.2605 53.3704 22.49C53.0302 22.6354 52.6841 22.7641 52.3146 22.8369C52.0858 22.8816 51.857 22.9096 51.6341 22.9544C51.3173 23.0159 51.0006 22.9823 50.6897 22.9935C50.3671 23.0047 50.0444 22.9991 49.7218 22.9935C49.6514 22.9935 49.581 22.9544 49.5106 22.9432C49.4402 22.9264 49.364 22.9544 49.2877 22.904C49.2349 22.8704 49.1411 22.8928 49.0648 22.8816C48.9944 22.8704 48.924 22.8313 48.8536 22.8313C48.6249 22.8369 48.4196 22.7473 48.2084 22.697C47.8388 22.6075 47.481 22.4844 47.1408 22.3221C47.1056 22.2885 47.0704 22.2997 47 22.2997ZM50.2791 20.677C50.4492 20.677 50.5724 20.677 50.7014 20.677C50.8305 20.677 50.9595 20.7106 51.0886 20.7218C51.552 20.7777 51.9919 20.6602 52.3967 20.4476C52.6372 20.3189 52.866 20.1623 53.0771 20C53.3998 19.7482 53.6285 19.4125 53.8221 19.0655C54.0274 18.7018 54.2679 18.3437 54.2797 17.9073C54.3911 17.8178 54.3207 17.7003 54.3383 17.594C54.3559 17.482 54.4146 17.3757 54.4028 17.2526C54.3852 17.0288 54.3735 16.805 54.35 16.5756C54.3207 16.2566 54.221 15.9713 54.0333 15.7195C53.8456 15.4677 53.5816 15.283 53.2238 15.2998C53.1886 15.2998 53.1417 15.2998 53.1182 15.283C53.0126 15.2159 52.8718 15.2215 52.7897 15.2607C52.7017 15.2998 52.6255 15.2998 52.5433 15.2998C52.2852 15.311 51.8687 15.4677 51.6634 15.6411C51.6224 15.6747 51.5696 15.6971 51.5227 15.7195C51.5227 15.7363 51.5285 15.7587 51.5227 15.7754C51.4229 16.0384 51.3584 16.3126 51.2997 16.5812C51.2 17.0008 51.0944 17.4149 50.9889 17.829C50.8481 18.3605 50.7308 18.8977 50.5841 19.4293C50.5137 19.6866 50.4668 19.9552 50.3612 20.207C50.3084 20.3469 50.3084 20.5036 50.2791 20.677Z" fill="#F49B21"/>
<path d="M101.901 19.3627C101.877 19.6165 101.995 19.8069 102.077 20.003C102.16 20.2049 102.33 20.3318 102.506 20.4645C102.783 20.6721 103.082 20.7529 103.417 20.7471C103.658 20.7413 103.887 20.8452 104.128 20.8048C104.269 20.7817 104.404 20.7586 104.546 20.7471C104.681 20.7356 104.833 20.7817 104.951 20.7356C105.204 20.6433 105.468 20.6317 105.721 20.5452C105.88 20.4933 106.044 20.4241 106.203 20.3779C106.238 20.4472 106.262 20.4933 106.297 20.5568C106.314 20.9894 106.332 21.4393 106.361 21.895C106.367 21.9931 106.408 22.0911 106.414 22.1892C106.426 22.293 106.414 22.3969 106.414 22.518C106.279 22.5699 106.132 22.5988 106.015 22.6738C105.903 22.743 105.78 22.6853 105.662 22.7487C105.533 22.818 105.351 22.7949 105.192 22.818C105.092 22.8295 104.992 22.8583 104.892 22.8757C104.804 22.893 104.698 22.8353 104.622 22.9333C104.616 22.9449 104.587 22.9391 104.563 22.9333C104.263 22.9103 103.975 23.0199 103.676 22.9968C103.394 22.9737 103.106 22.991 102.824 22.991C102.218 22.9853 101.654 22.841 101.125 22.5642C100.72 22.3507 100.35 22.0969 100.062 21.745C99.8089 21.4393 99.5679 21.1163 99.468 20.7183C99.4386 20.5914 99.3564 20.476 99.2858 20.3606C99.1448 20.1299 99.1095 19.928 99.0508 19.703C98.9803 19.4204 99.0038 19.1435 99.0038 18.8608C99.0038 18.6878 99.039 18.509 99.0566 18.3359C99.0802 18.1629 99.133 18.0013 99.1566 17.8341C99.2036 17.5168 99.3093 17.2226 99.4093 16.9227C99.5444 16.5246 99.7384 16.1497 99.9558 15.7863C100.079 15.5844 100.208 15.3883 100.35 15.1979C100.367 15.1748 100.379 15.1518 100.397 15.1287C100.585 14.9268 100.755 14.7018 100.961 14.523C101.313 14.2173 101.689 13.9231 102.107 13.6981C102.189 13.6577 102.265 13.6058 102.342 13.5597C102.7 13.3405 103.112 13.2482 103.511 13.127C103.688 13.0751 103.893 13.1097 104.07 13.0578C104.404 12.9655 104.739 13.0232 105.074 13.0117C105.192 13.0059 105.31 12.9713 105.439 13.0578C105.533 13.1213 105.686 13.0117 105.791 13.1213C106.35 13.2424 106.338 13.2713 106.896 13.5654C107.296 13.7731 107.519 14.1134 107.748 14.4595C107.837 14.5922 107.889 14.748 107.925 14.9037C108.03 15.3248 108.001 15.7517 107.978 16.1785C107.96 16.4093 107.889 16.6573 107.784 16.8765C107.678 17.0842 107.596 17.3149 107.443 17.4822C107.261 17.6783 107.131 17.9148 106.879 18.0706C106.691 18.1859 106.532 18.3475 106.344 18.4686C106.068 18.6474 105.768 18.7743 105.462 18.8897C105.268 18.9647 105.063 19.0051 104.863 19.0685C104.663 19.132 104.457 19.155 104.258 19.23C104.134 19.2762 103.975 19.2185 103.846 19.2992C103.47 19.2877 103.1 19.3858 102.724 19.3627C102.471 19.3454 102.195 19.3627 101.901 19.3627ZM101.883 17.586C102.124 17.5514 102.342 17.6091 102.559 17.5283C102.671 17.488 102.812 17.5283 102.935 17.5168C103.065 17.5053 103.194 17.4764 103.323 17.4591C103.499 17.436 103.688 17.4476 103.852 17.3957C104.023 17.338 104.211 17.3322 104.369 17.2342C104.528 17.1361 104.71 17.0669 104.869 16.9515C105.245 16.6804 105.398 16.4843 105.486 16.0516C105.492 16.0228 105.533 15.9997 105.527 16.0055C105.503 15.8555 105.486 15.7517 105.468 15.6305C105.462 15.6248 105.445 15.6132 105.439 15.6017C105.321 15.394 105.163 15.2614 104.904 15.2037C104.681 15.1518 104.469 15.1806 104.252 15.1633C104.128 15.1518 104.022 15.2556 103.893 15.221C103.876 15.2152 103.846 15.2556 103.823 15.2614C103.611 15.296 103.435 15.4113 103.253 15.5094C103 15.6478 102.747 15.8151 102.571 16.0401C102.33 16.34 102.148 16.6862 102.019 17.0496C101.954 17.2053 101.93 17.3841 101.883 17.586Z" fill="#9DB7CC"/>
<path d="M69 22.1548C69.3399 21.4876 69.6667 20.8431 70.0065 20.1703C70.0588 20.1873 70.1242 20.1986 70.183 20.2268C70.4902 20.3569 70.8039 20.4869 71.1503 20.6339C71.3072 20.6339 71.5163 20.6056 71.719 20.6396C72.3595 20.747 73.0065 20.6678 73.6536 20.6904C74.1307 20.7074 74.6078 20.5548 74.9085 20.2325C74.9412 20.1477 74.9804 20.0685 75 19.9837C75.0131 19.8933 75.0065 19.7972 75.0065 19.7237C74.9477 19.6389 74.902 19.5654 74.8431 19.5032C74.7059 19.3505 74.5098 19.2487 74.3203 19.1639C73.7843 18.9265 73.2222 18.7286 72.6928 18.4742C72.3072 18.2876 71.9085 18.0897 71.6209 17.7788C71.451 17.5922 71.3007 17.3887 71.1503 17.1851C71.0784 17.089 70.9804 16.9986 71.0131 16.8685C70.8824 16.6706 70.8824 16.4558 70.8824 16.2353C70.8824 16.077 70.8824 15.913 70.8824 15.7547C70.8824 15.4664 70.9935 15.195 71.098 14.9293C71.2745 14.4713 71.6405 14.1321 72.0523 13.8325C72.4183 13.5611 72.8627 13.4028 73.3203 13.2841C73.6275 13.2049 73.9346 13.1484 74.2484 13.0975C74.5163 13.0579 74.7908 13.1031 75.0392 13.0466C75.2941 12.9844 75.549 13.0127 75.7974 13.0014C76.0915 12.9901 76.3856 13.0522 76.6863 13.0692C76.9739 13.0862 77.2745 13.1484 77.549 13.2332C77.8431 13.3293 78.1373 13.4141 78.4314 13.5102C78.5621 13.5554 78.6863 13.612 78.8105 13.6685C78.8758 13.6968 78.9346 13.725 79 13.7533C78.6536 14.4318 78.3203 15.0932 77.9935 15.7434C77.5752 15.6021 77.1634 15.4551 76.7386 15.3251C76.6144 15.2855 76.4771 15.2968 76.3399 15.2685C76.1373 15.2233 75.9281 15.2176 75.719 15.2063C75.5033 15.195 75.281 15.195 75.0654 15.2063C74.8562 15.2176 74.6471 15.2459 74.451 15.2629C74.2222 15.3533 74.0915 15.5286 73.915 15.6643C73.8954 15.7491 73.8758 15.8339 73.8431 15.9583C73.902 16.1053 73.9216 16.3145 74.1895 16.5236C74.6928 16.7385 75.2941 16.9929 75.902 17.253C76 17.2982 76.1046 17.3491 76.183 17.4113C76.3333 17.5244 76.5163 17.5922 76.6667 17.694C76.8497 17.824 77.0392 17.9653 77.1699 18.135C77.4771 18.5081 77.732 18.8982 77.8235 19.3731C77.8824 19.6728 77.8889 19.9668 77.8628 20.2551C77.8431 20.4756 77.7712 20.7018 77.6601 20.9109C77.549 21.1201 77.451 21.3237 77.2941 21.5159C77.1111 21.742 76.8889 21.9286 76.6536 22.0926C76.2811 22.3526 75.8301 22.5053 75.3987 22.6806C75.2288 22.7484 75.0392 22.7936 74.8497 22.8276C74.6797 22.8615 74.4902 22.8445 74.3268 22.8898C74.0196 22.9746 73.7124 22.918 73.4052 22.9406C73.3072 22.9463 73.2092 22.9859 73.1046 22.9915C73 23.0028 72.8889 23.0028 72.7778 22.9915C72.6144 22.9802 72.451 22.9463 72.281 22.9406C72.1046 22.9293 71.9216 22.9689 71.7582 22.935C71.3529 22.8389 70.9346 22.8106 70.5425 22.6862C70.3137 22.6127 70.0784 22.5562 69.8497 22.494C69.5425 22.4148 69.281 22.2678 69 22.1548Z" fill="#F49B21"/>
<path d="M69.3589 15.134C68.2671 15.134 67.1816 15.134 66.0834 15.134C66.058 15.2579 66.039 15.3818 66.0073 15.494C65.9755 15.6061 65.9184 15.7182 65.8866 15.8303C65.8549 15.9484 65.8803 16.09 65.8105 16.1844C65.728 16.2965 65.8168 16.4381 65.6899 16.5267C65.6835 16.8394 65.5439 17.1227 65.4867 17.4236C65.4169 17.7659 65.309 18.1023 65.2138 18.4386C65.144 18.6806 65.0678 18.9225 65.0551 19.1704C65.0551 19.1999 65.0678 19.2353 65.0551 19.2589C64.8901 19.5422 64.9535 19.8254 65.0868 20.1264C65.1376 20.1972 65.1947 20.2975 65.2773 20.3742C65.3534 20.445 65.455 20.4922 65.5693 20.563C65.5566 20.563 65.5629 20.563 65.5756 20.563C65.7724 20.5808 65.9438 20.7047 66.1596 20.687C66.3691 20.6693 66.5849 20.6693 66.7944 20.687C67.0991 20.7106 67.372 20.6339 67.6577 20.5512C67.8608 20.4922 68.0703 20.4391 68.3051 20.3683C68.3051 20.4686 68.3051 20.5453 68.3051 20.6221C68.2988 20.9879 68.4131 21.3479 68.3686 21.7197C68.4956 21.9675 68.4004 22.2331 68.4385 22.4809C68.1338 22.6284 67.8164 22.6934 67.4926 22.7583C67.2451 22.8114 66.9785 22.8055 66.7436 22.9235C66.7372 22.9294 66.7246 22.9235 66.7119 22.9235C66.4262 22.9412 66.1342 22.9707 65.8486 22.9825C65.5629 22.9943 65.2709 23.0179 64.9916 22.9766C64.5155 22.9058 64.0395 22.835 63.5824 22.658C63.1508 22.4927 62.8143 22.2449 62.5096 21.938C62.3763 21.8023 62.1859 21.4069 62.1415 21.1945C62.097 21.0056 62.0272 20.8168 62.0209 20.6221C62.0018 20.2208 61.9828 19.8136 62.0272 19.4123C62.0526 19.194 62.078 18.9697 62.1415 18.7514C62.2049 18.539 62.2811 18.3265 62.3192 18.1141C62.3573 17.8957 62.4398 17.6833 62.4716 17.459C62.5096 17.1876 62.6175 16.9279 62.6874 16.6624C62.7255 16.5267 62.7509 16.3909 62.7762 16.2552C62.808 16.0723 62.8588 15.8893 62.9159 15.7182C62.9921 15.4999 63.0111 15.2697 63.0873 15.0514C63.1635 14.8448 63.2079 14.6265 63.2587 14.4082C63.3095 14.2016 63.3539 13.9892 63.411 13.7885C63.4682 13.582 63.5253 13.3814 63.5761 13.1748C63.6268 12.9683 63.6713 12.7617 63.7284 12.5552C63.8617 12.0949 63.9569 11.6228 64.0902 11.1625C64.1474 10.9501 64.2108 10.7317 64.2426 10.5075C64.2489 10.4544 64.287 10.4072 64.3061 10.3659C64.4838 10.3305 64.6425 10.3777 64.8075 10.3069C64.9345 10.2537 65.1122 10.3364 65.2519 10.2419C65.4613 10.2833 65.6518 10.1829 65.8613 10.177C65.9692 10.177 66.0771 10.1357 66.185 10.1239C66.2929 10.1121 66.4008 10.0944 66.5087 10.0767C66.7753 10.0236 67.0546 10.0236 67.3593 10C67.1181 10.956 66.8769 11.8825 66.6357 12.8385C67.7656 12.8385 68.8828 12.8385 70 12.8385C69.7905 13.5997 69.581 14.3491 69.3589 15.134Z" fill="#F49B21"/>
<path d="M121.299 13C122.201 13 123.086 13 124 13C123.977 13.1258 123.983 13.2516 123.931 13.3595C123.839 13.5572 123.845 13.7789 123.776 13.9826C123.707 14.1863 123.701 14.408 123.644 14.6177C123.575 14.8694 123.517 15.121 123.466 15.3787C123.42 15.6243 123.351 15.87 123.293 16.1156C123.236 16.3733 123.167 16.6189 123.121 16.8826C123.075 17.1282 123.011 17.3739 122.948 17.6135C122.885 17.8652 122.839 18.1228 122.776 18.3805C122.718 18.6261 122.667 18.8718 122.598 19.1114C122.54 19.3152 122.511 19.5309 122.448 19.7346C122.385 19.9383 122.385 20.166 122.316 20.3637C122.213 20.6453 122.184 20.9449 122.109 21.2325C122.034 21.5201 121.931 21.8077 121.92 22.1132C121.805 22.2151 121.897 22.3649 121.822 22.4907C121.759 22.5986 121.77 22.7484 121.747 22.8742C121.736 22.9161 121.701 22.9581 121.678 23C120.787 23 119.897 23 119 23C119.057 22.7064 119.103 22.4128 119.178 22.1252C119.259 21.8077 119.345 21.4961 119.397 21.1726C119.443 20.8969 119.546 20.6333 119.592 20.3637C119.632 20.142 119.724 19.9323 119.741 19.7046C119.759 19.5129 119.816 19.3211 119.862 19.1294C119.943 18.8119 120.034 18.5003 120.08 18.1768C120.121 17.9131 120.184 17.6435 120.27 17.3919C120.345 17.1881 120.333 16.9664 120.414 16.7687C120.454 16.6788 120.454 16.565 120.477 16.4632C120.5 16.3553 120.494 16.2235 120.557 16.1396C120.626 16.0437 120.534 15.9119 120.649 15.846C120.649 15.6243 120.724 15.4206 120.77 15.2049C120.828 14.9233 120.92 14.6477 120.971 14.3661C121.011 14.1444 121.057 13.9227 121.109 13.707C121.178 13.4673 121.236 13.2337 121.299 13Z" fill="#9DB7CC"/>
<path d="M59.7267 23C58.8163 23 57.9232 23 57.0128 23C56.9664 22.8198 57.0592 22.6517 57.0882 22.4835C57.1345 22.2012 57.2331 21.9249 57.2911 21.6426C57.3491 21.3604 57.4013 21.0661 57.4767 20.7898C57.5521 20.5195 57.6101 20.2492 57.6855 19.979C57.7377 19.7868 57.7724 19.5766 57.8188 19.3724C57.8652 19.1682 57.8826 18.964 57.9464 18.7658C58.016 18.5435 58.045 18.3093 58.103 18.0871C58.1784 17.8168 58.2364 17.5405 58.2944 17.2703C58.3466 17.042 58.3872 16.8138 58.4509 16.5916C58.5205 16.3213 58.5843 16.045 58.6423 15.7748C58.6945 15.5465 58.7235 15.3183 58.7989 15.0961C58.8685 14.8919 58.9033 14.6817 58.9555 14.4715C59.0077 14.2853 59.0367 14.0871 59.0831 13.8949C59.141 13.6486 59.1874 13.4024 59.2628 13.1622C59.2744 13.1141 59.2628 13.0661 59.2628 13C60.1675 13 61.0721 13 62 13C61.971 13.1682 61.9652 13.3423 61.9188 13.5045C61.8318 13.7988 61.7738 14.0991 61.6984 14.3994C61.6057 14.7778 61.5361 15.1622 61.4201 15.5405C61.3621 15.7327 61.3447 15.9489 61.2925 16.1471C61.2171 16.4474 61.1591 16.7477 61.0721 17.042C61.0142 17.2282 60.9852 17.4264 60.9562 17.6186C60.9098 17.9069 60.8228 18.1892 60.7648 18.4715C60.7184 18.6877 60.6662 18.9099 60.614 19.1201C60.5444 19.4024 60.4806 19.6847 60.4168 19.967C60.3705 20.1832 60.3183 20.4054 60.2661 20.6156C60.1965 20.8979 60.1327 21.1802 60.0689 21.4625C60.0225 21.6787 59.9877 21.9009 59.9181 22.1111C59.8427 22.3393 59.8137 22.5856 59.7383 22.8138C59.7152 22.8679 59.7267 22.9279 59.7267 23Z" fill="#F49B21"/>
<path d="M125 10.255C125.007 10.5882 124.851 10.8907 124.641 11.1727C124.553 11.2957 124.384 11.3828 124.255 11.4854C124.072 11.6392 123.869 11.7725 123.599 11.8289C123.45 11.9673 123.22 11.9314 123.037 11.9673C122.861 12.0032 122.651 12.0288 122.455 11.9365C122.36 11.8904 122.211 11.9724 122.116 11.8801C121.852 11.8596 121.676 11.7315 121.487 11.6084C121.284 11.4803 121.196 11.3059 121.094 11.1419C121.02 11.024 121.033 10.8702 121.006 10.7318C120.979 10.5985 121.047 10.4652 121.108 10.3524C121.155 10.2703 121.074 10.1576 121.209 10.1012C121.189 9.93711 121.351 9.82432 121.46 9.72178C121.642 9.55773 121.839 9.39367 122.089 9.27576C122.218 9.21424 122.346 9.16297 122.489 9.13734C122.786 9.08094 123.077 8.97841 123.396 9.00404C123.815 9.03993 124.201 9.13221 124.512 9.37317C124.722 9.53722 124.891 9.7064 124.959 9.92685C124.986 10.0396 124.986 10.1473 125 10.255Z" fill="#9CB6CB"/>
<path d="M80.7822 22.9833C80.5519 22.9763 80.3216 23.0182 80.098 22.9135C79.9287 22.8368 79.7593 22.781 79.6374 22.6345C79.5425 22.5228 79.4206 22.4461 79.3258 22.3275C79.1632 22.1321 79.0954 21.9159 79.0616 21.6717C79.048 21.567 78.9938 21.4554 79.0006 21.3508C79.0141 21.1763 79.0277 20.9949 79.0954 20.8345C79.1361 20.7438 79.1022 20.6531 79.1361 20.5763C79.2241 20.381 79.2919 20.1647 79.4274 20.0112C79.617 19.7949 79.8203 19.5787 80.0506 19.4043C80.2742 19.2368 80.5316 19.181 80.7755 19.0903C80.9855 19.0136 81.2226 18.9787 81.4529 19.0136C81.8052 19.0624 82.1371 19.1322 82.4081 19.4182C82.7468 19.774 82.7603 19.774 82.9297 20.2415C83.0313 20.5275 83.0042 20.8135 82.9636 21.0787C82.9297 21.3228 82.8416 21.574 82.7197 21.8042C82.5029 22.2159 82.1506 22.481 81.8119 22.767C81.629 22.788 81.4868 22.9275 81.3242 22.9763C81.1548 23.0252 80.9584 22.9833 80.7822 22.9833Z" fill="#9CB7CB"/>
<path d="M61.3774 11.9464C61.1577 11.9672 60.9449 12.0087 60.7389 11.9984C60.4094 11.9724 60.0798 11.9568 59.7846 11.801C59.3315 11.5568 59.0294 11.2659 59.0019 10.8244C58.9813 10.5127 59.1324 10.2426 59.2216 9.95692C59.2422 9.88939 59.3177 9.83226 59.3864 9.77512C59.5786 9.62448 59.7709 9.47903 59.9631 9.33358C60.1141 9.2193 60.3132 9.18294 60.5055 9.131C60.7801 9.05308 61.0616 8.99075 61.3568 9.00113C61.5971 9.01152 61.8443 9.06866 62.0777 9.11541C62.1532 9.131 62.2219 9.18294 62.2905 9.2245C62.3798 9.27644 62.4485 9.33358 62.5514 9.37514C62.7437 9.45306 62.984 9.83226 62.9908 10.0089C62.9908 10.1491 63.0114 10.2894 62.9908 10.4244C62.9428 10.7413 62.8329 11.0374 62.5446 11.2971C62.3798 11.4477 62.1876 11.5672 62.0022 11.6867C61.8511 11.7802 61.652 11.8321 61.4735 11.9049C61.4461 11.9101 61.4186 11.9256 61.3774 11.9464Z" fill="#F49B21"/>
<path d="M29.0758 19.9951C29.0433 19.9623 29.0271 19.9459 29 19.9186C29 18.645 29 17.3605 29 16.0596C29.1245 16.0596 29.2489 16.0596 29.3734 16.0596C29.4654 16.0596 29.5519 16.0651 29.6439 16.0596C29.7359 16.0487 29.8333 16.0869 29.9307 16.0323C30.0011 15.994 30.1093 15.994 30.1905 16.0104C30.5043 16.0815 30.829 16.0159 31.1428 16.0705C31.4025 16.1143 31.6623 16.1471 31.922 16.2072C32.1872 16.2728 32.4415 16.3548 32.7012 16.4258C32.9447 16.4914 33.1233 16.6445 33.3127 16.7866C33.5562 16.9724 33.7402 17.2184 33.8754 17.5026C33.9404 17.6393 33.935 17.7869 33.9728 17.9235C34.0053 18.0602 34.0215 18.2241 33.9458 18.3717C33.9133 18.4319 33.9187 18.5084 33.9025 18.574C33.8105 18.9457 33.5454 19.1807 33.2532 19.3939C32.9934 19.5852 32.6742 19.6562 32.382 19.7765C32.29 19.8148 32.1818 19.8148 32.0789 19.8257C31.7867 19.8585 31.4945 19.9132 31.2077 19.9569C30.8506 20.0115 30.4989 19.9842 30.1472 19.9951C29.7792 20.0061 29.4221 19.9951 29.0758 19.9951Z" fill="#F39A20"/>
<path d="M29 13.9873C29 13.0056 29 12.0331 29 11.0468C29.0895 11.0468 29.1737 11.0514 29.2579 11.0468C29.4684 11.033 29.6789 11.0099 29.8947 11.0053C30.1158 10.9961 30.3316 11.0007 30.5526 11.0053C30.6684 11.0053 30.7842 11.0053 30.9 11.0468C31.0053 11.0837 31.1421 11.0145 31.2421 11.0975C31.4842 11.1021 31.7105 11.1759 31.9368 11.2358C32.1579 11.2911 32.3421 11.3833 32.5105 11.5261C32.6947 11.6828 32.8579 11.8488 32.9158 12.07C32.9579 12.2451 33.0632 12.4157 32.9474 12.6C32.9053 12.6645 32.9211 12.7521 32.9 12.8351C32.7895 13.2176 32.4947 13.4527 32.1263 13.6232C31.9947 13.6877 31.8474 13.7384 31.7053 13.7845C31.5684 13.826 31.4105 13.8214 31.2895 13.9044C31.1263 13.8767 30.9737 13.9551 30.8105 13.9551C30.6158 13.9504 30.4263 13.9643 30.2316 13.9504C29.8263 13.9182 29.4263 14.038 29 13.9873Z" fill="#F49B21"/>
</svg>
