<svg width="150" height="32" viewBox="0 0 150 32" fill="none" xmlns="http://www.w3.org/2000/svg">
<path d="M0.00316802 3.85723C-0.0104835 3.64602 0.0572167 3.43759 0.192374 3.27473C0.263756 3.19943 0.350597 3.14048 0.446926 3.10195C0.543255 3.06341 0.646787 3.0462 0.750401 3.05149H17.6438C17.7518 3.04527 17.8599 3.06195 17.961 3.10042C18.0622 3.13889 18.154 3.19829 18.2306 3.27473C18.3692 3.44651 18.4399 3.66452 18.4303 3.88601V8.2051C18.4256 8.41232 18.3558 8.6128 18.2306 8.77801C18.1612 8.86707 18.0721 8.93884 17.9702 8.98771C17.8684 9.03657 17.7567 9.06121 17.6438 9.05967H6.59486V13.3979H15.117C15.3088 13.3892 15.4971 13.4433 15.6567 13.5532C15.7315 13.6169 15.7895 13.698 15.8257 13.7894C15.8619 13.8807 15.8751 13.9796 15.8642 14.0772V17.7946C15.8632 17.9322 15.8222 18.0664 15.7462 18.181C15.6702 18.2956 15.5624 18.3856 15.4361 18.4399C15.3412 18.4804 15.2383 18.4986 15.1353 18.4931H6.6123V22.9692H18.0693C18.1748 22.9539 18.2824 22.9642 18.3832 22.9991C18.4839 23.0339 18.5748 23.0925 18.6483 23.1698C18.7232 23.2477 18.7792 23.342 18.8119 23.4451C18.8446 23.5482 18.853 23.6575 18.8366 23.7645V28.1516C18.8353 28.2117 18.8222 28.271 18.798 28.3261C18.7737 28.3812 18.7388 28.4309 18.6953 28.4725C18.6953 28.7925 18.4207 28.9573 18.0039 28.9573H0.751273C0.551251 28.9695 0.354319 28.9035 0.201965 28.7733C0.129935 28.6995 0.0748417 28.6108 0.0405119 28.5136C0.00618219 28.4163 -0.00656087 28.3127 0.00316802 28.21V3.85723ZM20.5412 28.5387L20.8158 28.0051C20.9109 27.8307 21.0251 27.6458 21.1472 27.4618L28.8174 15.7175L24.9444 9.73897L21.0617 3.76916C21.0023 3.68576 20.9487 3.59835 20.9013 3.50755C20.862 3.42135 20.8364 3.32956 20.8254 3.23549C20.8254 3.13869 20.9109 3.09945 21.0242 3.09945C21.1398 3.10538 21.2547 3.07847 21.3556 3.02184H27.2837C27.4947 3.02271 27.7014 3.08637 27.8775 3.20496C28.0545 3.32443 28.1931 3.49273 28.2777 3.69155L32.4533 10.1174L36.6769 3.70201C36.758 3.51017 36.8896 3.34623 37.0562 3.22851C37.2226 3.11054 37.4192 3.04247 37.6229 3.03231H43.6453C43.742 3.04015 43.8371 3.05934 43.9295 3.08986C43.9629 3.10285 43.9915 3.12562 44.0118 3.15518C44.032 3.18474 44.0428 3.21972 44.0428 3.25554C44.0352 3.42221 43.9681 3.58061 43.8536 3.70201L36.0613 15.7175L44.062 27.9467C44.1623 28.0862 44.2477 28.2362 44.3184 28.3931C44.3775 28.4965 44.4068 28.6142 44.4029 28.7332C44.4029 28.9076 44.2983 28.9948 44.0908 28.9948H37.9926C37.8016 28.9961 37.6154 28.9348 37.4625 28.8204C37.297 28.6978 37.1665 28.5339 37.0841 28.3452L32.4533 21.308L27.8705 28.3452C27.7879 28.534 27.6571 28.6979 27.4912 28.8204C27.3378 28.9355 27.1512 28.9966 26.9611 28.9948H20.8446C20.7591 28.9962 20.6756 28.9689 20.6075 28.9172C20.5733 28.8912 20.546 28.8573 20.5278 28.8184C20.5096 28.7795 20.501 28.7368 20.5028 28.694C20.5006 28.6396 20.5139 28.5858 20.5412 28.5387ZM47.8592 3.81886C47.8533 3.6204 47.9207 3.42671 48.0484 3.27473C48.1195 3.19879 48.2064 3.13943 48.303 3.10085C48.3996 3.06227 48.5035 3.04542 48.6073 3.05149H54.185C54.3559 3.05411 54.525 3.09771 54.6768 3.17793C54.8616 3.27037 55.0168 3.41512 55.1214 3.59563C56.561 5.9832 57.9909 8.33503 59.4113 10.6511L63.7299 17.7074V3.71161C63.772 3.5202 63.8831 3.351 64.042 3.23636C64.1727 3.1214 64.3415 3.05922 64.5155 3.06195H69.3729C69.5883 3.05759 69.7993 3.12997 69.9693 3.26513C70.0502 3.33388 70.1138 3.42068 70.155 3.51853C70.1962 3.61638 70.2138 3.72254 70.2065 3.82846V28.3164C70.2152 28.4126 70.2008 28.5095 70.1643 28.5991C70.1279 28.6886 70.0706 28.7681 69.9972 28.8309C69.8355 28.9479 69.6386 29.0061 69.4392 28.9957H63.967C63.8192 28.9985 63.6763 28.9427 63.5694 28.8405C63.4388 28.7134 63.3214 28.5735 63.2189 28.4228L58.7303 20.8232C57.2348 18.2878 55.7357 15.7546 54.2329 13.2235V28.2292C54.248 28.4344 54.1872 28.6379 54.0621 28.8012C53.9781 28.8736 53.8803 28.9282 53.7747 28.9616C53.669 28.995 53.5576 29.0066 53.4473 28.9957H48.6082C48.5025 29.0079 48.3955 28.994 48.2965 28.9551C48.1975 28.9161 48.1096 28.8534 48.0406 28.7724C47.9173 28.6263 47.853 28.4394 47.8601 28.2484L47.8592 3.81886ZM126.708 16.0471C126.71 17.2368 126.554 18.4216 126.244 19.5701C125.945 20.6503 125.502 21.6853 124.927 22.6474C123.798 24.5604 122.193 26.1486 120.268 27.2578C118.262 28.3855 115.998 28.974 113.697 28.966H105.299C105.107 28.9687 104.918 28.9224 104.749 28.83C104.588 28.7332 104.512 28.5387 104.512 28.2283V3.85636C104.509 3.7416 104.53 3.62748 104.572 3.52081C104.615 3.41413 104.678 3.3171 104.759 3.23549C104.832 3.15371 104.923 3.09008 105.025 3.04966C105.127 3.00924 105.236 2.99315 105.346 3.00266H113.745C114.911 3.00004 116.073 3.15352 117.201 3.45872C118.285 3.75274 119.326 4.18658 120.297 4.7493C121.254 5.30816 122.138 5.98297 122.93 6.75843C123.721 7.53851 124.405 8.41993 124.966 9.3797C125.537 10.3603 125.979 11.4108 126.281 12.505C126.585 13.6596 126.729 14.8516 126.708 16.0471ZM111.112 9.3021V22.7442H113.309L114.057 22.6867C114.885 22.6204 115.694 22.4032 116.443 22.0457C117.152 21.6946 117.793 21.2214 118.337 20.6479C118.896 20.0576 119.336 19.3659 119.635 18.61C119.955 17.799 120.115 16.9314 120.108 16.0567C120.118 15.1578 119.945 14.2662 119.601 13.4359C119.256 12.6056 118.747 11.8537 118.104 11.2258C117.486 10.6234 116.754 10.1508 115.951 9.83577C115.115 9.49466 114.221 9.32303 113.318 9.33087L111.112 9.3021ZM131.158 3.85723C131.144 3.64605 131.212 3.43772 131.347 3.27473C131.419 3.1995 131.506 3.14061 131.602 3.10209C131.699 3.06356 131.802 3.0463 131.906 3.05149H148.808C148.915 3.044 149.022 3.06012 149.122 3.0987C149.222 3.13728 149.312 3.19738 149.386 3.27473C149.532 3.44444 149.606 3.66364 149.595 3.88688V8.20597C149.593 8.41526 149.519 8.61844 149.386 8.77801C149.315 8.86695 149.223 8.93751 149.118 8.98381C149.015 9.02918 148.902 9.04864 148.79 9.04049H137.749V13.3788H146.271C146.462 13.37 146.652 13.4241 146.811 13.534C146.885 13.5978 146.943 13.6788 146.98 13.7702C147.016 13.8615 147.029 13.9603 147.019 14.0581V17.7955C147.018 17.9694 146.951 18.1363 146.83 18.2612C146.765 18.3404 146.682 18.4028 146.588 18.4433C146.494 18.4838 146.391 18.5012 146.289 18.494H137.768V22.9683H149.225C149.33 22.9532 149.438 22.9635 149.538 22.9984C149.639 23.0333 149.73 23.0917 149.803 23.1689C149.878 23.2471 149.934 23.3415 149.967 23.4447C150 23.5479 150.008 23.6573 149.992 23.7645V28.1507C149.989 28.2721 149.938 28.3873 149.85 28.4716C149.85 28.7916 149.575 28.9573 149.149 28.9573H131.906C131.807 28.9642 131.707 28.9514 131.613 28.9197C131.519 28.888 131.432 28.8379 131.357 28.7724C131.285 28.6982 131.23 28.6096 131.196 28.5124C131.162 28.4152 131.149 28.3118 131.158 28.2091V3.8581V3.85723Z" fill="white"/>
<path fill-rule="evenodd" clip-rule="evenodd" d="M96.2321 5.32358L87.3255 18.5149L83.8099 15.9618C83.2303 15.5419 82.5301 15.8927 82.6583 16.5393L84.5338 25.9955C84.6257 26.4549 85.1075 26.8057 85.5555 26.7375L94.7658 25.3306C95.3952 25.2344 95.4745 24.432 94.8958 24.0112L91.3793 21.4582L99.4566 9.49612C101.722 13.9836 101.552 19.5937 98.5573 24.0287C94.2816 30.3632 85.8642 31.9013 79.7577 27.4672C73.6504 23.0322 72.1664 14.3039 76.4421 7.97024C80.7187 1.6375 89.136 0.0985022 95.2425 4.53264C95.5876 4.78287 95.9174 5.0471 96.2321 5.32358Z" fill="white"/>
<path fill-rule="evenodd" clip-rule="evenodd" d="M91.9178 5.7564C91.8175 5.29266 91.2861 4.93913 90.7928 5.00878L80.6504 6.42555C79.9574 6.52253 79.87 7.33186 80.5083 7.75504L84.3796 10.3276L75 23.0389C75.9841 24.5603 77.2478 25.9019 78.731 27L88.8436 13.2943L92.7149 15.8669C93.3532 16.29 94.1243 15.9356 93.9831 15.285L91.9178 5.7564Z" fill="#5493E3"/>
</svg>
