<svg width="150" height="40" viewBox="0 0 150 40" fill="none" xmlns="http://www.w3.org/2000/svg">
<path d="M38.6426 17.897V23.1058H40.1962V19.6829L41.6901 22.1743H42.7354L44.318 19.6524V23.1058H45.7539V17.897H43.8388L42.1983 20.5014L40.66 17.897H38.6426Z" fill="white"/>
<path d="M106.567 17.897V23.1058H108.119V19.6829L109.615 22.1743H110.66L112.241 19.6524V23.1058H113.678V17.897H111.763L110.123 20.5014L108.585 17.897H106.567Z" fill="white"/>
<path d="M50.7321 17.897H49.0626L46.675 23.1023H48.186L48.5919 22.1402H51.2761L51.6172 23.1023H53.2356L50.7321 17.897ZM49.0626 20.9824L49.9152 19.1875L50.7287 20.9824H49.0626Z" fill="white"/>
<path d="M53.0256 19.2862V17.897H58.3225V19.2862H56.392V23.1058H54.8828V19.3024L53.0256 19.2862Z" fill="white"/>
<path d="M94.2153 19.2862V17.897H99.5139V19.2862H97.5834V23.1058H96.0742V19.3024L94.2153 19.2862Z" fill="white"/>
<path d="M64.5061 18.3278L64.4703 18.3152C63.7684 18.0616 63.0342 17.9206 62.2925 17.897C62.1015 17.897 61.9651 17.897 61.9361 17.897C61.2915 17.9185 60.4013 17.9508 59.8027 18.4696C59.066 19.1103 59.0029 20.3004 59.1564 21.0578C59.2143 21.3414 59.4684 22.3825 60.3041 22.8384C60.611 23.0053 60.8992 23.0412 61.4279 23.1058C61.8877 23.1755 62.3546 23.1755 62.8144 23.1058C63.5097 22.9794 64.1636 22.6708 64.7158 22.2084L63.9825 21.1763C63.7925 21.3148 63.5911 21.435 63.3805 21.5353C62.9384 21.7653 62.4514 21.8833 61.9583 21.8799C61.5353 21.8673 61.1619 21.8566 60.8549 21.5658C60.3433 21.083 60.4917 20.2735 60.5002 20.2286C60.5466 20.0054 60.6375 19.7951 60.7669 19.6117C60.8962 19.4282 61.0611 19.2757 61.2505 19.1642C61.4999 19.0367 61.775 18.9751 62.0521 18.9847C62.7293 18.9659 63.4021 19.1057 64.0217 19.3939L64.0627 19.4119L64.5061 18.3278Z" fill="white"/>
<path d="M65.9285 17.8971H67.3354V19.8518H69.861V17.8936L71.2543 17.8971V23.106H69.8764V21.0131H67.3081V23.106H65.9285V17.8971Z" fill="white"/>
<path d="M80.3863 18.3174L80.3454 18.2995C79.8992 18.1086 79.435 17.9684 78.9606 17.8812C78.449 17.7897 77.5963 17.6425 76.6857 17.9854C76.4275 18.0626 76.1926 18.2085 76.0035 18.409C75.8746 18.5563 75.7754 18.7296 75.7118 18.9184C75.6482 19.1072 75.6215 19.3075 75.6335 19.5074C75.6863 20.0782 76.0769 20.4139 76.2764 20.5844C76.4759 20.7549 76.684 20.8231 77.7242 21.078C77.9937 21.1444 78.5053 21.139 78.7253 21.3185C78.777 21.3593 78.8166 21.4147 78.8395 21.4783C78.857 21.5341 78.8611 21.5936 78.8516 21.6515C78.8421 21.7094 78.8192 21.7639 78.785 21.8103C78.7424 21.855 78.6914 21.8898 78.6353 21.9127C78.5793 21.9355 78.5193 21.9459 78.4592 21.9432C77.9885 21.985 77.5143 21.9382 77.0592 21.805C76.7383 21.6872 76.4359 21.5196 76.1621 21.3078L75.3691 22.365C75.4391 22.4152 75.5397 22.4888 75.6744 22.5714C76.0265 22.7893 76.3984 22.9697 76.7846 23.1099C77.6546 23.3921 78.5893 23.3598 79.4398 23.0183C79.798 22.8514 80.2328 22.6486 80.463 22.1478C80.4869 22.0975 80.7802 21.4298 80.463 20.8483C80.2175 20.3852 79.7297 20.238 79.317 20.1159C78.8444 19.9845 78.3606 19.9021 77.8726 19.87C77.656 19.8593 77.361 19.8557 77.2058 19.6421C77.1692 19.5915 77.1432 19.5334 77.1294 19.4716C77.1156 19.4097 77.1143 19.3455 77.1257 19.2831C77.1836 19.0785 77.4258 18.9959 77.5469 18.9546C78.1813 18.7374 79.4756 19.1933 79.8576 19.3351L79.919 19.3585L80.3863 18.3174Z" fill="white"/>
<path d="M93.1886 18.3174L93.1459 18.2995C92.6998 18.1086 92.2356 17.9684 91.7612 17.8812C91.2496 17.7897 90.3969 17.6425 89.4862 17.9854C89.231 18.0636 88.999 18.2094 88.8126 18.409C88.683 18.5558 88.5834 18.729 88.5197 18.918C88.4561 19.1069 88.4298 19.3075 88.4425 19.5074C88.4937 20.0782 88.8842 20.4139 89.0838 20.5844C89.2833 20.7549 89.493 20.8231 90.5316 21.078C90.8011 21.1444 91.3144 21.139 91.5327 21.3185C91.5844 21.3593 91.624 21.4147 91.6469 21.4783C91.6646 21.534 91.669 21.5933 91.6598 21.6512C91.6505 21.7091 91.628 21.7638 91.5941 21.8103C91.5512 21.8551 91.4999 21.89 91.4436 21.9129C91.3872 21.9358 91.327 21.9461 91.2666 21.9432C90.7964 21.9849 90.3229 21.9381 89.8682 21.805C89.5468 21.6874 89.2438 21.5198 88.9695 21.3078L88.1765 22.365C88.2464 22.4152 88.347 22.4888 88.4818 22.5714C88.8341 22.7889 89.206 22.9693 89.592 23.1099C90.4625 23.3922 91.3978 23.36 92.2489 23.0183C92.607 22.8514 93.0402 22.6486 93.2721 22.1478C93.2943 22.0975 93.5893 21.4298 93.2721 20.8483C93.0248 20.3852 92.5371 20.238 92.1261 20.1159C91.6534 19.9846 91.1696 19.9023 90.6817 19.87C90.4651 19.8593 90.1701 19.8557 90.0132 19.6421C89.977 19.5913 89.9512 19.5332 89.9374 19.4714C89.9236 19.4096 89.9221 19.3455 89.933 19.2831C89.991 19.0785 90.2332 18.9959 90.3543 18.9546C90.9887 18.7374 92.2847 19.1933 92.665 19.3351L92.7281 19.3585L93.1886 18.3174Z" fill="white"/>
<path d="M119.777 18.3174L119.736 18.2995C119.29 18.1088 118.825 17.9686 118.351 17.8812C117.84 17.7897 116.987 17.6425 116.076 17.9854C115.818 18.0621 115.583 18.208 115.394 18.409C115.265 18.5563 115.166 18.7296 115.102 18.9184C115.039 19.1072 115.012 19.3075 115.024 19.5074C115.077 20.0782 115.467 20.4139 115.667 20.5844C115.866 20.7549 116.074 20.8231 117.115 21.078C117.384 21.1444 117.896 21.139 118.116 21.3185C118.167 21.3593 118.207 21.4147 118.23 21.4783C118.247 21.5341 118.252 21.5936 118.242 21.6515C118.233 21.7094 118.21 21.7639 118.175 21.8103C118.133 21.855 118.082 21.8898 118.026 21.9127C117.97 21.9355 117.91 21.9459 117.85 21.9432C117.379 21.985 116.905 21.9382 116.45 21.805C116.129 21.6872 115.826 21.5196 115.553 21.3078L114.76 22.365C114.83 22.4152 114.93 22.4888 115.065 22.5714C115.417 22.7893 115.789 22.9697 116.175 23.1099C117.045 23.3921 117.98 23.3598 118.83 23.0183C119.188 22.8514 119.623 22.6486 119.854 22.1478C119.877 22.0975 120.171 21.4298 119.854 20.8483C119.608 20.3852 119.12 20.238 118.708 20.1159C118.235 19.9846 117.751 19.9023 117.263 19.87C117.047 19.8593 116.752 19.8557 116.596 19.6421C116.56 19.5915 116.534 19.5334 116.52 19.4716C116.506 19.4097 116.505 19.3455 116.516 19.2831C116.574 19.0785 116.816 18.9959 116.937 18.9546C117.572 18.7374 118.866 19.1933 119.248 19.3351L119.31 19.3585L119.777 18.3174Z" fill="white"/>
<path d="M81.2698 17.897L83.6863 21.2948V23.1058H85.2313V21.2948L87.6052 17.897H85.8845L84.4366 19.9432L82.924 17.897H81.2698Z" fill="white"/>
<path d="M100.753 17.897V23.1058H105.325V21.7543L102.213 21.7309L102.234 20.9968L105.109 21.0435V19.8516H102.191L102.213 19.1875H105.325V17.897H100.753Z" fill="white"/>
<path d="M49.1691 10.6496H43.5881L52.6189 0.994673C52.9849 0.60326 53.4805 0.375827 54.0022 0.359876C55.8327 0.30396 56.7866 2.63202 55.4918 3.99486L49.1691 10.6496Z" fill="#0F90EB"/>
<rect width="4.02664" height="9.80126" rx="2.01332" transform="matrix(0.688788 -0.724963 0.688788 0.724963 29.0928 6.86816)" fill="#6ECAFB"/>
<path d="M48.5337 29.0776C48.616 29.4325 48.7887 29.7689 49.0521 30.0461L53.0296 34.2324C53.7955 35.0386 55.0372 35.0386 55.8031 34.2324C56.5689 33.4264 56.5689 32.1194 55.8031 31.3133L53.679 29.0776H48.5337Z" fill="#0145A5"/>
<path d="M33.2603 38.5326C32.4904 39.343 31.242 39.343 30.4721 38.5326C29.7079 37.7283 29.7013 36.4265 30.4573 35.6136L37.0041 28.5746C37.4456 28.0999 38.0723 27.8695 38.6986 27.9516C40.3682 28.1706 41.0678 30.3152 39.878 31.5674L33.2603 38.5326Z" fill="#00B6F7"/>
<rect x="29.4338" y="4.66699" width="3.92232" height="34.8215" rx="1.96116" fill="#0498F6"/>
<path d="M54.4172 0C53.3341 0 52.4561 0.924193 52.4561 2.06416V10.5901H56.3784V2.06416C56.3784 0.924193 55.5003 0 54.4172 0Z" fill="#0167C5"/>
<path d="M56.3784 29.0778H52.4561V32.7574C52.4561 33.8973 53.3341 34.8215 54.4172 34.8215C55.5003 34.8215 56.3784 33.8973 56.3784 32.7574V29.0778Z" fill="#0167C5"/>
</svg>
