<svg width="150" height="32" viewBox="0 0 150 32" fill="none" xmlns="http://www.w3.org/2000/svg">
<path d="M43.0119 12H56.6045V14.3831H51.2599V27.7795H48.3209V14.3831H43V12H43.0119ZM56.0238 16.3541H58.5362V18.559H58.5836C58.6665 18.2472 58.8206 17.9465 59.0457 17.657C59.2709 17.3675 59.5435 17.0891 59.8634 16.8552C60.1834 16.6102 60.5389 16.4209 60.93 16.265C61.321 16.1203 61.724 16.0423 62.1269 16.0423C62.435 16.0423 62.6602 16.0535 62.7787 16.0646C62.8972 16.0757 63.0157 16.098 63.146 16.1091V18.5367C62.9564 18.5033 62.7668 18.4811 62.5654 18.4588C62.3639 18.4365 62.1743 18.4254 61.9847 18.4254C61.5344 18.4254 61.1077 18.5145 60.7048 18.6815C60.3019 18.8486 59.9582 19.1047 59.662 19.4276C59.3657 19.7617 59.1287 20.1626 58.9509 20.6526C58.7732 21.1425 58.6902 21.6993 58.6902 22.3341V27.7684H56.012V16.3541H56.0238ZM75.4588 27.7795H72.828V26.1871H72.7806C72.4488 26.7661 71.9629 27.2227 71.3111 27.5679C70.6593 27.9131 69.9957 28.0913 69.3202 28.0913C67.7204 28.0913 66.559 27.7238 65.848 26.9777C65.1369 26.2316 64.7814 25.1069 64.7814 23.6036V16.3541H67.4597V23.3586C67.4597 24.3608 67.6611 25.0735 68.0759 25.4855C68.4788 25.8975 69.0595 26.1091 69.7942 26.1091C70.3631 26.1091 70.8252 26.0312 71.2044 25.8641C71.5837 25.6971 71.8918 25.4855 72.1169 25.2071C72.354 24.9399 72.5199 24.6058 72.6265 24.2272C72.7332 23.8486 72.7806 23.4365 72.7806 22.9911V16.3653H75.4588V27.7795ZM80.0213 24.1158C80.1043 24.8508 80.4005 25.363 80.9101 25.6637C81.4315 25.9532 82.0478 26.1091 82.7706 26.1091C83.0195 26.1091 83.3039 26.0869 83.6239 26.0535C83.9439 26.02 84.252 25.9421 84.5245 25.8419C84.809 25.7416 85.0341 25.5857 85.2237 25.3853C85.4015 25.1849 85.4844 24.9287 85.4726 24.6058C85.4607 24.2829 85.3304 24.0156 85.0934 23.8151C84.8564 23.6036 84.5601 23.4477 84.1927 23.314C83.8254 23.1915 83.4106 23.0802 82.9366 22.9911C82.4625 22.902 81.9885 22.8018 81.5026 22.7016C81.0049 22.6013 80.519 22.4677 80.0569 22.3229C79.5947 22.1782 79.1799 21.9777 78.8125 21.7216C78.4452 21.4766 78.1489 21.1537 77.9356 20.7639C77.7104 20.3742 77.6038 19.8953 77.6038 19.3163C77.6038 18.6927 77.7697 18.1804 78.0897 17.7572C78.4096 17.3341 78.8244 17 79.3103 16.7439C79.808 16.4878 80.3531 16.3096 80.9575 16.1982C81.5619 16.098 82.1426 16.0423 82.6877 16.0423C83.3158 16.0423 83.9202 16.1091 84.489 16.2316C85.0578 16.3541 85.5792 16.5546 86.0414 16.8441C86.5036 17.1225 86.8828 17.49 87.1909 17.9354C87.499 18.3808 87.6887 18.9265 87.7716 19.5612H84.9749C84.8445 18.9599 84.5601 18.5479 84.0979 18.3474C83.6357 18.1359 83.1025 18.0356 82.5099 18.0356C82.3203 18.0356 82.0952 18.0468 81.8344 18.0802C81.5737 18.1136 81.3367 18.1693 81.0997 18.2472C80.8745 18.3252 80.6849 18.4477 80.519 18.6036C80.365 18.7595 80.282 18.9599 80.282 19.216C80.282 19.5278 80.4005 19.7728 80.6257 19.9621C80.8508 20.1514 81.1471 20.3073 81.5145 20.441C81.8818 20.5635 82.2966 20.6748 82.7706 20.7639C83.2447 20.853 83.7305 20.9532 84.2283 21.0535C84.7141 21.1537 85.1882 21.2873 85.6622 21.4321C86.1362 21.5768 86.551 21.7773 86.9184 22.0334C87.2857 22.2895 87.582 22.6013 87.8072 22.98C88.0323 23.3586 88.1508 23.8374 88.1508 24.3942C88.1508 25.0735 87.9849 25.6414 87.6531 26.1203C87.3213 26.588 86.8947 26.9777 86.3732 27.2673C85.8518 27.5568 85.2593 27.7795 84.6193 27.9131C83.9794 28.0468 83.3395 28.1136 82.7114 28.1136C81.9411 28.1136 81.2301 28.0356 80.5783 27.8686C79.9265 27.7016 79.3577 27.4566 78.8837 27.1336C78.4096 26.7996 78.0304 26.3875 77.7578 25.8975C77.4853 25.4076 77.3431 24.8174 77.3194 24.1381H80.0213V24.1158ZM88.8619 16.3541H90.8883V12.9243H93.5666V16.3541H95.9841V18.2361H93.5666V24.3385C93.5666 24.6058 93.5784 24.8285 93.6021 25.029C93.6258 25.2183 93.6851 25.3853 93.768 25.5189C93.851 25.6526 93.9813 25.7528 94.1591 25.8196C94.3368 25.8864 94.562 25.9198 94.8701 25.9198C95.0597 25.9198 95.2493 25.9198 95.4389 25.9087C95.6286 25.8975 95.8182 25.8753 96.0078 25.8307V27.7795C95.7115 27.8129 95.4152 27.8352 95.1427 27.8686C94.8583 27.902 94.5739 27.9131 94.2776 27.9131C93.5666 27.9131 92.9977 27.8463 92.5711 27.7238C92.1445 27.6013 91.8008 27.412 91.5638 27.167C91.3149 26.922 91.1609 26.6214 91.0661 26.2539C90.9831 25.8864 90.9239 25.4633 90.912 24.9955V18.2584H88.8856V16.3541H88.8619ZM97.8802 16.3541H100.416V17.902H100.464C100.843 17.2339 101.364 16.7661 102.04 16.4766C102.715 16.1871 103.438 16.0423 104.232 16.0423C105.192 16.0423 106.022 16.1982 106.733 16.5212C107.444 16.833 108.036 17.2673 108.51 17.8241C108.984 18.3808 109.328 19.0267 109.565 19.7617C109.802 20.4967 109.92 21.2873 109.92 22.1225C109.92 22.8909 109.814 23.637 109.6 24.3497C109.387 25.0735 109.067 25.7082 108.641 26.265C108.214 26.8218 107.669 27.2561 107.005 27.5902C106.342 27.9243 105.571 28.0913 104.671 28.0913C104.28 28.0913 103.888 28.0579 103.497 27.9911C103.106 27.9243 102.727 27.8129 102.372 27.6682C102.016 27.5234 101.672 27.3341 101.376 27.1002C101.068 26.8664 100.819 26.5991 100.606 26.2984H100.558V32H97.8802V16.3541ZM107.242 22.078C107.242 21.5657 107.171 21.0646 107.029 20.5746C106.887 20.0846 106.673 19.6615 106.389 19.2829C106.105 18.9042 105.749 18.6036 105.334 18.3808C104.908 18.1581 104.422 18.0356 103.877 18.0356C102.751 18.0356 101.898 18.4031 101.329 19.1381C100.76 19.8731 100.475 20.853 100.475 22.078C100.475 22.657 100.547 23.1915 100.701 23.6815C100.855 24.1715 101.068 24.5947 101.376 24.951C101.672 25.3073 102.028 25.5857 102.443 25.7862C102.857 25.9978 103.343 26.098 103.888 26.098C104.505 26.098 105.014 25.9755 105.441 25.7416C105.867 25.5078 106.211 25.196 106.484 24.8285C106.756 24.4499 106.958 24.0267 107.076 23.5479C107.183 23.069 107.242 22.5791 107.242 22.078ZM111.971 12H114.649V14.3831H111.971V12ZM111.971 16.3541H114.649V27.7795H111.971V16.3541ZM117.043 12H119.721V27.7795H117.043V12ZM127.933 28.0913C126.962 28.0913 126.096 27.9354 125.338 27.6347C124.58 27.3341 123.94 26.9109 123.406 26.3875C122.885 25.853 122.482 25.2183 122.209 24.4833C121.937 23.7483 121.795 22.9354 121.795 22.0557C121.795 21.1871 121.937 20.3853 122.209 19.6503C122.482 18.9154 122.885 18.2806 123.406 17.7461C123.928 17.2116 124.58 16.7996 125.338 16.4989C126.096 16.1982 126.962 16.0423 127.933 16.0423C128.905 16.0423 129.77 16.1982 130.529 16.4989C131.287 16.7996 131.927 17.2227 132.46 17.7461C132.982 18.2806 133.385 18.9154 133.657 19.6503C133.93 20.3853 134.072 21.1871 134.072 22.0557C134.072 22.9354 133.93 23.7483 133.657 24.4833C133.385 25.2183 132.982 25.853 132.46 26.3875C131.939 26.922 131.287 27.3341 130.529 27.6347C129.77 27.9354 128.905 28.0913 127.933 28.0913ZM127.933 26.098C128.526 26.098 129.047 25.9755 129.486 25.7416C129.924 25.5078 130.28 25.196 130.564 24.8174C130.849 24.4388 131.05 24.0045 131.192 23.5256C131.323 23.0468 131.394 22.5568 131.394 22.0557C131.394 21.5657 131.323 21.0869 131.192 20.5969C131.062 20.1069 130.849 19.6837 130.564 19.3051C130.28 18.9265 129.924 18.6258 129.486 18.392C129.047 18.1581 128.526 18.0356 127.933 18.0356C127.341 18.0356 126.819 18.1581 126.381 18.392C125.942 18.6258 125.587 18.9376 125.302 19.3051C125.018 19.6837 124.817 20.1069 124.674 20.5969C124.544 21.0869 124.473 21.5657 124.473 22.0557C124.473 22.5568 124.544 23.0468 124.674 23.5256C124.805 24.0045 125.018 24.4388 125.302 24.8174C125.587 25.196 125.942 25.5078 126.381 25.7416C126.819 25.9866 127.341 26.098 127.933 26.098ZM134.854 16.3541H136.881V12.9243H139.559V16.3541H141.976V18.2361H139.559V24.3385C139.559 24.6058 139.571 24.8285 139.594 25.029C139.618 25.2183 139.677 25.3853 139.76 25.5189C139.843 25.6526 139.974 25.7528 140.151 25.8196C140.329 25.8864 140.554 25.9198 140.862 25.9198C141.052 25.9198 141.242 25.9198 141.431 25.9087C141.621 25.8975 141.81 25.8753 142 25.8307V27.7795C141.704 27.8129 141.407 27.8352 141.135 27.8686C140.85 27.902 140.566 27.9131 140.27 27.9131C139.559 27.9131 138.99 27.8463 138.563 27.7238C138.137 27.6013 137.793 27.412 137.556 27.167C137.307 26.922 137.153 26.6214 137.058 26.2539C136.975 25.8864 136.916 25.4633 136.904 24.9955V18.2584H134.878V16.3541H134.854Z" fill="white"/>
<path d="M40 11.4651H27.7803L24.0059 0L20.2197 11.4651L8 11.4535L17.8961 18.5465L14.1098 30L24.0059 22.9186L33.8902 30L30.1157 18.5465L40 11.4651Z" fill="#00B67A"/>
<path d="M31 21.3723L30.1458 19L24 23L31 21.3723Z" fill="#005128"/>
</svg>
