<svg width="73" height="32" viewBox="0 0 73 32" fill="none" xmlns="http://www.w3.org/2000/svg">
<path d="M25.598 25.9823H18.591L16.491 16.369C16.391 15.9659 16.233 15.1655 16.018 13.969C15.8341 12.9721 15.6764 11.9704 15.545 10.9652C15.465 11.6191 15.335 12.4325 15.155 13.4023C14.975 14.3742 14.797 15.2668 14.622 16.0822C14.447 16.8966 13.719 20.1973 12.439 25.9823H5.432L0 3.91748H5.717L8.103 14.98C8.643 17.4251 9.013 19.3719 9.213 20.8211C9.343 19.7941 9.576 18.401 9.911 16.6398C10.246 14.8797 10.558 13.4204 10.848 12.263L12.784 3.91748H18.276L20.152 12.263C20.472 13.6019 20.797 15.1465 21.127 16.8966C21.457 18.6477 21.677 19.9556 21.787 20.8211C21.917 19.7038 22.272 17.7671 22.852 15.0101L25.283 3.91748H31L25.598 25.9823Z" fill="#EF4035"/>
<path d="M67.2167 25.9823H60.8002V8.79179H55V3.91748H73V8.79179H67.2167V25.9823Z" fill="#FF961B"/>
<mask id="mask0_895_34120" style="mask-type:alpha" maskUnits="userSpaceOnUse" x="26" y="0" width="34" height="32">
<path d="M43.3721 32C34.2858 32 26.9205 24.837 26.9205 16C26.9205 7.163 34.2858 0 43.3721 0C52.4583 0 59.8236 7.163 59.8236 16C59.8236 24.837 52.4583 32 43.3721 32ZM43.3451 24.041C47.2117 24.041 50.3465 20.454 50.3465 16.028C50.3465 11.602 47.2117 8.014 43.3451 8.014C39.4785 8.014 36.3438 11.602 36.3438 16.028C36.3438 20.454 39.4785 24.041 43.3451 24.041Z" fill="white"/>
</mask>
<g mask="url(#mask0_895_34120)">
<path d="M43.3721 32C34.2858 32 26.9205 24.837 26.9205 16C26.9205 7.163 34.2858 0 43.3721 0C52.4583 0 59.8236 7.163 59.8236 16C59.8236 24.837 52.4583 32 43.3721 32ZM43.3451 24.041C47.2117 24.041 50.3465 20.454 50.3465 16.028C50.3465 11.602 47.2117 8.014 43.3451 8.014C39.4785 8.014 36.3438 11.602 36.3438 16.028C36.3438 20.454 39.4785 24.041 43.3451 24.041Z" fill="url(#paint0_linear_895_34120)"/>
<path fill-rule="evenodd" clip-rule="evenodd" d="M57.3987 23.9672C60.6986 14.7356 54.9648 2.99506 43.7129 4.23692C33.8674 5.32378 30.3748 20.3146 40.5286 23.1912C29.648 17.03 45.7975 1.52412 52.0035 13.7488C58.0631 25.6853 46.4298 31.4446 37.6136 31.2854C44.6832 35.3624 55.3387 31.2466 57.3987 23.9672Z" fill="url(#paint1_linear_895_34120)"/>
<path fill-rule="evenodd" clip-rule="evenodd" d="M29.1938 25.663C35.4235 33.506 48.4511 34.249 53.1712 23.146C57.3011 13.432 46.2277 2.43002 38.5363 10.382C49.4213 3.45402 54.4275 26.487 40.7418 25.933C27.3782 25.393 28.4161 11.599 33.0864 3.48502C25.9514 7.94802 24.0051 19.983 29.1948 25.663" fill="url(#paint2_linear_895_34120)"/>
</g>
<defs>
<linearGradient id="paint0_linear_895_34120" x1="59.8236" y1="0.954881" x2="27.7812" y2="31.9353" gradientUnits="userSpaceOnUse">
<stop stop-color="#5CE379"/>
<stop offset="1" stop-color="#347A44"/>
</linearGradient>
<linearGradient id="paint1_linear_895_34120" x1="28.0864" y1="12.3209" x2="63.3076" y2="22.6335" gradientUnits="userSpaceOnUse">
<stop stop-color="#347A44"/>
<stop offset="1" stop-color="#5CE379"/>
</linearGradient>
<linearGradient id="paint2_linear_895_34120" x1="53.9132" y1="3.48502" x2="26.1802" y2="31.29" gradientUnits="userSpaceOnUse">
<stop stop-color="#347A44"/>
<stop offset="1" stop-color="#5CE379"/>
</linearGradient>
</defs>
</svg>
