<svg width="21" height="21" viewBox="0 0 21 21" fill="none" xmlns="http://www.w3.org/2000/svg">
<g clip-path="url(#clip0_3320_347989)">
<path d="M14.4391 9.91027C14.6589 9.74848 14.9101 9.56974 15.1761 9.38046L15.1771 9.37977C17.1421 7.98176 19.8333 6.06714 19.8333 4.05469V2.84375C19.8333 1.55141 18.591 0.5 17.064 0.5H4.60248C3.07553 0.5 1.83325 1.55141 1.83325 2.84375V4.05469C1.83325 6.06708 4.52421 7.98163 6.48919 9.37966L6.48939 9.3798L6.49036 9.38049C6.7564 9.56977 7.00764 9.74852 7.22739 9.91031C7.43642 10.0643 7.55633 10.2792 7.55633 10.5C7.55633 10.7209 7.43647 10.9358 7.22739 11.0897C7.00759 11.2516 6.75628 11.4304 6.49017 11.6197L6.4901 11.6197L6.48935 11.6203C4.52435 13.0183 1.83325 14.9329 1.83325 16.9453V18.1562C1.83325 19.4486 3.07553 20.5 4.60248 20.5H17.064C18.591 20.5 19.8333 19.4486 19.8333 18.1562C19.8333 17.7248 19.42 17.375 18.9102 17.375C18.4004 17.375 17.9871 17.7248 17.9871 18.1562C17.9871 18.587 17.573 18.9375 17.064 18.9375H4.60248C4.0935 18.9375 3.67941 18.587 3.67941 18.1562V16.9453C3.67941 15.6608 6.18155 13.8805 7.67685 12.8166L7.6773 12.8162C7.94984 12.6224 8.20728 12.4392 8.43911 12.2685C9.05134 11.8177 9.40248 11.1731 9.40248 10.5C9.40248 9.82688 9.05134 9.18227 8.43916 8.73145C8.20754 8.56094 7.95036 8.37795 7.6781 8.18425L7.67734 8.18371C6.18205 7.11988 3.67941 5.33937 3.67941 4.05469V2.84375C3.67941 2.41297 4.0935 2.0625 4.60248 2.0625H17.064C17.573 2.0625 17.9871 2.41297 17.9871 2.84375V4.05469C17.9871 5.33932 15.4847 7.11972 13.9894 8.18357L13.9892 8.18371C13.7167 8.37758 13.4592 8.56074 13.2274 8.73145C12.6152 9.18227 12.264 9.82688 12.264 10.5C12.264 11.1731 12.6152 11.8177 13.2273 12.2685C13.469 12.4464 13.7381 12.6371 14.0231 12.839C14.9212 13.4752 15.939 14.1963 16.7424 14.9635C17.0805 15.2864 17.6639 15.3161 18.0455 15.03C18.427 14.7438 18.4622 14.25 18.124 13.9271C17.2297 13.073 16.1093 12.2793 15.2088 11.6413L15.2081 11.6408L15.2018 11.6363C14.9261 11.441 14.6657 11.2565 14.4391 11.0897C14.2301 10.9357 14.1102 10.7208 14.1102 10.5C14.1102 10.2792 14.2301 10.0642 14.4391 9.91027Z" fill="#EE3232"/>
<path d="M6.49844 16.1203L6.48654 16.1311C6.48277 16.1345 6.47903 16.1379 6.47531 16.1413C6.00833 16.5665 6.3663 17.2578 7.05242 17.2578H14.6141C15.3002 17.2578 15.6582 16.5665 15.1913 16.1413C15.1836 16.1344 15.1759 16.1273 15.1682 16.1203C14.5003 15.516 12.0764 13.7787 11.8124 13.5895C11.7989 13.5798 11.791 13.5742 11.7894 13.573C11.2391 13.1736 10.4274 13.1736 9.87722 13.573C9.87568 13.5741 9.86874 13.5791 9.85684 13.5876L9.85617 13.5881C9.60267 13.7698 7.16802 15.5144 6.49844 16.1203Z" fill="#EE3232"/>
<path d="M11.8514 7.72055C11.8393 7.72942 11.8322 7.73459 11.8306 7.73574C11.2832 8.14016 10.4756 8.14016 9.92818 7.73574C9.92661 7.73459 9.91953 7.72942 9.90737 7.72056C9.78987 7.63487 9.19835 7.20351 8.53345 6.70559C7.95842 6.275 8.31242 5.46094 9.07474 5.46094H12.6841C13.4464 5.46094 13.8004 6.275 13.2254 6.70559C12.5605 7.20348 11.9689 7.63486 11.8514 7.72055Z" fill="#EE3232"/>
</g>
<defs>
<clipPath id="clip0_3320_347989">
<rect width="20" height="20" fill="white" transform="translate(0.833252 0.5)"/>
</clipPath>
</defs>
</svg>
