<svg width="20" height="20" viewBox="0 0 20 20" fill="none" xmlns="http://www.w3.org/2000/svg">
<g clip-path="url(#clip0_4728_117554)">
<path d="M3.8147e-05 7.5H20V2.89475C20 2.67676 19.8456 2.5 19.6552 2.5H0.344843C0.154413 2.5 0 2.67676 0 2.89475L3.8147e-05 7.5Z" fill="#F5F5F5"/>
<path d="M0.344845 17.5H19.6552C19.8456 17.5 20 17.3232 20 17.1052V12.5H0V17.1052C0 17.3233 0.154415 17.5 0.344845 17.5Z" fill="#FF4B55"/>
<path d="M0 7.5H20V12.5H0V7.5Z" fill="#41479B"/>
</g>
<defs>
<clipPath id="clip0_4728_117554">
<path d="M0 10C0 5.85786 3.35786 2.5 7.5 2.5H12.5C16.6421 2.5 20 5.85786 20 10C20 14.1421 16.6421 17.5 12.5 17.5H7.5C3.35786 17.5 0 14.1421 0 10Z" fill="white"/>
</clipPath>
</defs>
</svg>
