<svg width="32" height="32" viewBox="0 0 32 32" fill="none" xmlns="http://www.w3.org/2000/svg">
<rect width="32" height="32" rx="12" fill="#EE3232"/>
<path d="M14.1625 8.93492C14.1081 7.88285 14.9465 7 16 7C17.0535 7 17.8919 7.88284 17.8375 8.93492L17.3583 18.2036C17.321 18.9266 16.7239 19.4936 16 19.4936C15.2761 19.4936 14.679 18.9266 14.6417 18.2036L14.1625 8.93492ZM16 25C15.4306 25 14.9514 24.8099 14.5625 24.4296C14.1875 24.0347 14 23.5594 14 23.0037C14 22.4479 14.1875 21.9872 14.5625 21.6216C14.9375 21.2413 15.4167 21.0512 16 21.0512C16.5833 21.0512 17.0625 21.2413 17.4375 21.6216C17.8125 21.9872 18 22.4479 18 23.0037C18 23.5594 17.8056 24.0347 17.4167 24.4296C17.0417 24.8099 16.5694 25 16 25Z" fill="white"/>
</svg>
