<svg width="32" height="32" viewBox="0 0 32 32" fill="none" xmlns="http://www.w3.org/2000/svg">
<rect width="32" height="32" fill="#2E3148"/>
<path d="M16 24C20.4183 24 24 20.6421 24 16.5C24 12.3579 20.4183 9 16 9C11.5817 9 8 12.3579 8 16.5C8 20.6421 11.5817 24 16 24Z" fill="#1B1E36"/>
<path fill-rule="evenodd" clip-rule="evenodd" d="M13.8555 13.0607C10.364 11.5496 7.58639 10.9572 7.09685 11.7387C6.60728 12.5203 8.54515 14.4468 11.7021 16.4912C8.53383 18.5242 6.58807 20.4449 7.07411 21.2272C7.56075 22.0104 10.3464 21.4246 13.8538 19.9216C14.1864 23.4776 15.0221 26 16.0003 26C16.977 26 17.8116 23.4852 18.1452 19.9376C21.638 21.4498 24.4139 22.0429 24.9036 21.261C25.3936 20.4807 23.455 18.5531 20.2984 16.508C23.4664 14.475 25.4119 12.5545 24.9259 11.7723C24.4389 10.9888 21.6538 11.5746 18.1467 13.0776C17.814 9.52202 16.9784 7 16.0003 7C15.0237 7 14.1892 9.51401 13.8555 13.0607ZM13.8142 13.5369C13.7698 14.0961 13.7376 14.6783 13.719 15.278C13.1577 15.5952 12.6203 15.9146 12.1112 16.2323C10.7668 15.3426 9.82618 14.6138 9.82618 14.6138C7.68097 12.9463 7.51981 12.1331 7.51981 12.1331L7.51915 12.1309C7.42501 11.9248 7.62374 11.8752 7.62374 11.8752C8.50355 11.7218 9.73939 12.0713 9.73939 12.0713C10.9018 12.3157 12.3789 12.89 13.8142 13.5369ZM14.2518 13.7368C14.2381 13.8727 14.2246 14.0115 14.2115 14.1533C14.2115 14.1533 14.1994 14.4772 14.1919 15.0144C14.4092 14.8949 14.6296 14.7759 14.8531 14.6576C15.0653 14.5453 15.2766 14.4355 15.4869 14.3281C15.0883 14.1314 14.6735 13.9321 14.2518 13.7368ZM16.008 14.0662C15.4278 13.7758 14.8573 13.5057 14.3026 13.2575C14.7958 8.82719 15.585 7.731 15.8647 7.47565C15.8951 7.44791 15.9351 7.43096 15.9777 7.42778C16.0203 7.4246 16.0628 7.4354 16.0976 7.45827C16.5295 7.7408 16.8918 8.92241 16.8918 8.92241C17.3505 10.4946 17.5947 12.0256 17.724 13.2617C17.1662 13.5084 16.5921 13.7771 16.008 14.0662ZM15.9844 14.5763C15.4756 14.843 14.8556 15.1755 14.1869 15.5507C14.1842 16.1039 14.1883 16.7855 14.2093 17.5289C14.6337 17.7711 15.0687 18.0059 15.5045 18.2229C15.5045 18.2229 15.6777 18.3211 15.9938 18.4842C16.4588 18.2556 16.9231 18.0132 17.3692 17.7602C17.3692 17.7602 17.5483 17.6709 17.86 17.4999C17.8768 17.0113 17.8803 16.5163 17.8646 16.0306C17.8646 16.0306 17.8693 15.8623 17.8651 15.5604C17.3491 15.2808 16.7019 14.9382 15.9844 14.5763ZM17.8515 15.0404C17.6232 14.9132 17.3913 14.7866 17.156 14.6606C16.934 14.5418 16.7129 14.4257 16.4928 14.3124C17.003 14.0502 17.3145 13.8981 17.3145 13.8981C17.4685 13.8319 17.6192 13.7679 17.7669 13.7059C17.8126 14.2232 17.8378 14.6756 17.8515 15.0404ZM18.2942 15.7948C18.2983 16.0277 18.3004 16.2628 18.3004 16.5C18.3004 16.7547 18.298 17.0071 18.2933 17.2567C18.6317 17.0627 19.0478 16.8151 19.5153 16.5179C19.3795 16.4286 19.24 16.3376 19.0967 16.2451C19.0967 16.2451 18.797 16.0718 18.2942 15.7948ZM19.9127 16.2614C19.3968 15.9358 18.8516 15.6083 18.2817 15.2829C18.2631 14.6797 18.2307 14.0941 18.1859 13.5317C22.6058 11.7153 24.0322 11.803 24.4108 11.8992C24.4521 11.9098 24.488 11.9336 24.5121 11.9664C24.5362 11.9991 24.547 12.0387 24.5426 12.078C24.4942 12.5647 23.5619 13.4425 23.5619 13.4425C22.3185 14.5885 21.007 15.5434 19.9127 16.2614ZM19.8899 16.7665C19.3807 17.0843 18.8431 17.4039 18.2816 17.7212C18.2625 18.3356 18.2292 18.9316 18.1831 19.5035C19.4046 20.0183 20.9573 20.5881 22.6554 21.0084C22.6554 21.0084 23.9445 21.3116 24.4258 21.1081C24.4648 21.0918 24.4963 21.0633 24.5147 21.0276C24.5331 20.992 24.5373 20.9514 24.5265 20.9132C24.4268 20.5628 23.7957 19.3819 19.8899 16.7665ZM17.7415 19.3137C17.7814 18.885 17.8159 18.4316 17.8398 17.9677C17.6123 18.093 17.3812 18.2178 17.1469 18.3418C16.91 18.4672 16.6741 18.5896 16.4395 18.7088C16.7903 18.8817 17.2299 19.0895 17.7415 19.3137ZM15.5406 18.7027C15.3106 18.5845 15.0794 18.4633 14.8472 18.3391C14.637 18.2266 14.4295 18.1136 14.2248 18.0002C14.2401 18.4122 14.2609 18.838 14.2888 19.2674C14.6929 19.0933 15.1146 18.9043 15.5406 18.7027ZM13.7069 17.2361C13.7024 16.9932 13.7001 16.7477 13.7001 16.5C13.7001 16.2725 13.702 16.0469 13.7059 15.8234C13.3233 16.0424 12.9304 16.2729 12.5377 16.5109C12.9071 16.749 13.2999 16.9941 13.7069 17.2361ZM12.1273 16.7626C12.6315 17.0798 13.1634 17.3987 13.7188 17.7156C13.7374 18.3194 13.7698 18.9056 13.8146 19.4685C12.2996 20.1006 11.138 20.4899 11.138 20.4899C8.50125 21.367 7.65768 21.0876 7.65768 21.0876C7.41555 21.0595 7.47015 20.8757 7.47015 20.8757C7.76716 20.0961 8.7123 19.2833 8.7123 19.2833C9.52387 18.4772 10.802 17.585 12.1273 16.7626ZM15.9936 18.9325C16.574 19.2229 17.1445 19.493 17.6991 19.7412C17.5394 21.2618 17.3286 22.3788 17.3286 22.3788C16.8414 24.9269 16.1591 25.4639 16.1591 25.4639C16.0138 25.6427 15.8686 25.5085 15.8686 25.5085C15.2836 24.8828 14.9911 23.7203 14.9911 23.7203C14.6363 22.6663 14.4339 21.193 14.3207 19.718C14.865 19.4765 15.4245 19.2141 15.9936 18.9325Z" fill="#6F7390"/>
<path d="M21.6425 12.1858C21.6425 12.5561 21.3282 12.8564 20.9404 12.8564C20.5526 12.8564 20.2382 12.5561 20.2382 12.1858C20.2382 11.8154 20.5526 11.5152 20.9404 11.5152C21.3282 11.5152 21.6425 11.8154 21.6425 12.1858Z" fill="#B7B9C8"/>
<path d="M17.1875 16.4776C17.1875 17.0948 16.6455 17.5952 15.9769 17.5952C15.3082 17.5952 14.7662 17.0948 14.7662 16.4776C14.7662 15.8603 15.3082 15.3599 15.9769 15.3599C16.6455 15.3599 17.1875 15.8603 17.1875 16.4776Z" fill="#B7B9C8"/>
<path d="M9.41507 15.1364C9.80287 15.1364 10.1172 14.8362 10.1172 14.4658C10.1172 14.0955 9.80287 13.7952 9.41507 13.7952C9.02726 13.7952 8.71289 14.0955 8.71289 14.4658C8.71289 14.8362 9.02726 15.1364 9.41507 15.1364Z" fill="#B7B9C8"/>
<path d="M15.2504 22.6917C15.2504 23.062 14.936 23.3622 14.5482 23.3622C14.1604 23.3622 13.846 23.062 13.846 22.6917C13.846 22.3213 14.1604 22.0211 14.5482 22.0211C14.936 22.0211 15.2504 22.3213 15.2504 22.6917Z" fill="#B7B9C8"/>
</svg>
