<svg width="32" height="32" viewBox="0 0 32 32" fill="none" xmlns="http://www.w3.org/2000/svg">
<rect width="32" height="32" fill="url(#paint0_linear_2470_50881)"/>
<path d="M20.1013 16.5905C20.504 15.9263 21.1538 15.9263 21.5565 16.5905L24.0643 20.794C24.4671 21.4582 24.1376 22 23.3321 22H18.2799C17.4836 22 17.1541 21.4582 17.5477 20.794L20.1013 16.5905ZM15.2504 8.49813C15.6531 7.83396 16.2938 7.83396 16.6965 8.49813L17.2548 9.45943L18.5728 11.6704C18.8931 12.2996 18.8931 13.0424 18.5728 13.6717L14.1521 20.9863C13.7494 21.5805 13.0812 21.9563 12.3399 22H8.66971C7.86428 22 7.53479 21.4669 7.9375 20.794L15.2504 8.49813Z" fill="white"/>
<defs>
<linearGradient id="paint0_linear_2470_50881" x1="16" y1="0" x2="16" y2="32" gradientUnits="userSpaceOnUse">
<stop stop-color="#E84142"/>
<stop offset="1" stop-color="#C83B3B"/>
</linearGradient>
</defs>
</svg>
