<svg width="32" height="32" viewBox="0 0 32 32" fill="none" xmlns="http://www.w3.org/2000/svg">
<rect width="32" height="32" fill="url(#paint0_linear_2515_51770)"/>
<path fill-rule="evenodd" clip-rule="evenodd" d="M18.411 8.63114C17.6916 8.33721 16.9359 8.16488 16.1439 8.23543C16.0944 8.01899 16.0686 7.90954 15.9993 7.85421C15.9284 7.79761 15.8119 7.79761 15.5775 7.79761H10.333C10.076 7.79761 9.94676 7.79761 9.8817 7.86193C9.81581 7.92707 9.81581 8.05821 9.81581 8.32216V23.6563C9.81581 23.931 9.81581 24.0675 9.88441 24.1354C9.95219 24.2024 10.0869 24.2024 10.3548 24.2024H21.6379C21.6852 24.2024 21.7343 24.2006 21.7834 24.1988C21.8326 24.197 21.8819 24.1952 21.9292 24.1952C22.0749 24.188 22.155 24.1162 22.1623 23.9725C22.1696 23.8862 22.1696 23.8072 22.1696 23.721V13.8479C22.1696 13.3305 22.0895 12.8204 21.9219 12.3317C21.3319 10.5641 20.1446 9.33533 18.411 8.63114ZM16.0129 8.22236C16.0548 8.22987 16.0967 8.23739 16.138 8.24224C16.1306 8.35536 16.1163 8.47516 16.102 8.58803V17.7928C16.102 17.9085 16.1085 18.0178 16.1154 18.1328L16.1164 18.1491C16.0528 18.1611 15.9892 18.1726 15.9258 18.1841C15.7714 18.212 15.6181 18.2398 15.4683 18.2742C14.1426 18.5401 13.5161 19.9988 14.2518 21.1269C14.669 21.7727 15.2922 22.033 16.0443 22.0394C16.0489 22.2124 16.0543 22.3861 16.0597 22.5601C16.0711 22.9282 16.0825 23.2975 16.0874 23.6635C16.0874 23.8144 15.9927 23.9078 15.8325 23.9078C15.7451 23.915 15.665 23.915 15.5776 23.915H10.4495C10.1727 23.9006 10.1436 23.8719 10.129 23.5988V23.3114C10.129 22.3587 10.1318 21.4054 10.1345 20.4518C10.1407 18.3053 10.147 16.1575 10.1217 14.0132C10.0926 11.3042 12.0957 9.04791 14.4339 8.43713C14.8174 8.33453 15.2125 8.27771 15.6089 8.22071L15.7523 8.2C15.8349 8.19042 15.9239 8.20639 16.0129 8.22236ZM16.073 22.0171C16.0736 21.9527 16.0769 21.8883 16.0801 21.8239C16.0838 21.7521 16.0874 21.6802 16.0874 21.6084C16.0874 21.2877 16.0866 20.9662 16.0858 20.6444C16.0842 20.0001 16.0826 19.3548 16.0874 18.7126C16.0874 18.5602 16.1068 18.4031 16.1258 18.2491C16.1296 18.2183 16.1333 18.1877 16.1369 18.1572C16.2096 18.1752 16.2826 18.1915 16.3555 18.2078C16.5611 18.2536 16.7652 18.2992 16.9542 18.382C17.7336 18.7198 18.1706 19.503 18.0759 20.3365C17.9813 21.1629 17.384 21.8311 16.5463 22.0036C16.4433 22.0267 16.3343 22.0231 16.2251 22.0194C16.1742 22.0177 16.1233 22.016 16.073 22.0171Z" fill="white"/>
<path fill-rule="evenodd" clip-rule="evenodd" d="M23 16.0323V24.4395C23 25 23 25 22.4464 25H9.56087C9.00728 25 9.00728 25 9.00728 24.4395C9 18.8132 9 13.1868 9 7.56048C9 7.27862 9 7.1385 9.07041 7.06885C9.14001 7 9.2784 7 9.55359 7H22.4391C22.9927 7 22.9927 7 22.9927 7.55329C23 10.3844 23 13.2084 23 16.0323ZM9.28408 24.0802C9.28408 24.3908 9.28408 24.5452 9.36171 24.6221C9.43857 24.6982 9.59153 24.6982 9.89594 24.6982H22.4173C22.6868 24.6838 22.7232 24.6479 22.7378 24.3748V7.81916C22.7378 7.28743 22.7305 7.28024 22.1842 7.28024H9.84495C9.56611 7.28024 9.4259 7.28024 9.35539 7.34999C9.28408 7.42055 9.28408 7.56246 9.28408 7.8479V24.0802Z" fill="white"/>
<defs>
<linearGradient id="paint0_linear_2515_51770" x1="16" y1="0" x2="16" y2="32" gradientUnits="userSpaceOnUse">
<stop stop-color="#078653"/>
<stop offset="1" stop-color="#003C24"/>
</linearGradient>
</defs>
</svg>
