<svg width="32" height="32" viewBox="0 0 32 32" fill="none" xmlns="http://www.w3.org/2000/svg">
<rect width="32" height="32" fill="url(#paint0_linear_2470_49420)"/>
<path d="M22.9608 14.0406C23.2728 11.9371 21.684 10.8079 19.5136 10.0554L20.2175 7.20889L18.497 6.77698L17.808 9.54692C17.3581 9.43559 16.8925 9.3282 16.4332 9.22002L17.1221 6.43192L15.4016 6L14.7001 8.84417L11.2309 7.98034L10.7716 9.83118C10.7716 9.83118 12.0484 10.1241 12.021 10.1431C12.7194 10.3192 12.8448 10.785 12.8229 11.1514L10.8907 18.9488C10.8084 19.1644 10.5905 19.4826 10.1038 19.3618C10.1218 19.3862 8.85437 19.0443 8.85437 19.0443L8 21.031L11.4629 21.913L10.7528 24.7935L12.4701 25.2222L13.174 22.3757C13.6459 22.502 14.0989 22.6228 14.5457 22.7334L13.8418 25.5681L15.5623 26L16.2756 23.125C19.2087 23.6864 21.4136 23.4614 22.3408 20.7902C23.091 18.6369 22.304 17.3972 20.7606 16.5863C21.8846 16.3241 22.7327 15.5811 22.9561 14.0414L22.9608 14.0406ZM19.0276 19.5931C18.4946 21.7432 14.8969 20.5801 13.7305 20.2903L14.6766 16.4749C15.8429 16.7679 19.5818 17.3475 19.0276 19.5931ZM19.5606 14.0106C19.077 15.9688 16.082 14.9731 15.1116 14.7291L15.966 11.2683C16.9364 11.5123 20.0654 11.9687 19.5606 14.0106Z" fill="white"/>
<defs>
<linearGradient id="paint0_linear_2470_49420" x1="16" y1="0" x2="16" y2="32" gradientUnits="userSpaceOnUse">
<stop stop-color="#F7931A"/>
<stop offset="1" stop-color="#F7841A"/>
</linearGradient>
</defs>
</svg>
