<svg width="32" height="32" viewBox="0 0 32 32" fill="none" xmlns="http://www.w3.org/2000/svg">
<rect width="32" height="32" fill="url(#paint0_linear_2515_51879)"/>
<path d="M14.2385 12.906H12.6873L13.6592 7.10658H15.2104L14.2385 12.906ZM11.3808 7.10658L9.90041 11.094L9.72663 10.2351L9.20528 7.62696C9.20528 7.62696 9.14092 7.10658 8.47154 7.10658H6.02575L6 7.2069C6 7.2069 6.74661 7.35737 7.62195 7.87147L8.96714 12.9122H10.5827L13.0478 7.11285H11.3808V7.10658ZM21.872 10.8495L22.6894 8.68025L23.1463 10.8495H21.872ZM23.5776 12.8997H25L23.7578 7.10031H22.5091C21.9363 7.10031 21.7947 7.53292 21.7947 7.53292L19.4841 12.8997H21.0996L21.4214 12.0408H23.3909L23.5711 12.8997H23.5776ZM19.6064 8.49843L19.8252 7.25078L18.4285 7C17.6562 7 15.8347 7.32602 15.8347 8.9185C15.8347 10.4169 17.978 10.4357 17.978 11.2194C17.978 12.0094 16.0535 11.8652 15.4228 11.3699L15.1911 12.674C15.1911 12.674 15.8862 13 16.9417 13C17.9973 13 19.5935 12.4671 19.5935 11.0125C19.5935 9.50157 17.4309 9.36364 17.4309 8.70533C17.4309 8.04702 18.9434 8.1348 19.6064 8.49216V8.49843Z" fill="white"/>
<circle cx="19.5" cy="19.5" r="5.5" fill="white" fill-opacity="0.8"/>
<circle cx="13.5" cy="19.5" r="5.5" fill="white" fill-opacity="0.6"/>
<defs>
<linearGradient id="paint0_linear_2515_51879" x1="16" y1="0" x2="16" y2="32" gradientUnits="userSpaceOnUse">
<stop stop-color="#EF4256"/>
<stop offset="1" stop-color="#EB001B"/>
</linearGradient>
</defs>
</svg>
