<svg width="32" height="32" viewBox="0 0 32 32" fill="none" xmlns="http://www.w3.org/2000/svg">
<rect width="32" height="32" fill="url(#paint0_linear_2470_50769)"/>
<path d="M16.2149 17.0183H21.4463C21.5578 17.0183 21.6105 17.0183 21.6185 16.8655C21.6613 16.3093 21.6613 15.7499 21.6185 15.193C21.6185 15.0849 21.5671 15.0402 21.455 15.0402H11.0437C10.9148 15.0402 10.8801 15.0849 10.8801 15.2111V16.8117C10.8801 17.0183 10.8801 17.0183 11.0864 17.0183H16.2149ZM21.0343 13.1696C21.0492 13.1288 21.0492 13.0841 21.0343 13.044C20.9469 12.8452 20.8435 12.6555 20.7233 12.4774C20.5424 12.1731 20.3293 11.8927 20.0864 11.6409C19.9718 11.4887 19.8392 11.3521 19.6905 11.2362C18.9458 10.5738 18.0605 10.105 17.1089 9.86932C16.6288 9.75665 16.1381 9.70291 15.6462 9.70744H11.0257C10.8969 9.70744 10.8795 9.76118 10.8795 9.87838V13.0705C10.8795 13.2052 10.8795 13.2415 11.0431 13.2415H20.9723C20.9723 13.2415 21.0585 13.2233 21.0758 13.1696H21.0337H21.0343ZM21.0343 18.8889C20.8881 18.8721 20.7406 18.8721 20.5944 18.8889H11.0524C10.9235 18.8889 10.8801 18.8889 10.8801 19.0689V22.1898C10.8801 22.3336 10.8801 22.3698 11.0524 22.3698H15.4579C15.6685 22.3867 15.8792 22.3711 16.0855 22.3252C16.7248 22.2772 17.3536 22.1322 17.9534 21.8933C18.1714 21.8143 18.3821 21.7113 18.5809 21.5877H18.641C19.6738 21.0263 20.5126 20.1444 21.0417 19.0618C21.0417 19.0618 21.1018 18.9258 21.0343 18.8902V18.8889ZM9.15102 23.9879V23.9342V21.8389V21.1286V19.0152C9.15102 18.898 9.15102 18.8805 9.01348 18.8805H7.14621C7.04275 18.8805 7 18.8805 7 18.7367V17.028H8.99614C9.10765 17.028 9.15102 17.028 9.15102 16.8752V15.1846C9.15102 15.0765 9.15102 15.0499 9.01348 15.0499H7.14621C7.04275 15.0499 7 15.0499 7 14.9062V13.3237C7 13.2246 7 13.1981 7.13754 13.1981H8.98746C9.11633 13.1981 9.15102 13.1981 9.15102 13.0271V8.18C9.15102 8.03626 9.15102 8 9.32325 8H15.7763C16.2447 8.01942 16.71 8.07317 17.1703 8.16187C18.1188 8.34511 19.0301 8.69929 19.8634 9.20499C20.416 9.54492 20.9246 9.95543 21.3775 10.4281C21.7183 10.7978 22.0255 11.198 22.2981 11.624C22.5689 12.0559 22.7938 12.5176 22.9703 12.9999C22.992 13.1256 23.1073 13.2104 23.2274 13.189H24.7676C24.9652 13.189 24.9652 13.189 24.9739 13.3872V14.8621C24.9739 15.0059 24.9225 15.0421 24.7843 15.0421H23.5967C23.4765 15.0421 23.4418 15.0421 23.4505 15.204C23.4976 15.7518 23.4976 16.3015 23.4505 16.8493C23.4505 17.0021 23.4505 17.0202 23.6147 17.0202H24.9733C25.0334 17.1012 24.9733 17.1821 24.9733 17.2637C24.982 17.3679 24.982 17.4735 24.9733 17.5777V18.6662C24.9733 18.819 24.9305 18.8643 24.8011 18.8643H23.1748C23.0614 18.8416 22.9511 18.9174 22.9251 19.0352C22.5379 20.0874 21.9184 21.0308 21.1179 21.7871C20.8255 22.0623 20.5182 22.3213 20.1973 22.5602C19.8528 22.7674 19.5177 22.983 19.1645 23.1539C18.5147 23.4596 17.8332 23.6849 17.1337 23.828C16.4696 23.9523 15.7961 24.0086 15.1202 23.9989H9.14854V23.9899L9.15102 23.9879Z" fill="#FEFEFD"/>
<defs>
<linearGradient id="paint0_linear_2470_50769" x1="16" y1="0" x2="16" y2="32" gradientUnits="userSpaceOnUse">
<stop stop-color="#F5AC37"/>
<stop offset="1" stop-color="#CB8618"/>
</linearGradient>
</defs>
</svg>
