<svg width="32" height="32" viewBox="0 0 32 32" fill="none" xmlns="http://www.w3.org/2000/svg">
<rect width="32" height="32" fill="url(#paint0_linear_2470_50833)"/>
<path d="M16.5873 7C12.9553 7.0151 10.0146 10.0592 10 13.8189C10 14.5719 10.1174 15.3198 10.3474 16.0339C10.519 16.5201 11.0282 16.7818 11.5062 16.6315C11.9681 16.4481 12.2134 15.9253 12.0661 15.4363C11.8709 14.8797 11.784 14.2893 11.8097 13.6981C11.8889 10.9826 14.0794 8.84749 16.7027 8.92947C19.3259 9.01145 21.3885 11.2789 21.3093 13.9944C21.235 16.5366 19.3009 18.6013 16.8478 18.7559C16.8478 18.7559 15.9232 18.8141 15.4633 18.8724C15.2938 18.8975 15.1256 18.9321 14.9596 18.9759C14.936 19.0011 14.8978 19.0011 14.8735 18.9767L14.8728 18.9759C14.8561 18.9536 14.8561 18.922 14.8728 18.8997L15.0159 18.0914L15.8843 14.0483C15.9885 13.5435 15.6779 13.0466 15.1902 12.9387C14.7026 12.8308 14.2225 13.1523 14.1183 13.6571C14.1183 13.6571 12.0529 23.5533 12.0529 23.6432C11.9348 24.1243 12.2155 24.6133 12.6802 24.7356C12.6851 24.737 12.6906 24.7384 12.6955 24.7392H12.7434C13.2075 24.8636 13.6813 24.5745 13.8008 24.0941C13.8029 24.0862 13.805 24.0783 13.8064 24.0696C13.805 24.0545 13.805 24.0394 13.8064 24.0251C13.8321 23.9086 14.0926 22.5918 14.0926 22.5918C14.2899 21.5979 15.0638 20.8364 16.0322 20.6825C16.2316 20.6508 17.0695 20.5926 17.0695 20.5926C20.6876 20.2193 23.3282 16.8803 22.9669 13.135C22.6376 9.71909 19.9039 7.08917 16.5873 7Z" fill="#1E1E1E"/>
<path d="M16.9874 22.7227C16.3934 22.5947 15.8126 22.9895 15.6889 23.6037C15.6875 23.6094 15.6868 23.6152 15.6855 23.6209C15.5569 24.2315 15.9307 24.8349 16.5212 24.9679C16.5219 24.9679 16.5226 24.9679 16.5233 24.9686H16.5539C17.1319 25.1132 17.7134 24.745 17.8523 24.1473C17.8537 24.143 17.8544 24.138 17.8558 24.1337V24.0711C17.9579 23.4541 17.5772 22.8622 16.9874 22.7227Z" fill="#E6007A"/>
<defs>
<linearGradient id="paint0_linear_2470_50833" x1="16" y1="0" x2="16" y2="32" gradientUnits="userSpaceOnUse">
<stop stop-color="#F6F2FF"/>
<stop offset="1" stop-color="#F3E9FF"/>
</linearGradient>
</defs>
</svg>
