<svg width="32" height="32" viewBox="0 0 32 32" fill="none" xmlns="http://www.w3.org/2000/svg">
<rect width="32" height="32" fill="url(#paint0_linear_2515_51822)"/>
<path fill-rule="evenodd" clip-rule="evenodd" d="M7.60016 12.6456C10.7139 10.6187 14.1595 9.41811 19.9846 10.4351L20.5706 9.69354C19.1091 9.16387 17.5275 8.98025 15.4869 9.0085C13.6582 9.065 10.3538 9.75004 8.58866 10.7953L9.13233 10.1243C10.3609 9.38987 13.5735 8.43645 15.9883 8.39408C17.6899 8.35171 18.5583 8.45058 20.5848 8.99438C20.4012 8.65539 19.9846 8.47883 19.3703 8.19633C17.4145 7.32061 13.7712 7.23586 10.7845 8.56357L12.0131 7.86441C12.9945 7.40536 14.6114 6.96043 16.6237 7.0028C18.2406 7.03105 20.1541 7.58898 21.3261 8.7472L21.6862 9.41811C22.6182 9.89129 23.1549 10.3292 23.4585 10.8447L23.5714 11.7275L24.3481 12.4125L24.6023 13.0835L24.3693 14.0792L24.9695 14.8632C25.1248 15.5623 24.6658 16.2474 24.0869 16.777C23.0593 17.5377 21.8939 18.0917 20.6554 18.4084C18.2265 19.0229 16.073 19.2771 14.3572 19.5949C15.1269 19.7785 16.1718 20.0257 17.8735 20.0257C21.5168 20.0257 24.7294 18.3096 24.7294 18.3096L24.5882 18.7262C22.2723 20.1246 18.6007 20.7108 17.0332 20.6401C15.5942 20.5841 14.1681 20.3444 12.7898 19.9268L11.6036 20.3294C13.6017 21.2404 15.1198 21.4452 16.8144 21.5724C18.5583 21.6995 21.4462 21.2828 23.868 20.4L23.5856 20.7884C21.9423 21.533 20.1856 21.9962 18.3889 22.1585C17.0756 22.215 15.4728 22.1585 14.0748 21.8972C12.9658 21.6657 11.8876 21.3054 10.8622 20.8237L10.5445 21.3393C14.562 23.4368 18.3042 23.4862 22.5759 22.1515L22.1875 22.5258C17.4851 24.4397 13.8206 23.6981 10.9752 22.328L10.6786 22.1868C10.9469 22.6458 13.1216 24.2348 15.5505 24.4326C17.2239 24.5738 19.2644 24.2913 20.4789 23.804L19.7657 24.1713C18.4218 24.8092 16.9351 25.0867 15.4516 24.9764C13.5005 24.8985 11.6398 24.133 10.1985 22.8153L9.59833 21.6995C9.01872 21.4284 8.52873 20.9971 8.1862 20.4565L8.07322 19.496L8.15795 19.2418L7.38834 18.5285C7.09885 18.0129 7.27537 17.568 7.47307 17.229L7.07061 16.6287L7 15.9154L7.58604 14.7431C8.21444 14.0157 9.21706 13.4436 10.9116 12.8857C12.585 12.3278 13.2558 12.243 14.5126 11.9535C15.9812 11.6145 17.7393 11.5015 19.215 10.9859C15.1127 10.2727 10.8551 10.9294 7.38834 13.3165L7.61428 12.6456H7.60016ZM21.5733 10.1173L21.1567 10.7176L22.4841 11.1625C22.4276 10.76 21.9687 10.3786 21.5662 10.1173H21.5733ZM8.94875 18.3237L8.27799 17.9211L8.62396 18.5921L8.95581 18.3166L8.94875 18.3237ZM22.7595 12.9634L23.5856 13.3942C23.7691 13.034 23.6562 12.808 23.2749 12.4761L22.7595 12.9634ZM21.8839 13.4931C21.2838 13.7756 20.4294 14.0651 19.2009 14.3617L13.0863 15.5482C12.2602 15.7318 9.98667 16.2615 8.87108 17.2078L9.72543 17.7234C10.3468 17.3388 11.0264 17.0574 11.7377 16.89C13.3476 16.4663 14.5691 16.2756 16.0236 16.0355C17.4639 15.8166 20.1964 15.2445 21.6933 14.7007L22.9783 14.0298L21.8769 13.486L21.8839 13.4931ZM10.4739 19.8138L11.2717 19.4254L9.98667 18.8534L9.45712 19.2347L10.4739 19.8068V19.8138ZM9.08996 19.941L9.60539 20.7602L9.81722 20.3576L9.08996 19.941ZM11.1305 14.9408C14.1031 14.0651 17.2168 13.7967 20.3729 12.9563C19.3402 12.6071 18.2414 12.4984 17.1603 12.6385C15.2139 12.8678 13.2894 13.2551 11.4059 13.7967C10.7069 14.0086 7.0353 15.0538 8.09441 16.5157C8.09441 16.5299 8.72281 15.6471 11.1376 14.9408H11.1305ZM22.2582 11.897L20.5283 11.2967L19.4268 11.9111L21.5097 12.469L22.2582 11.897ZM23.7268 14.7572L23.4302 15.0044C22.7595 15.52 21.6862 15.9296 20.2176 16.318C17.1603 17.1443 14.9433 17.2573 12.4297 17.8788L10.9469 18.3661L12.4438 19.0229C13.4747 18.7262 13.9618 18.5921 15.4446 18.3519L19.0173 17.681C21.2908 17.1937 24.6164 16.1344 23.7338 14.7643L23.7268 14.7572Z" fill="white"/>
<defs>
<linearGradient id="paint0_linear_2515_51822" x1="16" y1="0" x2="16" y2="32" gradientUnits="userSpaceOnUse">
<stop stop-color="#2B4995"/>
<stop offset="1" stop-color="#1E3262"/>
</linearGradient>
</defs>
</svg>
