<svg width="32" height="32" viewBox="0 0 32 32" fill="none" xmlns="http://www.w3.org/2000/svg">
<rect width="32" height="32" fill="url(#paint0_linear_2515_51919)"/>
<path d="M18.1257 18.3163V18.7622H16.9913V19.1824H18.0509V19.6258H16.9913V20.1775H18.2288V20.6338H16.4138V18.3163H18.1257Z" fill="white"/>
<path d="M16.1998 18.8422L15.7409 19.0716C15.7074 18.9968 15.6687 18.9169 15.5682 18.8318C15.4573 18.7442 15.3439 18.7158 15.2511 18.7158C14.8772 18.7158 14.6813 19.0639 14.6813 19.4531C14.6813 19.9609 14.9391 20.2136 15.2511 20.2136C15.548 20.2136 15.6701 20.0087 15.7501 19.8744L15.7538 19.8681L16.2101 20.1027L16.2078 20.1064C16.1235 20.2392 16.0409 20.3694 15.8595 20.4971C15.7615 20.5667 15.5346 20.7008 15.2124 20.7008C14.5988 20.7008 14.1038 20.2548 14.1038 19.4686C14.1038 18.7829 14.5704 18.2415 15.2253 18.2415C15.4908 18.2415 15.728 18.3343 15.9007 18.471C16.058 18.5998 16.1354 18.7287 16.1998 18.8422Z" fill="white"/>
<path d="M15.9033 15.9241H15.3026V17.7852H14.7225V15.9241H14.1192V15.4652H15.9033V15.9241Z" fill="white"/>
<path d="M12.312 12.6193H14.0239V13.0704H12.8895V13.4906H13.9491V13.9288H12.8895V14.4805H14.127V14.9367H12.312V12.6193Z" fill="white"/>
<path d="M12.4022 20.6338H11.8479V18.3163H12.4151L12.9178 19.1695C13.1009 19.4943 13.1576 19.6 13.2659 19.8037L13.2401 18.3163H13.7944V20.6338H13.2272L12.7941 19.9016C12.5852 19.5562 12.544 19.484 12.3867 19.1747L12.4022 20.6338Z" fill="white"/>
<path d="M7.84403 20.6338H7.28973V18.3163H7.85692L8.35966 19.1695C8.54271 19.4943 8.59943 19.6 8.70771 19.8037L8.68193 18.3163H9.23623V20.6338H8.66904L8.23333 19.9016C8.0245 19.5562 7.98325 19.484 7.82598 19.1747L7.84403 20.6338Z" fill="white"/>
<path d="M8.71544 17.7852V15.4678H10.4273V15.9163H9.29295V16.3365H10.3526V16.7773H9.29295V17.329H10.5305V17.7852H8.71544Z" fill="white"/>
<path fill-rule="evenodd" clip-rule="evenodd" d="M10.2391 18.3137H10.8424L11.6958 20.6312H11.0796L10.9636 20.26H10.1102L9.99678 20.6312H9.38061L10.2391 18.3137ZM10.5305 18.8654C10.5021 18.9839 10.4686 19.1051 10.4351 19.2237C10.4003 19.3482 10.3459 19.521 10.298 19.6734L10.2977 19.6742C10.2783 19.736 10.2599 19.7944 10.2443 19.8449H10.8321L10.5305 18.8654Z" fill="white"/>
<path fill-rule="evenodd" clip-rule="evenodd" d="M10.8837 17.7852V15.4678H11.621C11.902 15.4704 12.33 15.4781 12.6239 15.741C12.8637 15.9576 12.9539 16.2824 12.9539 16.6072C12.9539 16.8082 12.9256 16.9552 12.8946 17.0531C12.6806 17.7698 12.0361 17.7827 11.7938 17.7852H10.8837ZM12.3816 16.6278C12.3816 16.468 12.3661 16.3056 12.2604 16.1612C12.1068 15.9547 11.8892 15.9549 11.7158 15.955L11.4715 15.955V17.3187H11.6494C11.9536 17.3109 12.3816 17.2955 12.3816 16.6278Z" fill="white"/>
<path d="M13.2891 17.7852V15.4678H13.8666V17.7852H13.2891Z" fill="white"/>
<path d="M10.0509 12.6193L10.4041 13.9185L10.4866 14.2897L10.5073 14.1906C10.523 14.1146 10.5294 14.084 10.5485 14.0036L10.9198 12.6167H11.7654V14.9342H11.2111L11.2472 13.2818L11.2549 13.0498L11.2343 13.1323L11.2153 13.2134C11.2006 13.2769 11.1942 13.3042 11.175 13.3772L10.7393 14.9342H10.2391L9.81889 13.4442L9.71835 13.0317C9.72458 13.1424 9.72705 13.2012 9.7303 13.2789C9.73242 13.3295 9.73491 13.3889 9.73897 13.4751L9.76733 14.9367H9.20529V12.6193H10.0509Z" fill="white"/>
<path fill-rule="evenodd" clip-rule="evenodd" d="M7.68934 12.5471C7.82598 12.5471 7.97036 12.5677 8.11216 12.6167C8.82115 12.8642 8.86756 13.6349 8.86756 13.7922C8.86756 14.1918 8.68451 14.5552 8.42669 14.7615C8.19982 14.9496 7.93684 15.0038 7.69965 15.0038C6.96488 15.0038 6.54722 14.4392 6.54722 13.769C6.54722 13.14 6.94426 12.5471 7.68934 12.5471ZM8.28747 13.8283C8.26942 14.3155 7.97551 14.5114 7.69965 14.5114C7.42637 14.5114 7.11957 14.3103 7.11699 13.7561C7.11699 13.3359 7.34129 13.0266 7.69192 13.0266C7.84919 13.0266 8.0013 13.091 8.09927 13.1967C8.23075 13.3385 8.29778 13.586 8.28747 13.8283Z" fill="white"/>
<path fill-rule="evenodd" clip-rule="evenodd" d="M6.33839 15.4678H7.38254C7.62489 15.4704 7.92653 15.4755 8.14052 15.7049C8.2488 15.8261 8.32357 16.0091 8.32357 16.2205C8.32357 16.683 8.01199 16.7985 7.85085 16.8582L7.84661 16.8598L8.38029 17.7852H7.7409L7.28199 16.9578H6.91848V17.7852H6.33839V15.4678ZM7.41257 15.8983C7.53403 15.9035 7.74606 15.9125 7.74606 16.2076C7.74606 16.517 7.48051 16.5247 7.39801 16.5247H6.91848V15.8983H7.4109L7.41257 15.8983Z" fill="white"/>
<path d="M6.20175 18.3137H6.77926V20.6312H6.20175V18.3137Z" fill="white"/>
<path d="M4.17017 12.6193H4.75283V13.4571H5.59846V12.6193H6.17855V14.9367H5.59846V13.9494H4.75283V14.9367H4.17017V12.6193Z" fill="white"/>
<path d="M5.11893 15.3956C5.38448 15.3956 5.62167 15.4884 5.7944 15.625C5.95425 15.7539 6.03159 15.8802 6.09605 15.9962L5.63714 16.2257C5.60362 16.1509 5.56495 16.071 5.4644 15.9859C5.35354 15.8983 5.2401 15.8699 5.14729 15.8699C4.77346 15.8699 4.57752 16.2179 4.57752 16.6046C4.57752 17.1124 4.83791 17.3676 5.14729 17.3676C5.44426 17.3676 5.56631 17.1628 5.64629 17.0285L5.65003 17.0222L6.10636 17.2542L6.10403 17.2579C6.01976 17.3907 5.93711 17.5209 5.75573 17.6486C5.65776 17.7182 5.43088 17.8523 5.10861 17.8523C4.49502 17.8523 4.00001 17.4063 4.00001 16.6201C3.99743 15.9369 4.4615 15.3956 5.11893 15.3956Z" fill="white"/>
<path d="M4.15212 18.3137H5.93104V18.7597H4.72963V19.2443H5.83565V19.6954H4.72963V20.6312H4.15212V18.3137Z" fill="white"/>
<path d="M28 22H27.4921V10.7271L24.5169 9.62383V21.9948L4.16759 22V21.4741H19.0564V10.3405L24.5169 9L28 10.3559V22Z" fill="white"/>
<defs>
<linearGradient id="paint0_linear_2515_51919" x1="16" y1="0" x2="16" y2="32" gradientUnits="userSpaceOnUse">
<stop stop-color="#E2383F"/>
<stop offset="1" stop-color="#B7242A"/>
</linearGradient>
</defs>
</svg>
