<svg width="32" height="32" viewBox="0 0 32 32" fill="none" xmlns="http://www.w3.org/2000/svg">
<rect width="32" height="32" fill="url(#paint0_linear_2470_50805)"/>
<path d="M23.5345 9.93103C24.3439 9.93103 25 9.2749 25 8.46552C25 7.65613 24.3439 7 23.5345 7C22.7251 7 22.069 7.65613 22.069 8.46552C22.069 9.2749 22.7251 9.93103 23.5345 9.93103Z" fill="#18A0B1"/>
<path d="M12.2676 18.0148C11.7156 17.0779 11.4906 15.9841 11.6278 14.9053C11.7651 13.8266 12.2568 12.824 13.0257 12.055C13.7947 11.2861 14.7973 10.7944 15.876 10.6571C16.9548 10.5199 18.0486 10.745 18.9855 11.2969L20.1579 10.1245L20.0993 10.0776C18.8383 9.24638 17.3281 8.87797 15.826 9.03509C14.3238 9.19222 12.9226 9.86516 11.8609 10.9393C10.7992 12.0135 10.1426 13.4225 10.003 14.9263C9.86336 16.4302 10.2493 17.936 11.0952 19.1872L12.2676 18.0148Z" fill="#18A0B1"/>
<path d="M20.7324 13.0497C21.2844 13.9866 21.5094 15.0804 21.3722 16.1592C21.235 17.2379 20.7432 18.2405 19.9743 19.0095C19.2054 19.7784 18.2027 20.2701 17.124 20.4073C16.0452 20.5446 14.9515 20.3195 14.0145 19.7676L12.8421 20.94C14.0978 21.7925 15.6114 22.1806 17.1224 22.0374C18.6333 21.8942 20.0471 21.2287 21.1203 20.1555C22.1935 19.0823 22.859 17.6685 23.0022 16.1575C23.1454 14.6466 22.7573 13.1329 21.9048 11.8772L20.7324 13.0497Z" fill="#18A0B1"/>
<path d="M9.46552 24C10.2749 24 10.931 23.3439 10.931 22.5345C10.931 21.7251 10.2749 21.069 9.46552 21.069C8.65613 21.069 8 21.7251 8 22.5345C8 23.3439 8.65613 24 9.46552 24Z" fill="#18A0B1"/>
<defs>
<linearGradient id="paint0_linear_2470_50805" x1="16" y1="0" x2="16" y2="32" gradientUnits="userSpaceOnUse">
<stop stop-color="#F6F2FF"/>
<stop offset="1" stop-color="#C0CEFF"/>
</linearGradient>
</defs>
</svg>
