<svg width="32" height="32" viewBox="0 0 32 32" fill="none" xmlns="http://www.w3.org/2000/svg">
<rect width="32" height="32" fill="url(#paint0_linear_2470_50787)"/>
<path d="M20.0908 9.08794C20.6402 9.08794 21.0867 8.61932 21.0867 8.0436C21.0867 7.46787 20.6402 7 20.0908 7C19.5413 7.00298 19.0948 7.47085 19.0948 8.04657C19.0948 8.6223 19.5413 9.08794 20.0908 9.08794ZM20.3846 11.8014C20.61 11.7997 20.8254 11.7055 20.9836 11.5397C21.1417 11.3738 21.2296 11.1499 21.2279 10.9171C21.2279 10.4306 20.8505 10.0327 20.3846 10.0327C19.9187 10.0327 19.5413 10.4277 19.5413 10.9171C19.5413 11.4065 19.9179 11.8014 20.3846 11.8014ZM22.6999 12.1473C23.1636 12.1473 23.541 11.7523 23.541 11.2651C23.541 10.7779 23.1636 10.3829 22.6999 10.3829C22.2361 10.3829 21.8587 10.7779 21.8587 11.2651C21.8587 11.7523 22.2368 12.1473 22.6999 12.1473ZM22.4219 14.4688C22.8194 14.4688 23.1413 14.1311 23.1413 13.7153C23.1413 13.2995 22.8194 12.9618 22.4219 12.9618C22.0244 12.9618 21.7025 13.2995 21.7025 13.7153C21.7025 14.1311 22.0244 14.4688 22.4219 14.4688ZM24.2755 15.2216C24.6759 15.2216 25 14.8816 25 14.4629C25 14.0441 24.6759 13.7042 24.2755 13.7042C24.1797 13.7048 24.085 13.725 23.9967 13.7635C23.9085 13.802 23.8284 13.8581 23.7612 13.9285C23.6939 13.999 23.6407 14.0824 23.6047 14.1741C23.5686 14.2658 23.5504 14.3639 23.5511 14.4629C23.5511 14.8816 23.8759 15.2216 24.2755 15.2216ZM20.0922 14.1549C20.1896 14.1543 20.286 14.1339 20.3757 14.0949C20.4655 14.0559 20.547 13.9989 20.6155 13.9274C20.6839 13.8558 20.7381 13.771 20.7748 13.6778C20.8116 13.5847 20.8302 13.4849 20.8296 13.3843V13.3828C20.8296 12.9566 20.5005 12.6107 20.0922 12.6107C19.6839 12.6107 19.3548 12.9559 19.3548 13.3828C19.3548 13.8068 19.6846 14.1549 20.0922 14.1549ZM19.4239 16.0019C19.766 16.0019 20.0418 15.7118 20.0418 15.3555C20.0432 15.1854 19.979 15.0218 19.8636 14.9006C19.7481 14.7794 19.5908 14.7105 19.4262 14.7091H19.4239C19.0819 14.7091 18.806 14.9992 18.806 15.3555C18.806 15.7118 19.0819 16.0019 19.4239 16.0019ZM21.7428 16.3284C21.8238 16.3278 21.904 16.3108 21.9786 16.2782C22.0533 16.2456 22.121 16.1982 22.1779 16.1386C22.2348 16.079 22.2798 16.0084 22.3103 15.9309C22.3408 15.8533 22.3562 15.7703 22.3556 15.6866V15.6851C22.3556 15.3295 22.082 15.0416 21.7428 15.0416C21.4036 15.0416 21.1299 15.3295 21.1299 15.6851C21.1289 15.7685 21.1438 15.8513 21.1737 15.9287C21.2036 16.0062 21.2481 16.0768 21.3044 16.1366C21.3608 16.1963 21.428 16.244 21.5022 16.2769C21.5764 16.3098 21.6561 16.3273 21.7369 16.3284H21.7428ZM23.5914 17.0782C23.9335 17.0782 24.2093 16.7881 24.2093 16.4296C24.2093 16.071 23.9335 15.7809 23.5914 15.7809C23.2493 15.7809 22.9735 16.071 22.9735 16.4296C22.9718 16.5998 23.0356 16.7638 23.1509 16.8854C23.2662 17.0071 23.4236 17.0764 23.5884 17.0782H23.5914ZM22.6783 18.4796C22.967 18.4796 23.2004 18.2334 23.2004 17.9328C23.2004 17.6323 22.967 17.3861 22.6783 17.3861C22.3895 17.3861 22.1562 17.6323 22.1562 17.9328C22.1562 18.2334 22.3895 18.4796 22.6783 18.4796ZM20.821 17.7417C21.1148 17.7417 21.3554 17.4903 21.3554 17.1816C21.3554 16.8729 21.117 16.6215 20.821 16.6215C20.525 16.6215 20.2867 16.8729 20.2867 17.1816C20.2867 17.4903 20.5272 17.7417 20.821 17.7417ZM18.505 17.3995C18.646 17.3972 18.7804 17.3378 18.8794 17.2341C18.9783 17.1303 19.0338 16.9906 19.0339 16.845C19.034 16.6994 18.9787 16.5596 18.8799 16.4557C18.7811 16.3518 18.6467 16.2922 18.5057 16.2897H18.505C18.3641 16.292 18.2296 16.3514 18.1307 16.4552C18.0317 16.5589 17.9762 16.6986 17.9762 16.8443C17.9761 16.9899 18.0314 17.1297 18.1302 17.2336C18.229 17.3374 18.3633 17.397 18.5043 17.3995H18.505ZM19.7926 18.7161C20.0483 18.7161 20.2535 18.4989 20.2535 18.2348C20.2547 18.1084 20.2072 17.9867 20.1214 17.8964C20.0357 17.8062 19.9187 17.7548 19.7963 17.7536H19.7926C19.537 17.7536 19.3317 17.9708 19.3317 18.2348C19.3304 18.3611 19.3777 18.4827 19.4631 18.573C19.5486 18.6632 19.6653 18.7147 19.7875 18.7161H19.7926ZM21.6492 19.4666C21.9048 19.4666 22.1151 19.2494 22.1151 18.9802C22.1151 18.7109 21.9077 18.4937 21.6492 18.4937C21.5243 18.4937 21.4045 18.545 21.3161 18.6362C21.2278 18.7274 21.1782 18.8511 21.1782 18.9802C21.1782 19.1092 21.2278 19.2329 21.3161 19.3241C21.4045 19.4154 21.5243 19.4666 21.6492 19.4666ZM20.6035 20.0297C20.8059 20.0297 20.9708 19.8571 20.9708 19.6452C20.9714 19.5439 20.933 19.4465 20.8642 19.3744C20.7953 19.3023 20.7016 19.2614 20.6035 19.2606C20.4012 19.2606 20.2362 19.4332 20.2362 19.6452C20.2361 19.7463 20.2745 19.8435 20.3433 19.9155C20.4121 19.9875 20.5056 20.0285 20.6035 20.0297ZM19.6126 20.3317C19.6565 20.3314 19.6999 20.3222 19.7403 20.3046C19.7807 20.287 19.8174 20.2614 19.8482 20.2291C19.879 20.1969 19.9034 20.1587 19.92 20.1167C19.9365 20.0747 19.9449 20.0298 19.9446 19.9845V19.9836C19.9446 19.7902 19.7948 19.6355 19.6126 19.6355C19.5687 19.6358 19.5253 19.645 19.4849 19.6626C19.4445 19.6802 19.4078 19.7058 19.377 19.7381C19.3462 19.7703 19.3218 19.8085 19.3052 19.8505C19.2887 19.8925 19.2803 19.9374 19.2806 19.9827V19.9836C19.2791 20.0743 19.3125 20.162 19.3736 20.2272C19.4346 20.2925 19.5182 20.3301 19.606 20.3316L19.6126 20.3317ZM18.7448 19.3305C18.963 19.3305 19.1402 19.1446 19.1402 18.9169C19.1402 18.6893 18.963 18.5034 18.7448 18.5034C18.5266 18.5034 18.3495 18.6893 18.3495 18.9169C18.3493 19.0258 18.3907 19.1303 18.4647 19.2078C18.5388 19.2852 18.6394 19.3294 18.7448 19.3305ZM17.4716 18.3821C17.7251 18.3821 17.9325 18.1679 17.9325 17.9009C17.9325 17.6338 17.7273 17.4196 17.4716 17.4196C17.2181 17.4196 17.0107 17.6338 17.0107 17.9009C17.0105 18.0277 17.0589 18.1494 17.1452 18.2396C17.2315 18.3297 17.3489 18.3809 17.4716 18.3821ZM21.2473 24.4116C21.7946 24.4116 22.2382 23.946 22.2382 23.3725C22.2382 22.799 21.7946 22.3334 21.2473 22.3334C20.7 22.3334 20.2564 22.799 20.2564 23.3725C20.2564 23.946 20.7 24.4116 21.2473 24.4116ZM18.7304 23.0965C19.1863 23.0965 19.5564 22.709 19.5564 22.2307C19.5564 21.7524 19.1863 21.3649 18.7304 21.3649C18.2746 21.3649 17.9044 21.7524 17.9044 22.2307C17.9044 22.709 18.2739 23.0965 18.7304 23.0965ZM17.2923 25C17.7532 25 18.1255 24.6102 18.1255 24.126C18.1255 23.6447 17.7532 23.252 17.2923 23.252C16.8314 23.252 16.4591 23.6418 16.4591 24.126C16.4574 24.356 16.5442 24.5773 16.7004 24.7412C16.8567 24.9051 17.0695 24.9982 17.2922 25H17.2923ZM16.8595 21.4928C16.955 21.4922 17.0495 21.472 17.1375 21.4337C17.2254 21.3953 17.3053 21.3394 17.3723 21.2691C17.4394 21.1989 17.4924 21.1157 17.5284 21.0243C17.5643 20.9328 17.5825 20.835 17.5818 20.7364C17.5825 20.6377 17.5643 20.5399 17.5284 20.4485C17.4924 20.357 17.4394 20.2738 17.3723 20.2036C17.3053 20.1333 17.2254 20.0774 17.1375 20.0391C17.0495 20.0007 16.955 19.9806 16.8595 19.9799C16.764 19.9806 16.6695 20.0007 16.5815 20.0391C16.4935 20.0774 16.4137 20.1333 16.3467 20.2036C16.2796 20.2738 16.2266 20.357 16.1906 20.4485C16.1547 20.5399 16.1365 20.6377 16.1372 20.7364C16.1379 21.1529 16.462 21.4928 16.8595 21.4928ZM15.425 23.4223C15.8225 23.4223 16.1444 23.0846 16.1444 22.6688C16.1444 22.253 15.8225 21.9153 15.425 21.9153C15.0274 21.9153 14.7055 22.253 14.7055 22.6688C14.7036 22.8667 14.7779 23.0572 14.912 23.1985C15.0461 23.3398 15.229 23.4203 15.4206 23.4223H15.425ZM13.8788 24.7315C14.2763 24.7315 14.5961 24.3938 14.5961 23.9802C14.5961 23.5644 14.2742 23.2289 13.8788 23.2289C13.4813 23.2289 13.1616 23.5666 13.1616 23.9802C13.1616 24.3938 13.4835 24.7315 13.8788 24.7315ZM12.5919 23.0274C12.7554 23.0258 12.9116 22.9575 13.0264 22.8374C13.1412 22.7172 13.2054 22.555 13.2048 22.3862C13.2048 22.0329 12.9311 21.745 12.5919 21.745C12.4289 21.7476 12.2734 21.8162 12.159 21.9362C12.0447 22.0562 11.9805 22.2178 11.9805 22.3862C11.9805 22.5546 12.0447 22.7162 12.159 22.8361C12.2734 22.9561 12.4289 23.0248 12.5919 23.0274ZM14.1409 21.7123C14.3045 21.7111 14.4609 21.6429 14.5758 21.5227C14.6907 21.4024 14.7547 21.24 14.7538 21.0711C14.7538 20.7155 14.4801 20.4299 14.1409 20.4299C13.9779 20.4321 13.8223 20.5005 13.7077 20.6203C13.5931 20.7401 13.5287 20.9016 13.5284 21.07C13.5281 21.2384 13.592 21.4001 13.7062 21.5203C13.8204 21.6405 13.9758 21.7094 14.1388 21.7123H14.1409ZM15.5863 19.7835C15.6673 19.7829 15.7475 19.7659 15.8221 19.7333C15.8968 19.7007 15.9645 19.6533 16.0214 19.5937C16.0783 19.5341 16.1233 19.4635 16.1538 19.386C16.1843 19.3084 16.1997 19.2254 16.1991 19.1417V19.1402C16.1991 18.7846 15.9255 18.4967 15.5863 18.4967C15.5052 18.4973 15.4251 18.5144 15.3504 18.5469C15.2758 18.5795 15.2081 18.6269 15.1512 18.6865C15.0943 18.7461 15.0493 18.8167 15.0188 18.8943C14.9883 18.9718 14.9729 19.0548 14.9734 19.1385V19.1401C14.9734 19.4956 15.2471 19.7835 15.5863 19.7835ZM13.3754 20.0491C13.6693 20.0491 13.9076 19.8006 13.9076 19.4919C13.9076 19.1832 13.6693 18.9348 13.3754 18.9348C13.0816 18.9348 12.8432 19.1832 12.8432 19.4919C12.8432 19.8006 13.0816 20.0491 13.3754 20.0491ZM11.8343 21.3589C11.9039 21.3586 11.9728 21.344 12.0369 21.3161C12.1011 21.2883 12.1593 21.2476 12.2083 21.1965C12.2572 21.1454 12.2959 21.0848 12.3222 21.0182C12.3485 20.9517 12.3619 20.8804 12.3615 20.8085V20.807C12.3628 20.662 12.3083 20.5224 12.21 20.4189C12.1117 20.3154 11.9776 20.2565 11.8373 20.2551H11.8343C11.7647 20.2555 11.6959 20.27 11.6317 20.2979C11.5676 20.3258 11.5093 20.3664 11.4604 20.4175C11.4114 20.4687 11.3727 20.5292 11.3464 20.5958C11.3201 20.6624 11.3068 20.7336 11.3072 20.8055V20.807C11.3067 20.879 11.32 20.9504 11.3462 21.0171C11.3724 21.0838 11.4111 21.1445 11.4601 21.1957C11.509 21.247 11.5673 21.2878 11.6315 21.3158C11.6957 21.3438 11.7646 21.3585 11.8343 21.3589ZM11.48 19.8237C11.6015 19.8227 11.7177 19.7721 11.8031 19.6828C11.8885 19.5936 11.9363 19.4731 11.9359 19.3476C11.9359 19.0836 11.7306 18.8716 11.48 18.8716C11.2294 18.8716 11.0242 19.0858 11.0242 19.3476C11.0242 19.6117 11.2294 19.8237 11.48 19.8237ZM11.4671 18.4766C11.5188 18.4761 11.5699 18.4651 11.6175 18.4442C11.6651 18.4233 11.7083 18.3929 11.7445 18.3548C11.7808 18.3167 11.8094 18.2715 11.8288 18.222C11.8481 18.1724 11.8578 18.1194 11.8574 18.066C11.8574 17.8406 11.6824 17.6554 11.4671 17.6554C11.2517 17.6554 11.0767 17.8384 11.0767 18.066C11.0767 18.2936 11.2517 18.4766 11.4671 18.4766ZM11.6817 17.3564C11.8667 17.3564 12.0136 17.1994 12.0136 17.0083C12.0136 16.8171 11.8639 16.6602 11.6817 16.6602C11.4966 16.6602 11.3497 16.8171 11.3497 17.0083C11.3497 17.1994 11.4966 17.3564 11.6817 17.3564ZM13.0103 17.1689C13.2285 17.1689 13.4057 16.983 13.4057 16.7554C13.4057 16.5278 13.2285 16.3418 13.0103 16.3418C12.7921 16.3418 12.615 16.5278 12.615 16.7554C12.6146 16.8643 12.6559 16.9689 12.73 17.0464C12.8041 17.1239 12.9049 17.168 13.0103 17.1689ZM14.4686 16.582C14.7221 16.582 14.9295 16.3649 14.9295 16.1008C14.9307 15.9743 14.8831 15.8526 14.7974 15.7624C14.7116 15.6721 14.5947 15.6207 14.4723 15.6195H14.4686C14.2151 15.6195 14.0077 15.8367 14.0077 16.1008C14.0072 16.1635 14.0187 16.2257 14.0415 16.2838C14.0643 16.3419 14.098 16.3949 14.1406 16.4396C14.1832 16.4842 14.2339 16.5198 14.2898 16.5443C14.3457 16.5687 14.4057 16.5816 14.4665 16.582H14.4686ZM14.8157 18.1099C14.9544 18.1096 15.0873 18.0524 15.1852 17.951C15.2831 17.8495 15.338 17.7121 15.3379 17.5689C15.3378 17.4256 15.2826 17.2883 15.1845 17.187C15.0863 17.0858 14.9533 17.0289 14.8146 17.0289C14.676 17.0289 14.5429 17.0858 14.4448 17.187C14.3467 17.2883 14.2915 17.4256 14.2914 17.5689C14.2912 17.7121 14.3462 17.8495 14.4441 17.951C14.542 18.0524 14.6749 18.1096 14.8136 18.1099H14.8157ZM13.029 18.5168C13.2825 18.5168 13.4849 18.3025 13.4849 18.0377C13.4849 17.7729 13.2797 17.5587 13.029 17.5587C12.9688 17.5591 12.9092 17.5717 12.8537 17.5959C12.7982 17.62 12.7478 17.6553 12.7055 17.6995C12.6632 17.7438 12.6297 17.7963 12.607 17.8539C12.5843 17.9115 12.5728 17.9732 12.5732 18.0354V18.0377C12.5723 18.0997 12.5833 18.1613 12.6055 18.219C12.6277 18.2766 12.6606 18.3291 12.7025 18.3736C12.7443 18.4181 12.7943 18.4536 12.8494 18.4782C12.9045 18.5027 12.9638 18.5158 13.0239 18.5167H13.029V18.5168ZM7.98804 17.8064C8.53247 17.8064 8.97608 17.343 8.97608 16.7725C8.97608 16.202 8.53247 15.7385 7.98804 15.7385C7.44361 15.7385 7 16.2027 7 16.7732C7 17.3437 7.44361 17.8064 7.98804 17.8064ZM10.2306 15.9602C10.6994 15.9602 11.0767 15.5623 11.0767 15.0728C11.0767 14.5834 10.6965 14.1854 10.2306 14.1854C10.0046 14.187 9.78855 14.2812 9.62987 14.4473C9.47118 14.6135 9.38288 14.8379 9.3844 15.0713V15.0728C9.3844 15.5652 9.76463 15.9602 10.2306 15.9602ZM9.35559 13.6841C9.82152 13.6841 10.1967 13.2891 10.1967 12.8019C10.1967 12.3147 9.81936 11.9197 9.35559 11.9197C9.24438 11.9205 9.1344 11.9439 9.03194 11.9885C8.92948 12.0332 8.83654 12.0983 8.75844 12.1801C8.68033 12.2618 8.61858 12.3587 8.57672 12.4651C8.53486 12.5716 8.5137 12.6855 8.51446 12.8003V12.8019C8.51218 13.0335 8.59905 13.2565 8.75596 13.422C8.91288 13.5874 9.12699 13.6817 9.3512 13.6841H9.35559ZM11.5175 12.6055C11.915 12.6055 12.2398 12.2678 12.2398 11.849C12.2398 11.4303 11.9157 11.0926 11.5175 11.0926C11.1192 11.0926 10.7952 11.4303 10.7952 11.849C10.7952 12.2678 11.1199 12.6055 11.5175 12.6055ZM12.4011 14.8764C12.8015 14.8764 13.1255 14.5365 13.1255 14.1177C13.1255 13.699 12.8015 13.359 12.4011 13.359C12.0007 13.359 11.6766 13.699 11.6766 14.1177C11.6766 14.5365 12.0007 14.8764 12.4011 14.8764ZM14.3685 14.4049C14.5331 14.4035 14.6905 14.3346 14.8059 14.2134C14.9214 14.0922 14.9855 13.9286 14.9842 13.7585C14.9855 13.675 14.9708 13.5921 14.941 13.5144C14.9112 13.4368 14.8669 13.3659 14.8106 13.306C14.7543 13.246 14.6871 13.1981 14.6129 13.165C14.5386 13.1318 14.4588 13.1141 14.3779 13.1128C14.2971 13.1115 14.2168 13.1267 14.1416 13.1575C14.0664 13.1883 13.9979 13.234 13.9398 13.2922C13.8818 13.3503 13.8354 13.4197 13.8033 13.4964C13.7712 13.5731 13.754 13.6555 13.7528 13.739C13.7528 13.7456 13.7528 13.7521 13.7528 13.7585C13.7509 13.928 13.8142 14.0913 13.9289 14.2125C14.0435 14.3337 14.2001 14.4029 14.3641 14.4049L14.3685 14.4049ZM16.0681 14.4108C16.3619 14.4108 16.6002 14.1624 16.6002 13.8559C16.6002 13.5494 16.3619 13.301 16.0681 13.301C15.9256 13.301 15.7889 13.3595 15.6882 13.4635C15.5874 13.5676 15.5308 13.7087 15.5308 13.8559C15.5308 14.0031 15.5874 14.1442 15.6882 14.2483C15.7889 14.3523 15.9256 14.4108 16.0681 14.4108ZM17.4723 14.7448C17.7179 14.7448 17.921 14.5358 17.921 14.2762C17.921 14.0166 17.7208 13.8076 17.4723 13.8076C17.3528 13.8085 17.2384 13.8584 17.1543 13.9462C17.0703 14.034 17.0233 14.1527 17.0237 14.2762C17.0266 14.5328 17.226 14.7448 17.4723 14.7448ZM17.6553 13.0355C17.7594 13.0347 17.859 12.9913 17.9322 12.9147C18.0054 12.8381 18.0462 12.7347 18.0456 12.6271C18.0456 12.4017 17.8706 12.2187 17.6553 12.2187C17.4399 12.2187 17.2649 12.4017 17.2649 12.6271C17.2643 12.7347 17.3051 12.8381 17.3783 12.9147C17.4515 12.9913 17.5511 13.0347 17.6553 13.0355ZM16.575 12.4761C16.6942 12.4758 16.8084 12.4266 16.8926 12.3394C16.9767 12.2522 17.0239 12.134 17.0237 12.0109C17.0236 11.8878 16.9761 11.7698 16.8918 11.6828C16.8074 11.5958 16.6931 11.5469 16.5739 11.5469C16.4547 11.5469 16.3404 11.5958 16.2561 11.6828C16.1717 11.7698 16.1243 11.8878 16.1241 12.0109C16.124 12.134 16.1711 12.2522 16.2553 12.3394C16.3394 12.4266 16.4536 12.4758 16.5728 12.4761H16.575ZM15.1873 12.1369C15.328 12.1357 15.4625 12.077 15.5613 11.9735C15.6602 11.87 15.7152 11.7303 15.7145 11.585C15.7145 11.2785 15.479 11.0331 15.1873 11.0331C14.8957 11.0331 14.6602 11.2815 14.6602 11.585C14.6596 11.6569 14.6727 11.7282 14.6989 11.7948C14.725 11.8615 14.7635 11.9222 14.8124 11.9734C14.8612 12.0247 14.9193 12.0655 14.9834 12.0935C15.0475 12.1216 15.1163 12.1363 15.1859 12.1369H15.1873ZM13.4907 12.1391C13.8327 12.1391 14.1085 11.849 14.1085 11.4927C14.1085 11.1365 13.8327 10.8464 13.4907 10.8464C13.1486 10.8464 12.8728 11.1365 12.8728 11.4927C12.8722 11.6629 12.9369 11.8265 13.0526 11.9476C13.1684 12.0687 13.3259 12.1376 13.4907 12.1391ZM11.2056 10.5228C11.5931 10.5228 11.9049 10.1955 11.9049 9.79012C11.9049 9.38473 11.5909 9.05744 11.2056 9.05744C10.8182 9.05744 10.5064 9.38473 10.5064 9.79012C10.5064 10.1955 10.8204 10.5228 11.2056 10.5228ZM13.1724 10.0787C13.5144 10.0787 13.7902 9.78863 13.7902 9.43233C13.7902 9.07604 13.5144 8.78594 13.1724 8.78594C12.8303 8.78594 12.5545 9.07604 12.5545 9.43233C12.5545 9.78863 12.8303 10.0787 13.1724 10.0787ZM14.8712 10.0869C15.165 10.0869 15.4034 9.83846 15.4034 9.52977C15.4034 9.22108 15.165 8.97264 14.8712 8.97264C14.8009 8.97303 14.7314 8.98771 14.6666 9.01585C14.6019 9.04398 14.5431 9.08502 14.4937 9.13662C14.4442 9.18821 14.4052 9.24936 14.3786 9.31656C14.3521 9.38376 14.3386 9.45571 14.339 9.52829V9.52977C14.3384 9.67644 14.394 9.81738 14.4938 9.92178C14.5935 10.0262 14.7292 10.0855 14.8712 10.0869ZM16.2654 10.4187C16.5138 10.4187 16.714 10.2096 16.714 9.95004C16.714 9.69044 16.5138 9.48143 16.2654 9.48143C16.145 9.48143 16.0296 9.5308 15.9446 9.61868C15.8595 9.70656 15.8117 9.82576 15.8117 9.95004C15.8117 10.0743 15.8595 10.1935 15.9446 10.2814C16.0296 10.3693 16.145 10.4187 16.2654 10.4187ZM17.3362 10.9929C17.4431 10.9921 17.5452 10.9476 17.6203 10.8691C17.6954 10.7905 17.7372 10.6845 17.7366 10.5741C17.7366 10.3413 17.5566 10.1553 17.3362 10.1553C17.1159 10.1553 16.9358 10.3435 16.9358 10.5741C16.9358 10.8047 17.1159 10.9929 17.3362 10.9929ZM18.1219 11.6519C18.1654 11.6516 18.2084 11.6425 18.2485 11.625C18.2886 11.6076 18.325 11.5821 18.3555 11.5501C18.3861 11.5182 18.4102 11.4803 18.4266 11.4386C18.443 11.397 18.4513 11.3525 18.451 11.3075V11.3068C18.4514 11.2619 18.4432 11.2173 18.4269 11.1756C18.4106 11.134 18.3865 11.096 18.356 11.064C18.3255 11.0319 18.2892 11.0064 18.2492 10.9888C18.2091 10.9713 18.1661 10.962 18.1226 10.9617H18.1219C18.0784 10.9619 18.0354 10.9711 17.9953 10.9885C17.9552 11.006 17.9189 11.0315 17.8883 11.0634C17.8577 11.0954 17.8336 11.1333 17.8172 11.1749C17.8008 11.2166 17.7925 11.2611 17.7928 11.306V11.3068C17.7921 11.3514 17.8 11.3958 17.8159 11.4373C17.8318 11.4788 17.8555 11.5166 17.8856 11.5487C17.9157 11.5807 17.9516 11.6063 17.9913 11.624C18.031 11.6417 18.0736 11.6512 18.1169 11.6519H18.122L18.1219 11.6519Z" fill="black"/>
<defs>
<linearGradient id="paint0_linear_2470_50787" x1="16" y1="0" x2="16" y2="32" gradientUnits="userSpaceOnUse">
<stop stop-color="#F6F2FF"/>
<stop offset="1" stop-color="#C0CEFF"/>
</linearGradient>
</defs>
</svg>
