<svg width="32" height="32" viewBox="0 0 32 32" fill="none" xmlns="http://www.w3.org/2000/svg">
<rect width="32" height="32" fill="url(#paint0_linear_2470_50808)"/>
<path d="M7.00001 15.9873C6.99598 18.3736 7.94032 20.6637 9.6253 22.3539C11.3103 24.0441 13.5979 24.996 15.9848 25C18.3718 25.004 20.6625 24.0599 22.3532 22.3754C24.0439 20.6909 24.996 18.404 25 16.0177V15.9496C24.9997 15.2575 24.9181 14.5678 24.7568 13.8948C24.691 13.6531 24.5339 13.4463 24.3187 13.3181C24.1034 13.1899 23.8468 13.1502 23.6029 13.2075C23.359 13.2647 23.1468 13.4143 23.0111 13.6249C22.8753 13.8354 22.8266 14.0904 22.8753 14.3361C23.2392 15.8354 23.1032 17.4125 22.488 18.8274C21.8728 20.2423 20.8121 21.4175 19.4672 22.1742C18.1224 22.9309 16.5671 23.2277 15.0381 23.0194C13.509 22.8111 12.0898 22.1091 10.9966 21.0202C9.90335 19.9313 9.19586 18.5152 8.9818 16.9873C8.76773 15.4595 9.05881 13.9035 9.81073 12.5563C10.5627 11.209 11.7343 10.1442 13.1472 9.52391C14.5602 8.90362 16.1372 8.76179 17.6382 9.12001C17.8871 9.17806 18.1488 9.13515 18.366 9.00069C18.5833 8.86623 18.7383 8.65118 18.7973 8.40264C18.8273 8.28014 18.8326 8.15291 18.8129 8.02833C18.7933 7.90376 18.7491 7.78433 18.6829 7.67698C18.6167 7.56963 18.5298 7.47649 18.4273 7.40298C18.3248 7.32947 18.2087 7.27706 18.0858 7.24877C16.9374 6.97286 15.7458 6.92592 14.5792 7.11065C13.4125 7.29537 12.2938 7.70814 11.2868 8.32536C10.2799 8.94258 9.40446 9.75214 8.71064 10.7078C8.01682 11.6634 7.51819 12.7464 7.24326 13.8948C7.08235 14.5807 7.00073 15.2828 7.00001 15.9873Z" fill="url(#paint1_linear_2470_50808)"/>
<path d="M20.6454 9.39913C20.6304 9.41411 20.6235 9.42909 20.6154 9.436C20.4054 9.65886 20.2763 9.94576 20.2489 10.2507V10.3971C20.2489 10.4339 20.242 10.4627 20.242 10.4996C20.2107 10.8218 20.1161 11.1345 19.9635 11.42C19.811 11.7055 19.6036 11.9581 19.3532 12.1632C19.1028 12.3684 18.8143 12.522 18.5044 12.6155C18.1944 12.7089 17.869 12.7402 17.5469 12.7075C17.4383 12.698 17.3305 12.6811 17.2242 12.6568C17.1616 12.6438 17.1 12.6265 17.0398 12.605C16.7784 12.539 16.5092 12.5096 16.2398 12.5174C15.4541 12.5328 14.7012 12.8353 14.1234 13.3678C14.0946 13.3966 14.0577 13.4197 14.0277 13.4554C13.7115 13.7474 13.4576 14.1003 13.2811 14.4928C13.1046 14.8854 13.0092 15.3095 13.0006 15.7398C12.9921 16.17 13.0705 16.5976 13.2312 16.9968C13.3919 17.3961 13.6317 17.7588 13.936 18.0632C14.2403 18.3675 14.603 18.6074 15.0023 18.7682C15.4015 18.9291 15.8292 19.0077 16.2596 18.9994C16.69 18.9911 17.1143 18.8959 17.5071 18.7197C17.8998 18.5434 18.2529 18.2897 18.5452 17.9738C18.6773 17.8404 18.7977 17.6958 18.9048 17.5417C19.1626 17.171 19.3391 16.75 19.4227 16.3063C19.5064 15.8627 19.4953 15.4064 19.3901 14.9673C19.3719 14.9094 19.3569 14.8505 19.3452 14.791C19.3452 14.7829 19.3382 14.776 19.3382 14.761C19.2649 14.4455 19.2546 14.1185 19.3079 13.799C19.3612 13.4794 19.4772 13.1736 19.6491 12.8989C19.821 12.6243 20.0455 12.3863 20.3096 12.1986C20.5738 12.0109 20.8724 11.8772 21.1883 11.8052C21.3017 11.7774 21.4175 11.7605 21.5342 11.7545L21.5849 11.7465C21.6361 11.7407 21.6878 11.7384 21.7393 11.7396H21.7543C22.073 11.709 22.3712 11.5689 22.5981 11.3431C22.65 11.2844 22.7018 11.2279 22.7456 11.1668C22.8507 11.0198 22.9255 10.8534 22.9657 10.6773C23.006 10.5011 23.0108 10.3188 22.9801 10.1407C22.9493 9.96271 22.8835 9.79256 22.7865 9.64013C22.6894 9.48771 22.5631 9.35605 22.4148 9.25278C22.1496 9.06577 21.827 8.97796 21.5035 9.00471C21.1801 9.03146 20.8763 9.17108 20.6454 9.39913Z" fill="url(#paint2_linear_2470_50808)"/>
<defs>
<linearGradient id="paint0_linear_2470_50808" x1="16" y1="0" x2="16" y2="32" gradientUnits="userSpaceOnUse">
<stop stop-color="#F6F2FF"/>
<stop offset="1" stop-color="#DBFFF8"/>
</linearGradient>
<linearGradient id="paint1_linear_2470_50808" x1="22.7026" y1="9.38264" x2="9.32786" y2="22.5786" gradientUnits="userSpaceOnUse">
<stop offset="0.09" stop-color="#00EDD3"/>
<stop offset="0.41" stop-color="#1B456E"/>
</linearGradient>
<linearGradient id="paint2_linear_2470_50808" x1="22.6696" y1="9.24702" x2="13.7965" y2="18.2381" gradientUnits="userSpaceOnUse">
<stop offset="0.4" stop-color="#00EDD3"/>
<stop offset="0.89" stop-color="#1B456E"/>
</linearGradient>
</defs>
</svg>
