<svg width="32" height="32" viewBox="0 0 32 32" fill="none" xmlns="http://www.w3.org/2000/svg">
<rect width="32" height="32" fill="url(#paint0_linear_2515_51782)"/>
<path d="M13.1654 25H12.1853C10.4324 25 9 23.5802 9 21.8429V11.1571C9 9.41978 10.4324 8 12.1853 8H13.1654C14.5834 8 15.7917 8.92916 16.2016 10.2039L16.4638 9.88681C17.5946 8.56044 19.5925 8.35494 20.9684 9.47582L21.7223 10.0923C23.0794 11.1945 23.2867 13.1934 22.1558 14.5385L20.8534 16.1078L22.627 19.4143C23.4563 20.9648 22.8532 22.8703 21.3077 23.6923L20.4407 24.1407C18.9009 24.9497 17.0143 24.3833 16.1645 22.9046C15.7224 24.1233 14.5428 25 13.1654 25Z" fill="black"/>
<path d="M13.2417 22.945C12.2616 22.945 11.4512 22.1417 11.4512 21.1703V12.0165C11.4512 11.045 12.2616 10.2417 13.2417 10.2417C14.2218 10.2417 15.0323 11.045 15.0323 12.0165V14.1742L17.6898 11.5494C18.3872 10.8582 19.5181 10.8582 20.2155 11.5494C20.9128 12.2406 20.9128 13.3615 20.2155 14.0527L18.3418 15.9164L20.8563 20.2363C21.3463 21.0769 21.0636 22.1791 20.1966 22.6648C19.3485 23.1506 18.2364 22.8703 17.7464 22.011L15.718 18.5262L15.0323 19.2083V21.1703C15.0323 22.1417 14.2218 22.945 13.2417 22.945Z" fill="white"/>
<defs>
<linearGradient id="paint0_linear_2515_51782" x1="16" y1="0" x2="16" y2="32" gradientUnits="userSpaceOnUse">
<stop stop-color="#FFD600"/>
<stop offset="1" stop-color="#FFA800"/>
</linearGradient>
</defs>
</svg>
