<svg width="32" height="32" viewBox="0 0 32 32" fill="none" xmlns="http://www.w3.org/2000/svg">
<rect width="32" height="32" fill="url(#paint0_linear_2515_51909)"/>
<path fill-rule="evenodd" clip-rule="evenodd" d="M25.5524 12H21C21.2448 13.55 22.7133 15 24.3287 15H27.951C28 14.85 28 14.65 28 14.5C28 13.1 26.9231 12 25.5524 12Z" fill="url(#paint1_linear_2515_51909)"/>
<path fill-rule="evenodd" clip-rule="evenodd" d="M21.4 16V20H23.65V17.8667H25.65C26.75 17.8667 27.7 17.0667 28 16H21.4Z" fill="#4DB45F"/>
<path fill-rule="evenodd" clip-rule="evenodd" d="M13.6 12V20H15.4857C15.4857 20 15.9571 20 16.1929 19.4286C17.4657 16.3429 17.8429 15.4286 17.8429 15.4286H18.0786V20H20.2V12H18.3143C18.3143 12 17.8429 12.0571 17.6071 12.5714C16.5229 15.2 15.9571 16.5714 15.9571 16.5714H15.7214V12H13.6Z" fill="#4DB45F"/>
<path fill-rule="evenodd" clip-rule="evenodd" d="M4 20V12H6.22353C6.22353 12 6.86588 12 7.21176 13.1429C8.10118 16.1714 8.2 16.5714 8.2 16.5714C8.2 16.5714 8.39765 15.8286 9.18824 13.1429C9.53412 12 10.1765 12 10.1765 12H12.4V20H10.1765V15.7143H9.92941L8.69412 20H7.70588L6.47059 15.7143H6.22353V20H4Z" fill="#4DB45F"/>
<defs>
<linearGradient id="paint0_linear_2515_51909" x1="16" y1="0" x2="16" y2="32" gradientUnits="userSpaceOnUse">
<stop stop-color="#F6F2FF"/>
<stop offset="1" stop-color="#DDFFF5"/>
</linearGradient>
<linearGradient id="paint1_linear_2515_51909" x1="20.9874" y1="13.5" x2="28" y2="13.5" gradientUnits="userSpaceOnUse">
<stop stop-color="#00B4E6"/>
<stop offset="1" stop-color="#088CCB"/>
</linearGradient>
</defs>
</svg>
