<svg width="32" height="32" viewBox="0 0 32 32" fill="none" xmlns="http://www.w3.org/2000/svg">
<rect width="32" height="32" fill="url(#paint0_linear_2470_50884)"/>
<path d="M6.7145 21V13.1523L13.4295 17.6314V21H15.1434V17.3151C15.1431 17.1782 15.1069 17.0432 15.0378 16.9207C14.9688 16.7983 14.8686 16.6917 14.7452 16.6093L6.60162 11.1754C6.45267 11.0773 6.27596 11.0178 6.09113 11.0034C5.9063 10.989 5.72059 11.0203 5.55463 11.0939C5.38868 11.1674 5.24899 11.2803 5.15107 11.42C5.05316 11.5597 5.00087 11.7207 5 11.8851V21H6.7145ZM25.2855 21V13.1523L18.5705 17.6314V21H16.8566V17.3151C16.8569 17.1782 16.8931 17.0432 16.9622 16.9207C17.0312 16.7983 17.1314 16.6917 17.2548 16.6093L25.3984 11.1776C25.5472 11.0797 25.7236 11.0201 25.9082 11.0057C26.0929 10.9912 26.2784 11.0223 26.4443 11.0956C26.6101 11.1689 26.7499 11.2814 26.8479 11.4208C26.946 11.5601 26.9987 11.7209 27 11.8851V21H25.2855Z" fill="white"/>
<defs>
<linearGradient id="paint0_linear_2470_50884" x1="16" y1="0" x2="16" y2="32" gradientUnits="userSpaceOnUse">
<stop stop-color="#6ACEBB"/>
<stop offset="1" stop-color="#4FA3A8"/>
</linearGradient>
</defs>
</svg>
