<svg width="32" height="32" viewBox="0 0 32 32" fill="none" xmlns="http://www.w3.org/2000/svg">
<rect width="32" height="32" fill="url(#paint0_linear_2470_50796)"/>
<path d="M27 15.2778V18.7594H25.8641C25.8353 18.6062 25.8066 18.4531 25.7778 18.2442C24.4693 19.219 23.1033 19.2747 21.8524 18.272C20.6158 17.2693 20.472 15.8906 20.8027 14.4422C21.191 12.7989 22.6288 11.8519 24.3974 12.019C25.8785 12.1582 26.8418 13.0217 26.9281 14.3169C26.8657 14.3226 26.8038 14.3294 26.7427 14.3361C26.213 14.3944 25.7391 14.4466 25.4039 13.7598C25.102 13.1331 23.9661 12.9938 23.1896 13.3002C22.2981 13.6484 21.7949 14.7068 21.953 15.8906C22.0968 16.9908 22.7295 17.6592 23.7216 17.7985C24.7713 17.9378 25.519 17.4364 25.7203 16.4058H23.8367V15.2778H27Z" fill="black"/>
<path d="M13.9011 14.5397V18.7455H12.7939V12.2279C12.8215 12.219 12.8476 12.2087 12.8727 12.1987C12.9261 12.1776 12.9751 12.1582 13.024 12.1582C13.692 12.1304 14.0263 12.1165 14.2492 12.2623C14.4725 12.4084 14.5839 12.7148 14.807 13.3281C15.0009 13.8504 15.1973 14.3728 15.3985 14.9076L15.3989 14.9086C15.6749 15.6426 15.9599 16.4001 16.2592 17.2136L17.352 14.3029C17.4167 14.1428 17.4778 13.9792 17.5389 13.8156C17.6 13.6521 17.6612 13.4882 17.7259 13.3281C17.9557 12.7142 18.0742 12.3977 18.3069 12.2503C18.5546 12.0934 18.9317 12.1282 19.7101 12.2V18.7455H18.6174V14.5536C18.5598 14.5397 18.5023 14.5258 18.4592 14.5118C18.4299 14.5812 18.4006 14.6498 18.3715 14.718C18.272 14.9513 18.1743 15.18 18.0853 15.4171C18.0158 15.5985 17.9457 15.7799 17.8756 15.9614C17.569 16.7552 17.2617 17.5508 16.9925 18.3556C16.8631 18.7594 16.6043 18.8012 16.2448 18.8012C15.871 18.8012 15.6409 18.7316 15.4971 18.3416C15.037 17.0604 14.5481 15.7791 14.0593 14.5118C14.0305 14.5188 14.0053 14.5223 13.9802 14.5258C13.955 14.5292 13.9299 14.5327 13.9011 14.5397Z" fill="black"/>
<path fill-rule="evenodd" clip-rule="evenodd" d="M8.42259 18.9544C10.45 18.9544 11.8591 17.5339 11.8591 15.4728C11.8447 13.4256 10.4212 11.9911 8.39383 12.0051C6.39517 12.019 4.97167 13.4813 5.00043 15.5285C5.01481 17.5339 6.42393 18.9544 8.42259 18.9544ZM8.4801 13.1888C9.75982 13.2167 10.5938 14.1637 10.565 15.5424C10.5507 16.8933 9.64479 17.8124 8.35069 17.7706C7.08536 17.7289 6.23701 16.7679 6.26576 15.4171C6.3089 14.0523 7.18601 13.161 8.4801 13.1888Z" fill="black"/>
<defs>
<linearGradient id="paint0_linear_2470_50796" x1="16" y1="0" x2="16" y2="32" gradientUnits="userSpaceOnUse">
<stop stop-color="#F6F2FF"/>
<stop offset="1" stop-color="#C0CEFF"/>
</linearGradient>
</defs>
</svg>
