<svg width="32" height="32" viewBox="0 0 32 32" fill="none" xmlns="http://www.w3.org/2000/svg">
<rect width="32" height="32" fill="url(#paint0_linear_2604_64684)"/>
<path d="M20.4923 13.0821C20.1667 12.8924 19.7441 12.8924 19.3858 13.0821L16.8455 14.5415L15.1205 15.4926L12.5802 16.9512C12.2547 17.1418 11.832 17.1418 11.4738 16.9512L9.45495 15.8094C9.12936 15.6197 8.90172 15.2712 8.90172 14.89V12.6382C8.90172 12.2579 9.09672 11.9094 9.45495 11.7188L11.4402 10.6088C11.7667 10.4182 12.1902 10.4182 12.5485 10.6088L14.5338 11.7188C14.8602 11.9094 15.0879 12.2579 15.0879 12.6382V14.0976L16.8129 13.1138V11.6553C16.8148 11.4659 16.7641 11.2796 16.6664 11.1173C16.5687 10.955 16.4279 10.8229 16.2597 10.7359L12.5802 8.64294C12.2547 8.45235 11.832 8.45235 11.4738 8.64294L7.72907 10.7359C7.5608 10.8229 7.41999 10.955 7.32231 11.1173C7.22463 11.2796 7.17393 11.4659 7.17583 11.6553V15.8729C7.17583 16.2541 7.37083 16.6026 7.72907 16.7932L11.4738 18.8862C11.7994 19.0759 12.2229 19.0759 12.5802 18.8862L15.1205 17.4585L16.8455 16.4756L19.3858 15.0488C19.7114 14.8582 20.1341 14.8582 20.4923 15.0488L22.4785 16.1588C22.805 16.3485 23.0317 16.6971 23.0317 17.0782V19.33C23.0317 19.7103 22.8376 20.0588 22.4785 20.2494L20.4932 21.3912C20.1667 21.5818 19.7432 21.5818 19.3858 21.3912L17.3997 20.2812C17.0732 20.0906 16.8455 19.7421 16.8455 19.3618V17.9024L15.1205 18.8862V20.3447C15.1205 20.725 15.3155 21.0744 15.6738 21.2641L19.4185 23.3571C19.7441 23.5476 20.1667 23.5476 20.525 23.3571L24.2697 21.2641C24.5952 21.0744 24.8229 20.7259 24.8229 20.3447V16.1271C24.8248 15.9376 24.7741 15.7514 24.6764 15.589C24.5787 15.4267 24.4379 15.2947 24.2697 15.2076L20.4932 13.0821H20.4923Z" fill="white"/>
<defs>
<linearGradient id="paint0_linear_2604_64684" x1="16" y1="0" x2="16" y2="32" gradientUnits="userSpaceOnUse">
<stop offset="0.0151777" stop-color="#AF01FF"/>
<stop offset="1" stop-color="#5812F5"/>
</linearGradient>
</defs>
</svg>
