<svg width="32" height="32" viewBox="0 0 32 32" fill="none" xmlns="http://www.w3.org/2000/svg">
<rect width="32" height="32" fill="url(#paint0_linear_2515_51831)"/>
<path fill-rule="evenodd" clip-rule="evenodd" d="M23.5477 10.9497C23.5499 10.836 23.5705 10.0389 23.5722 9.93122H23.7606C24.489 9.93122 24.6113 10.0638 24.679 10.9497H23.5477ZM25.6203 10.5072C25.506 9.51588 25.054 9 23.9865 9H22.629L22.4444 14.6H23.4337C23.4337 14.6 23.525 12.0028 23.5303 11.8797C23.6386 11.8797 24.6774 11.8809 24.7802 11.8809C24.7916 11.9942 24.9787 14.6 24.9787 14.6H26C26 14.6 25.6485 10.753 25.6203 10.5072Z" fill="white"/>
<path fill-rule="evenodd" clip-rule="evenodd" d="M11.5479 19.0455C11.5501 18.9224 11.5706 18.0589 11.5724 17.9423L11.7496 17.9299C12.478 17.9299 12.6113 18.0859 12.6792 19.0455H11.5479ZM13.6203 18.5661C13.5063 17.4924 13.054 16.9333 11.9866 16.9333H10.629L10.4444 23H11.4337C11.4337 23 11.525 20.1863 11.5304 20.053C11.6389 20.053 12.6776 20.0543 12.7803 20.0543C12.7918 20.177 12.9787 23 12.9787 23H14C14 23 13.6486 18.8326 13.6203 18.5661Z" fill="white"/>
<path fill-rule="evenodd" clip-rule="evenodd" d="M6 9V14.6H6.95995V9.93129H8.14961V14.6H9.11111V9H6Z" fill="white"/>
<path fill-rule="evenodd" clip-rule="evenodd" d="M16.7104 10.9503H16.2507C16.0606 10.9503 15.9196 10.8985 15.8297 10.7938C15.7663 10.7212 15.7353 10.6227 15.7353 10.4944V9H14.8889V10.5989C14.8889 10.9675 15.0085 11.2792 15.2445 11.5268C15.4771 11.7721 15.762 11.8956 16.0926 11.8956H16.7104V14.6H17.5556V9H16.7104V10.9503Z" fill="white"/>
<path fill-rule="evenodd" clip-rule="evenodd" d="M18.8889 9V9.93129H19.7175V14.6H20.7269V9.93129H21.5556V9H18.8889Z" fill="white"/>
<path fill-rule="evenodd" clip-rule="evenodd" d="M17.391 16.9333V18.8718H15.9424V16.9333H14.8889V23H15.9424V19.8802H17.391V23H18.4444V16.9333H17.391Z" fill="white"/>
<path fill-rule="evenodd" clip-rule="evenodd" d="M7.27814 22.0629C7.18552 22.0629 6.95267 22.0379 6.95267 22.0379V19.902C6.95267 19.902 7.02754 19.8814 7.1094 19.8814C7.59271 19.8814 8.16389 19.8484 8.16389 20.9711C8.16389 22.0004 7.53628 22.0629 7.27814 22.0629ZM7.39352 18.9189C7.22939 18.9189 7.08355 18.9234 6.95267 18.9305V17.9422H8.66244V16.9333H6V23H7.44604C8.88775 23 9.11111 21.4992 9.11111 20.9436C9.11111 20.2862 8.88901 18.9189 7.39352 18.9189Z" fill="white"/>
<path fill-rule="evenodd" clip-rule="evenodd" d="M11.3299 11.8201C11.3373 10.3733 11.6599 9.8968 12 9.88973C12.3401 9.8968 12.6627 10.3729 12.6701 11.8197C12.6627 13.2328 12.3401 13.7157 12 13.7231C11.6599 13.7157 11.3374 13.2332 11.3299 11.8201ZM13.5535 11.6219C13.5381 10.8573 13.4197 10.3094 13.2362 9.92029C12.9471 9.25512 12.4864 9.00677 12.0108 9.00043C12.0097 9.00043 12.0088 9 12.0078 9C12.0052 9 12.0026 9.00014 12 9.00014C11.9974 9.00014 11.9948 9 11.9922 9C11.9912 9 11.9902 9.00043 11.9892 9.00043C11.5136 9.00677 11.0531 9.25512 10.7638 9.92029C10.5802 10.3094 10.4619 10.8573 10.4465 11.6219C10.4464 11.6231 10.4444 11.7936 10.4444 11.7949C10.445 12.2712 10.4929 12.733 10.5864 13.1051C10.83 14.2003 11.3927 14.5877 11.9801 14.5994C11.9841 14.5996 11.9884 14.6 11.9922 14.6C11.9948 14.6 11.9974 14.5999 12 14.5999C12.0026 14.5999 12.0052 14.6 12.0078 14.6C12.0117 14.6 12.016 14.5996 12.0199 14.5994C12.6073 14.5877 13.17 14.2003 13.4136 13.1051C13.5072 12.733 13.555 12.2711 13.5554 11.7947C13.5554 11.7934 13.5535 11.6231 13.5535 11.6219Z" fill="white"/>
<path fill-rule="evenodd" clip-rule="evenodd" d="M23.7778 22.9982L22.4633 19.4435C22.7361 19.2359 22.9486 18.8384 23.0431 18.4425C23.1347 18.0577 23.2553 16.9333 23.2553 16.9333H22.1802C22.1736 17.0478 22.1504 17.4326 22.1168 17.8237C22.067 18.4036 21.8998 18.9385 21.319 18.9385H20.8708C20.87 18.8899 20.8708 16.9333 20.8708 16.9333H19.7778V23H20.8708V19.9198C20.8708 19.9198 21.449 19.9206 21.5307 19.92L22.6044 22.9982H23.7778Z" fill="white"/>
<defs>
<linearGradient id="paint0_linear_2515_51831" x1="16" y1="0" x2="16" y2="32" gradientUnits="userSpaceOnUse">
<stop stop-color="#E62B6E"/>
<stop offset="1" stop-color="#AC0033"/>
</linearGradient>
</defs>
</svg>
