<svg width="32" height="32" viewBox="0 0 32 32" fill="none" xmlns="http://www.w3.org/2000/svg">
<rect width="32" height="32" fill="url(#paint0_linear_2470_49476)"/>
<path d="M25.0118 22.8724L23.2182 21.292L19.5891 23.9875C19.6324 24.0816 19.6547 24.1838 19.6546 24.2872C19.656 24.4745 19.5824 24.6547 19.4498 24.7884C19.3172 24.922 19.1365 24.9981 18.9473 25C18.7811 24.999 18.6205 24.9406 18.4934 24.8347C18.3662 24.7289 18.2804 24.5823 18.2509 24.4204H14.3327C14.3033 24.5821 14.2176 24.7286 14.0906 24.8344C13.9636 24.9403 13.8033 24.9988 13.6373 25C13.4479 24.9983 13.267 24.9223 13.1342 24.7887C13.0014 24.655 12.9276 24.4747 12.9291 24.2872C12.9289 24.1845 12.9509 24.0829 12.9936 23.9893L9.77001 21.6133C9.64154 21.7286 9.47433 21.7924 9.30092 21.7924C9.11157 21.7907 8.93063 21.7147 8.79784 21.5811C8.66506 21.4474 8.59129 21.2671 8.59274 21.0796C8.59274 20.8096 8.74183 20.5747 8.96183 20.4532L7.77729 16.7092C7.67816 16.7178 7.5783 16.7059 7.48411 16.6741C7.38992 16.6424 7.30346 16.5915 7.23029 16.5247C7.15712 16.4579 7.09884 16.3768 7.05918 16.2864C7.01953 16.1961 6.99938 16.0985 7.00001 16C6.99942 15.8996 7.02041 15.8002 7.06159 15.7085C7.10278 15.6168 7.16322 15.5348 7.23889 15.4679C7.31456 15.4011 7.40374 15.351 7.50048 15.3209C7.59723 15.2908 7.69934 15.2815 7.80001 15.2935L8.96456 11.5486C8.8514 11.4865 8.75719 11.3954 8.69177 11.2849C8.62636 11.1744 8.59216 11.0485 8.59274 10.9204C8.59274 10.5271 8.91001 10.2076 9.30092 10.2076C9.48456 10.2076 9.65183 10.2778 9.77729 10.393L13.0255 8.071C12.9623 7.96199 12.9291 7.83849 12.9291 7.7128C12.9291 7.3195 13.2464 7 13.6373 7C13.9827 7 14.2709 7.2493 14.3327 7.5796H18.2509C18.2804 7.41772 18.3662 7.27115 18.4934 7.16529C18.6205 7.05943 18.7811 7.00096 18.9473 7C19.3382 7 19.6546 7.3195 19.6546 7.7128C19.6548 7.83212 19.6252 7.94965 19.5682 8.0548L22.7955 10.4038C22.9262 10.278 23.1013 10.2076 23.2836 10.2076C23.6745 10.2076 23.9909 10.5271 23.9909 10.9204C23.9914 11.0387 23.9623 11.1553 23.9062 11.2598C23.85 11.3642 23.7685 11.4533 23.6691 11.5189L24.8291 15.289C24.9268 15.2824 25.0249 15.2959 25.117 15.3288C25.2092 15.3617 25.2934 15.4133 25.3644 15.4801C25.4354 15.547 25.4915 15.6277 25.5292 15.7172C25.567 15.8067 25.5855 15.903 25.5836 16C25.5844 16.0947 25.5659 16.1886 25.5293 16.2762C25.4927 16.3637 25.4387 16.4431 25.3706 16.5095C25.3024 16.576 25.2214 16.6283 25.1325 16.6632C25.0435 16.6981 24.9484 16.715 24.8527 16.7128L23.4918 21.0598L25.2345 22.5952C25.4218 22.4278 25.6682 22.327 25.9382 22.327C26.5245 22.327 27 22.8058 27 23.3962C27 23.9866 26.5245 24.4654 25.9382 24.4654C25.7975 24.4642 25.6585 24.4356 25.5291 24.3813C25.3996 24.3269 25.2822 24.2478 25.1836 24.1485C25.085 24.0492 25.0071 23.9317 24.9544 23.8026C24.9017 23.6735 24.8752 23.5354 24.8764 23.3962C24.8764 23.2054 24.9255 23.0272 25.0127 22.8724H25.0118ZM19.0073 23.5771L20.3591 20.563C20.2481 20.4722 20.167 20.3506 20.1264 20.2138L16.99 20.6656C16.9677 20.7976 16.9085 20.9208 16.8191 21.0211L18.68 23.6266C18.7835 23.5843 18.8958 23.5673 19.0073 23.5771ZM19.3646 23.7121L22.8818 21.0994L21.3655 20.446C21.2872 20.5485 21.1819 20.6276 21.0611 20.6744C20.9402 20.7213 20.8087 20.7341 20.6809 20.7115L19.3418 23.6959C19.3495 23.7009 19.3571 23.706 19.3646 23.7112V23.7121ZM18.3964 23.839L16.5236 21.2182C16.3736 21.2706 16.21 21.2706 16.06 21.2182L14.1873 23.839C14.2415 23.9061 14.2831 23.9823 14.31 24.064H18.2736C18.3006 23.9823 18.3421 23.9061 18.3964 23.839ZM24.5127 16.612C24.4071 16.5479 24.3198 16.4579 24.2595 16.3507C24.1992 16.2435 24.1677 16.1227 24.1682 16C24.1682 15.748 24.2973 15.5275 24.4927 15.4006L23.3964 11.8366L23.1509 15.3232C23.4327 15.4168 23.6373 15.6841 23.6373 16C23.638 16.148 23.592 16.2926 23.5058 16.4136C23.4196 16.5346 23.2975 16.626 23.1564 16.675L23.3982 20.1724L24.5127 16.612ZM22.4636 15.4627L21.0236 12.6682C20.9064 12.7066 20.7808 12.7135 20.66 12.688L19.3946 15.4483C19.4762 15.5157 19.5418 15.6001 19.5867 15.6954C19.6316 15.7908 19.6548 15.8948 19.6546 16C19.6547 16.1069 19.6308 16.2125 19.5844 16.3091C19.538 16.4057 19.4703 16.4907 19.3864 16.558L20.6909 19.3066C20.7846 19.2913 20.8805 19.2949 20.9727 19.3174L22.4445 16.5184C22.3738 16.4515 22.3175 16.371 22.2791 16.2819C22.2406 16.1928 22.2208 16.0969 22.2209 16C22.2209 15.7858 22.3155 15.5932 22.4636 15.4627ZM22.8036 16.702C22.7872 16.699 22.7708 16.6954 22.7545 16.6912L21.2845 19.4848C21.3708 19.5646 21.436 19.664 21.4745 19.7744C21.513 19.8849 21.5236 20.003 21.5055 20.1184L23.0873 20.8006L22.8036 16.702ZM22.7982 15.2998L23.0582 11.5972C22.9212 11.5506 22.802 11.4636 22.7164 11.3479L21.5 11.851C21.5213 11.9617 21.5164 12.0758 21.4856 12.1844C21.4549 12.2929 21.3991 12.3929 21.3227 12.4765L22.7809 15.3025C22.7867 15.3015 22.7924 15.3006 22.7982 15.2998ZM19.0636 16.7038C18.9622 16.7206 18.8582 16.7151 18.7591 16.6876L16.8291 20.0806C16.8864 20.1472 16.9309 20.2246 16.9609 20.3092L20.1136 19.8556C20.15 19.6927 20.2409 19.5496 20.3664 19.4506L19.0636 16.702V16.7038ZM19.0727 15.2989L20.3427 12.5296C20.2137 12.4173 20.1292 12.2632 20.1046 12.0949L16.9455 11.6404C16.9107 11.7244 16.8601 11.8011 16.7964 11.8663L18.7409 15.3178C18.8487 15.285 18.9628 15.2785 19.0736 15.2989H19.0727ZM18.4527 16.5103C18.3848 16.4435 18.3309 16.364 18.2942 16.2764C18.2576 16.1888 18.2388 16.0948 18.2391 16C18.2391 15.8074 18.3155 15.6319 18.4391 15.5041L16.4936 12.0499C16.3852 12.0824 16.2704 12.0883 16.1591 12.067L14.1527 15.5113C14.277 15.6443 14.3459 15.8189 14.3455 16C14.346 16.188 14.2719 16.3687 14.1391 16.5031L16.11 19.8556C16.2511 19.8181 16.4006 19.8253 16.5373 19.8763L18.4527 16.5103ZM8.11001 16.5868L9.2391 20.1562L9.50547 16.6966C9.3463 16.6606 9.20428 16.572 9.10281 16.4453C9.00135 16.3187 8.94649 16.1616 8.94729 16C8.94729 15.6535 9.19274 15.3655 9.51729 15.3007L9.24183 11.8501L8.13001 15.4276C8.21927 15.4945 8.2916 15.5811 8.3413 15.6804C8.39099 15.7797 8.4167 15.8891 8.41638 16C8.41638 16.243 8.29456 16.459 8.11001 16.5868ZM11.6446 19.3102C11.7495 19.2898 11.8577 19.2935 11.9609 19.321L13.2064 16.5661C13.1197 16.4988 13.0497 16.4129 13.0016 16.3148C12.9536 16.2167 12.9288 16.109 12.9291 16C12.9291 15.7768 13.0309 15.5779 13.19 15.4474L11.9246 12.688C11.8372 12.7063 11.7471 12.7078 11.6591 12.6925L10.1327 15.4744C10.2057 15.5416 10.2639 15.6229 10.3036 15.7133C10.3433 15.8038 10.3638 15.9014 10.3636 16C10.3639 16.0959 10.3448 16.1909 10.3073 16.2793C10.2698 16.3677 10.2148 16.4478 10.1455 16.5148L11.6455 19.3102H11.6446ZM11.9391 20.7052C11.8095 20.7353 11.674 20.7282 11.5484 20.6847C11.4228 20.6411 11.3123 20.563 11.23 20.4595L10.0027 20.9887C10.0167 21.0994 10.0048 21.2117 9.96819 21.3172L13.2182 23.713C13.2277 23.7059 13.2374 23.699 13.2473 23.6923L11.9382 20.7043L11.9391 20.7052ZM11.0818 20.1355C11.0592 20.0121 11.0697 19.8849 11.1123 19.7668C11.1549 19.6486 11.2281 19.5437 11.3246 19.4623L9.85819 16.7308L9.57365 20.4208C9.69296 20.4714 9.79606 20.5532 9.87183 20.6575L11.0818 20.1355ZM12.4727 19.8664L15.6227 20.311C15.6593 20.2048 15.7207 20.1086 15.8018 20.0302L13.8346 16.6849C13.7367 16.7136 13.6337 16.7207 13.5327 16.7056L12.2691 19.4965C12.3709 19.5946 12.4436 19.7224 12.4727 19.8664ZM12.4546 20.2237C12.4166 20.3445 12.347 20.4532 12.2527 20.5387L13.5827 23.5762C13.6922 23.5681 13.8021 23.5853 13.9036 23.6266L15.7655 21.0211C15.6763 20.9213 15.6171 20.7988 15.5946 20.6674L12.4546 20.2237ZM11.0882 11.8339L9.87819 11.3335C9.8023 11.4414 9.69745 11.5262 9.57547 11.5783L9.86638 15.2242L11.3355 12.5458C11.2317 12.4616 11.1537 12.3506 11.11 12.225C11.0664 12.0995 11.0588 11.9644 11.0882 11.8348V11.8339ZM11.9518 11.2984L13.2018 8.3824L9.97183 10.6918C10.0052 10.7911 10.0164 10.8965 10.0046 11.0005L11.25 11.5162C11.3351 11.4191 11.4458 11.3473 11.5697 11.3088C11.6937 11.2704 11.826 11.2668 11.9518 11.2984ZM12.4809 12.0841C12.4585 12.2564 12.3735 12.4148 12.2418 12.5296L13.5109 15.2989C13.6256 15.278 13.7437 15.2857 13.8546 15.3214L15.8382 11.914C15.7502 11.8394 15.6816 11.745 15.6382 11.6386L12.4809 12.0841ZM12.2627 11.4703C12.3391 11.5423 12.3991 11.6314 12.4382 11.7304L15.5882 11.2858C15.6027 11.1555 15.653 11.0316 15.7336 10.9276L13.9246 8.3644C13.8136 8.41432 13.6913 8.43449 13.57 8.4229L12.2636 11.4703H12.2627ZM20.7382 11.2804C20.8523 11.2699 20.9672 11.2872 21.073 11.3306C21.1788 11.3741 21.2723 11.4424 21.3455 11.5297L22.5818 11.0185C22.5677 10.9137 22.5767 10.8072 22.6082 10.7062L19.4 8.3716L20.7373 11.2804H20.7382ZM20.1418 11.7394C20.1929 11.6029 20.2849 11.4852 20.4055 11.4019L19.0327 8.4202C18.9057 8.43551 18.7768 8.41621 18.66 8.3644L16.8509 10.9276C16.9291 11.0293 16.9809 11.1526 16.9964 11.2876L20.1418 11.7403V11.7394ZM18.3818 8.143C18.3349 8.08026 18.2987 8.01033 18.2746 7.936H14.3091C14.2847 8.01039 14.2482 8.08032 14.2009 8.143L16.0136 10.7107C16.1011 10.673 16.1955 10.6536 16.2909 10.6536C16.3863 10.6536 16.4807 10.673 16.5682 10.7107L18.3818 8.143Z" fill="white"/>
<defs>
<linearGradient id="paint0_linear_2470_49476" x1="16" y1="0" x2="16" y2="32" gradientUnits="userSpaceOnUse">
<stop stop-color="#2EB3D0"/>
<stop offset="1" stop-color="#1680B5"/>
</linearGradient>
</defs>
</svg>
