<svg width="32" height="32" viewBox="0 0 32 32" fill="none" xmlns="http://www.w3.org/2000/svg">
<rect width="32" height="32" fill="url(#paint0_linear_2515_51734)"/>
<path d="M19.0712 19.9405C18.9113 19.9405 18.7914 19.982 18.7115 20.1063C18.5116 20.3551 18.5915 20.7697 18.9113 21.0599C19.0312 21.1843 19.231 21.2258 19.4309 21.2258C19.6307 21.2258 19.7906 21.1428 19.8705 21.0185C20.0304 20.7697 19.9505 20.438 19.6307 20.1478C19.4309 20.0234 19.271 19.9405 19.0712 19.9405ZM20.7099 18.6967C20.55 18.6552 20.4701 18.6967 20.3901 18.7796C20.3102 18.9455 20.3501 19.2357 20.55 19.4844C20.7099 19.7332 20.8697 19.899 20.9497 19.899C20.9896 19.899 21.0296 19.899 21.0696 19.8576C21.1495 19.7747 21.1495 19.6503 21.1095 19.443C21.1095 19.2357 20.9896 18.8211 20.7099 18.6967ZM23.9473 24.7084C24.1071 24.9157 23.8673 25.0815 23.7075 24.9572C22.0288 23.4231 20.59 22.9671 19.1911 22.9256C18.4317 22.8842 17.7123 22.9671 16.9129 23.05L16.4333 23.0915H16.2334C15.9537 23.1329 15.6739 23.1329 15.3941 23.1329C14.0752 23.1329 12.8361 22.8012 11.6771 22.1379C10.518 21.4745 9.63869 20.5624 8.95923 19.4015C8.31974 18.2406 8 16.9554 8 15.5872C8 14.219 8.31974 12.9337 8.95923 11.7729C9.63869 10.612 10.518 9.6584 11.6371 8.99504C12.7562 8.33168 13.9952 8 15.3142 8C16.6731 8 17.9521 8.33168 19.0712 8.99504C20.1903 9.6584 21.1095 10.5705 21.749 11.7314C22.3885 12.8923 22.7482 14.1775 22.7482 15.5457C22.7482 16.0847 22.7083 16.5822 22.5884 17.0797C22.5884 17.1627 22.5484 17.2456 22.5484 17.3285L22.4685 17.5773C22.3486 17.9919 22.1087 18.6138 21.6291 19.4015C21.5892 19.4844 21.5492 19.4015 21.5492 19.3601C21.3893 18.1992 20.9097 17.3285 20.0304 16.7481L19.9904 16.7066C19.8306 16.6237 19.7107 16.5408 19.5508 16.4578C19.3509 16.3749 19.1111 16.292 18.8713 16.2091C18.7115 16.1676 18.3917 16.1676 18.5116 16.0847C18.5516 16.0432 19.271 16.0432 20.0704 16.0847H20.1103C20.1103 15.9189 20.1503 15.7116 20.1503 15.5457C20.1503 14.0946 19.6707 12.9337 18.7514 11.9387C17.7922 10.9437 16.6731 10.4876 15.3541 10.4876C13.9952 10.4876 12.8761 10.9437 11.9568 11.9387C11.0376 12.9337 10.5979 14.0946 10.5979 15.5043C10.5979 16.9139 11.0775 18.0748 11.9968 19.0698C12.9161 20.0649 14.0352 20.5209 15.3541 20.5209H15.554V20.4795C15.474 19.4844 15.474 18.6552 15.6739 18.9869C15.7538 19.1113 15.8338 19.2357 15.8737 19.3186C16.1135 19.7332 16.3933 20.0649 16.6331 20.3136L16.6731 20.3551C17.5923 21.3501 18.5116 21.5574 19.5108 21.8062H19.5908L20.0704 21.9306C21.1895 22.3452 22.4685 22.8427 23.9473 24.7084Z" fill="white"/>
<defs>
<linearGradient id="paint0_linear_2515_51734" x1="16" y1="0" x2="16" y2="32" gradientUnits="userSpaceOnUse">
<stop stop-color="#FF8C00"/>
<stop offset="1" stop-color="#FF7A00"/>
</linearGradient>
</defs>
</svg>
