<svg width="32" height="32" viewBox="0 0 32 32" fill="none" xmlns="http://www.w3.org/2000/svg">
<rect width="32" height="32" fill="url(#paint0_linear_2515_52494)"/>
<path d="M19.9944 14.6902V12.1144L20.9581 11.1839V13.4158L21.7961 14.2249L25.169 10.9681L26 11.7705C25.993 11.1636 25.8673 9.40376 24.324 7.94056C22.662 6.3897 20.8603 7.09095 20.2458 7.68433L16.8799 10.9344L17.7388 11.7638L16 13.4562L14.2612 11.7772L15.1201 10.9479L11.7542 7.69781C11.1397 7.10444 9.33799 6.40318 7.67598 7.95404C6.13268 9.41724 6.00698 11.1771 6 11.784L6.83101 10.9816L10.2039 14.2384L11.0419 13.4292V11.1974L12.0056 12.1279V14.7036L13.3603 16.005L6.68436 22.4512L9.32402 24.9933L16 18.5538L22.676 25L25.3156 22.4579L18.6397 16.005L19.9944 14.6902Z" fill="#2B2D34"/>
<defs>
<linearGradient id="paint0_linear_2515_52494" x1="16" y1="0" x2="16" y2="32" gradientUnits="userSpaceOnUse">
<stop stop-color="#FFE600"/>
<stop offset="1" stop-color="#FFA800"/>
</linearGradient>
</defs>
</svg>
