<svg width="32" height="32" viewBox="0 0 32 32" fill="none" xmlns="http://www.w3.org/2000/svg">
<rect width="32" height="32" fill="url(#paint0_linear_2515_51802)"/>
<path d="M7.875 16.216C7.875 14.6587 7.875 13.1147 7.875 11.5507C8.24662 11.5507 8.60811 11.5473 8.97297 11.554C9.00676 11.554 9.05068 11.6075 9.06757 11.6442C9.10473 11.7345 9.12838 11.8314 9.15878 11.9317C9.18243 11.9183 9.2027 11.9149 9.21284 11.9016C9.64527 11.4337 10.1824 11.3401 10.7703 11.5072C11.3784 11.6843 11.6622 12.1522 11.777 12.7337C11.8784 13.2417 11.8412 13.743 11.6014 14.2142C11.2162 14.9695 10.2331 15.2368 9.50338 14.7924C9.46284 14.7656 9.41892 14.7389 9.35473 14.6988C9.35473 15.2134 9.35473 15.7114 9.35473 16.216C8.85135 16.216 8.37162 16.216 7.875 16.216ZM9.34122 13.2183C9.33446 13.2183 9.3277 13.2216 9.32095 13.2216C9.34459 13.3653 9.3277 13.5358 9.40203 13.6528C9.55405 13.8934 9.96622 13.8867 10.1588 13.6695C10.3649 13.4355 10.3615 12.9844 10.152 12.7571C10.0203 12.6134 9.80405 12.5633 9.60811 12.6335C9.39865 12.7103 9.34122 12.8006 9.34122 13.0545C9.34122 13.108 9.34122 13.1648 9.34122 13.2183Z" fill="white"/>
<path d="M24.0811 10C24.0811 10.3676 24.0844 10.7319 24.0743 11.0995C24.0743 11.1563 24.0135 11.2265 23.9628 11.2633C23.6925 11.437 23.375 11.4404 23.0709 11.4805C22.7196 11.5273 22.3919 11.6142 22.1993 11.9417C22.1419 12.0386 22.1115 12.1522 22.1013 12.2792C22.1216 12.2658 22.1453 12.2558 22.1655 12.2424C22.5878 11.8882 23.0675 11.828 23.5709 12.0152C24.0709 12.199 24.304 12.6 24.3784 13.098C24.4628 13.6494 24.3817 14.1641 23.9324 14.545C23.7567 14.6921 23.5371 14.8057 23.3209 14.8826C22.8581 15.0397 22.3784 15.0363 21.9088 14.9127C21.2973 14.7489 20.9054 14.3512 20.7466 13.7497C20.5608 13.0378 20.5878 12.3227 20.848 11.6309C21.125 10.899 21.7263 10.528 22.4459 10.3208C22.6757 10.254 22.9189 10.2273 23.1554 10.1805C23.4594 10.1203 23.7635 10.0635 24.0811 10ZM22.9696 13.3821C22.9696 13.0679 22.8142 12.8874 22.5371 12.8808C22.2432 12.8774 22.0811 13.0545 22.0811 13.3754C22.0811 13.6929 22.25 13.8833 22.5304 13.88C22.804 13.88 22.9696 13.6929 22.9696 13.3821Z" fill="white"/>
<path d="M14.5338 14.8759C14.5338 14.5116 14.5338 14.1574 14.5338 13.7898C14.3007 13.7898 14.0811 13.7898 13.8378 13.7898C13.8378 14.154 13.8378 14.5116 13.8378 14.8792C13.3412 14.8792 12.8649 14.8792 12.375 14.8792C12.375 13.7797 12.375 12.6769 12.375 11.5607C12.8513 11.5607 13.3311 11.5607 13.8277 11.5607C13.8277 11.9183 13.8277 12.2725 13.8277 12.6401C14.0642 12.6401 14.2838 12.6401 14.527 12.6401C14.527 12.2859 14.527 11.9283 14.527 11.5573C15.027 11.5573 15.5067 11.5573 16 11.5573C16 12.6635 16 13.763 16 14.8725C15.5203 14.8759 15.0372 14.8759 14.5338 14.8759Z" fill="white"/>
<path d="M20.3885 14.8893C19.9358 14.8893 19.4797 14.8926 19.0236 14.8859C18.9797 14.8859 18.9189 14.8325 18.8986 14.789C18.7872 14.535 18.6858 14.2744 18.5811 14.017C18.473 13.7463 18.4392 13.7296 18.1149 13.8031C18.1149 14.154 18.1149 14.5083 18.1149 14.8759C17.6216 14.8759 17.1419 14.8759 16.652 14.8759C16.652 13.7697 16.652 12.6702 16.652 11.5607C17.1351 11.5607 17.6081 11.5607 18.1047 11.5607C18.1047 11.9183 18.1047 12.2759 18.1047 12.6301C18.3784 12.6869 18.3818 12.6836 18.473 12.463C18.5811 12.1957 18.6892 11.925 18.8041 11.661C18.8243 11.6142 18.8818 11.5574 18.9257 11.5574C19.3682 11.5507 19.8142 11.554 20.2804 11.554C20.1689 11.8548 20.0878 12.1522 19.9493 12.4229C19.7331 12.8407 19.7399 13.225 19.9426 13.6494C20.1284 14.0337 20.2466 14.4515 20.3919 14.8525C20.3953 14.8559 20.3919 14.8659 20.3885 14.8893Z" fill="white"/>
<path d="M7.68919 16.7755H26L24.277 22H6L7.68919 16.7755Z" fill="white"/>
<defs>
<linearGradient id="paint0_linear_2515_51802" x1="16" y1="0" x2="16" y2="32" gradientUnits="userSpaceOnUse">
<stop stop-color="#00ABC7"/>
<stop offset="1" stop-color="#007FC7"/>
</linearGradient>
</defs>
</svg>
