<svg width="32" height="32" viewBox="0 0 32 32" fill="none" xmlns="http://www.w3.org/2000/svg">
<rect width="32" height="32" fill="url(#paint0_linear_2515_51812)"/>
<path d="M16 7C11.0389 7 7 11.0464 7 16C7 20.9536 11.0389 25 16 25C20.9611 25 25 20.9536 25 16C25 11.0464 20.9611 7 16 7ZM14.3586 21.9879V24.5827C14.0451 24.5282 13.75 24.4556 13.4549 24.3468V16.5262H14.7459C15.0779 16.5262 15.3176 16.5988 15.4652 16.7258C15.5943 16.8528 15.668 17.0887 15.668 17.4153V21.0988C15.668 21.4254 15.6127 21.6613 15.4652 21.7883C15.2623 21.9879 14.875 21.9879 14.5615 21.9879C14.4877 21.9879 14.4139 21.9879 14.3586 21.9879ZM16 24.7278C15.5758 24.7278 15.1516 24.6915 14.7459 24.6371V22.369C15.3545 22.369 15.7418 22.1694 15.9262 21.752V24.0202C15.9262 24.2923 15.9631 24.5282 16.0553 24.7278C16.0369 24.7278 16.0184 24.7278 16 24.7278ZM18.4898 19.375H17.5861V17.3427H17.1988V24.1472H17.5861V19.7379H18.4898V24.0202C18.4898 24.1472 18.4713 24.2742 18.4529 24.3649C17.8258 24.5464 17.1619 24.6734 16.4795 24.7097C16.332 24.5282 16.2951 24.2561 16.2951 24.0202V17.4879C16.2951 17.1431 16.3689 16.9073 16.498 16.7802C16.627 16.6532 16.8668 16.5806 17.1988 16.5806C17.5307 16.5806 18.0287 16.5262 18.2869 16.7802C18.416 16.9073 18.4713 17.1613 18.4713 17.4879V19.375H18.4898ZM21.3484 22.877C21.0533 23.1129 20.7213 23.3306 20.3893 23.5302V19.7923H19.9836V23.7661C19.6701 23.9294 19.3566 24.0746 19.0246 24.1835V19.9012C19.0246 19.502 19.1168 19.2117 19.5225 19.0665L19.0799 16.6351H19.9836L20.1311 19.2843H20.2418L20.3893 16.6351H21.3484L20.832 19.0665C21.2561 19.2117 21.3484 19.4657 21.3484 19.9012V22.877ZM18.877 19.0665V17.5605L19.1537 18.9032C19.0246 18.9395 18.9324 18.994 18.877 19.0665ZM21.6803 19.3024C21.6066 19.121 21.4775 18.994 21.2561 18.9032L21.6803 16.7258V19.3024ZM24.6311 17.2157C24.6311 17.252 24.6127 17.2883 24.6127 17.3427H23.1373V17.6875H23.3586C23.7828 17.6694 24.2623 17.6694 24.4836 17.9778C24.2992 18.7944 23.9857 19.5746 23.5799 20.2823V18.3952H23.1373V20.9718C22.8422 21.3891 22.5102 21.7883 22.1414 22.1694C22.123 22.1875 22.1045 22.2056 22.0861 22.2056V16.6351H24.6127L24.6311 17.2157ZM18.6189 16.2722L18.7111 16.7077C18.5082 16.3448 18.1393 16.1815 17.5861 16.1815H17.1988C16.5348 16.1815 16.1475 16.4355 15.9816 16.9617C15.834 16.4173 15.4283 16.1633 14.7275 16.1633H13.0307V24.2379C11.8135 23.8024 10.7254 23.0948 9.82172 22.1875C8.23566 20.6089 7.2582 18.4315 7.2582 16.0181C7.2582 13.6048 8.23566 11.4274 9.82172 9.84879C11.4078 8.27016 13.584 7.29032 15.9816 7.29032C18.3791 7.29032 20.5553 8.27016 22.1414 9.84879C23.7275 11.4274 24.7049 13.6048 24.7049 16.0181C24.7049 16.1089 24.7049 16.1996 24.7049 16.2903H18.6189V16.2722ZM14.3586 21.2258H14.7459V17.2883H14.3586V21.2258Z" fill="white"/>
<path d="M8.47541 11.2641L8.49385 11.5544L8.53074 11.8266L8.67828 12.3347L8.78894 12.5706L8.89959 12.7883L9.02869 13.0242L9.17623 13.2238L9.32377 13.4415L9.48976 13.6411L10.2275 14.4032L10.6332 14.7661L11.0205 15.129L11.4078 15.5101L11.7582 15.8911L11.9242 16.1089L12.0902 16.3085L12.2377 16.5081L12.3484 16.744L12.4775 16.9798L12.5697 17.2157L12.6434 17.4516L12.7172 17.7238L12.7541 17.996L12.7725 18.2681L12.7541 20.6633V20.373L12.6988 20.1008L12.6434 19.8468L12.5697 19.5927L12.3484 19.121L12.2193 18.9032L12.0717 18.6855L11.9242 18.4859L11.7398 18.2681L11.3893 17.8871L11.0021 17.506L10.2275 16.7802L9.84016 16.3992L9.48976 16L9.32377 15.8185L9.15779 15.6008L8.89959 15.1653L8.77049 14.9294L8.65984 14.6935L8.58607 14.4395L8.53074 14.1855L8.49385 13.9133L8.47541 13.623V11.2641Z" fill="white"/>
<path d="M8.08812 14.2762L8.10656 14.5847L8.14345 14.8569L8.21722 15.1472L8.30943 15.4012L8.42009 15.6552L8.54919 15.9093L8.67828 16.1452L9.01025 16.5806L9.19468 16.7984L9.58197 17.1976L10.8545 18.3952L11.2787 18.7762L11.666 19.1935L11.8504 19.4113L12.1824 19.8468L12.3115 20.0827L12.459 20.3367L12.6434 20.8448L12.7172 21.1169L12.7541 21.4073L12.7725 21.7157L12.7541 24.2379L12.7357 23.9294L12.6988 23.6573L12.625 23.3669L12.4406 22.8589L12.293 22.6048L12.1639 22.369L12.0164 22.1512L11.6475 21.7157L11.2603 21.2984L10.8361 20.8992L10.4303 20.5181L9.98771 20.119L9.56353 19.7198L9.19468 19.3024L8.99181 19.1028L8.82582 18.8851L8.65984 18.6492L8.40164 18.1774L8.29099 17.9234L8.19878 17.6512L8.14345 17.379L8.08812 17.0887L8.06968 16.7802L8.08812 14.2762Z" fill="white"/>
<path d="M24.7584 11.9728H19.2007C19.1464 11.8278 19.0559 11.7372 18.9654 11.7372C18.8749 11.7372 18.7844 11.8278 18.7301 11.9728H18.5128C18.4585 11.8278 18.368 11.7372 18.2775 11.7372C18.187 11.7372 18.0964 11.8278 18.0421 11.9728H17.8792C18.0059 11.8097 18.0602 11.6103 18.0602 11.4109C18.0602 10.8489 17.662 10.3958 17.0465 10.3958C16.431 10.3958 15.9422 10.8489 15.9422 11.4109C15.9422 11.6647 16.1413 11.9003 16.1956 12.0816C16.087 12.0997 16.0146 12.1903 16.0146 12.2991C16.0146 12.4079 16.1051 12.5166 16.2137 12.5166C16.1594 12.7341 15.9422 12.8973 15.9422 13.2417C15.9422 13.8036 16.431 14.2568 17.0465 14.2568C17.662 14.2568 18.0602 13.8036 18.0602 13.2417C18.0602 13.0242 17.9878 12.8429 17.8792 12.6798H18.0421C18.0964 12.8248 18.187 12.8973 18.2775 12.8973C18.368 12.8973 18.4585 12.8066 18.5128 12.6798H18.712C18.7663 12.8248 18.8568 12.8973 18.9473 12.8973C19.0378 12.8973 19.1283 12.8066 19.1826 12.6798H23.274V12.9154H23.0748V13.3686H23.274L23.455 13.6224L23.0748 13.568V14.1843H23.455V13.9124H23.9981V14.1843H24.3782V13.568L23.9981 13.6224L24.1791 13.3686H24.3782V12.9154H24.1791V12.6798H24.7403C24.8851 12.6798 24.9938 12.5529 24.9938 12.4079V12.2447C25.03 12.0997 24.9032 11.9728 24.7584 11.9728ZM17.2456 11.9003C17.4266 11.9003 17.5534 12.0816 17.5534 12.3172C17.5534 12.5347 17.4085 12.716 17.2456 12.7341L17.1551 12.9517C17.3904 12.9517 17.6801 12.9879 17.6801 13.2598C17.6801 13.6042 17.4628 13.8761 17.0646 13.8761C16.6663 13.8761 16.3585 13.6042 16.3585 13.2598C16.3585 12.9879 16.4491 12.9517 16.7206 12.861L16.6482 12.6979L16.8111 12.5347C16.7206 12.4985 16.6482 12.3897 16.6482 12.281C16.6482 12.1722 16.7206 12.0816 16.8111 12.0272L16.6663 11.9184L16.7206 11.7553C16.4491 11.6647 16.3585 11.6284 16.3585 11.3565C16.3585 11.0121 16.6663 10.7402 17.0646 10.7402C17.4628 10.7402 17.6801 11.0121 17.6801 11.3565C17.6801 11.6465 17.4447 11.6647 17.1551 11.6647L17.2456 11.9003Z" fill="#FFCA38"/>
<path d="M11.8328 3H11.706V5.46495L11.181 4.95299V3H11.0543V4.82941L11 4.77643V6.15408L13.0819 8.20242V6.80665L12.5388 6.27704V3H12.4121V6.15346L11.8328 5.58853V3Z" fill="#FFCA38"/>
<path d="M13.281 8.51058V9.90635L15.3629 7.85801V6.48036L13.281 8.51058Z" fill="#FFCA38"/>
<path d="M13.281 13.6042V15L15.3629 12.9517V11.574L13.281 13.6042Z" fill="#FFCA38"/>
<path d="M13.281 11.5921V10.1964L15.3629 8.16616V9.56193L13.281 11.5921Z" fill="#FFCA38"/>
<path d="M13.281 11.9003V13.2961L15.3629 11.2659V9.87009L13.281 11.9003Z" fill="#FFCA38"/>
<path d="M13.1181 3H13.2448V6.69789H13.1181V3Z" fill="#FFCA38"/>
<path d="M13.0819 13.6042V15L11 12.9517V11.574L13.0819 13.6042Z" fill="#FFCA38"/>
<path d="M13.8241 3H13.9508V6.15344L14.512 5.60617V3H14.6568V5.46494L15.1818 4.95297V3H15.3086V4.8294L15.3629 4.77643V6.15408L13.281 8.20242V6.80665L13.8241 6.27702V3Z" fill="#FFCA38"/>
<path d="M13.0819 8.51058V9.90635L11 7.85801V6.48036L13.0819 8.51058Z" fill="#FFCA38"/>
<path d="M13.0819 11.5921V10.1964L11 8.16616V9.56193L13.0819 11.5921Z" fill="#FFCA38"/>
<path d="M13.0819 11.9003V13.2961L11 11.2659V9.87009L13.0819 11.9003Z" fill="#FFCA38"/>
<defs>
<linearGradient id="paint0_linear_2515_51812" x1="16" y1="0" x2="16" y2="32" gradientUnits="userSpaceOnUse">
<stop stop-color="#008A52"/>
<stop offset="1" stop-color="#005A36"/>
</linearGradient>
</defs>
</svg>
