<svg width="32" height="32" viewBox="0 0 32 32" fill="none" xmlns="http://www.w3.org/2000/svg">
<rect width="32" height="32" fill="url(#paint0_linear_2515_52531)"/>
<path fill-rule="evenodd" clip-rule="evenodd" d="M16.0195 5.68874C10.2987 5.68874 5.69141 10.3183 5.69141 15.9809C5.69141 21.6818 10.2987 26.2731 15.9811 26.2731C21.6635 26.2731 26.2708 21.6435 26.2708 15.9809C26.2708 12.0018 24.0055 8.5583 20.6652 6.83656C20.6268 6.7983 20.6268 6.7983 20.5884 6.76004C20.5884 6.76004 20.5884 6.76004 20.5884 6.7983C20.1661 6.607 19.7822 6.41569 19.3214 6.26265C19.3982 6.14787 19.4366 5.9183 19.475 5.76526C19.5134 5.57395 19.3598 5.38265 19.0527 5.45917C18.8223 5.49743 18.2848 5.68874 17.824 5.84178C17.2097 5.76526 16.5954 5.68874 16.0195 5.68874Z" fill="#504424" stroke="#D4CFC5" stroke-width="0.3529" stroke-miterlimit="2.6131" stroke-linejoin="round"/>
<path fill-rule="evenodd" clip-rule="evenodd" d="M16.0186 26.9235C22.0465 26.9235 26.961 22.0261 26.961 15.9809C26.961 11.2748 23.9662 7.21914 19.7812 5.6887L19.8196 5.91827C23.8894 7.4487 26.769 11.3513 26.769 15.9426C26.769 21.8731 21.9697 26.6557 16.057 26.6557C10.1442 26.6557 5.26814 21.9113 5.26814 15.9809C5.26814 10.0504 10.0674 5.26783 15.9802 5.26783C16.6329 5.26783 17.2472 5.3061 17.8615 5.42088L18.2455 5.26783C17.516 5.11479 16.7865 5.03827 16.0186 5.03827C9.95226 5.07653 5.07617 9.97392 5.07617 15.9809C5.07617 22.0261 9.95226 26.9235 16.0186 26.9235Z" fill="#504424" stroke="#D4CFC5" stroke-width="0.3529" stroke-miterlimit="2.6131" stroke-linejoin="round"/>
<path fill-rule="evenodd" clip-rule="evenodd" d="M5.69141 15.9809C5.69141 10.28 10.2987 5.68872 15.9811 5.68872C21.6635 5.68872 26.2708 10.3183 26.2708 15.9809C26.2708 21.6818 21.6635 26.2731 15.9811 26.2731C10.2987 26.3113 5.69141 21.6818 5.69141 15.9809Z" fill="white" stroke="#504424" stroke-width="0.095139" stroke-miterlimit="2.6131" stroke-linejoin="round"/>
<path fill-rule="evenodd" clip-rule="evenodd" d="M19.7812 5.95653C23.851 7.48696 26.7306 11.3896 26.7306 15.9809C26.7306 21.9113 21.9313 26.6939 16.0186 26.6939C10.1058 26.6939 5.26814 21.9113 5.26814 15.9809C5.26814 10.0504 10.0674 5.26783 15.9802 5.26783C16.6329 5.26783 17.2472 5.3061 17.8615 5.42088L18.2455 5.26783C17.516 5.11479 16.7865 5.03827 16.0186 5.03827C9.95226 5.07653 5.07617 9.97392 5.07617 15.9809C5.07617 22.0261 9.99066 26.9235 16.0186 26.9235C22.0465 26.9235 26.961 22.0261 26.961 15.9809C26.961 11.2748 23.9662 7.21914 19.7812 5.6887V5.95653Z" fill="#504424"/>
<path fill-rule="evenodd" clip-rule="evenodd" d="M10.7963 18.047C10.9115 17.9322 11.1418 17.7409 11.4106 17.5879C11.8329 17.3966 13.0231 17.2435 13.6758 17.2435C14.0598 17.2435 14.3286 17.4348 14.5205 17.5879C14.7125 17.7792 14.4053 17.7792 14.2518 17.6644C14.0982 17.5496 13.9062 17.5113 13.7526 17.5113C13.5607 17.5113 13.3687 17.5879 13.2919 17.6644C13.1767 17.7409 13.1767 17.8557 12.908 17.9322C12.6008 18.0087 12.2169 17.7409 12.2169 17.7409C12.4856 18.2383 12.908 18.2 13.1383 18.1618C13.3303 18.1235 13.3687 18.047 13.6375 18.047C14.0598 18.047 14.2518 18.2766 14.2518 18.2766C13.7142 18.2383 12.8696 18.5826 12.4472 18.6592C11.9097 18.7739 11.449 18.7739 11.449 18.7739C11.7945 19.1948 12.2937 19.1948 12.6392 19.1948C12.9847 19.1948 14.175 19.1183 14.8661 19.1566C15.7491 19.2331 16.4402 19.807 16.4402 20.6487C16.4402 21.4905 15.8643 21.9496 15.8643 21.9496C16.6322 21.72 16.9394 21.1079 16.9394 21.1079C17.3233 22.6383 16.517 23.8626 15.7491 24.3983C15.1348 24.8192 13.2151 25.24 11.7561 24.5513C10.1436 23.7861 9.52925 23.0209 9.52925 23.0209C13.0231 23.2887 14.7509 22.3322 14.7509 22.3322C11.6026 22.5235 9.37567 21.72 7.95508 21.1079C7.37917 20.1896 6.95683 19.2331 6.72646 18.1235C9.33728 20.0748 11.6409 20.4192 11.6409 20.4192C8.79976 18.8887 7.41756 17.167 6.49609 15.4835C6.53449 14.4887 6.72646 13.5705 7.07201 12.6522C8.10866 15.4452 9.26049 16.287 9.26049 16.287C8.10866 13.6852 8.14705 11.8487 8.22384 10.4331C8.64618 9.8209 9.14531 9.24699 9.72122 8.74959C9.29889 11.2366 9.79801 12.8435 9.79801 12.8435C9.79801 10.8922 10.9115 8.52003 11.7945 7.33394C12.2937 7.06612 12.8312 6.87481 13.4455 6.72177C12.6392 7.71655 12.2937 8.71133 12.2937 8.71133C13.9446 7.14264 16.6706 6.18612 17.093 6.1096C17.5153 5.99481 18.7055 5.57394 19.0511 5.49742C19.3198 5.38264 19.4734 5.57394 19.4734 5.76525C19.435 5.99481 19.3582 6.41568 19.3582 6.41568C20.2797 6.64525 20.6636 7.10438 20.6636 7.10438C20.6252 6.9896 20.6636 6.76003 20.6636 6.76003C21.9306 7.8696 22.2762 8.40525 22.3146 9.43829C22.353 10.4713 22.8137 10.6244 23.0441 10.7392C23.3128 10.8922 23.9272 11.2366 24.1575 11.4279C24.3111 11.5426 24.2343 11.6957 24.1575 11.8105C24.0807 11.9252 24.0807 11.9635 24.0423 12.0783C23.9656 12.6139 23.7352 12.8052 23.3896 12.9583C23.0441 13.0731 22.6985 12.8818 22.6985 12.8818C22.353 13.2644 22.2762 13.0348 22.2378 12.8818C22.2378 12.7287 22.0458 12.8435 21.8923 12.8818C21.7387 12.92 21.7003 12.7287 21.7003 12.7287C21.0476 12.6522 20.7404 13.0348 20.7404 13.0348C21.3163 13.1113 21.5851 13.4939 21.6235 13.647C21.6619 13.8 21.8923 13.6852 21.8923 13.6852C21.8923 13.6852 21.9306 13.647 22.0074 13.5705C22.1226 13.5322 22.1226 13.5322 22.1226 13.6852C22.0842 13.8 22.0842 13.9148 22.0842 13.9148L22.353 14.1061C22.2378 14.7948 21.9306 14.7948 21.7771 14.7183C20.7788 14.2209 19.0127 14.1061 19.0127 14.1061C19.1279 13.9531 19.3582 13.7618 19.3582 13.7618C14.7893 13.7618 14.0214 14.2974 13.791 14.6035C13.6375 14.7948 13.7526 15.1392 13.7526 15.1392C13.2151 15.2539 11.8329 15.5983 11.2954 16.0574C10.7963 16.5166 10.6043 17.6261 10.6043 18.0087C10.6811 18.0852 10.7579 18.0852 10.7963 18.047ZM18.7439 6.3009C18.7823 6.26264 18.7439 6.18612 18.5903 6.3009C18.4368 6.37742 17.8608 6.76003 17.4385 7.44873C17.4001 7.52525 17.4001 7.67829 17.6305 7.60177C17.8992 7.52525 18.168 7.44873 18.2832 7.44873C18.3984 7.44873 18.3984 7.33394 18.3216 7.29568C18.2448 7.25742 18.2064 7.21916 18.2448 7.10438C18.2832 6.91307 18.5519 6.53046 18.7439 6.3009ZM17.5921 8.17568C16.709 8.90264 15.2116 10.6244 14.5205 12.2696C14.4821 12.3844 14.5205 12.4226 14.6741 12.3079C14.8661 12.1931 15.3652 11.9635 15.5956 11.887C15.5956 11.887 15.3268 12.8052 15.25 13.3026C15.1732 13.7235 15.5188 13.6852 15.7491 13.647C15.9795 13.6087 16.8242 13.5705 16.9778 13.5322C16.9778 13.5322 16.1715 13.3409 16.0947 12.9966C16.0179 12.6522 16.2483 11.9252 16.4019 11.4279C16.4402 11.3131 16.4019 11.16 16.2099 11.2366C16.0179 11.3131 15.7875 11.3513 15.6724 11.4279C15.6724 11.4279 16.4402 9.55307 17.5921 8.21394V8.17568L21.6235 9.01742C21.5467 9.70612 21.2779 9.62959 21.1628 9.59133C21.0476 9.55307 21.0092 9.51481 20.6252 9.47655C20.5101 9.47655 19.9725 9.40003 20.2797 9.6296C20.7404 10.0122 21.1244 10.7392 21.1244 10.7392C21.1628 10.5096 21.0476 10.1652 20.9708 10.0505C20.894 9.93568 20.9708 9.89742 21.086 9.89742C21.1628 9.89742 21.2395 9.93568 21.3931 10.0505C21.5467 10.127 21.6619 10.127 21.7003 9.89742C21.7387 9.70612 21.7387 9.36177 21.7003 9.01742C21.7003 8.97916 21.6619 8.97916 21.6619 9.01742L17.5921 8.17568Z" fill="#504424"/>
<path fill-rule="evenodd" clip-rule="evenodd" d="M22.7753 22.9061C22.353 21.5287 21.2395 20.6869 20.6252 19.9217C20.3565 19.6156 19.9725 19.1948 19.9725 19.1948C20.3181 19.3861 21.0092 19.5009 21.0092 19.5009C20.8172 19.3478 20.3948 18.8122 20.2029 18.6209C19.7037 18.0469 18.8975 17.3965 18.2832 17.1287C17.0545 16.593 15.7875 16.5165 15.6339 16.4782C15.442 16.44 15.0964 16.5165 15.3268 16.1722C15.5571 15.8278 16.8626 14.7948 16.8626 14.7948C16.5938 14.7948 15.3652 14.9095 15.0196 14.9478C14.6741 14.9861 14.5589 14.8713 14.5589 14.6417C14.5589 14.6417 13.8294 15.3304 14.1749 15.6748C14.2133 15.713 14.3669 15.7513 14.5589 15.6748C14.7509 15.5982 15.1348 15.4835 15.25 15.4452C15.25 15.4452 14.9428 15.9426 14.866 16.1339C14.7893 16.3252 14.7893 16.44 15.0964 16.5548C15.442 16.6695 17.0929 17.1669 18.0912 17.8556C19.1278 18.5443 20.1645 19.4243 20.9324 21.0313C21.7003 22.6382 21.2779 23.9009 21.1627 24.1304C21.777 23.7861 22.3146 23.3652 22.7753 22.9061Z" fill="#504424"/>
<path fill-rule="evenodd" clip-rule="evenodd" d="M25.0421 19.4626C24.0439 18.6591 22.2777 17.2052 20.166 16.7078C20.166 16.7078 23.2376 17.9322 24.3126 20.993C24.5814 20.4957 24.8117 19.9983 25.0421 19.4626Z" fill="#504424"/>
<path fill-rule="evenodd" clip-rule="evenodd" d="M19.0512 25.1635C19.3968 24.3982 19.7423 22.6 19.3584 21.1843C19.3584 21.1843 19.4352 24.4748 17.1699 25.5843C17.7842 25.5078 18.4369 25.3548 19.0512 25.1635Z" fill="#504424"/>
<path fill-rule="evenodd" clip-rule="evenodd" d="M25.6944 15.8661C25.3873 15.7513 23.5828 15.2539 23.5828 15.2539C24.1971 15.2157 24.4274 14.7565 24.4274 14.7565C23.8515 14.9096 23.0068 14.9861 22.2773 14.8713C22.2773 14.8713 23.9667 15.5983 25.6177 17.167C25.6561 16.7844 25.6944 16.4017 25.6944 15.9809C25.6944 15.9426 25.6944 15.9044 25.6944 15.8661Z" fill="#504424"/>
<defs>
<linearGradient id="paint0_linear_2515_52531" x1="16" y1="0" x2="16" y2="32" gradientUnits="userSpaceOnUse">
<stop stop-color="#F6F2FF"/>
<stop offset="1" stop-color="#E4DDC8"/>
</linearGradient>
</defs>
</svg>
