<svg width="32" height="32" viewBox="0 0 32 32" fill="none" xmlns="http://www.w3.org/2000/svg">
<rect width="32" height="32" fill="url(#paint0_linear_2470_50841)"/>
<path d="M14.6384 23.0393L9 27L12.5794 10.8843L14.6384 23.0393ZM14.7525 23.0021L18.1862 23.0455L12.7125 10.9463L14.7525 23.0021ZM18.5093 22.7355L21.1384 13.2025L20.1438 12.0124L18.5093 22.7355ZM17.2422 7.79132L12.9152 10.6426L19.2379 8.64049L17.2422 7.79132ZM16.6974 7.79132L14.0112 7.8781L13.6184 8.97521L16.6974 7.79132Z" fill="#384182"/>
<path d="M19.9538 11.6467L13.0293 10.7169L19.2696 8.79544L19.9538 11.6467ZM18.3129 8.06403L18.6931 7.0537L16.6974 6.20453L18.3129 8.06403ZM18.8895 6.95453L19.3393 8.54131L22.0001 7.85329L18.8895 6.95453Z" fill="#F79534"/>
<path d="M18.3388 22.9835L12.7891 10.8347L20.024 11.8264L18.3388 22.9835ZM17.0337 7.79132L13.6127 9.09917L12.7891 10.5868L17.0337 7.79132ZM14.9114 6.79959L14.0561 7.72314L16.8943 7.65496L14.9114 6.79959ZM16.4065 6.08058L15.0508 6.69422L18.1424 8.02686L16.4065 6.08058ZM17.9523 6H16.4952L18.7506 6.85537L17.9523 6ZM18.7949 7.1343L18.4465 8.15083L19.1434 8.47934L18.7949 7.1343Z" fill="#F0513A"/>
<defs>
<linearGradient id="paint0_linear_2470_50841" x1="16" y1="0" x2="16" y2="32" gradientUnits="userSpaceOnUse">
<stop stop-color="#F6F2FF"/>
<stop offset="1" stop-color="#C0CEFF"/>
</linearGradient>
</defs>
</svg>
