<svg width="32" height="32" viewBox="0 0 32 32" fill="none" xmlns="http://www.w3.org/2000/svg">
<rect width="32" height="32" fill="url(#paint0_linear_2515_51716)"/>
<path fill-rule="evenodd" clip-rule="evenodd" d="M19.4683 10.9213L21.0238 9.77478C19.6021 8.62351 17.8274 7.9968 15.998 8.00001V8.00079C14.948 7.9998 13.9081 8.20609 12.938 8.60783C11.9996 8.99643 11.1443 9.5605 10.4179 10.2695C9.68805 10.9788 9.09994 11.822 8.68624 12.7539C8.23286 13.7752 7.99907 14.8804 8 15.9978C8 15.9992 8 16.0005 8 16.0019C7.99922 17.0522 8.2058 18.0923 8.60792 19.0626C8.96771 19.9308 9.4777 20.7277 10.1136 21.4172C10.8542 22.2238 11.753 22.8696 12.7543 23.314C13.7575 23.7592 14.8416 23.9926 15.9387 23.9998C15.9591 23.9999 15.9796 24 16.0001 24C17.0504 24.0011 18.0906 23.7946 19.0609 23.3925C19.9086 23.0412 20.6884 22.5465 21.3665 21.931L21.3678 21.9325C22.1977 21.1832 22.8608 20.2679 23.3143 19.246C23.7678 18.224 24.0014 17.1181 24 16C24.001 15.5193 23.9589 15.0395 23.8743 14.5664L22.1524 15.8354V16C22.1528 16.8596 21.9726 17.7097 21.6235 18.4952C21.316 19.1872 20.8833 19.8155 20.3482 20.3489L20.3474 20.3481C19.7772 20.9203 19.0997 21.3742 18.3537 21.6839C17.6077 21.9935 16.8079 22.1527 16.0002 22.1523C15.904 22.1524 15.8079 22.1501 15.7121 22.1456L15.6923 22.1442L15.6922 22.1447C14.9381 22.1071 14.1965 21.9306 13.5049 21.6232C12.813 21.3158 12.1848 20.8833 11.6514 20.3485L11.6525 20.3474C11.0801 19.7774 10.6261 19.0999 10.3165 18.3538C10.0068 17.6077 9.84771 16.8078 9.84822 16C9.84822 16 9.84822 16 9.84822 16M9.84823 15.9881C9.84951 15.1326 10.0297 14.2867 10.3772 13.5048C10.6846 12.8132 11.1169 12.1852 11.6516 11.652L11.6523 11.6527C11.7178 11.587 11.7846 11.5228 11.8529 11.4602C11.8602 11.4536 11.8675 11.4469 11.8749 11.4403C12.3958 10.9672 12.9948 10.5866 13.6461 10.3163C14.3923 10.0065 15.1923 9.8473 16.0002 9.8478C16.1032 9.8478 16.2056 9.85158 16.3074 9.8566L16.3074 9.85509C17.4374 9.91087 18.5321 10.279 19.4683 10.9213" fill="white"/>
<path d="M23.2895 12.6993C23.0326 12.1337 22.7108 11.5999 22.3308 11.1086L16.0021 15.7745L12.9565 13.8653V16.1622L16.0021 18.0714L23.2895 12.6993Z" fill="white"/>
<defs>
<linearGradient id="paint0_linear_2515_51716" x1="16" y1="0" x2="16" y2="32" gradientUnits="userSpaceOnUse">
<stop stop-color="#078CDA"/>
<stop offset="0.494792" stop-color="#9DF113"/>
<stop offset="1" stop-color="#21A038"/>
</linearGradient>
</defs>
</svg>
