<svg width="32" height="32" viewBox="0 0 32 32" fill="none" xmlns="http://www.w3.org/2000/svg">
<rect width="32" height="32" fill="url(#paint0_linear_2515_51866)"/>
<path fill-rule="evenodd" clip-rule="evenodd" d="M10.462 17.1171C10.1763 16.74 9.7519 16.4786 9.18861 16.3329C9.60116 16.1614 9.9185 15.9043 10.1406 15.5614C10.3707 15.2186 10.4858 14.8029 10.4858 14.3143C10.4858 13.5686 10.2279 12.9986 9.71223 12.6043C9.20448 12.2014 8.49441 12 7.58204 12H4V21H7.80815C8.81573 21 9.58132 20.7857 10.1049 20.3571C10.6365 19.9286 10.9023 19.3243 10.9023 18.5443C10.9023 17.9614 10.7555 17.4857 10.462 17.1171ZM7.49874 15.96H5.17815V13.0157H7.49874C8.06996 13.0157 8.51028 13.1443 8.81969 13.4014C9.12911 13.65 9.28381 14.0143 9.28381 14.4943C9.28381 14.9743 9.12911 15.3386 8.81969 15.5871C8.51821 15.8357 8.0779 15.96 7.49874 15.96ZM9.70033 18.4414C9.70033 19.47 9.06167 19.9843 7.78435 19.9843H5.17815V16.9371H7.78435C8.41904 16.9371 8.89506 17.0614 9.21241 17.31C9.53769 17.55 9.70033 17.9271 9.70033 18.4414Z" fill="white"/>
<path d="M15.5105 13.1186H18.3666V12H11.5V13.1186H14.3442V21H15.5105V13.1186Z" fill="white"/>
<path d="M18.8969 16.499C18.9465 16.3294 19.0021 16.1629 19.0622 15.9994H25.5406C26.0454 15.6109 26.5487 14.9993 26.5487 14.9993H19.5159L19.6061 14.8369C19.6722 14.7224 19.7413 14.61 19.8134 14.4999H26.9153C27.1031 14.2484 27.4802 13.4998 27.4802 13.4998H20.5962C20.7614 13.3233 20.9357 13.1567 21.1175 13.0001H27.692C27.7581 12.8253 27.8167 12.6443 27.8648 12.4852C27.9474 12.2099 28 12 28 12H20.8591C19.4934 13.0747 18.4657 14.6492 18 16.499H18.8969Z" fill="white"/>
<path d="M18.8969 16.499L18.8968 16.501C18.9465 16.6706 19.0017 16.8371 19.0622 17.0006H25.5409C26.046 17.3891 26.5481 18.0007 26.5481 18.0007H19.5154C19.6087 18.172 19.708 18.3385 19.8132 18.5001H26.9158C27.1033 18.7516 27.4801 19.5002 27.4801 19.5002H20.5966C20.762 19.6767 20.9356 19.8433 21.1168 19.9999H27.6913C27.8715 20.4774 28 21 28 21H20.8585C19.494 19.9253 18.465 18.3508 18 16.501L18.8969 16.499Z" fill="white"/>
<path d="M19.3605 16.501H25.5438L25.5448 16.5H19.3608L19.3605 16.501Z" fill="white"/>
<defs>
<linearGradient id="paint0_linear_2515_51866" x1="16" y1="0" x2="16" y2="32" gradientUnits="userSpaceOnUse">
<stop stop-color="#035AAB"/>
<stop offset="1" stop-color="#002882"/>
</linearGradient>
</defs>
</svg>
