<svg width="32" height="32" viewBox="0 0 32 32" fill="none" xmlns="http://www.w3.org/2000/svg">
<rect width="32" height="32" fill="url(#paint0_linear_2515_51749)"/>
<path fill-rule="evenodd" clip-rule="evenodd" d="M27 14.4247L26.7144 15.3554C26.563 15.8379 26.0659 16.6321 25.1409 16.7125C25.2421 17.1472 25.4676 17.6356 25.9655 17.8459L26.6823 18.1458L26.2955 18.831C26.2083 18.9768 25.7581 19.6494 24.8191 19.6494C24.6586 19.6494 24.5031 19.6327 24.3541 19.6008C24.3162 19.7709 24.2693 19.9418 24.2134 20.1119C23.9936 20.7778 24.1829 21.241 24.1911 21.2603L24.5368 22.0008L23.7425 22.2147C23.7242 22.2195 23.4881 22.2823 23.2019 22.2823C23.0661 22.2823 22.9369 22.2681 22.816 22.2387C22.7238 22.217 22.6349 22.1877 22.5501 22.1525C22.4473 22.3393 22.323 22.5093 22.1789 22.6609C21.6737 23.1904 20.956 23.4584 20.0466 23.4584L19.3956 23.4501L20.7313 24.0172L19.733 24.5106C19.3792 24.6865 18.9249 24.9118 18.4657 25.0827L18.594 25.4371L18.2426 25.6005C18.2113 25.6155 17.5423 25.9196 16.4288 25.9866C16.4288 25.9866 16.1613 26 16.0124 26C15.8634 26 15.5926 25.9875 15.5926 25.9875C14.4743 25.9222 13.8006 25.616 13.7664 25.6005L13.4158 25.4379L13.5426 25.0844C13.0965 24.9185 12.6578 24.7016 12.2884 24.5181L11.2712 24.018L12.611 23.4517L11.9624 23.4601H11.9592C11.0506 23.4601 10.3338 23.192 9.82766 22.6635C9.68279 22.511 9.5585 22.341 9.45645 22.1542C9.3717 22.1893 9.28364 22.2187 9.19149 22.2404C9.06967 22.2698 8.94044 22.284 8.80463 22.284C8.50591 22.284 8.26724 22.2178 8.25737 22.2144L7.46731 22.0025L7.82122 21.2478C7.82365 21.2427 8.01295 20.7787 7.7932 20.1135C7.73724 19.9443 7.68953 19.7734 7.65169 19.6025C7.5035 19.6343 7.34961 19.6503 7.18998 19.6511C6.45261 19.6511 5.93491 19.2138 5.71437 18.8402L5.32347 18.1474L6.04028 17.8467C6.53736 17.6365 6.76366 17.1489 6.86571 16.7133C5.92751 16.6279 5.43783 15.8337 5.29134 15.3546L5 14.4247L5.96291 14.4565C6.03288 14.4557 6.61305 14.439 7.17434 14.0234L7.14604 14.0264C7.11288 14.03 7.07991 14.0335 7.04596 14.0335C6.46741 14.0335 5.90611 13.6792 5.68145 13.1707L5.27734 12.2534C5.87483 12.2643 6.26083 12.1939 6.26083 12.1939L6.26206 12.1937C6.28559 12.1896 6.63911 12.1277 7.04596 11.7047C7.35127 11.3881 7.72823 11.2205 8.1364 11.2205C8.31499 11.2205 8.47466 11.2532 8.61128 11.2976C8.58989 11.2231 8.57012 11.1477 8.55775 11.0706C8.43928 10.2966 8.87462 9.68085 8.96264 9.56439L9.68445 8.66304L10.1255 9.72108C10.1255 9.72108 10.2358 9.96398 10.4333 10.0829C10.4942 9.77384 10.6415 9.42536 10.9576 9.09365C11.5501 8.46785 12.2736 8.37405 12.6521 8.37405C12.8282 8.37405 12.9525 8.3933 12.9936 8.40002L13.0217 8.40506L13.8397 8.56924C13.7911 8.37405 13.6858 8.03561 13.4932 7.72987L13.0192 6.9793L14.2092 7.11751L14.5877 6.29739L15.3244 6.68273L16.0016 6L16.6806 6.68273L17.4147 6.29739L17.7941 7.11751L18.985 6.9793L18.5118 7.72987C18.3192 8.03561 18.2138 8.37487 18.1644 8.57006L19.022 8.39834C19.0525 8.3933 19.1776 8.37405 19.3528 8.37405C19.7314 8.37405 20.4548 8.46703 21.049 9.09365C21.3642 9.42618 21.5115 9.77384 21.5716 10.0829C21.7658 9.96529 21.8766 9.72746 21.8835 9.71268L22.3238 8.66055L23.0341 9.55603C23.0341 9.55603 23.5772 10.2103 23.4472 11.0689C23.4356 11.1468 23.4151 11.2222 23.3937 11.2968C23.5311 11.2524 23.6908 11.2197 23.8694 11.2197C24.2776 11.2197 24.6545 11.3872 24.959 11.7039C25.375 12.1363 25.7365 12.1911 25.7548 12.1939C25.7548 12.1939 26.2206 12.2593 26.73 12.2526L26.3235 13.1699C26.0988 13.6775 25.5383 14.0327 24.959 14.0327C24.9257 14.0327 24.8929 14.0291 24.8602 14.0256L24.8323 14.0226C25.3952 14.4381 25.9754 14.4549 26.0552 14.4549L27 14.4247ZM13.8923 8.8926L13.9022 8.89006L13.9005 8.8817L13.8923 8.8926Z" fill="white"/>
<path d="M17.8167 18.0906H12.7397V15.1059C12.7397 14.8169 12.6565 14.5262 12.5586 14.2582H14.8465C15.0638 14.4776 15.2769 14.615 15.4794 14.6904C15.4539 14.7968 15.4193 15.0154 15.5164 15.2341C15.5963 15.4108 15.7403 15.5465 15.9493 15.637C15.9724 15.8548 16.1081 16.1832 16.4818 16.3273C16.318 16.4956 16.1584 16.6548 16.0941 16.7185L14.575 16.6942C14.5403 16.6774 14.4819 16.6372 14.4556 16.5819C14.4538 16.5774 14.4516 16.5741 14.4493 16.5709C14.4474 16.5681 14.4456 16.5653 14.444 16.5618L14.6918 16.6029C14.6967 16.6037 14.7025 16.6037 14.7074 16.6037C14.756 16.6037 14.7971 16.5694 14.8053 16.5199C14.8136 16.4638 14.7766 16.4127 14.7231 16.4043L14.4186 16.3558L14.7568 15.1662L14.4366 14.4801L13.9231 15.033L13.8918 16.2695L13.547 16.2142C13.4935 16.2033 13.4425 16.2427 13.4334 16.2979C13.4252 16.3524 13.4614 16.4035 13.5157 16.4135L13.6606 16.4361C13.6095 16.4663 13.575 16.4898 13.5708 16.4931L13.542 16.514L13.5338 16.5509C13.4499 16.8977 13.6392 17.2269 13.8449 17.3744L13.8375 17.4179C13.8285 17.4716 13.8408 17.5235 13.8721 17.567C13.9025 17.6114 13.9478 17.6382 13.9996 17.6475C14.0103 17.65 14.0219 17.6508 14.0317 17.6508C14.1206 17.6508 14.198 17.588 14.2194 17.4967C14.2959 17.5059 14.3659 17.5076 14.4136 17.5076H14.4539L16.4464 17.8745L16.4801 17.851C16.6381 17.7387 17.2439 17.2898 17.4422 17.1407C17.4965 17.1876 17.5574 17.2311 17.6315 17.2671C17.5665 17.4867 17.5632 17.8242 17.8167 18.0906Z" fill="#FFDD2D"/>
<path d="M12.74 18.2915H19.2688L19.2679 20.7921C19.2679 21.6197 18.7898 22.1985 18.0367 22.387L18.1627 21.7186C18.1701 21.6792 18.1775 21.6331 18.1832 21.5946C18.2195 21.6097 18.2565 21.6222 18.2976 21.6298C18.3446 21.639 18.3882 21.6432 18.4277 21.6432C18.6203 21.6432 18.7322 21.5401 18.8071 21.4522L18.9042 21.3374L18.8252 21.2118C18.8252 21.2118 18.8233 21.2088 18.8212 21.2054C18.7934 21.1609 18.6331 20.9042 18.5083 20.725C18.482 20.6874 18.4565 20.6488 18.431 20.6086L18.4294 20.6063C18.2766 20.3738 18.0857 20.0834 17.7026 20.0834L17.6681 20.0842C17.6055 20.0884 17.5512 20.101 17.5067 20.1177C17.3866 20.0608 17.2615 20.0306 17.1323 20.0306C16.9735 20.0306 16.8393 20.075 16.7504 20.106C16.7423 20.1084 16.7345 20.1109 16.727 20.1132C16.7108 20.1183 16.6961 20.123 16.6838 20.1253L15.9662 20.0532C15.9571 20.0516 15.9275 20.0339 15.892 19.9912V19.9871L16.0476 19.9234C16.004 19.3965 15.5077 19.0723 15.2304 18.9625C15.218 18.9097 15.1934 18.857 15.1497 18.8143L14.9958 18.6652L14.86 18.8302L14.7934 18.9148L13.7877 18.4943L14.442 19.3303L14.1835 19.7282C14.0889 19.8304 14.1934 19.9326 14.1934 19.9326L14.4601 20.1202L14.7366 20.0155C14.7419 20.0155 14.7473 20.0164 14.7527 20.0173C14.7563 20.0179 14.76 20.0185 14.7637 20.0189C14.7559 20.0428 14.7471 20.1057 14.7388 20.1648C14.7323 20.2113 14.7261 20.2554 14.721 20.2761L14.2412 20.1797L13.7366 20.4696C13.4774 20.663 13.442 20.9839 13.5383 21.2034L13.5943 21.3282L13.6741 21.5041L13.8511 21.4296C13.8535 21.4296 13.8577 21.427 13.8577 21.427C13.7943 21.6331 13.8206 21.83 13.9334 21.9582L14.0403 22.0947L14.1827 22.2781L14.3391 22.1073C14.3843 22.0603 14.5341 21.8903 14.5802 21.7445L14.614 21.6331L14.5374 21.5476L14.5243 21.5326L14.6098 21.3885L15.2361 21.5385L15.3768 21.5711L15.4517 21.4455L15.4929 21.3768C15.5003 21.3626 15.5028 21.36 15.5316 21.36C15.5538 21.36 15.576 21.3617 15.5999 21.3676C15.8361 21.4128 16.0542 21.4354 16.2476 21.4354C16.4361 21.4354 16.548 21.4279 16.6813 21.3826C16.6813 21.3826 17.0179 21.7722 17.0294 21.7864L16.8237 22.434L16.8146 22.4725C16.4245 22.5052 16.2344 22.5923 16.0048 22.8252C15.6715 22.4884 15.4353 22.4532 14.5391 22.4532C13.4667 22.4532 12.74 21.8132 12.74 20.7912V18.2915Z" fill="#FFDD2D"/>
<path fill-rule="evenodd" clip-rule="evenodd" d="M16.005 8.12686C16.7704 8.12686 17.3828 8.38489 17.721 8.66049C17.721 8.66049 17.8214 8.04477 18.1646 7.50111L17.5482 7.57231L17.2256 6.8745L16.6058 7.19954L16.005 6.59473L15.4059 7.19954L14.7854 6.8745L14.4636 7.57231L13.8472 7.50111C14.1904 8.04477 14.2908 8.66049 14.2908 8.66049C14.6299 8.38489 15.2405 8.12686 16.005 8.12686ZM14.4356 7.81694L14.6068 7.83537L14.6809 7.67701L14.8965 7.2079L15.2965 7.41816L15.4512 7.49861L15.5747 7.37462L16.0059 6.93902L16.438 7.37462L16.5614 7.49861L16.7161 7.41816L17.1136 7.2079L17.3317 7.67701L17.4041 7.83537L17.5753 7.81694L17.7382 7.79682C17.6634 7.96854 17.6082 8.13104 17.5687 8.26593C17.1375 8.0213 16.5762 7.88227 16.0042 7.88227C15.4347 7.88227 14.8743 8.0213 14.4414 8.26593C14.4011 8.13104 14.3468 7.96772 14.2719 7.79682L14.4356 7.81694Z" fill="black"/>
<path fill-rule="evenodd" clip-rule="evenodd" d="M19.2585 23.9089L18.8824 23.7623L18.9861 23.3669L19.1005 22.9355C19.1005 22.9355 18.4339 23.3033 17.4949 23.5797C17.2282 23.6576 17.0266 23.6928 17.0266 23.6928V23.986C17.0266 23.986 16.5246 24.0748 16.0168 24.0748H15.988C15.4802 24.0748 14.9782 23.986 14.9782 23.986V23.6928C14.9782 23.6928 14.7757 23.6576 14.5099 23.5797C13.5709 23.3033 12.9051 22.9355 12.9051 22.9355L13.0178 23.3669L13.124 23.7623L12.7471 23.9089L12.329 24.0681L12.4842 24.1447C12.9462 24.373 13.5361 24.6645 14.0812 24.8161L13.938 25.2149C13.938 25.2149 14.7091 25.5734 15.9937 25.5768H16.0086L16.0119 25.5759C17.2982 25.5726 18.0685 25.2149 18.0685 25.2149L17.9245 24.8161C18.4771 24.6624 19.0772 24.3648 19.5404 24.1352L19.6758 24.0681L19.2585 23.9089ZM12.7751 24.0949L13.394 23.8855L13.2113 23.2782C13.4837 23.4357 14.0951 23.6719 14.449 23.7816L14.1503 24.6168C13.6038 24.4635 13.1487 24.2851 12.7751 24.0949ZM16.0037 25.3665C15.2852 25.3665 14.4647 25.1981 14.2235 25.1111L14.5906 24.0999C14.8951 24.1904 15.5296 24.2868 15.9897 24.2834H16.0176C16.4777 24.2868 17.1097 24.1904 17.4159 24.0999L17.7821 25.1111C17.541 25.199 16.7213 25.3665 16.0037 25.3665ZM17.8554 24.6168L17.5575 23.7816C17.9122 23.6719 18.522 23.4357 18.7952 23.2782L18.6133 23.8855L19.2314 24.0949C18.8569 24.2851 18.4043 24.4635 17.8554 24.6168Z" fill="black"/>
<path d="M23.4167 15.8631V15.8765C23.1945 14.052 21.8925 12.7343 20.4441 11.9326C20.3099 11.8597 20.1864 11.7977 20.0663 11.7383C20.5074 11.8078 21.2176 11.8162 21.7657 11.332C21.7657 11.332 20.9271 11.9603 19.2088 11.3898C19.3467 11.4808 19.5222 11.5827 19.7226 11.6991C20.2135 11.9839 20.8532 12.3552 21.4522 12.8649C23.5615 14.7515 22.0521 16.5919 22.0521 16.5919C22.8101 15.7868 22.8414 14.924 22.6184 14.2195C23.0175 14.8955 23.2726 15.7165 23.2331 16.7284C23.1747 18.1785 22.392 19.4325 21.5682 20.4402C21.1724 20.9294 21.0835 21.5301 21.0835 21.5301C21.0835 21.5301 21.2431 20.9998 21.7015 20.4545C22.5846 19.4024 23.3393 18.3091 23.438 16.7343C23.5294 17.02 23.9055 17.8149 24.5022 18.114C24.4862 18.1038 23.75 17.6335 23.4167 15.8631Z" fill="black"/>
<path fill-rule="evenodd" clip-rule="evenodd" d="M26.32 15.2279C26.306 15.2715 25.9752 16.2968 24.9851 16.2968H24.939C24.8328 16.2935 24.739 16.2784 24.6567 16.2625C24.697 16.8221 24.8987 17.8549 25.8089 18.2395L26.0879 18.3567L25.9373 18.6231L25.9353 18.6263C25.9029 18.6788 25.5641 19.228 24.8213 19.228C24.4847 19.2271 24.2246 19.1417 24.0304 19.0386C24.0008 19.2916 23.9399 19.6166 23.8206 19.9794C23.5463 20.8095 23.7956 21.3948 23.8107 21.4302L23.9473 21.7234L23.6387 21.8072L23.634 21.8083C23.5975 21.8172 23.417 21.8608 23.2033 21.8608C23.0988 21.8608 23.0017 21.8491 22.9128 21.8282C22.6791 21.772 22.4997 21.6665 22.3606 21.5458C22.2758 21.8089 22.1326 22.1054 21.8824 22.3684C21.4586 22.8125 20.8471 23.0369 20.0488 23.0369L19.5657 23.0303L19.8332 22.6148C19.8349 22.6122 19.9895 22.3684 20.0373 21.7092C20.0941 20.9193 20.3879 20.4585 20.6768 20.1938C20.5944 20.1528 20.5154 20.1033 20.4504 20.043C20.0241 19.6535 20.0422 19.1952 20.0447 19.1459L20.0636 18.8987L20.3056 18.8946C20.9566 18.8844 21.4092 18.6868 21.7771 18.2529C21.8635 18.1506 21.9318 18.0493 21.9878 17.9496C21.7853 18.0124 21.5359 18.0594 21.243 18.0594C21.1656 18.0594 21.0825 18.0543 20.9961 18.0485C20.54 18.0083 20.2306 17.7317 20.1961 17.7008L19.9435 17.4645L20.2323 17.2753C20.8759 16.8556 21.5384 16.0581 21.0306 14.66C20.7023 13.7511 19.9418 12.9277 18.709 12.1385C18.2926 11.8705 18.0629 11.5555 18.0629 11.2539C18.0629 10.7881 18.4456 10.6055 18.7263 10.474L18.7477 10.4636C18.8776 10.4009 19.0089 10.3374 19.0744 10.2604C19.2908 10.0041 19.1082 9.51402 18.9065 9.24846L18.6497 8.90417L19.0662 8.8204L19.0711 8.8196C19.0966 8.81538 19.2027 8.79779 19.3559 8.79779C19.6686 8.79779 20.2661 8.87484 20.7525 9.38835C21.1574 9.81473 21.21 10.2696 21.1887 10.5637C21.2156 10.5659 21.2425 10.5674 21.2702 10.569L21.3096 10.5712H21.3549C21.9617 10.5712 22.2516 9.91725 22.2651 9.88679L22.4371 9.47548L22.7128 9.82227C22.7309 9.8432 23.1358 10.3584 23.0387 11.0051C22.9721 11.4349 22.707 11.8051 22.252 12.11C22.2034 12.1419 22.168 12.1704 22.1433 12.193C22.9994 12.4765 23.479 13.0972 23.9841 13.751L23.9868 13.7544L24.06 13.8474C24.8345 14.8493 25.9266 14.8786 26.0574 14.8786H26.0591L26.4303 14.8669L26.32 15.2279ZM24.8287 18.9582C25.4402 18.9582 25.7068 18.4866 25.7068 18.4866C24.2411 17.8667 24.3868 15.8671 24.3868 15.8671C24.3868 15.8671 24.5769 16.012 24.948 16.0254C24.962 16.0263 24.9736 16.0263 24.9867 16.0263C25.7941 16.0263 26.0682 15.1458 26.0682 15.1458H26.0525C25.9044 15.1458 24.7036 15.1107 23.8551 14.0125L23.7825 13.9184C23.2555 13.2357 22.7992 12.6444 21.9342 12.4057L21.8454 12.3898L21.8256 12.2977C21.801 12.1569 21.8956 12.0254 22.1104 11.883C23.358 11.052 22.5103 9.99067 22.5103 9.99067C22.5103 9.99067 22.154 10.8393 21.3565 10.8393C21.3466 10.8393 21.3368 10.839 21.3269 10.8388C21.317 10.8386 21.3072 10.8384 21.2973 10.8384L21.2862 10.8379C21.1996 10.8339 21.1159 10.8301 21.0314 10.8116L20.8842 10.7823C20.8842 10.7823 21.1121 10.1532 20.5632 9.57514C20.15 9.13954 19.6472 9.06499 19.3567 9.06499C19.2102 9.06499 19.1172 9.08429 19.1172 9.08429C19.3929 9.45033 19.5921 10.0594 19.2743 10.4346C19.1675 10.5599 19.0013 10.6389 18.8377 10.7167C18.5791 10.8396 18.3271 10.9594 18.3271 11.2539C18.3271 11.4583 18.514 11.6954 18.8497 11.9089C19.8587 12.5565 20.8611 13.416 21.2784 14.5661C21.7993 16.002 21.2117 16.9553 20.3747 17.5015C20.3747 17.5015 20.6381 17.7478 21.0183 17.7787C21.0956 17.7863 21.1713 17.7896 21.2421 17.7896C22.0462 17.7896 22.4618 17.4059 22.4618 17.4059C22.4618 17.4059 22.3927 17.9362 21.9746 18.4288C21.5886 18.8837 21.0825 19.1517 20.3089 19.1626C20.3089 19.1626 20.285 19.5278 20.6274 19.8436C20.8463 20.0438 21.3516 20.1084 21.3516 20.1084C21.3516 20.1084 20.4043 20.3036 20.2998 21.7276C20.2422 22.4991 20.0488 22.7672 20.0488 22.7672H20.0661C22.2643 22.7672 22.2075 20.848 22.2075 20.848C22.2075 20.848 22.3606 21.416 22.9737 21.5643C23.0478 21.5844 23.1268 21.5919 23.2025 21.5919C23.4 21.5919 23.5712 21.545 23.5712 21.545C23.5712 21.545 23.2503 20.8556 23.5687 19.8914C23.8337 19.0914 23.7909 18.4983 23.7909 18.4983C23.7909 18.4983 24.0872 18.954 24.8213 18.9582H24.8287Z" fill="black"/>
<path fill-rule="evenodd" clip-rule="evenodd" d="M24.0141 13.0098C23.8256 12.7719 23.6108 12.5039 23.2413 12.3037L22.8611 12.0951L23.2134 11.8429L23.2194 11.839C23.2694 11.807 23.5264 11.6419 23.8676 11.6419C24.1614 11.6419 24.4338 11.765 24.6593 11.9988C25.2074 12.5692 25.6996 12.6144 25.7177 12.6153L26.1004 12.6388L25.9424 12.9956C25.7851 13.3516 25.3704 13.6088 24.9572 13.6088C24.8519 13.6088 24.7482 13.5929 24.6503 13.5585C24.3785 13.4666 24.2033 13.247 24.0204 13.0178L24.0141 13.0098ZM24.4709 12.1889C24.2676 11.9753 24.0528 11.9116 23.8685 11.9116C23.582 11.9116 23.3664 12.0658 23.3664 12.0658C23.7829 12.2911 24.0203 12.5902 24.2197 12.8414C24.3895 13.0553 24.5317 13.2345 24.7334 13.3039C24.8083 13.3298 24.8832 13.3416 24.958 13.3416C25.2815 13.3416 25.5942 13.128 25.702 12.885C25.702 12.885 25.1087 12.8482 24.4709 12.1889Z" fill="black"/>
<path d="M8.77205 16.7292C8.73084 15.7172 8.98602 14.8963 9.38594 14.2203C9.16295 14.9248 9.1934 15.7876 9.9522 16.5926C9.9522 16.5926 8.44284 14.7522 10.553 12.8657C11.1518 12.3566 11.7903 11.9857 12.2804 11.701C12.4814 11.5842 12.6575 11.4819 12.7956 11.3906C11.0781 11.961 10.2394 11.3327 10.2394 11.3327C10.7875 11.8169 11.4977 11.8085 11.9389 11.7382L11.9237 11.7457C11.809 11.8029 11.6888 11.8627 11.5619 11.9325C10.1118 12.7342 8.8107 14.0519 8.58771 15.8764V15.8621C8.25107 17.654 7.50217 18.1139 7.50217 18.1139C8.09803 17.8148 8.47329 17.0207 8.56467 16.7342C8.66421 18.3091 9.41889 19.4022 10.3019 20.4544C10.7603 20.9998 10.9217 21.53 10.9217 21.53C10.9217 21.53 10.8319 20.9294 10.4344 20.4402C9.61228 19.4341 8.82962 18.1792 8.77205 16.7292Z" fill="black"/>
<path fill-rule="evenodd" clip-rule="evenodd" d="M12.1768 22.6124L12.1776 22.614L12.4459 23.0286L11.962 23.0353C11.1637 23.0353 10.5531 22.8108 10.1284 22.3669C9.87905 22.1038 9.73499 21.8073 9.65109 21.5442C9.51362 21.6649 9.33256 21.7704 9.09805 21.8265C9.0108 21.8475 8.91368 21.8592 8.80835 21.8592C8.58966 21.8592 8.40373 21.8132 8.37498 21.8061L8.37297 21.8056L8.06358 21.7218L8.20016 21.4286C8.21583 21.3919 8.46504 20.8068 8.1911 19.9777C8.07174 19.615 8.01085 19.29 7.98121 19.037C7.78617 19.14 7.5261 19.2255 7.192 19.2263C6.43815 19.2263 6.09944 18.6631 6.07529 18.6229L6.07441 18.6215L5.92379 18.3551L6.20193 18.2378C7.113 17.8525 7.31464 16.8196 7.3558 16.2609C7.27182 16.2776 7.17801 16.2919 7.0735 16.2952L7.02574 16.2969C6.03488 16.2969 5.70485 15.2716 5.6917 15.228L5.57812 14.867L5.95096 14.8787C6.08181 14.8787 7.17636 14.8494 7.94996 13.8475L8.02318 13.7545L8.02943 13.7464C8.53331 13.0943 9.01181 12.475 9.86506 12.1922C9.84036 12.1696 9.80579 12.1411 9.75642 12.1093C9.30131 11.8043 9.03631 11.4341 8.97045 11.0044C8.87397 10.3732 9.25993 9.8661 9.29219 9.82371L9.29387 9.82151L9.57209 9.47471L9.74409 9.88602C9.75819 9.91786 10.0474 10.5704 10.6551 10.5704H10.6996L10.7399 10.5681C10.7668 10.5666 10.7933 10.5651 10.8197 10.5629C10.7991 10.2697 10.8526 9.81483 11.2583 9.38759C11.7456 8.87408 12.3414 8.79703 12.6541 8.79703C12.8053 8.79703 12.9091 8.814 12.9373 8.8186L12.9438 8.81964L13.3619 8.90341L13.1035 9.2477C12.9027 9.51326 12.7191 10.0041 12.9364 10.2597C13.002 10.3366 13.1333 10.4001 13.2631 10.4629L13.2846 10.4732C13.5652 10.604 13.947 10.7874 13.947 11.2531C13.947 11.5547 13.719 11.8697 13.3026 12.1377C12.0682 12.9269 11.3086 13.7503 10.9802 14.6592C10.4732 16.0565 11.1333 16.854 11.7793 17.2745L12.0682 17.4638L11.8155 17.7C11.781 17.731 11.4715 18.0074 11.0147 18.0477C10.9283 18.0535 10.8469 18.0586 10.7678 18.0586C10.4741 18.0586 10.2263 18.0117 10.0238 17.9488C10.0798 18.0485 10.149 18.1499 10.2345 18.2521C10.6024 18.6852 11.0559 18.8829 11.7052 18.8938L11.9489 18.898L11.9653 19.1451C11.9678 19.1945 11.9859 19.6527 11.5604 20.0422C11.4954 20.1034 11.418 20.1528 11.3341 20.193C11.6237 20.4577 11.9167 20.9184 11.9744 21.7084C12.0217 22.3407 12.1644 22.5908 12.1768 22.6124ZM9.8017 20.8481C9.8017 20.8481 9.74571 22.7673 11.9439 22.7673H11.9595C11.9595 22.7673 11.7678 22.4992 11.711 21.7277C11.6073 20.3036 10.6592 20.1084 10.6592 20.1084C10.6592 20.1084 11.1645 20.0431 11.3843 19.8437C11.7266 19.5279 11.702 19.1627 11.702 19.1627C10.9283 19.1518 10.4222 18.8837 10.0337 18.4289C9.61814 17.9363 9.54904 17.406 9.54904 17.406C9.54904 17.406 9.96461 17.7896 10.7678 17.7896C10.8403 17.7896 10.9152 17.7863 10.9925 17.7788C11.3736 17.7478 11.637 17.5015 11.637 17.5015C10.7983 16.9545 10.2115 16.0021 10.7316 14.5662C11.1481 13.4161 12.1505 12.5566 13.1603 11.909C13.4961 11.6954 13.6829 11.4575 13.6829 11.254C13.6829 10.9592 13.4308 10.8392 13.1724 10.7161C13.0093 10.6384 12.8436 10.5595 12.7373 10.4347C12.4196 10.0594 12.6187 9.45124 12.8936 9.08434C12.8936 9.08434 12.8023 9.06509 12.6549 9.06509C12.3653 9.06509 11.8624 9.13878 11.4493 9.57524C10.8995 10.1532 11.1275 10.7823 11.1275 10.7823L10.9802 10.8117C10.9013 10.8291 10.821 10.8335 10.74 10.8379L10.7144 10.8393C10.704 10.8393 10.6942 10.8395 10.6845 10.8397C10.6751 10.8399 10.6657 10.8401 10.656 10.8401C9.85681 10.8401 9.5021 9.9924 9.5021 9.9924C9.5021 9.9924 8.65442 11.0529 9.9021 11.8848C10.1169 12.0272 10.2107 12.1587 10.186 12.2994L10.1663 12.3916L10.0758 12.4075C9.21086 12.6474 8.75381 13.2395 8.22566 13.9237L8.15572 14.0142C7.30724 15.1124 6.10813 15.1476 5.95916 15.1476H5.94272C5.94272 15.1476 6.21595 16.028 7.02413 16.028C7.03727 16.028 7.04964 16.028 7.06278 16.0271C7.4348 16.0129 7.62488 15.8688 7.62488 15.8688C7.62488 15.8688 7.7689 17.8676 6.30398 18.4866C6.30398 18.4866 6.57063 18.9582 7.18214 18.9582H7.18954C7.92445 18.9541 8.21989 18.4984 8.21989 18.4984C8.21989 18.4984 8.17711 19.0915 8.44045 19.8915C8.75898 20.8557 8.43964 21.5451 8.43964 21.5451C8.43964 21.5451 8.60999 21.5919 8.80754 21.5919C8.88404 21.5919 8.96224 21.5844 9.03546 21.5644C9.64859 21.4161 9.8017 20.8481 9.8017 20.8481Z" fill="black"/>
<path fill-rule="evenodd" clip-rule="evenodd" d="M7.35205 13.5594C7.25408 13.5937 7.15037 13.6096 7.04423 13.6096C6.6319 13.6096 6.21795 13.3516 6.05995 12.9973L5.90278 12.6396L6.28543 12.617C6.30358 12.6162 6.79489 12.5701 7.34295 12.0004C7.56768 11.7659 7.84088 11.6436 8.13552 11.6436C8.48247 11.6436 8.74208 11.8143 8.78474 11.8424L8.78815 11.8446L9.14117 12.0967L8.76098 12.3045C8.39168 12.5046 8.17821 12.7729 7.98903 13.0107L7.98046 13.0214C7.79841 13.2496 7.62426 13.4678 7.35205 13.5594ZM8.13552 11.9125C7.95034 11.9125 7.73556 11.9762 7.53145 12.1897C6.91657 12.8245 6.34377 12.8816 6.30335 12.8856L6.30108 12.8859C6.40806 13.1296 6.72081 13.3424 7.04423 13.3424C7.11912 13.3424 7.19485 13.3307 7.26726 13.3047C7.47023 13.2352 7.61322 13.0555 7.78386 12.841C7.98337 12.5902 8.2207 12.2919 8.63592 12.0666C8.63592 12.0666 8.42025 11.9125 8.13552 11.9125Z" fill="black"/>
<path d="M15.5455 11.0461C15.5238 11.0388 15.4331 11.0081 15.2887 10.8913C15.0179 10.6769 15.0122 10.48 15.0122 10.4792L15.6146 10.7372V11.0781L15.5504 11.048C15.55 11.0477 15.5483 11.0471 15.5455 11.0461Z" fill="black"/>
<path d="M14.7593 19.439C14.7617 19.4022 14.793 19.3728 14.83 19.3762C14.8679 19.377 14.8942 19.4113 14.8942 19.4482C14.8909 19.4859 14.8588 19.5144 14.8226 19.511C14.7847 19.5102 14.7568 19.4775 14.7593 19.439Z" fill="black"/>
<path d="M15.5039 13.3993V13.0374H16.5401V13.3993C16.4183 13.2477 16.1812 13.2787 16.1812 13.2787V13.8006C16.1812 13.8006 16.1903 14.0577 16.2784 14.1683H15.7657C15.8553 14.0569 15.8636 13.8006 15.8636 13.8006V13.2787C15.8636 13.2787 15.6266 13.2477 15.5039 13.3993Z" fill="black"/>
<path d="M16.717 10.8913C16.9894 10.6769 16.9943 10.4792 16.9943 10.4792L16.3919 10.7372V11.0781L16.4553 11.048L16.4597 11.0464C16.4803 11.0396 16.5708 11.0096 16.717 10.8913Z" fill="black"/>
<path fill-rule="evenodd" clip-rule="evenodd" d="M17.8052 9.50321C17.8052 8.98638 16.9501 8.52145 16.0062 8.52145H16.0004C15.0564 8.52145 14.2014 8.98638 14.2014 9.50321L14.2203 9.63057L14.5972 11.8329L14.2187 12.0565L13.2393 12.6387H13.2426C13.2426 12.6387 13.022 12.7535 12.92 12.8247C12.5472 13.0886 12.4682 13.4731 12.6846 13.6323C12.7381 13.3189 12.9817 12.9906 13.4377 12.9906C13.766 12.9906 14.0162 13.1631 14.2187 13.422C14.2705 13.4873 14.3199 13.5568 14.366 13.6323C14.4228 13.7269 14.4795 13.8098 14.5363 13.8902H12.0139C12.1991 14.2697 12.3752 14.6718 12.3752 15.1083V20.7912C12.3752 22.1667 13.4146 22.8234 14.5388 22.8234C14.6043 22.8234 14.6655 22.8232 14.7229 22.823C15.4275 22.8204 15.5609 22.8199 16.0045 23.2691C16.4452 22.8197 16.5786 22.8202 17.2812 22.823C17.3394 22.8232 17.402 22.8234 17.4686 22.8234C18.5936 22.8234 19.6314 22.1667 19.6314 20.7912V15.1083C19.6314 14.6718 19.8075 14.2697 19.9935 13.8902H17.4703C17.5262 13.8107 17.583 13.7269 17.6398 13.6323C17.6867 13.5568 17.7352 13.4873 17.7863 13.422C17.9904 13.1623 18.2397 12.9906 18.5681 12.9906C19.024 12.9906 19.2668 13.3181 19.3211 13.6323C19.5376 13.4731 19.4594 13.0886 19.0841 12.8247C18.9837 12.7535 18.7632 12.6387 18.7632 12.6387H18.7664L17.4102 11.8329L17.7871 9.63057L17.8052 9.50321ZM14.5725 9.75956L15.8975 10.2169V12.3355L14.9223 11.8119L14.5725 9.75956ZM14.8466 14.2597C15.0638 14.48 15.277 14.6165 15.4795 14.6919C15.4531 14.7983 15.4185 15.0178 15.5165 15.2364C15.5963 15.4123 15.7412 15.548 15.9494 15.6385C15.9724 15.8563 16.1074 16.1838 16.4818 16.3288C16.3249 16.4901 16.1717 16.6422 16.102 16.7114L16.0934 16.72L14.575 16.6957C14.5405 16.6781 14.482 16.6387 14.4557 16.5826L14.4537 16.5788L14.4509 16.5743C14.4486 16.5708 14.4464 16.5673 14.445 16.5625L14.6927 16.6035C14.6985 16.6044 14.7034 16.6044 14.7083 16.6044C14.756 16.6044 14.798 16.5709 14.8063 16.5206C14.8145 16.4645 14.7775 16.4134 14.724 16.405L14.4195 16.3564L14.7577 15.1678L14.4376 14.4817L13.924 15.0345L13.8928 16.271L13.5479 16.2157C13.4944 16.2048 13.4434 16.245 13.4344 16.2995C13.4261 16.3539 13.4623 16.405 13.5167 16.4151L13.6615 16.4377C13.6097 16.4678 13.5759 16.4913 13.5718 16.4946L13.5422 16.5156L13.5339 16.5524C13.45 16.8992 13.6401 17.2285 13.845 17.3759L13.8376 17.4195C13.8294 17.473 13.8409 17.525 13.8721 17.5686C13.9018 17.613 13.9479 17.6398 13.9989 17.649C14.0096 17.6507 14.0211 17.6515 14.031 17.6515C14.1199 17.6515 14.1973 17.5887 14.2195 17.4974C14.296 17.5065 14.366 17.5082 14.4137 17.5082H14.454L16.4465 17.8743L16.4802 17.8517C16.639 17.7386 17.2439 17.2896 17.4422 17.1413C17.4966 17.1891 17.5575 17.2326 17.6316 17.2687C17.5673 17.4882 17.5632 17.8257 17.8175 18.0921H12.7397V15.1091C12.7397 14.8201 12.6566 14.5294 12.5587 14.2614H14.8466V14.2597ZM17.3089 16.9888C17.1073 17.1396 16.5888 17.525 16.4012 17.659L14.5906 17.3282L14.603 17.2787C14.6269 17.1833 14.6507 17.0525 14.6524 16.8992L16.174 16.9244L16.2029 16.8942L16.2314 16.8659C16.3421 16.7561 16.7387 16.3627 16.9542 16.1235C17.0126 16.1981 17.0859 16.2693 17.1814 16.3321C17.1485 16.5131 17.1625 16.7711 17.3089 16.9888ZM14.2779 16.6697C14.3207 16.761 14.3981 16.8222 14.4515 16.8565C14.4499 16.942 14.4417 17.0752 14.4195 17.1924C14.4145 17.2184 14.4079 17.2427 14.4005 17.267C14.3964 17.2821 14.3923 17.2947 14.389 17.3047C14.3092 17.3047 14.152 17.2947 14.0236 17.2469C13.8812 17.1933 13.6689 16.9277 13.7183 16.6354C13.78 16.5968 13.9224 16.5156 14.0557 16.5156C14.1586 16.5148 14.2285 16.5642 14.2779 16.6697ZM14.0894 16.302L14.1199 15.1149L14.3816 14.8327L14.5462 15.1828L14.2219 16.3221L14.0894 16.302ZM17.2925 22.4557C17.1937 22.4557 17.1024 22.4574 17.02 22.4607L17.2357 21.778C17.2584 21.7141 17.1883 21.6381 17.1188 21.5627C17.0853 21.5263 17.0519 21.4901 17.0291 21.4555C17.1353 21.5233 17.4102 21.6716 17.5427 21.7311C17.5287 21.7529 17.2925 22.4557 17.2925 22.4557ZM17.969 21.68L17.8283 22.4272C17.7385 22.4398 17.6431 22.4465 17.5451 22.4506L17.6933 21.7319C17.715 21.6277 17.592 21.5586 17.428 21.4665C17.2558 21.3697 17.0383 21.2474 16.8958 21.0324C16.76 21.1882 16.5041 21.2343 16.2473 21.2343C16.0127 21.2343 15.7782 21.1958 15.6358 21.1673C15.5996 21.1615 15.565 21.1573 15.5313 21.1573C15.449 21.1573 15.3741 21.1832 15.3223 21.272L15.2811 21.3424L14.5133 21.1581L14.3223 21.4798C14.2952 21.5317 14.2935 21.5761 14.3372 21.6247L14.389 21.6825C14.3536 21.7964 14.194 21.9682 14.194 21.9682L14.0796 21.8232C13.989 21.7202 14.0038 21.5326 14.0985 21.3583L14.403 20.8348L15.0531 20.9302L14.9519 20.6957C14.857 20.4791 14.9293 20.2213 14.989 20.0081C15.0148 19.9162 15.0382 19.8325 15.0449 19.7642C15.0375 19.8328 14.9758 19.8479 14.9033 19.8479C14.868 19.8479 14.8304 19.8443 14.7957 19.841C14.7659 19.8381 14.7382 19.8354 14.7157 19.8354C14.6968 19.8354 14.6803 19.8371 14.6713 19.8437L14.4952 19.9527L14.356 19.8279C14.3396 19.8036 14.3338 19.7474 14.375 19.7055L14.6968 19.3386L14.3166 18.8871L14.849 19.1594L15.0112 18.9591C15.0556 19.0036 15.0367 19.12 15.0367 19.12C15.2029 19.1242 15.6687 19.3864 15.6934 19.9979C15.6951 20.0163 15.6951 20.0373 15.6951 20.0573C15.6951 20.0573 15.6992 20.0649 15.7074 20.0775C15.7403 20.1236 15.8309 20.2416 15.9461 20.2525L16.6818 20.3263H16.6851C16.7162 20.3263 16.7591 20.312 16.8118 20.2944C16.8961 20.2664 17.0055 20.2299 17.132 20.2299C17.2439 20.2299 17.369 20.2593 17.5023 20.3447C17.5023 20.3447 17.569 20.2911 17.6776 20.2852C17.6859 20.2844 17.6949 20.2844 17.7032 20.2844C17.9809 20.2844 18.1216 20.4992 18.2647 20.7175C18.2917 20.7586 18.3187 20.7998 18.3467 20.8397C18.48 21.0316 18.6578 21.3164 18.6578 21.3164C18.592 21.396 18.5311 21.4396 18.429 21.4396C18.401 21.4396 18.3689 21.437 18.3344 21.4304C18.1308 21.3923 18.0274 21.1309 17.9379 20.9047C17.8719 20.7377 17.8134 20.5899 17.7278 20.565C17.7172 20.5617 17.7056 20.5608 17.6958 20.5608C17.6307 20.5608 17.6019 20.6194 17.6019 20.6194C17.6456 20.7389 17.6566 20.8247 17.6665 20.9026C17.6776 20.9891 17.6874 21.0659 17.7393 21.1682C17.8026 21.2911 17.9078 21.3958 17.971 21.4587C17.9817 21.4694 17.9916 21.4792 17.9994 21.4873C17.9994 21.489 17.9846 21.5979 17.969 21.68ZM14.0178 20.973L14.0515 21.0592C14.0293 21.1347 13.7742 21.2418 13.7742 21.2418L13.7191 21.1196C13.6606 20.9889 13.673 20.7685 13.8508 20.6337L14.2639 20.3774L14.7017 20.472C14.6935 20.6136 14.7766 20.7192 14.7766 20.7192L14.3174 20.6295L14.0425 20.823C13.9964 20.8557 13.9932 20.9169 14.0178 20.973ZM18.0381 22.3862L18.164 21.7177L18.1701 21.682C18.1752 21.6521 18.1805 21.621 18.1846 21.5937C18.22 21.6088 18.2578 21.6213 18.299 21.6289C18.3459 21.6381 18.3895 21.6423 18.429 21.6423C18.6216 21.6423 18.7335 21.5392 18.8084 21.4513L18.9055 21.3365L18.8265 21.2109C18.8191 21.1983 18.6446 20.9169 18.5097 20.7241C18.4834 20.6865 18.4573 20.6481 18.4318 20.607C18.2789 20.3743 18.0871 20.0825 17.7032 20.0825L17.6686 20.0833C17.6052 20.0875 17.5509 20.1001 17.5073 20.1168C17.3863 20.059 17.262 20.0297 17.1329 20.0297C16.974 20.0297 16.8398 20.0741 16.751 20.1051L16.7278 20.1123C16.7115 20.1174 16.6967 20.1221 16.6843 20.1244L15.9658 20.0523C15.9568 20.0506 15.9271 20.0331 15.8918 19.9895V19.9862L16.0473 19.9225C16.0037 19.3956 15.5066 19.0714 15.2292 18.9617C15.2169 18.9089 15.1922 18.8561 15.1486 18.8134L14.9939 18.6643L14.8581 18.8302L14.7915 18.9147L13.7857 18.4942L14.44 19.3302L14.1816 19.7281C14.087 19.8303 14.1915 19.9326 14.1915 19.9326L14.4581 20.1193L14.7347 20.0146C14.7407 20.0146 14.7461 20.0156 14.7515 20.0165C14.7549 20.0171 14.7583 20.0177 14.7618 20.018C14.7546 20.0413 14.7462 20.1019 14.7382 20.1597C14.7315 20.2077 14.7251 20.2539 14.7199 20.2752L14.24 20.1788L13.7355 20.4687C13.4763 20.6622 13.4409 20.983 13.5372 21.2025L13.5932 21.3273L13.673 21.5032L13.8495 21.4285L13.8526 21.4274C13.8533 21.427 13.854 21.4267 13.8547 21.4262C13.855 21.4259 13.8554 21.4256 13.8557 21.4253C13.7923 21.6314 13.8179 21.8274 13.9314 21.9564L14.0384 22.0938L14.1808 22.2773L14.3372 22.1064C14.3832 22.0595 14.5322 21.8894 14.5783 21.7436L14.6121 21.6322L14.5355 21.5468L14.5232 21.5317L14.6087 21.3876L15.235 21.5376L15.3757 21.5702L15.4506 21.4446L15.4918 21.3759C15.4992 21.3617 15.5017 21.3591 15.5305 21.3591C15.5527 21.3591 15.5749 21.3617 15.5988 21.3667C15.835 21.4119 16.0531 21.4346 16.2465 21.4346C16.4341 21.4346 16.546 21.427 16.6802 21.3818C16.6802 21.3818 17.0168 21.7704 17.0283 21.7855L16.8226 22.4322L16.8135 22.4716C16.4234 22.5034 16.2333 22.5906 16.0037 22.8243C15.6704 22.4875 15.4342 22.4523 14.538 22.4523C13.4656 22.4523 12.7389 21.8123 12.7389 20.7904V18.2915H19.2668L19.2685 20.7904C19.2693 21.6196 18.7911 22.1977 18.0381 22.3862ZM19.4495 14.2597C19.3499 14.5278 19.2668 14.8184 19.2668 15.1074L19.2676 16.9721C18.885 16.9068 18.8397 16.4871 18.838 16.4687L18.8306 16.3832L18.7484 16.3757C18.5821 16.3597 18.4718 16.2878 18.3788 16.1956C18.1912 16.0046 18.1903 15.6946 18.1912 15.6922C18.1909 15.6939 18.1883 15.6988 18.1841 15.7067C18.1497 15.7713 18.0103 16.0331 18.2216 16.3162C18.3212 16.4502 18.4652 16.5323 18.652 16.565C18.6957 16.7979 18.866 17.1263 19.2676 17.1765V18.0896H18.1385C17.6176 17.7947 17.8381 17.2754 17.8488 17.2536L17.8932 17.1547L17.7937 17.1162C17.2299 16.9034 17.3847 16.3305 17.3929 16.3062L17.4159 16.2224L17.3394 16.1855C16.8736 15.9661 16.937 15.3738 16.9427 15.3495C16.7995 15.4676 16.7477 15.7089 16.8464 15.9451C16.7929 16.0071 16.7213 16.0825 16.6432 16.1646C16.1609 16.0398 16.1461 15.5882 16.1461 15.5673L16.1452 15.4978L16.0819 15.4727C15.8934 15.4014 15.7642 15.2951 15.7008 15.1518C15.6292 14.9935 15.6547 14.8276 15.6745 14.748C15.7296 14.7606 15.7848 14.7698 15.8375 14.774C15.8918 14.7798 15.9477 14.7832 16.0037 14.7832H16.0111C16.0671 14.7832 16.1222 14.7798 16.1765 14.774C16.4769 14.7439 16.8135 14.6123 17.1641 14.2588L19.4495 14.2597ZM17.69 12.3748L18.136 12.6387H18.1426L18.2545 12.7049C18.0027 12.7761 17.8101 12.9043 17.6488 13.0726C17.6449 13.0761 17.641 13.0802 17.6371 13.0844L17.6316 13.0902C17.5945 13.1305 17.5575 13.174 17.5229 13.2184L17.5148 13.2291C17.5108 13.2344 17.5067 13.2398 17.5023 13.2452C17.4678 13.2905 17.4357 13.3365 17.4044 13.3851C17.3995 13.3935 17.3937 13.4019 17.3879 13.4094C17.351 13.4655 17.3155 13.5259 17.2801 13.5878C16.9625 14.1449 16.4555 14.4775 16.0045 14.4783C15.5544 14.4775 15.0474 14.1449 14.7297 13.5878C14.6951 13.5276 14.6606 13.4689 14.6235 13.4119L14.6141 13.3975C14.6103 13.3917 14.6066 13.386 14.603 13.3809C14.5717 13.3349 14.5405 13.2896 14.5083 13.2469C14.5001 13.2352 14.4927 13.226 14.4845 13.2159C14.4499 13.1732 14.4145 13.1305 14.3791 13.0911C14.375 13.0878 14.3716 13.0841 14.3682 13.0802C14.3655 13.0771 14.3627 13.0739 14.3594 13.0709C14.1973 12.9026 14.0055 12.7752 13.7528 12.7049L13.8664 12.6387H13.8713L14.3174 12.3748L14.7758 12.1077L16.0004 12.7861L16.0029 12.7836L16.0062 12.7861L17.2307 12.1077L17.69 12.3748ZM17.0859 11.8127L16.1098 12.3363V10.2169L17.434 9.75956L17.0859 11.8127ZM16.0037 9.98408L14.5519 9.40019C14.6754 9.1028 15.2449 8.84982 16.0037 8.849C16.7633 8.84982 17.3328 9.1028 17.4554 9.40019L16.0037 9.98408Z" fill="black"/>
<defs>
<linearGradient id="paint0_linear_2515_51749" x1="16" y1="0" x2="16" y2="32" gradientUnits="userSpaceOnUse">
<stop stop-color="#FFDD2E"/>
<stop offset="1" stop-color="#FFB82E"/>
</linearGradient>
</defs>
</svg>
