<svg width="32" height="32" viewBox="0 0 32 32" fill="none" xmlns="http://www.w3.org/2000/svg">
<rect width="32" height="32" fill="url(#paint0_linear_2470_49473)"/>
<path d="M24.7435 11.7385C23.9451 11.2284 23.089 10.6829 22.2526 10.1452L22.192 10.1046C22.1011 10.0416 21.994 9.97407 21.8643 9.93612L21.8559 9.93354C19.618 9.43823 17.3476 8.93327 15.1457 8.44375C13.1502 8.00119 11.1603 7.55927 9.16476 7.11477L9.00481 7.07682C8.82583 7.03179 8.61655 6.98162 8.39671 7.00671C8.33047 7.01442 8.27551 7.03437 8.22619 7.0646L8.17123 7.10705C8.08315 7.18232 8.03664 7.28073 8.01409 7.33541L8 7.36822V7.56184L8.00846 7.59207C9.26904 10.8187 10.5627 14.0922 11.8099 17.2609C12.7732 19.6982 13.7695 22.2237 14.744 24.7035C14.8046 24.8746 14.9752 24.9826 15.1901 25H15.2345C15.4353 25 15.6086 24.9119 15.6967 24.7691L19.3573 19.897L22.0327 16.3366C22.3963 15.8515 22.762 15.3614 23.1285 14.8764C23.7288 14.0749 24.3475 13.2483 24.9619 12.4416L24.995 12.4011V12.3509C25.0091 12.203 25.0112 11.8987 24.7449 11.7379L24.7435 11.7385ZM20.4565 13.5146C19.5975 13.9243 18.7196 14.3463 17.836 14.7631C18.3503 14.2608 18.8682 13.7558 19.3798 13.2528C20.021 12.6198 20.6925 11.9662 21.3478 11.3256L21.3619 11.3127L21.5599 11.1139L21.7199 10.966L22.7409 11.6144C22.9805 11.7726 23.2257 11.9283 23.473 12.084C22.4576 12.5561 21.4416 13.0411 20.4565 13.5139V13.5146ZM18.2489 13.3107C17.5879 13.9642 16.903 14.6351 16.2259 15.2983C14.9075 13.8381 13.5645 12.3586 12.2595 10.9287L10.4817 8.97637L10.4761 8.97122L10.085 8.53638L9.82641 8.25013C10.3605 8.37556 10.9024 8.49392 11.4337 8.60971C11.8987 8.71006 12.3863 8.81555 12.862 8.92362C15.5403 9.51928 18.2235 10.1149 20.9046 10.71C20.0126 11.5771 19.1156 12.459 18.2482 13.3107H18.2489ZM15.9222 21.5322C15.9743 21.0896 16.0293 20.6329 16.0765 20.1878L16.2005 19.1097C16.2667 18.5494 16.3351 17.9692 16.3908 17.3986L16.4049 17.2982C16.4514 16.9342 16.4986 16.5598 16.526 16.1828L16.6909 16.1127L16.9002 16.0194C17.9656 15.5093 19.0331 14.9992 20.107 14.4917C21.1724 13.9867 22.2674 13.4638 23.3546 12.944C22.3667 14.253 21.3725 15.5724 20.4093 16.8589C19.5834 17.9595 18.733 19.0955 17.8881 20.2135L16.8805 21.5528C16.512 22.0429 16.1315 22.5453 15.7629 23.0477C15.8094 22.5402 15.8651 22.0301 15.9229 21.5328L15.9222 21.5322ZM9.48184 9.24525L9.30286 8.79047C10.5501 10.1651 11.8078 11.5494 13.0325 12.8887C13.6652 13.5847 14.2987 14.2781 14.9315 14.9767L15.3 15.3839C15.4571 15.555 15.6136 15.7383 15.7848 15.9088C15.7298 16.3436 15.6826 16.783 15.6333 17.2056L15.5311 18.0952V18.1004C15.517 18.2889 15.4895 18.4799 15.4649 18.6658L15.3606 19.5053L15.3549 19.5329C15.2725 20.3846 15.1703 21.2466 15.0745 22.0809C15.0301 22.4276 14.9949 22.782 14.9533 23.1365L14.8793 22.9506L14.6757 22.4327L14.1831 21.179C12.6167 17.2011 11.0482 13.229 9.48184 9.2459" fill="white"/>
<defs>
<linearGradient id="paint0_linear_2470_49473" x1="16" y1="0" x2="16" y2="32" gradientUnits="userSpaceOnUse">
<stop stop-color="#1A0B39"/>
<stop offset="1"/>
</linearGradient>
</defs>
</svg>
