<svg width="32" height="32" viewBox="0 0 32 32" fill="none" xmlns="http://www.w3.org/2000/svg">
<rect width="32" height="32" fill="url(#paint0_linear_2470_50757)"/>
<path d="M13.3697 19.3314C13.3697 17.3279 13.2434 15.3244 13.4013 13.3365C13.6066 10.9104 15.8968 9.01649 18.3764 9.01649C20.0032 9.01649 21.63 9.03214 23.2726 9.00083C23.8254 8.98518 24.0149 9.18866 23.9991 9.72084C23.9675 10.973 23.9675 12.2252 23.9991 13.4774C24.0149 14.0878 23.778 14.2287 23.2094 14.2131C21.9933 14.1818 20.7929 14.2444 19.5768 14.1818C18.8344 14.1505 18.5817 14.3539 18.5975 15.1209C18.6449 18.1105 18.5975 21.1158 18.6291 24.1054C18.6291 24.7628 18.487 25.0288 17.7605 24.9975C16.4811 24.9349 15.186 24.9662 13.8909 24.9819C13.3855 24.9975 13.196 24.8097 13.2118 24.3088C13.2276 22.6497 13.2276 20.9749 13.2276 19.3001C13.2749 19.3314 13.3223 19.3314 13.3697 19.3314Z" fill="white"/>
<path d="M13.1646 9.01649C13.4805 11.7087 10.6534 14.4792 8 14.1192C8 12.9609 8 11.7713 8 10.5817C8 9.01649 8 9.01649 9.5952 9.01649C10.7798 9.01649 11.9643 9.01649 13.1646 9.01649Z" fill="white"/>
<defs>
<linearGradient id="paint0_linear_2470_50757" x1="16" y1="0" x2="16" y2="32" gradientUnits="userSpaceOnUse">
<stop stop-color="#1A5AFF"/>
<stop offset="1" stop-color="#002DA0"/>
</linearGradient>
</defs>
</svg>
