<svg width="32" height="32" viewBox="0 0 32 32" fill="none" xmlns="http://www.w3.org/2000/svg">
<rect width="32" height="32" fill="url(#paint0_linear_2470_50838)"/>
<path fill-rule="evenodd" clip-rule="evenodd" d="M7.36401 6.42135C9.85525 9.19443 13.6937 13.5059 13.8862 13.7411C14.0465 13.9371 13.9824 14.1233 13.7151 14.2604C13.5654 14.3388 13.2553 14.4172 13.1056 14.4172C12.9346 14.4172 12.7314 14.3388 12.5924 14.2115C12.4962 14.1233 12.0792 13.5647 11.1383 12.2223C10.4219 11.1934 9.81249 10.3409 9.80179 10.3311C9.75903 10.3115 9.75903 10.3115 11.0635 12.4477C11.8867 13.7901 12.154 14.2702 12.154 14.329C12.154 14.4564 12.1113 14.525 11.9402 14.7014C11.6515 14.9954 11.5232 15.3285 11.427 16.0242C11.3201 16.7984 11.0314 17.3471 10.2081 18.278C9.72695 18.8267 9.6521 18.9247 9.53449 19.1501C9.3848 19.4245 9.34204 19.5812 9.32065 19.934C9.29927 20.3063 9.34204 20.5415 9.45965 20.8943C9.56657 21.2078 9.68418 21.4136 9.97287 21.8154C10.2188 22.1681 10.3685 22.4327 10.3685 22.5307C10.3685 22.6091 10.3899 22.6091 10.7748 22.5307C11.6943 22.3347 12.4534 22.0016 12.8704 21.59C13.127 21.3352 13.1912 21.198 13.1912 20.8453C13.1912 20.6199 13.1805 20.5709 13.1163 20.4337C13.0094 20.2182 12.8063 20.0418 12.3679 19.7674C11.7905 19.4049 11.5446 19.1109 11.4804 18.7189C11.427 18.3858 11.4911 18.1604 11.8119 17.5431C12.1434 16.9061 12.2289 16.6416 12.2823 15.9948C12.3144 15.5833 12.3679 15.4167 12.4962 15.2893C12.6352 15.1521 12.7528 15.1031 13.0843 15.064C13.6295 14.9954 13.9824 14.868 14.2604 14.623C14.5063 14.4172 14.6132 14.2115 14.6239 13.9077L14.6346 13.6823L14.4956 13.5451C13.9931 13.016 7.03255 6 7.00048 6C6.99394 6 7.05524 6.06947 7.15024 6.17714C7.21075 6.24574 7.28495 6.32984 7.36401 6.42135ZM10.6465 20.3553C10.7641 20.1692 10.6999 19.934 10.5075 19.8164C10.3257 19.7086 10.0477 19.7576 10.0477 19.9046C10.0477 19.9438 10.0691 19.983 10.1332 20.0026C10.2295 20.0516 10.2402 20.1006 10.1653 20.2084C10.0905 20.3161 10.0905 20.4141 10.1867 20.4827C10.3364 20.5905 10.5395 20.5317 10.6465 20.3553Z" fill="#FF007A"/>
<path d="M14.0573 10.3213C13.8327 10.2919 13.822 10.2821 13.9289 10.2723C14.1321 10.2429 14.6025 10.2821 14.934 10.3507C15.7038 10.5173 16.3988 10.9484 17.1366 11.7029L17.329 11.9087L17.607 11.8695C18.7938 11.6931 20.0127 11.8303 21.0285 12.2615C21.3065 12.3791 21.7448 12.6142 21.7983 12.673C21.8197 12.6926 21.8518 12.82 21.8731 12.9474C21.948 13.4079 21.9159 13.7509 21.7555 14.0155C21.67 14.1625 21.67 14.2017 21.7235 14.329C21.7662 14.427 21.8945 14.4956 22.0121 14.4956C22.2687 14.4956 22.536 14.1233 22.6644 13.6039L22.7178 13.3982L22.814 13.4961C23.3593 14.0547 23.787 14.8288 23.8512 15.3775L23.8726 15.5245L23.7763 15.3971C23.6159 15.1717 23.4663 15.0248 23.2631 14.8974C22.8996 14.672 22.5147 14.6034 21.4989 14.5544C20.5794 14.5054 20.0555 14.4368 19.5423 14.28C18.6655 14.0155 18.2165 13.6725 17.1793 12.4085C16.7196 11.8499 16.4309 11.5462 16.1422 11.2914C15.5114 10.7329 14.8805 10.4389 14.0573 10.3213Z" fill="#FF007A"/>
<path d="M22.0229 11.5658C22.0443 11.1934 22.0977 10.9484 22.2153 10.7231C22.2581 10.6349 22.3009 10.5565 22.3116 10.5565C22.3223 10.5565 22.3009 10.6251 22.2688 10.7035C22.1833 10.919 22.1726 11.2228 22.226 11.5658C22.3009 12.0067 22.333 12.0655 22.8462 12.5457C23.0814 12.771 23.3594 13.0552 23.4663 13.1728L23.6481 13.3884L23.4663 13.2316C23.2418 13.0356 22.7286 12.6632 22.6109 12.6142C22.5361 12.5751 22.5254 12.5751 22.4719 12.624C22.4292 12.6632 22.4185 12.722 22.4185 13.0062C22.4078 13.4472 22.3436 13.7215 22.1833 14.0057C22.0977 14.1527 22.087 14.1233 22.1619 13.9567C22.2153 13.8293 22.226 13.7705 22.226 13.3492C22.226 12.4967 22.1191 12.2909 21.4669 11.9479C21.3065 11.8597 21.0285 11.7323 20.8681 11.6638C20.6971 11.5952 20.5688 11.5364 20.5795 11.5364C20.6008 11.5168 21.2317 11.6834 21.4776 11.7813C21.8518 11.9185 21.916 11.9283 21.9587 11.9185C21.9908 11.8891 22.0122 11.8107 22.0229 11.5658Z" fill="#FF007A"/>
<path d="M13.8221 10.919C13.7579 11.5756 14.0466 12.4575 14.4956 13.0258C14.8485 13.4667 15.3938 13.8097 15.8001 13.8489C16.0674 13.8685 16.1422 13.7901 16.0246 13.6333C15.8535 13.4177 15.6504 13.0748 15.5969 12.9278C15.5649 12.8396 15.49 12.5652 15.4366 12.3301C15.2548 11.5266 15.0623 11.2032 14.6346 10.968C14.4743 10.8798 14.1428 10.7622 13.9504 10.7329L13.8434 10.7133L13.8221 10.919Z" fill="#FF007A"/>
<path d="M21.4776 17.2883C19.3605 16.5044 18.6121 15.8283 18.6121 14.6818C18.6121 14.5152 18.6228 14.378 18.6228 14.378C18.6299 14.378 18.6656 14.4042 18.717 14.4419C18.7428 14.4608 18.7725 14.4826 18.8045 14.5054C19.2322 14.819 19.7134 14.9562 21.0499 15.1325C21.8304 15.2403 22.2795 15.3187 22.6858 15.4461C23.9795 15.8381 24.7814 16.6416 24.9739 17.7292C25.0273 18.0428 24.9952 18.6405 24.9097 18.9541C24.8349 19.1991 24.621 19.6498 24.5676 19.6596C24.5569 19.6596 24.5355 19.6106 24.5355 19.5322C24.5141 19.1207 24.2896 18.7287 23.9153 18.425C23.4663 18.0722 22.8889 17.8076 21.4776 17.2883Z" fill="#FF007A"/>
<path d="M19.8737 17.2001C19.9058 17.2785 19.9592 17.4647 19.9806 17.6117C20.1517 18.5328 19.6278 19.2873 18.5693 19.591C18.4623 19.6302 18.0346 19.7086 17.6177 19.7674C16.773 19.9046 16.3881 19.9928 16.0139 20.1594C15.7466 20.277 15.4151 20.4533 15.4365 20.4729C15.4472 20.4827 15.5113 20.4631 15.5755 20.4435C16.0566 20.2868 16.5912 20.2084 17.3931 20.1692C17.6613 20.1528 17.9593 20.1296 18.1248 20.1167L18.1254 20.1166L18.2057 20.1104C18.9221 20.0222 19.4246 19.8262 19.8095 19.4637C20.0234 19.2579 20.1517 19.0717 20.2586 18.8071C20.3227 18.6405 20.3334 18.572 20.3334 18.278C20.3334 17.9742 20.3334 17.9154 20.2586 17.7293C20.1624 17.4843 20.0554 17.3079 19.9164 17.1609L19.8202 17.0531L19.8737 17.2001Z" fill="#FF007A"/>
<path d="M20.9536 19.1893C20.6757 18.6307 20.6115 18.1016 20.7612 17.6019C20.7826 17.5529 20.804 17.5039 20.8253 17.5039C20.8467 17.5039 20.9109 17.5333 20.975 17.5725C21.1033 17.6508 21.3706 17.788 22.0549 18.131C22.921 18.5621 23.4128 18.8953 23.755 19.2775C24.0543 19.6106 24.2361 19.9928 24.3216 20.4631C24.3751 20.7277 24.343 21.3646 24.2682 21.6292C24.033 22.4621 23.4984 23.1284 22.7178 23.5106C22.6002 23.5694 22.504 23.6086 22.4933 23.6086C22.4826 23.6086 22.5254 23.5106 22.5895 23.393C22.8461 22.8932 22.8782 22.4131 22.6858 21.8742C22.5681 21.541 22.3222 21.1392 21.8304 20.4631C21.2423 19.6792 21.1033 19.4734 20.9536 19.1893Z" fill="#FF007A"/>
<path d="M15.6505 21.0119C14.7523 21.149 13.7794 21.5802 12.9882 22.1877L12.7636 22.3837L12.9668 22.4131C14.036 22.5601 14.3247 22.6973 15.0731 23.4028C15.5008 23.8045 15.6505 23.8927 16.0033 23.9809C16.5272 24.1083 17.0404 23.8829 17.2222 23.4518C17.2971 23.2558 17.2864 22.9422 17.2008 22.7855C16.987 22.4033 16.3562 22.2857 16.0568 22.5601C15.8109 22.7855 15.8857 23.1382 16.1958 23.197C16.2599 23.2068 16.2599 23.2068 16.1744 23.1676C16.0354 23.1088 15.9712 23.0304 15.9712 22.903C15.9606 22.5993 16.3348 22.4425 16.6769 22.5797C16.9335 22.6875 17.0298 22.8246 17.0298 23.0598C17.0298 23.4224 16.6876 23.7065 16.292 23.6576C16.0782 23.6282 15.8216 23.5106 15.6826 23.3636C15.3404 23.0108 15.4687 22.4327 15.9606 22.2171C16.3348 22.0505 16.8266 22.0995 17.2115 22.3249C17.6499 22.5895 17.8424 22.8246 18.2166 23.6184C18.3449 23.8829 18.4946 24.1671 18.5694 24.2651C18.9222 24.755 19.3606 25 19.8738 25C20.1625 25 20.3764 24.9608 20.6437 24.8334C20.8361 24.7452 21.1248 24.5688 21.1034 24.5493C21.1034 24.5415 21.0503 24.5581 20.9807 24.5799C20.962 24.5858 20.942 24.592 20.9217 24.5982C20.355 24.7942 19.7776 24.7844 19.4462 24.559C19.2323 24.4121 19.0612 24.1377 18.9757 23.7849C18.9737 23.7737 18.9701 23.7545 18.9652 23.7291C18.9449 23.6215 18.9034 23.4011 18.8688 23.1872C18.7512 22.5111 18.6336 22.2073 18.377 21.8546C18.1097 21.492 17.5964 21.198 17.0298 21.0609C16.6769 20.9727 16.0354 20.9531 15.6505 21.0119Z" fill="#FF007A"/>
<path fill-rule="evenodd" clip-rule="evenodd" d="M14.3995 15.7792C14.4743 15.5245 14.7202 15.2697 14.9768 15.2011C15.1479 15.1521 15.4794 15.1815 15.6397 15.2599C15.9498 15.4069 16.1743 15.7303 16.1209 15.9654C16.0674 16.2496 15.5649 16.4848 14.9768 16.4848C14.6775 16.4848 14.5705 16.4456 14.4529 16.3084C14.3781 16.2202 14.3567 15.936 14.3995 15.7792ZM15.5542 15.3579C15.7146 15.4461 15.7467 15.5735 15.6611 15.6911C15.597 15.7694 15.4045 15.8478 15.2655 15.8478C15.0517 15.8478 14.8272 15.7107 14.8272 15.5833C14.8272 15.3285 15.2655 15.1913 15.5542 15.3579Z" fill="#FF007A"/>
<defs>
<linearGradient id="paint0_linear_2470_50838" x1="16" y1="0" x2="16" y2="32" gradientUnits="userSpaceOnUse">
<stop stop-color="#F6F2FF"/>
<stop offset="1" stop-color="#EADAFF"/>
</linearGradient>
</defs>
</svg>
