<svg width="32" height="32" viewBox="0 0 32 32" fill="none" xmlns="http://www.w3.org/2000/svg">
<rect width="32" height="32" fill="url(#paint0_linear_2515_50240)"/>
<path d="M19.6566 17.9218C19.6566 16 18.4929 15.3414 16.1655 15.0663C14.5036 14.8465 14.1717 14.4077 14.1717 13.6386C14.1717 12.8696 14.7263 12.3756 15.8336 12.3756C16.831 12.3756 17.3856 12.7049 17.6619 13.5291C17.6907 13.6088 17.7434 13.6778 17.8128 13.7269C17.8822 13.7759 17.965 13.8025 18.0502 13.8033H18.9366C18.9878 13.8046 19.0387 13.7956 19.0863 13.7768C19.1339 13.758 19.1772 13.7298 19.2135 13.6938C19.2498 13.6578 19.2784 13.6149 19.2975 13.5676C19.3166 13.5204 19.3259 13.4697 19.3248 13.4188V13.3645C19.2164 12.7681 18.9133 12.2241 18.4623 11.8169C18.0113 11.4097 17.4379 11.1621 16.831 11.1125V9.79518C16.831 9.57533 16.6646 9.41066 16.3882 9.35547H15.5564C15.3354 9.35547 15.1691 9.52014 15.1136 9.79518V11.0582C13.4508 11.2772 12.3989 12.3756 12.3989 13.749C12.3989 15.5603 13.5062 16.2742 15.8336 16.5492C17.3856 16.8234 17.8838 17.1536 17.8838 18.0321C17.8838 18.9098 17.1083 19.5141 16.0555 19.5141C14.6145 19.5141 14.1163 18.9107 13.9499 18.0864C13.8953 17.8675 13.7281 17.7571 13.5617 17.7571H12.6198C12.5687 17.7559 12.5178 17.7649 12.4704 17.7838C12.4229 17.8027 12.3797 17.831 12.3435 17.8669C12.3073 17.9028 12.2788 17.9457 12.2597 17.9929C12.2406 18.0402 12.2314 18.0907 12.2325 18.1416V18.1959C12.4534 19.5693 13.3408 20.5573 15.1691 20.8324V22.1506C15.1691 22.3696 15.3354 22.5351 15.6118 22.5894H16.4437C16.6646 22.5894 16.831 22.4248 16.8864 22.1506V20.8315C18.5493 20.5573 19.6566 19.4038 19.6566 17.9208V17.9218Z" fill="white"/>
<path d="M13.1744 23.6878C8.85228 22.1497 6.63578 17.3725 8.24315 13.1446C9.07411 10.8374 10.9024 9.08129 13.1744 8.25705C13.3962 8.14757 13.5062 7.9829 13.5062 7.70786V6.93881C13.5062 6.71986 13.3962 6.55519 13.1744 6.5C13.1189 6.5 13.008 6.5 12.9525 6.55429C11.7056 6.94182 10.548 7.57099 9.54634 8.40559C8.54473 9.24018 7.71889 10.2637 7.11639 11.4172C6.51389 12.5707 6.14663 13.8315 6.03575 15.1268C5.92486 16.4222 6.07255 17.7266 6.47031 18.9649C7.46674 22.0411 9.84961 24.4025 12.9525 25.3905C13.1744 25.5 13.3962 25.3905 13.4507 25.1707C13.5062 25.1164 13.5062 25.0603 13.5062 24.9508V24.1818C13.5062 24.0171 13.3407 23.7981 13.1744 23.6878ZM19.0475 6.55519C18.8256 6.44481 18.6038 6.55519 18.5493 6.77414C18.4938 6.82933 18.4938 6.88452 18.4938 6.994V7.76305C18.4938 7.9829 18.6593 8.20186 18.8256 8.31224C23.1477 9.85033 25.3642 14.6275 23.7568 18.8554C22.9259 21.1626 21.0976 22.9187 18.8256 23.743C18.6038 23.8524 18.4938 24.0171 18.4938 24.2921V25.0612C18.4938 25.2801 18.6038 25.4448 18.8256 25.5C18.8811 25.5 18.992 25.5 19.0475 25.4457C20.2944 25.0582 21.452 24.429 22.4537 23.5944C23.4553 22.7598 24.2811 21.7363 24.8836 20.5828C25.4861 19.4293 25.8534 18.1685 25.9643 16.8732C26.0751 15.5778 25.9274 14.2734 25.5297 13.0351C24.5333 9.90462 22.0949 7.54319 19.0475 6.55519Z" fill="white"/>
<defs>
<linearGradient id="paint0_linear_2515_50240" x1="16" y1="0" x2="16" y2="32" gradientUnits="userSpaceOnUse">
<stop offset="0.0151777" stop-color="#0185FF"/>
<stop offset="1" stop-color="#0065FF"/>
</linearGradient>
</defs>
</svg>
