<svg width="32" height="32" viewBox="0 0 32 32" fill="none" xmlns="http://www.w3.org/2000/svg">
<rect width="32" height="32" fill="url(#paint0_linear_2470_50760)"/>
<path fill-rule="evenodd" clip-rule="evenodd" d="M12.0025 9.34408C12.3468 8.93139 12.6605 8.57916 12.9602 8.28423C7.89486 8.1113 9.36932 11.9932 7.71875 15.9382C5.81801 20.4816 7.94239 22.213 11.108 22.7525C10.6692 22.2034 10.3109 21.5754 10.0383 20.8975C7.98592 18.1582 8.81196 13.1676 12.0025 9.34408Z" fill="#B3D234"/>
<path fill-rule="evenodd" clip-rule="evenodd" d="M24.1924 14.1837C23.7211 15.591 22.856 17.1702 21.6332 18.7244C20.6801 19.9355 19.6204 20.8892 18.5267 21.5799C17.2624 22.4482 15.6939 22.9607 13.9402 22.9607C12.9586 22.9607 11.9935 22.9028 11.1094 22.7522C11.6317 23.4052 12.2666 23.9473 13.0051 24.3255C17.5846 26.6733 17.8738 22.3119 22.7189 20.0988C25.4397 18.856 25.4497 16.4265 24.1924 14.1837Z" fill="#0095D9"/>
<path fill-rule="evenodd" clip-rule="evenodd" d="M18.5265 9.64501C19.202 9.7755 19.8429 10.011 20.4167 10.3548C21.9547 11.2772 23.3557 12.6888 24.1937 14.1836C25.0187 11.7202 24.6345 9.78346 22.8293 9.43283C20.8455 9.04825 19.2945 8.92465 17.804 7.8213C15.9683 6.46227 14.3593 6.9105 12.9629 8.28439C13.0615 8.28757 13.162 8.29234 13.2656 8.29871C15.2028 8.41965 17.0516 8.81962 18.5265 9.64501Z" fill="#EEE809"/>
<path fill-rule="evenodd" clip-rule="evenodd" d="M12.0023 9.34407C8.8117 13.1676 7.98567 18.1582 10.038 20.8974C9.1164 18.6043 9.18044 15.744 10.4793 13.4604C12.2084 10.4198 15.6767 9.09423 18.5235 9.64537C17.0486 8.81945 15.1999 8.42002 13.2631 8.29854C13.159 8.29217 13.0585 8.28793 12.9599 8.28422C12.6602 8.57915 12.3465 8.93138 12.0023 9.34407Z" fill="#51B849"/>
<path fill-rule="evenodd" clip-rule="evenodd" d="M20.4176 10.355C19.8437 10.0107 19.2028 9.7757 18.5273 9.6452C20.4696 10.7321 21.762 12.5585 21.7474 15.4675C21.7344 17.9914 20.5046 20.222 18.5288 21.58C19.6226 20.8893 20.6827 19.9356 21.6354 18.7245C22.8587 17.1703 23.7232 15.5911 24.1945 14.1838C23.3565 12.689 21.9556 11.2769 20.4176 10.355Z" fill="#00845D"/>
<path fill-rule="evenodd" clip-rule="evenodd" d="M18.201 20.197C16.0081 21.6907 13.0842 21.0245 11.6697 18.7085C10.2553 16.3925 10.9548 13.4103 13.0786 11.8094C15.4537 10.0196 18.4997 10.7257 19.6099 13.2978C20.6926 15.8058 20.3934 18.7032 18.201 20.197ZM18.5207 9.64511C15.6738 9.0945 12.2056 10.4196 10.4765 13.4602C9.17761 15.7438 9.11307 18.6045 10.0352 20.8972C10.3078 21.5751 10.6656 22.2037 11.1049 22.7527C11.9889 22.9034 12.9541 22.9607 13.9352 22.9607C15.6894 22.9607 17.2579 22.4482 18.5217 21.5799C20.498 20.2224 21.7278 17.9913 21.7403 15.4674C21.7553 12.5584 20.4625 10.732 18.5207 9.64511Z" fill="#005121"/>
<defs>
<linearGradient id="paint0_linear_2470_50760" x1="16" y1="0" x2="16" y2="32" gradientUnits="userSpaceOnUse">
<stop stop-color="#F6F2FF"/>
<stop offset="1" stop-color="#E7FFEA"/>
</linearGradient>
</defs>
</svg>
