<svg width="32" height="32" viewBox="0 0 32 32" fill="none" xmlns="http://www.w3.org/2000/svg">
<rect width="32" height="32" fill="url(#paint0_linear_2470_50850)"/>
<path d="M14.8782 23.2799L8.0351 8.51441C7.9239 8.27882 8.0911 8 8.33749 8H10.7087C10.8358 8 10.955 8.07627 11.011 8.19407L16.0086 18.9061C16.4542 19.8671 17.7429 19.8671 18.1885 18.9061L23.17 8.20255C23.226 8.08475 23.3452 8.00847 23.4724 8.00847H23.7668C23.942 8.00847 24.0532 8.20255 23.974 8.36272L17.0589 23.2799C16.6133 24.24 15.3238 24.24 14.8782 23.2799Z" fill="url(#paint1_linear_2470_50850)"/>
<path opacity="0.1" d="M14.8777 23.2799L11.0106 8.20255C10.9546 8.07628 10.8274 8.00848 10.7242 8.00848H8.34506C8.08266 8.00848 7.93146 8.28645 8.03466 8.5229L14.8777 23.2799Z" fill="white"/>
<path opacity="0.1" d="M16.0092 18.9137L8.03578 8.51441C7.94059 8.27034 8.08378 8.02542 8.30618 8H10.7173C10.8525 8.00847 10.9557 8.10085 11.0037 8.19407L16.0092 18.9137Z" fill="white"/>
<defs>
<linearGradient id="paint0_linear_2470_50850" x1="16" y1="0" x2="16" y2="32" gradientUnits="userSpaceOnUse">
<stop stop-color="#F6F2FF"/>
<stop offset="1" stop-color="#C0CEFF"/>
</linearGradient>
<linearGradient id="paint1_linear_2470_50850" x1="7.99998" y1="16" x2="24" y2="16" gradientUnits="userSpaceOnUse">
<stop stop-color="#9D4ABE"/>
<stop offset="0.03" stop-color="#9055C4"/>
<stop offset="0.15" stop-color="#6B74D6"/>
<stop offset="0.26" stop-color="#4C8FE5"/>
<stop offset="0.39" stop-color="#34A3F0"/>
<stop offset="0.52" stop-color="#22B2F9"/>
<stop offset="0.66" stop-color="#18BAFD"/>
<stop offset="0.83" stop-color="#15BDFF"/>
<stop offset="1" stop-color="#28BAD5"/>
</linearGradient>
</defs>
</svg>
