<svg width="32" height="32" viewBox="0 0 32 32" fill="none" xmlns="http://www.w3.org/2000/svg">
<rect width="32" height="32" fill="url(#paint0_linear_2470_50775)"/>
<path d="M16.0042 24L15.9126 23.9541C12.3385 21.8579 9.63504 18.4 8.53534 14.2689C8.35969 13.6186 8.22986 12.953 8.13822 12.2798C8.05421 11.6066 8.00839 10.9257 8.00075 10.2448C8.00075 10.1301 7.98548 10.1454 8.0924 10.0918C9.43649 9.32678 10.8569 8.76831 12.3614 8.41639C12.9189 8.28634 13.4764 8.18689 14.0415 8.11803C14.8205 8.02623 15.5994 7.98798 16.386 8.00328C16.829 8.01093 17.2643 8.04153 17.6996 8.08743C19.8914 8.32459 21.9457 8.98251 23.8702 10.0612C23.9007 10.0765 23.9236 10.0918 23.9542 10.1071C23.9847 10.1224 24 10.1454 24 10.1836V10.2984C23.9924 10.6962 23.9771 11.0863 23.9465 11.4842C23.9007 12.0503 23.8244 12.6087 23.7174 13.1672C23.4883 14.3683 23.1294 15.5235 22.633 16.6328C21.8464 18.4 20.7696 19.976 19.4102 21.353C18.4327 22.3475 17.3406 23.2044 16.134 23.9158C16.0882 23.9464 16.05 23.9694 16.0042 24ZM8.73389 10.635V10.7268C8.73389 11.2852 8.77208 11.8514 8.84081 12.4022C8.90191 12.9071 8.98591 13.4044 9.10046 13.9016C9.12337 13.9858 9.14629 14.0699 9.18447 14.1541C9.87179 15.6153 11.4603 16.3956 13.0335 16.0361C14.2324 15.7607 15.21 14.835 15.5383 13.6492C15.63 13.3202 15.6605 12.9836 15.6758 12.647C15.6834 12.4251 15.7064 12.2033 15.7445 11.9814C16.0042 10.635 16.8977 9.52568 18.1578 8.99781C18.2265 8.96721 18.3029 8.94426 18.3716 8.91366C18.3793 8.90601 18.3945 8.90601 18.3945 8.89071C18.196 8.82186 17.0123 8.69945 16.302 8.68415C14.7747 8.65355 13.2778 8.85246 11.8192 9.29617C10.7348 9.62514 9.71141 10.0689 8.73389 10.635ZM19.9983 19.8C20.0365 19.777 20.0594 19.7464 20.0746 19.7235C20.3801 19.341 20.6703 18.9432 20.9376 18.5301C21.8922 17.0459 22.5643 15.447 22.9385 13.718C23.0683 13.129 23.1523 12.5399 23.2058 11.9432C23.244 11.5377 23.2592 11.1322 23.2592 10.7191C23.2592 10.6885 23.2592 10.6656 23.2516 10.635L23.137 10.5661C22.8239 10.3902 22.5032 10.2219 22.1824 10.0689C21.7089 9.84699 21.2355 9.64809 20.7391 9.48743C20.1357 9.29617 19.5248 9.27322 18.9138 9.42623C17.165 9.84699 16.0424 11.5683 16.3784 13.3355C16.5617 14.3148 17.0886 15.0798 17.9287 15.6153C17.9821 15.6536 18.0432 15.6842 18.0967 15.7224C18.7153 16.0973 19.1964 16.6098 19.5401 17.2448C19.9066 17.9104 20.067 18.6295 20.0212 19.3869C20.0288 19.5169 20.0136 19.6546 19.9983 19.8ZM16.0042 23.2197C16.0347 23.2044 16.0729 23.1814 16.1035 23.1585C17.0657 22.5923 17.9516 21.9191 18.7611 21.1541C18.8146 21.1082 18.8527 21.047 18.8833 20.9858C18.9368 20.8863 18.9902 20.7792 19.036 20.6798C19.4179 19.8842 19.5019 19.0579 19.2499 18.2011C18.7535 16.5486 17.165 15.6 15.5689 15.7989C15.1107 15.8525 14.6907 15.9978 14.2935 16.2273C13.5375 16.6557 12.728 16.8317 11.8574 16.7475C11.4297 16.7093 11.025 16.5945 10.6355 16.4262C10.33 16.2885 10.0398 16.1202 9.78015 15.9137C9.76487 15.8984 9.74196 15.8907 9.70378 15.8678C9.71141 15.906 9.71905 15.929 9.72669 15.9443C10.0703 16.8164 10.4904 17.6426 10.9868 18.4306C11.529 19.2798 12.1476 20.0678 12.8502 20.7869C13.5528 21.506 14.3241 22.1486 15.1565 22.7071C15.5383 22.9519 15.8973 23.1738 16.0042 23.2197Z" fill="black"/>
<path d="M8.7342 10.635C9.71172 10.0689 10.7351 9.6252 11.8119 9.30389C13.2781 8.86782 14.7673 8.66127 16.2947 8.69187C17.0049 8.70717 18.1886 8.82192 18.3872 8.89842C18.3948 8.91372 18.3796 8.92137 18.3643 8.92137C18.2956 8.95198 18.2192 8.97493 18.1505 9.00553C16.8904 9.53339 15.9969 10.6427 15.7372 11.9891C15.699 12.211 15.6761 12.4328 15.6685 12.6547C15.6608 12.9913 15.6303 13.3279 15.531 13.6569C15.195 14.8427 14.2251 15.7683 13.0261 16.0438C11.4529 16.4033 9.86446 15.623 9.17714 14.1618C9.13895 14.0776 9.10841 13.9935 9.09313 13.9093C8.97858 13.4121 8.89457 12.9148 8.83348 12.4099C8.76475 11.8514 8.72656 11.293 8.72656 10.7345C8.7342 10.6962 8.7342 10.6733 8.7342 10.635Z" fill="#F7A800"/>
<path d="M19.9978 19.8C20.0131 19.6546 20.0284 19.5246 20.036 19.3869C20.0742 18.6295 19.9138 17.9104 19.5549 17.2448C19.2112 16.6098 18.7301 16.1049 18.1115 15.7224C18.0581 15.6841 17.997 15.6535 17.9435 15.6153C17.0958 15.0798 16.5765 14.3224 16.3932 13.3355C16.0648 11.5607 17.1798 9.847 18.9287 9.42624C19.5473 9.28089 20.1506 9.29619 20.7539 9.48744C21.2503 9.64045 21.7238 9.847 22.1972 10.0689C22.5256 10.2219 22.8387 10.3902 23.1519 10.5661C23.19 10.5891 23.2206 10.6044 23.2664 10.635C23.2664 10.6656 23.274 10.6885 23.274 10.7191C23.274 11.1246 23.2511 11.5377 23.2206 11.9432C23.1671 12.5399 23.0755 13.1366 22.9533 13.718C22.5791 15.447 21.9147 17.0459 20.9524 18.53C20.6851 18.9431 20.3949 19.341 20.0895 19.7235C20.0589 19.7464 20.0436 19.777 19.9978 19.8Z" fill="#67B2E8"/>
<path d="M16.0037 23.2197C15.8892 23.1738 15.5379 22.9596 15.1637 22.7071C14.3312 22.1486 13.5599 21.506 12.8573 20.7869C12.1547 20.0678 11.5285 19.2798 10.9939 18.4306C10.4899 17.6426 10.0699 16.8164 9.73385 15.9443C9.72621 15.9213 9.71857 15.906 9.71094 15.8678C9.74912 15.8907 9.7644 15.8984 9.78731 15.9137C10.0546 16.1202 10.3372 16.2962 10.6426 16.4262C11.0321 16.5945 11.4369 16.7093 11.8645 16.7476C12.7275 16.8317 13.537 16.6557 14.3007 16.2273C14.6978 16.0055 15.1255 15.8601 15.5761 15.7989C17.1722 15.6 18.7606 16.5486 19.257 18.2011C19.509 19.0503 19.4327 19.8765 19.0432 20.6798C18.9897 20.7869 18.9439 20.8863 18.8905 20.9858C18.8599 21.047 18.8217 21.1082 18.7683 21.1541C17.9588 21.9191 17.0729 22.5923 16.1106 23.1585C16.0725 23.1814 16.0343 23.2044 16.0037 23.2197Z" fill="#00C4B3"/>
<defs>
<linearGradient id="paint0_linear_2470_50775" x1="16" y1="0" x2="16" y2="32" gradientUnits="userSpaceOnUse">
<stop stop-color="#F6F2FF"/>
<stop offset="1" stop-color="#E0F6FF"/>
</linearGradient>
</defs>
</svg>
