<svg width="32" height="32" viewBox="0 0 32 32" fill="none" xmlns="http://www.w3.org/2000/svg">
<rect width="32" height="32" fill="url(#paint0_linear_2470_49462)"/>
<path d="M12.6464 20.7603C13.4822 21.3913 15.0166 20.6038 16.1026 19.0044L16.1487 18.942C16.7475 18.034 16.5401 16.7781 15.6892 16.1356C14.8383 15.4952 13.6643 15.7097 13.0674 16.6181L13.0269 16.6866C11.9851 18.3215 11.8105 20.1299 12.6464 20.7603Z" fill="#ED8117"/>
<path d="M13.5026 19.5514C14.0831 19.9789 15.1583 19.4344 15.9241 18.3325L15.957 18.2895C16.1593 17.9925 16.2402 17.6215 16.1814 17.26C16.1226 16.8985 15.9297 16.5766 15.6466 16.3696C15.053 15.9321 14.2317 16.0846 13.8112 16.7096L13.7816 16.7566C13.0483 17.8815 12.9199 19.1214 13.5022 19.5514" fill="#EEBB18"/>
<path d="M9.88808 14.3523C9.80013 14.4733 9.75779 14.6533 9.99486 14.5748C10.6764 14.3503 12.2183 14.0863 14.0076 15.4067C16.4257 17.1896 16.2291 12.5689 16.2291 12.5689C15.6557 12.1469 12.7658 10.4305 9.88856 14.3518L9.88808 14.3523ZM19.0791 21.3164C19.0899 21.5778 19.2352 21.4744 19.3105 21.3494C21.7983 17.2146 19.3213 14.9378 18.7555 14.5118C18.7555 14.5118 14.6252 15.8497 17.0024 17.6406C18.7644 18.9665 19.0494 20.5719 19.0786 21.3164" fill="#172025"/>
<path d="M16.5688 18.3405C17.0411 18.7115 17.3275 18.7719 17.6695 18.323C18.0129 17.872 19.8172 15.6221 21.6196 13.1438C23.4221 10.6635 22.3233 6.39621 22.1065 6.22623L22.1027 6.23023L22.1046 6.22423C21.8896 6.05424 17.9136 6.33772 16.4254 9.06405C14.9371 11.7924 13.6455 14.4427 13.3807 14.9542C13.1159 15.4657 13.2631 15.7451 13.7353 16.1161L15.1521 17.2295L16.5688 18.341" fill="#DCF2F9"/>
<path d="M17.1004 18.889H17.0802C16.8652 18.883 16.6409 18.7795 16.3286 18.547C16.1098 18.381 15.5016 17.924 14.8935 17.4671L14.8587 17.4396L13.9033 16.7206L13.3869 16.3321C13.0764 16.0996 12.9109 15.9082 12.8318 15.6937C12.7105 15.3577 12.8413 15.0512 12.9513 14.8497L13.2561 14.2658C13.7872 13.2483 14.893 11.1294 16.115 8.98458C16.5543 8.21313 17.2265 7.56467 18.1141 7.0587C18.5826 6.79122 19.3652 6.42224 20.4311 6.18575C20.8521 6.09376 21.2839 6.02926 21.6475 6.00827C22.2025 5.97527 22.3017 6.04926 22.3493 6.08626L22.353 6.08826C22.4024 6.12526 22.5002 6.20925 22.6545 6.76772C22.7594 7.1427 22.8474 7.59967 22.9081 8.05664C23.0717 9.31056 23.1578 11.6599 21.8921 13.3258C20.4128 15.2767 18.9175 17.1031 18.1987 17.98C18.0021 18.2185 17.8605 18.39 17.7872 18.484C17.679 18.619 17.5741 18.7185 17.4635 18.785C17.3535 18.8515 17.2265 18.8885 17.1 18.8885L17.1004 18.889ZM21.9104 6.49874C21.5209 6.49874 20.67 6.58473 19.711 6.89721C18.671 7.23519 17.2707 7.91665 16.5176 9.24257C15.2994 11.3789 14.1968 13.4923 13.6658 14.5077L13.3572 15.0977C13.2302 15.3322 13.2434 15.4432 13.2688 15.5137C13.3111 15.6272 13.4344 15.7577 13.6564 15.9257L14.1729 16.3141L15.1282 17.0331L15.1649 17.0586C15.7712 17.5156 16.3812 17.9745 16.6 18.1385C17.0609 18.486 17.1973 18.453 17.4287 18.162L17.8441 17.652C18.5604 16.7771 20.0525 14.9567 21.5261 13.0138C22.4429 11.8089 22.5717 10.172 22.52 9.01008C22.465 7.75416 22.1818 6.75422 22.0699 6.50623L21.9099 6.49824" fill="#172025"/>
<path d="M18.0231 12.2254C18.7766 12.7898 19.818 12.5984 20.3472 11.7979C20.8763 10.997 20.6962 9.89002 19.945 9.32555C19.1915 8.76109 18.1501 8.95258 17.6209 9.75303C17.0899 10.5555 17.2719 11.6609 18.0231 12.2254Z" fill="#FEFEFE"/>
<path d="M18.9809 12.7998C18.2716 12.7978 17.6211 12.3759 17.2942 11.7059C16.9692 11.034 17.0205 10.2275 17.4283 9.61054C17.7185 9.17107 18.1616 8.87208 18.6592 8.78059C19.1573 8.6906 19.6681 8.81209 20.0811 9.12257C20.9391 9.76503 21.1451 11.0305 20.5407 11.9409C20.2505 12.3824 19.8074 12.6793 19.3097 12.7708C19.2015 12.7903 19.091 12.8003 18.9809 12.8003V12.7998ZM18.9866 9.25156C18.9038 9.25156 18.821 9.25956 18.7406 9.27506C18.3657 9.34356 18.0313 9.56804 17.8144 9.89802C17.3586 10.5855 17.5148 11.5364 18.1597 12.0209C18.8064 12.5054 19.7011 12.3414 20.1569 11.6539C20.6108 10.9665 20.4565 10.0155 19.8097 9.53104C19.5689 9.34955 19.2824 9.25156 18.9866 9.25156Z" fill="#172025"/>
<path d="M8 25.8555L10.6439 21.9028L10.8349 22.0473L8.19285 26L8 25.8555ZM9.51599 25.3516L11.0612 23.0277L11.254 23.1742L9.70884 25.4965L9.51599 25.3516Z" fill="#979797"/>
<defs>
<linearGradient id="paint0_linear_2470_49462" x1="16" y1="0" x2="16" y2="32" gradientUnits="userSpaceOnUse">
<stop stop-color="#F6F2FF"/>
<stop offset="1" stop-color="#C0CEFF"/>
</linearGradient>
</defs>
</svg>
