<svg width="32" height="32" viewBox="0 0 32 32" fill="none" xmlns="http://www.w3.org/2000/svg">
<rect width="32" height="32" fill="url(#paint0_linear_2470_49438)"/>
<path fill-rule="evenodd" clip-rule="evenodd" d="M19.5302 14.5157H19.3366C18.9516 14.5157 17.7945 14.7143 17.7945 15.9025C17.7945 17.4851 19.5302 17.4851 19.5302 17.4851C21.4572 17.4851 22.9993 19.2634 22.9993 21.2411C22.9993 23.2217 21.4572 25 19.3366 25C17.4095 25 15.6739 23.2217 15.6739 21.2411C15.6739 20.4509 16.0589 19.6585 16.446 19.0676C16.446 18.6697 16.6368 17.8802 16.0582 17.0871C15.4825 16.4962 14.3254 17.0871 13.9404 17.6808C13.7468 17.6808 13.7468 17.8795 13.7468 18.0788H13.5533C12.9776 19.0676 11.8205 19.6585 10.6627 19.6585C8.54208 19.6585 7 18.0788 7 16.0982C7 13.9219 8.54208 12.3422 10.6627 12.3422C11.8198 12.3422 13.1683 13.1324 13.7468 14.1205C13.7468 14.1205 14.3254 15.1094 15.0954 15.1094C15.6739 15.1094 16.4467 14.7143 16.4467 13.5268C16.4467 13.331 16.4467 12.9331 16.2532 12.7366C16.2532 12.538 16.2532 12.538 16.0596 12.3415C15.8689 11.7477 15.6746 11.3498 15.6746 10.7589C15.6746 8.58258 17.4102 7 19.3373 7C21.4579 7 23 8.58258 23 10.7589C23 12.7366 21.4579 14.3192 19.5309 14.5149L19.5302 14.5157Z" fill="white"/>
<defs>
<linearGradient id="paint0_linear_2470_49438" x1="16" y1="0" x2="16" y2="32" gradientUnits="userSpaceOnUse">
<stop stop-color="#328DBA"/>
<stop offset="1" stop-color="#0E5A80"/>
</linearGradient>
</defs>
</svg>
