<svg width="32" height="32" viewBox="0 0 32 32" fill="none" xmlns="http://www.w3.org/2000/svg">
<rect width="32" height="32" fill="url(#paint0_linear_2470_50830)"/>
<path d="M17.7513 24C16.5853 24 15.7342 23.725 15.1981 23.175C14.7015 22.7094 14.4133 22.0702 14.3965 21.3972C14.3905 21.1927 14.4389 20.9902 14.5369 20.8096C14.6284 20.6536 14.7605 20.5241 14.9198 20.4344C15.105 20.344 15.3091 20.2969 15.516 20.2969C15.7229 20.2969 15.927 20.344 16.1121 20.4344C16.2712 20.5237 16.4027 20.6533 16.4929 20.8096C16.5938 20.9894 16.644 21.1922 16.6384 21.3972C16.6488 21.6421 16.577 21.8835 16.4341 22.0847C16.315 22.2489 16.1447 22.3709 15.9489 22.4324C16.1404 22.6712 16.4115 22.8367 16.7148 22.9C17.0541 22.9965 17.4056 23.0461 17.759 23.0474C18.2268 23.0514 18.685 22.9172 19.0739 22.6624C19.4772 22.3834 19.778 21.9845 19.9317 21.525C20.1265 20.978 20.2215 20.4017 20.2125 19.8225C20.2282 19.2186 20.1242 18.6175 19.9061 18.0525C19.7421 17.6005 19.4308 17.214 19.0202 16.9525C18.6386 16.716 18.1955 16.5919 17.7439 16.595C17.3503 16.6276 16.9709 16.7538 16.6384 16.9625L15.8186 17.365V16.9625L19.5027 12.123H14.3965V17.145C14.3821 17.5074 14.48 17.8656 14.6774 18.1725C14.7728 18.3062 14.902 18.4135 15.0523 18.4841C15.2026 18.5546 15.3689 18.5859 15.5352 18.575C15.8424 18.5689 16.1395 18.4663 16.3827 18.2825C16.6585 18.0846 16.8984 17.8429 17.0925 17.5674C17.11 17.5191 17.1423 17.4773 17.1849 17.4475C17.2191 17.4186 17.2627 17.4026 17.308 17.4025C17.3967 17.4105 17.4806 17.4454 17.548 17.5025C17.6333 17.5958 17.6798 17.7172 17.6781 17.8424C17.6683 17.9267 17.6529 18.0102 17.6322 18.0924C17.4508 18.5224 17.1467 18.892 16.7564 19.1571C16.3939 19.3973 15.9657 19.5247 15.528 19.5225C14.4225 19.5225 13.6566 19.3092 13.2303 18.8825C13.0113 18.6467 12.8424 18.3704 12.7337 18.0699C12.625 17.7694 12.5786 17.4507 12.5972 17.1324V12.123H10V11.19H12.6093V9.06245L12.0119 8.47709V8H13.7454L14.3965 8.33004V11.19L21.1417 11.1699L21.8133 11.8299L17.6772 15.8995C17.9271 15.8011 18.1902 15.7388 18.4584 15.7145C18.9892 15.7373 19.5071 15.8821 19.9701 16.1371C20.5064 16.3867 20.9583 16.7816 21.2723 17.275C21.5537 17.6926 21.7528 18.1581 21.8595 18.6475C21.9473 19.0334 21.9943 19.4272 22 19.8226C22.0027 20.5772 21.828 21.3222 21.4894 22C21.1682 22.6564 20.6277 23.1856 19.9574 23.5001C19.2713 23.8312 18.5162 24.0023 17.7513 24Z" fill="#2C7DF7"/>
<defs>
<linearGradient id="paint0_linear_2470_50830" x1="16" y1="0" x2="16" y2="32" gradientUnits="userSpaceOnUse">
<stop stop-color="#F6F2FF"/>
<stop offset="1" stop-color="#C0CEFF"/>
</linearGradient>
</defs>
</svg>
