<svg width="32" height="32" viewBox="0 0 32 32" fill="none" xmlns="http://www.w3.org/2000/svg">
<rect width="32" height="32" fill="url(#paint0_linear_2470_50890)"/>
<path d="M23 13.7752L18.3255 15.0155L17.2831 10.1614L18.673 9.84713L19.221 12.1472C19.221 12.1472 20.484 10.0745 18.8 7.92821C17.8346 6.85496 17.3625 6.78151 16.3131 6.61826L16.2239 6.60435C15.2449 6.46394 12.9695 6.79491 12.2912 9.45265C12.0038 11.1643 12.3279 12.4313 14.5332 14.0895L14.4095 15.9349C14.4095 15.9349 11.947 14.1998 11.3122 12.9829C10.821 12.0201 9.979 10.1179 11.4993 7.47021C12.3179 6.14635 13.9317 4.87598 16.7752 5.0097C18.2053 5.06988 21.6969 6.81831 21.1556 10.9035C21.0621 11.6691 20.6644 12.6888 20.6644 12.6888L22.5823 12.2608L23 13.7752Z" fill="white"/>
<path d="M15.2951 23.0489V9.14171H16.8087V23.0489H15.2951Z" fill="white"/>
<path d="M14.9909 26.977C17.8277 27.1843 19.4749 25.9574 20.3303 24.6569C21.9174 22.0527 21.1255 20.127 20.6644 19.1475C20.063 17.9139 17.6473 16.1154 17.6473 16.1154L17.4735 17.9574C19.632 19.6757 19.9227 20.9528 19.5919 22.6544C18.8434 25.2921 16.558 25.5662 15.5857 25.3991C15.5534 25.3931 15.5216 25.3873 15.4903 25.3816C14.4454 25.1909 13.9773 25.1055 13.043 24.0083C11.4191 21.8153 12.7356 19.7794 12.7356 19.7794L13.2234 22.0961L14.6234 21.8186L13.7079 16.9378L9 18.0543L9.37757 19.5754L11.3055 19.201C11.3055 19.201 10.8811 20.2073 10.7675 20.9695C10.1193 25.038 13.5609 26.88 14.9909 26.977Z" fill="white"/>
<defs>
<linearGradient id="paint0_linear_2470_50890" x1="16" y1="0" x2="16" y2="32" gradientUnits="userSpaceOnUse">
<stop stop-color="#006AE3"/>
<stop offset="1" stop-color="#004DE3"/>
</linearGradient>
</defs>
</svg>
