<svg width="32" height="32" viewBox="0 0 32 32" fill="none" xmlns="http://www.w3.org/2000/svg">
<rect width="32" height="32" fill="url(#paint0_linear_2470_49450)"/>
<path d="M21 22.2089C21 22.5264 20.7659 22.632 20.4183 22.632H17.5106V23.6825C17.5106 23.8944 17.394 24 17.163 24H14.837C14.606 24 14.4894 23.8944 14.4894 23.6825V22.632H11.9293C11.5817 22.632 11.3476 22.632 11.2341 22.4201C11.1174 22.3145 11 22.1054 11 21.8935V21.2613C11 21.1585 11 21.0522 11.1166 20.841C11.1166 20.6319 11.2333 20.5263 11.3476 20.4207C12.046 19.0527 12.8617 17.6848 13.791 16.3147C14.7204 14.8412 15.5353 13.4732 16.348 12.2116V11.9997C16.348 11.8941 16.2344 11.8941 16.117 11.8941H12.046C11.6983 11.8941 11.5817 11.6849 11.5817 11.3674V9.57916C11.5817 9.36726 11.5817 9.26444 11.6983 9.15884H14.4886V8.31472C14.4886 8.1056 14.6052 8 14.8362 8H17.1622C17.3932 8 17.5099 8.1056 17.5099 8.31472V9.15884H19.9533C20.4175 9.15884 20.6485 9.36795 20.6485 9.68545V10.6324C20.6485 10.8415 20.6485 11.0527 20.535 11.159L20.3009 11.6856C19.9533 12.2122 19.6026 12.9473 19.1375 13.5802C18.7899 14.2124 18.3248 14.9482 17.8606 15.5804C17.5099 16.3161 17.0448 16.9483 16.5805 17.5805C16.2329 18.3163 15.7648 18.9485 15.4172 19.5807V19.7898C15.4172 19.7898 15.4172 19.8954 15.5338 19.8954H20.4168C20.6478 19.8954 20.7644 19.8954 20.7644 20.001C20.8811 20.001 20.9985 20.1066 20.9985 20.3158L21 22.2089Z" fill="white"/>
<defs>
<linearGradient id="paint0_linear_2470_49450" x1="16" y1="0" x2="16" y2="32" gradientUnits="userSpaceOnUse">
<stop stop-color="#FEC033"/>
<stop offset="1" stop-color="#C07F1D"/>
</linearGradient>
</defs>
</svg>
