<svg width="32" height="32" viewBox="0 0 32 32" fill="none" xmlns="http://www.w3.org/2000/svg">
<rect width="32" height="32" fill="url(#paint0_linear_2470_50802)"/>
<path d="M20.3646 18.7678C20.943 19.5438 21.5393 20.3378 22.1357 21.1318C20.943 22.5393 19.461 23.4416 17.6719 23.8206C15.684 24.2356 13.8045 23.9289 11.9792 22.9183C13.6057 21.7092 15.196 20.5182 16.8044 19.3272C17.1659 19.6701 17.5093 20.0129 17.8526 20.3378C18.2321 20.6987 18.0876 20.7167 18.5755 20.446C19.2442 20.0671 19.8044 19.5438 20.2381 18.9122C20.2562 18.8761 20.2924 18.84 20.3104 18.8039C20.2924 18.8039 20.3104 18.8039 20.3646 18.7678ZM13.2623 20.3558C12.8105 20.6987 12.3949 21.0055 11.9792 21.3303C11.672 21.5649 11.3647 21.7814 11.0575 22.016C10.931 22.1243 10.8407 22.1243 10.6961 21.998C9.3226 20.7709 8.45514 19.255 8.12984 17.4505C7.80454 15.6278 8.0937 13.8955 8.96116 12.2533C8.97923 12.2172 9.01537 12.1631 9.03345 12.127C9.03345 12.1089 9.05152 12.1089 9.08766 12.0909C10.2804 13.6609 11.4913 15.2308 12.684 16.8008C12.6479 16.8549 12.6298 16.891 12.5936 16.9271C12.2322 17.3061 11.8708 17.685 11.4913 18.046C11.3828 18.1542 11.3647 18.2445 11.437 18.3708C11.8165 19.0926 12.3406 19.6881 12.9912 20.1754C13.0816 20.2295 13.1539 20.2836 13.2623 20.3558ZM20.0032 9.14944C19.4249 9.56449 18.8466 9.97954 18.2683 10.3765C17.2743 11.0803 16.2804 11.8022 15.3045 12.5059C15.178 12.5962 15.0876 12.6142 14.9792 12.4879C14.6539 12.145 14.3105 11.8382 13.9852 11.4954C13.8948 11.4051 13.8045 11.3871 13.678 11.4412C12.9009 11.8382 12.2864 12.3977 11.7804 13.1014C11.7443 13.1375 11.7081 13.1917 11.672 13.2458C11.3828 12.8668 11.1117 12.524 10.8407 12.1631C10.5515 11.7841 10.2804 11.4051 10.0093 11.0442C9.91898 10.9179 9.90091 10.8277 10.0274 10.7014C11.419 9.16748 13.1358 8.2652 15.196 8.04865C16.8225 7.86819 18.3767 8.19301 19.8225 8.96898C19.8767 9.00507 19.9309 9.02312 19.9851 9.05921C19.9851 9.11334 19.9851 9.13139 20.0032 9.14944ZM22.949 19.9768C22.5694 19.4896 22.2261 19.0385 21.8827 18.5873C21.0875 17.5407 20.2924 16.476 19.4791 15.4293C19.3707 15.285 19.3707 15.1947 19.4972 15.0684C19.8406 14.7256 20.1659 14.3827 20.5092 14.0398C20.5996 13.9496 20.6357 13.8594 20.5634 13.733C20.1659 12.9751 19.6237 12.3435 18.9189 11.8382C18.8647 11.8022 18.8104 11.748 18.7382 11.7119C18.7924 11.6578 18.8466 11.6217 18.8827 11.5856C19.5695 11.0623 20.2562 10.557 20.943 10.0337C21.0514 9.94345 21.1417 9.90735 21.2683 10.0337C22.9851 11.5856 23.9068 13.5165 23.9971 15.8444C24.0333 17.1978 23.7261 18.4791 23.1116 19.6881C23.0574 19.7603 23.0032 19.8505 22.949 19.9768Z" fill="#231815"/>
<defs>
<linearGradient id="paint0_linear_2470_50802" x1="16" y1="0" x2="16" y2="32" gradientUnits="userSpaceOnUse">
<stop stop-color="#F6F2FF"/>
<stop offset="1" stop-color="#C0CEFF"/>
</linearGradient>
</defs>
</svg>
