<svg width="32" height="24" viewBox="0 0 32 24" fill="none" xmlns="http://www.w3.org/2000/svg">
<g clip-path="url(#clip0_751_22794)">
<path d="M5.19922 -2.4001H26.7992C31.4384 -2.4001 35.1992 0.420502 35.1992 3.8999V20.0999C35.1992 23.5793 31.4384 26.3999 26.7992 26.3999H5.19922C0.560017 26.3999 -3.20078 23.5793 -3.20078 20.0999V3.8999C-3.20078 0.420502 0.560017 -2.4001 5.19922 -2.4001Z" fill="#41479B"/>
<path d="M-1.59947 4.57525V5.84294L3.86026 8.52574H-1.59947V9.91516H13.2207V-1.19997H11.3682V7.23206L-0.38267 1.45792C-0.798858 1.94387 -1.12018 2.47983 -1.32793 3.0509" fill="#F5F5F5"/>
<path d="M33.0799 2.48947C32.8924 2.12649 32.6577 1.78114 32.3809 1.45792L20.63 7.23206V-1.19997H18.7776V9.91516H33.5977V8.52574H28.1379L33.5977 5.84294V4.57469C33.5977 4.35267 33.5803 4.1337 33.5478 3.91818" fill="#F5F5F5"/>
<path d="M33.5977 19.2282V18.1562L28.1379 15.4733H33.5977V14.084H18.7775V25.1991H20.63V16.7671L32.3809 22.5412C32.8376 22.0079 33.1802 21.4145 33.3836 20.7805" fill="#F5F5F5"/>
<path d="M-1.07158 21.5298C-0.885823 21.8855 -0.654423 22.2241 -0.38267 22.5414L11.3682 16.7672V25.1992H13.2207V14.0841H-1.59947V15.4735H3.86026L-1.59947 18.1563V19.4246C-1.59947 19.6545 -1.58098 19.8813 -1.54613 20.1042" fill="#F5F5F5"/>
<path d="M13.2199 25.1991H18.7775V14.084H33.5977V9.9158H18.7775V-1.19933H13.2199V9.9158H-1.60025V14.084H13.2199V25.1991Z" fill="#FF4B55"/>
<path d="M24.0846 8.52619L33.5488 3.91864C33.4736 3.42042 33.3141 2.94143 33.0809 2.48992L20.6819 8.52625H24.0846V8.52619Z" fill="#FF4B55"/>
<path d="M9.91602 8.52619L-1.32985 3.05131C-1.50646 3.53684 -1.60133 4.04764 -1.60133 4.57514V4.57571L6.51337 8.52625L9.91602 8.52619Z" fill="#FF4B55"/>
<path d="M22.4825 15.4741L33.3836 20.7812C33.5232 20.3463 33.5977 19.8923 33.5977 19.4252V19.229L25.8852 15.4741H22.4825Z" fill="#FF4B55"/>
<path d="M7.96461 15.4725L-1.54707 20.1033C-1.46932 20.6005 -1.30777 21.0785 -1.07259 21.5288L11.3672 15.4725H7.96461Z" fill="#FF4B55"/>
</g>
<defs>
<clipPath id="clip0_751_22794">
<rect width="32" height="24" rx="8" fill="white"/>
</clipPath>
</defs>
</svg>
