<svg width="164" height="52" viewBox="0 0 164 52" fill="none" xmlns="http://www.w3.org/2000/svg">
<path d="M39 47.5V35.7H44.5C45.9 35.7 47 36 47.7 36.5C48.4 37 48.8 37.8 48.8 38.7C48.8 39.3 48.7 39.9 48.4 40.3C48.1 40.7 47.7 41.1 47.2 41.3C46.7 41.5 46.2 41.7 45.6 41.7L45.9 41.1C46.6 41.1 47.2 41.2 47.7 41.5C48.2 41.7 48.6 42.1 48.9 42.6C49.2 43.1 49.4 43.6 49.4 44.3C49.4 45.3 49 46.1 48.2 46.7C47.4 47.3 46.3 47.5 44.8 47.5H39ZM41.2 45.8H44.8C45.6 45.8 46.2 45.7 46.7 45.4C47.1 45.1 47.4 44.7 47.4 44.1C47.4 43.5 47.2 43.1 46.7 42.8C46.3 42.5 45.6 42.4 44.8 42.4H41.1V40.7H44.4C45.2 40.7 45.7 40.6 46.2 40.3C46.6 40 46.8 39.6 46.8 39.1C46.8 38.5 46.6 38.1 46.2 37.9C45.8 37.7 45.2 37.5 44.4 37.5H41.2V45.8Z" fill="#675C70"/>
<path d="M51.7 47.5V38.5H53.7V41L53.5 40.3C53.8 39.7 54.2 39.2 54.8 38.9C55.4 38.6 56.1 38.4 56.9 38.4V40.4C56.8 40.4 56.7 40.4 56.7 40.4C56.6 40.4 56.5 40.4 56.5 40.4C55.7 40.4 55 40.6 54.6 41.1C54.1 41.6 53.9 42.3 53.9 43.2V47.6H51.7V47.5Z" fill="#675C70"/>
<path d="M62.6 47.6C61.7 47.6 60.9 47.4 60.1 47C59.3 46.6 58.8 46.1 58.4 45.4C58 44.7 57.8 43.9 57.8 43C57.8 42.1 58 41.3 58.4 40.6C58.8 39.9 59.4 39.4 60.1 39C60.8 38.6 61.6 38.4 62.6 38.4C63.5 38.4 64.4 38.6 65.1 39C65.8 39.4 66.4 39.9 66.8 40.6C67.2 41.3 67.4 42.1 67.4 43C67.4 43.9 67.2 44.7 66.8 45.4C66.4 46.1 65.8 46.6 65.1 47C64.4 47.4 63.5 47.6 62.6 47.6ZM62.6 45.9C63.1 45.9 63.6 45.8 64 45.6C64.4 45.4 64.7 45 65 44.6C65.2 44.2 65.3 43.7 65.3 43.1C65.3 42.5 65.2 42 65 41.6C64.8 41.2 64.5 40.9 64 40.6C63.6 40.4 63.1 40.3 62.6 40.3C62.1 40.3 61.6 40.4 61.2 40.6C60.8 40.8 60.5 41.2 60.2 41.6C60 42 59.8 42.5 59.8 43.1C59.8 43.7 59.9 44.2 60.2 44.6C60.5 45 60.8 45.4 61.2 45.6C61.7 45.7 62.1 45.9 62.6 45.9Z" fill="#675C70"/>
<path d="M69.5 47.5V35H71.6V47.5H69.5ZM71.2 45.5V42.9L75.9 38.5H78.4L74.4 42.5L73.3 43.4L71.2 45.5ZM76.3 47.5L73 43.4L74.3 41.7L78.8 47.5H76.3Z" fill="#675C70"/>
<path d="M84 47.6C83 47.6 82.1 47.4 81.4 47C80.7 46.6 80.1 46.1 79.7 45.4C79.3 44.7 79.1 43.9 79.1 43C79.1 42.1 79.3 41.3 79.7 40.6C80.1 39.9 80.7 39.4 81.4 39C82.1 38.6 82.9 38.4 83.8 38.4C84.7 38.4 85.5 38.6 86.1 39C86.8 39.4 87.3 39.9 87.7 40.6C88.1 41.3 88.3 42.1 88.3 43.1C88.3 43.2 88.3 43.3 88.3 43.4C88.3 43.5 88.3 43.6 88.3 43.7H80.8V42.3H87.2L86.4 42.7C86.4 42.2 86.3 41.7 86.1 41.3C85.9 40.9 85.6 40.6 85.2 40.4C84.8 40.2 84.4 40.1 83.9 40.1C83.4 40.1 82.9 40.2 82.5 40.4C82.1 40.6 81.8 40.9 81.6 41.3C81.4 41.7 81.3 42.2 81.3 42.7V43C81.3 43.5 81.4 44 81.7 44.4C81.9 44.8 82.3 45.1 82.7 45.4C83.1 45.6 83.7 45.7 84.3 45.7C84.8 45.7 85.3 45.6 85.7 45.4C86.1 45.2 86.5 45 86.8 44.7L87.9 46C87.5 46.5 87 46.8 86.4 47.1C85.5 47.5 84.8 47.6 84 47.6Z" fill="#675C70"/>
<path d="M90.3 47.5V38.5H92.3V41L92.1 40.3C92.4 39.7 92.8 39.2 93.4 38.9C94 38.6 94.7 38.4 95.5 38.4V40.4C95.4 40.4 95.3 40.4 95.3 40.4C95.2 40.4 95.1 40.4 95.1 40.4C94.3 40.4 93.6 40.6 93.2 41.1C92.7 41.6 92.5 42.3 92.5 43.2V47.6H90.3V47.5Z" fill="#675C70"/>
<path d="M10.1789 18.2155L16.3984 12.1515L22.6211 18.2188L26.24 14.6901L16.3984 5.09375L6.56 14.6869L10.1789 18.2155Z" fill="#675C70"/>
<path d="M7.41294 21.5308L3.70654 17.8161L-4.09378e-05 21.531L3.70636 25.2458L7.41294 21.5308Z" fill="#675C70"/>
<path d="M10.1829 24.7842L16.4001 30.8484L22.6204 24.7812L26.24 28.308L26.2382 28.3099L16.4001 37.9062L6.56505 28.3131L6.56 28.3082L10.1829 24.7842Z" fill="#675C70"/>
<path d="M29.0947 25.2475L32.8013 21.5326L29.0949 17.8178L25.3883 21.5328L29.0947 25.2475Z" fill="#675C70"/>
<path d="M20.7694 21.4977H20.7712L16.4 17.125L13.1696 20.3565H13.1693L12.7984 20.7279L12.0327 21.4938L12.0267 21.4998L12.0327 21.5062L16.4 25.875L20.7712 21.5023L20.7733 21.4998L20.7694 21.4977Z" fill="#675C70"/>
<path d="M39.36 13.8438H47.1229C49.0496 13.8438 50.5065 14.3281 51.494 15.2967C52.2581 16.0469 52.64 16.9767 52.64 18.0859V18.1328C52.64 18.6015 52.5809 19.0157 52.4619 19.3749C52.3432 19.7346 52.1845 20.0584 51.9862 20.3475C51.7883 20.6368 51.5583 20.8907 51.2969 21.1091C51.0352 21.3281 50.754 21.5158 50.4529 21.6717C51.4214 22.0314 52.1838 22.5194 52.7396 23.1366C53.2952 23.7541 53.5733 24.6096 53.5733 25.7031V25.7498C53.5733 26.5 53.4261 27.1561 53.1315 27.7189C52.8369 28.2812 52.4148 28.7501 51.8652 29.1252C51.3156 29.5003 50.6547 29.7813 49.8824 29.969C49.11 30.1564 48.254 30.25 47.3148 30.25H39.36V13.8438ZM46.3468 20.4765C47.1606 20.4765 47.8067 20.3401 48.285 20.0664C48.7635 19.793 49.0027 19.3514 49.0027 18.7422V18.6953C49.0027 18.1487 48.7951 17.7308 48.3805 17.4415C47.9656 17.1524 47.3674 17.0078 46.586 17.0078H42.9489V20.4765H46.3468ZM47.328 27.0862C48.1415 27.0862 48.7792 26.9421 49.2422 26.6527C49.7047 26.3637 49.9362 25.9143 49.9362 25.3048V25.2582C49.9362 24.7113 49.7207 24.2778 49.2901 23.9572C48.8593 23.6373 48.1655 23.477 47.2082 23.477H42.9489V27.0865H47.328V27.0862Z" fill="#675C70"/>
<path d="M57.9467 13.8438H61.2267V30.25H57.9467V13.8438Z" fill="#675C70"/>
<path d="M67.7867 13.8438H71.2807L79.3527 23.9454V13.8438H83.0933V30.25H79.8697L71.527 19.8204V30.25H67.7867V13.8438Z" fill="#675C70"/>
<path d="M94.9818 13.8438H98.5384L106.053 30.25H102.02L100.417 26.5966H93.0028L91.3999 30.25H87.4667L94.9818 13.8438ZM99.0396 23.4313L96.7099 18.1489L94.3809 23.4313H99.0396Z" fill="#675C70"/>
<path d="M109.333 13.8438H112.828L120.899 23.9454V13.8438H124.64V30.25H121.416L113.074 19.8204V30.25H109.333V13.8438Z" fill="#675C70"/>
<path d="M139.221 30.25C137.917 30.25 136.707 30.0242 135.59 29.5734C134.473 29.1225 133.508 28.5058 132.696 27.7241C131.884 26.9426 131.249 26.02 130.792 24.9566C130.335 23.8928 130.107 22.7568 130.107 21.5481V21.5C130.107 20.2914 130.335 19.1596 130.792 18.1039C131.249 17.0485 131.884 16.1219 132.696 15.3243C133.508 14.5267 134.482 13.8979 135.615 13.4387C136.749 12.9796 138.002 12.75 139.373 12.75C140.202 12.75 140.959 12.8148 141.645 12.9433C142.33 13.0726 142.952 13.2495 143.511 13.475C144.07 13.7008 144.585 13.9748 145.06 14.2968C145.533 14.6194 145.973 14.9737 146.38 15.3606L143.892 18.0918C143.197 17.4958 142.491 17.0281 141.772 16.6899C141.052 16.3517 140.244 16.1824 139.347 16.1824C138.603 16.1824 137.913 16.3195 137.279 16.5934C136.644 16.8673 136.098 17.2458 135.641 17.7292C135.184 18.2125 134.829 18.7728 134.574 19.4091C134.321 20.0459 134.194 20.7266 134.194 21.4516V21.4997C134.194 22.2248 134.321 22.91 134.574 23.5541C134.829 24.199 135.179 24.7628 135.628 25.2461C136.076 25.7295 136.618 26.1125 137.253 26.3945C137.888 26.6768 138.586 26.8174 139.347 26.8174C140.363 26.8174 141.221 26.6402 141.924 26.2856C142.626 25.9316 143.325 25.448 144.019 24.8353L146.507 27.2284C146.05 27.6959 145.575 28.115 145.085 28.4852C144.594 28.8561 144.057 29.1742 143.473 29.4403C142.889 29.7059 142.249 29.9078 141.556 30.0444C140.862 30.1812 140.084 30.25 139.221 30.25Z" fill="#675C70"/>
<path d="M150.88 13.8438H163.876V17.0548H154.629V20.3829H162.767V23.5938H154.629V27.0392H164V30.25H150.88V13.8438Z" fill="#675C70"/>
</svg>
