<svg width="164" height="52" viewBox="0 0 164 52" fill="none" xmlns="http://www.w3.org/2000/svg">
<path d="M30 51.8968V39.7222H35.646C37.0832 39.7222 38.2124 40.0318 38.931 40.5476C39.6496 41.0635 40.0602 41.8889 40.0602 42.8175C40.0602 43.4365 39.9575 44.0556 39.6496 44.4683C39.3416 44.881 38.931 45.2937 38.4177 45.5C37.9044 45.7064 37.3912 45.9127 36.7752 45.9127L37.0832 45.2937C37.8018 45.2937 38.4177 45.3968 38.931 45.7064C39.4442 45.9127 39.8549 46.3254 40.1628 46.8413C40.4708 47.3572 40.6761 47.873 40.6761 48.5952C40.6761 49.627 40.2655 50.4524 39.4442 51.0714C38.623 51.6905 37.4938 51.8968 35.954 51.8968H30ZM32.2584 50.1429H35.954C36.7752 50.1429 37.3911 50.0397 37.9044 49.7302C38.315 49.4206 38.623 49.0079 38.623 48.3889C38.623 47.7698 38.4177 47.3572 37.9044 47.0476C37.4938 46.7381 36.7752 46.6349 35.954 46.6349H32.1558V44.881H35.5434C36.3646 44.881 36.8779 44.7778 37.3911 44.4683C37.8018 44.1587 38.0071 43.746 38.0071 43.2302C38.0071 42.6111 37.8018 42.1984 37.3911 41.9921C36.9805 41.7857 36.3646 41.5794 35.5434 41.5794H32.2584V50.1429Z" fill="#675C70"/>
<path d="M43.0372 51.8968V42.6111H45.0903V45.1905L44.8849 44.4683C45.1929 43.8492 45.6035 43.3333 46.2195 43.0238C46.8354 42.7143 47.554 42.5079 48.3752 42.5079V44.5714C48.2726 44.5714 48.1699 44.5714 48.1699 44.5714C48.0673 44.5714 47.9646 44.5714 47.9646 44.5714C47.1434 44.5714 46.4248 44.7778 46.0142 45.2936C45.5009 45.8095 45.2956 46.5317 45.2956 47.4603V52H43.0372V51.8968Z" fill="#675C70"/>
<path d="M54.2266 52C53.3027 52 52.4814 51.7936 51.6602 51.3809C50.8389 50.9682 50.3257 50.4524 49.915 49.7302C49.5044 49.0079 49.2991 48.1825 49.2991 47.254C49.2991 46.3254 49.5044 45.5 49.915 44.7778C50.3257 44.0556 50.9416 43.5397 51.6602 43.127C52.3788 42.7143 53.2 42.5079 54.2266 42.5079C55.1504 42.5079 56.0743 42.7143 56.7929 43.127C57.5115 43.5397 58.1274 44.0556 58.5381 44.7778C58.9487 45.5 59.154 46.3254 59.154 47.254C59.154 48.1825 58.9487 49.0079 58.5381 49.7302C58.1274 50.4524 57.5115 50.9682 56.7929 51.3809C56.0743 51.7936 55.1504 52 54.2266 52ZM54.2266 50.246C54.7398 50.246 55.2531 50.1429 55.6637 49.9365C56.0743 49.7302 56.3823 49.3175 56.6903 48.9048C56.8956 48.4921 56.9982 47.9762 56.9982 47.3571C56.9982 46.7381 56.8956 46.2222 56.6903 45.8095C56.485 45.3968 56.177 45.0873 55.6637 44.7778C55.2531 44.5714 54.7398 44.4683 54.2266 44.4683C53.7133 44.4683 53.2 44.5714 52.7894 44.7778C52.3788 44.9841 52.0708 45.3968 51.7628 45.8095C51.5575 46.2222 51.3522 46.7381 51.3522 47.3571C51.3522 47.9762 51.4549 48.4921 51.7628 48.9048C52.0708 49.3175 52.3788 49.7302 52.7894 49.9365C53.3027 50.0397 53.7133 50.246 54.2266 50.246Z" fill="#675C70"/>
<path d="M61.3097 51.8968V39H63.4655V51.8968H61.3097ZM63.0549 49.8333V47.1508L67.8796 42.6111H70.446L66.3398 46.7381L65.2106 47.6667L63.0549 49.8333ZM68.2903 51.8968L64.9027 47.6667L66.2372 45.9127L70.8566 51.8968H68.2903Z" fill="#675C70"/>
<path d="M76.1947 52C75.1681 52 74.2442 51.7936 73.5257 51.3809C72.8071 50.9682 72.1911 50.4524 71.7805 49.7302C71.3699 49.0079 71.1646 48.1825 71.1646 47.254C71.1646 46.3254 71.3699 45.5 71.7805 44.7778C72.1911 44.0556 72.8071 43.5397 73.5257 43.127C74.2442 42.7143 75.0655 42.5079 75.9894 42.5079C76.9133 42.5079 77.7345 42.7143 78.3504 43.127C79.069 43.5397 79.5823 44.0556 79.9929 44.7778C80.4035 45.5 80.6088 46.3254 80.6088 47.3571C80.6088 47.4603 80.6088 47.5635 80.6088 47.6667C80.6088 47.7698 80.6088 47.873 80.6088 47.9762H72.9097V46.5317H79.4796L78.6584 46.9444C78.6584 46.4286 78.5557 45.9127 78.3504 45.5C78.1451 45.0873 77.8372 44.7778 77.4265 44.5714C77.0159 44.3651 76.6053 44.2619 76.092 44.2619C75.5788 44.2619 75.0655 44.3651 74.6549 44.5714C74.2442 44.7778 73.9363 45.0873 73.731 45.5C73.5257 45.9127 73.423 46.4286 73.423 46.9444V47.254C73.423 47.7698 73.5257 48.2857 73.8336 48.6984C74.0389 49.1111 74.4496 49.4206 74.8602 49.7302C75.2708 49.9365 75.8867 50.0397 76.5026 50.0397C77.0159 50.0397 77.5292 49.9365 77.9398 49.7302C78.3504 49.5238 78.7611 49.3175 79.069 49.0079L80.1982 50.3492C79.7876 50.8651 79.2743 51.1746 78.6584 51.4841C77.7345 51.8968 77.0159 52 76.1947 52Z" fill="#675C70"/>
<path d="M82.6619 51.8968V42.6111H84.715V45.1905L84.5097 44.4683C84.8177 43.8492 85.2283 43.3333 85.8442 43.0238C86.4602 42.7143 87.1788 42.5079 88 42.5079V44.5714C87.8973 44.5714 87.7947 44.5714 87.7947 44.5714C87.692 44.5714 87.5894 44.5714 87.5894 44.5714C86.7681 44.5714 86.0496 44.7778 85.6389 45.2936C85.1257 45.8095 84.9204 46.5317 84.9204 47.4603V52H82.6619V51.8968Z" fill="#675C70"/>
<path d="M103.867 27.3438V0H109.333V27.3438H103.867Z" fill="#675C70"/>
<path d="M40.8859 35H29.52V7.65625H40.4289C45.7307 7.65625 48.8199 10.6517 48.8199 15.3373C48.8199 18.3703 46.8359 20.3304 45.4626 20.983C47.1018 21.7507 49.2 23.4785 49.2 27.1286C49.2 32.2347 45.7307 35 40.8859 35ZM40.0092 12.4192H34.8217V18.7175H40.0092C42.2592 18.7175 43.5181 17.45 43.5181 15.5674C43.5181 13.6868 42.2592 12.4192 40.0092 12.4192ZM40.352 23.5182H34.8217V30.2391H40.352C42.7557 30.2391 43.8983 28.7038 43.8983 26.8588C43.8983 25.016 42.7535 23.5182 40.352 23.5182Z" fill="#675C70"/>
<path d="M66.0806 23.7859V35H60.7481V23.7859L52.48 7.65625H58.3133L63.4522 18.6778L68.5133 7.65625H74.3467L66.0806 23.7859Z" fill="#675C70"/>
<path d="M90.0859 35H78.72V7.65625H89.6289C94.9306 7.65625 98.0198 10.6517 98.0198 15.3373C98.0198 18.3703 96.0358 20.3304 94.6625 20.983C96.3017 21.7507 98.4 23.4785 98.4 27.1286C98.4 32.2347 94.9306 35 90.0859 35ZM89.2092 12.4192H84.0217V18.7175H89.2092C91.4591 18.7175 92.7181 17.45 92.7181 15.5674C92.7181 13.6868 91.4591 12.4192 89.2092 12.4192ZM89.5519 23.5182H84.0217V30.2391H89.5519C91.9556 30.2391 93.0982 28.7038 93.0982 26.8588C93.0982 25.016 91.9556 23.5182 89.5519 23.5182Z" fill="#675C70"/>
<path d="M127.317 12.4189V35H121.963V12.4189H114.8V7.65625H134.48V12.4189H127.317Z" fill="#675C70"/>
</svg>
