<svg width="150" height="32" viewBox="0 0 150 32" fill="none" xmlns="http://www.w3.org/2000/svg">
<g clip-path="url(#clip0_2649_48349)">
<path d="M34.94 16.3201C34.94 19.3626 37.1499 21.3926 39.829 21.3926C41.2828 21.3958 42.7088 20.9829 43.9473 20.2001V23.1551C43.3906 23.5101 41.718 24.1551 39.8509 24.1551C35.4943 24.1476 32.0446 20.7501 32.0446 16.3201C32.0446 11.8901 35.4943 8.50012 39.8509 8.50012C41.718 8.50012 43.3906 9.14012 43.9473 9.50012V12.4376C42.7077 11.6578 41.2821 11.2467 39.829 11.2501C37.1499 11.2501 34.94 13.2776 34.94 16.3201ZM56.7666 16.5001V23.9276H54.0924V17.3776C54.0924 16.0776 53.5332 15.1076 52.0964 15.1076C50.7034 15.1076 49.889 16.0101 49.889 17.6426V23.9276H47.2147V7.83012H49.889V14.7326C50.081 14.2326 50.8322 12.6801 53.0835 12.6801C55.3954 12.6801 56.7666 14.0926 56.7666 16.5001ZM71.3071 21.6126V23.9276H67.8549C67.7988 23.9311 67.7425 23.9226 67.6898 23.9025C67.637 23.8824 67.5889 23.8513 67.5484 23.8111C67.5079 23.7709 67.476 23.7225 67.4547 23.669C67.4334 23.6155 67.4232 23.558 67.4246 23.5001V21.5251C67.06 22.8251 66.0753 24.1476 64.0211 24.1476C61.2326 24.1476 59.2172 22.0101 59.2172 18.4151C59.2172 14.7751 61.4246 12.6801 64.1694 12.6801C66.7001 12.6801 67.2155 14.8201 67.2155 14.8201V12.9026H69.8898V21.6126H71.3071ZM67.2958 18.4376C67.2958 16.3651 66.3233 15.0626 64.7236 15.0626C63.1799 15.0626 62.0008 16.2326 62.0008 18.4151C62.0008 20.5976 62.9732 21.7676 64.5948 21.7676C66.2455 21.7676 67.2958 20.6651 67.2958 18.4376ZM77.4457 13.3426V23.9276H74.7715V15.2176H72.8266V12.9026H77.0275C77.0838 12.9008 77.1397 12.911 77.1919 12.9326C77.2441 12.9542 77.2913 12.9867 77.3307 13.0281C77.37 13.0695 77.4005 13.1188 77.4203 13.1729C77.4401 13.2271 77.4487 13.2849 77.4457 13.3426ZM77.3606 10.6076H74.4651V7.83012H77.3606V10.6076ZM80.5697 12.9026H83.2074V14.8651C83.295 14.5776 83.9368 12.6801 86.4457 12.6801C88.7625 12.6801 90.1361 14.0926 90.1361 16.4951V23.9276H87.4619V17.3776C87.4619 16.0776 86.9052 15.1076 85.4684 15.1076C84.0729 15.1076 83.2585 16.0101 83.2585 17.6426V23.9276H80.5843L80.5697 12.9026ZM104.674 21.6126V23.9276H101.222C101.166 23.9311 101.11 23.9226 101.057 23.9025C101.004 23.8824 100.956 23.8513 100.915 23.8111C100.875 23.7709 100.843 23.7225 100.822 23.669C100.801 23.6155 100.79 23.558 100.792 23.5001V21.5251C100.427 22.8251 99.4424 24.1476 97.3882 24.1476C94.5997 24.1476 92.5843 22.0101 92.5843 18.4151C92.5843 14.7751 94.7917 12.6801 97.5389 12.6801C100.07 12.6801 100.583 14.8201 100.583 14.8201V12.9026H103.257V21.6126H104.674ZM100.663 18.4376C100.663 16.3651 99.6904 15.0626 98.0907 15.0626C96.547 15.0626 95.3679 16.2326 95.3679 18.4151C95.3679 20.5976 96.3525 21.7676 97.9741 21.7676C99.6126 21.7676 100.663 20.6651 100.663 18.4376ZM110.144 8.50012V23.9276H107.455V10.1451H105.783V7.83012H109.493C109.579 7.82912 109.664 7.84576 109.743 7.87907C109.823 7.91239 109.895 7.9617 109.956 8.02412C110.016 8.08654 110.064 8.1608 110.097 8.24254C110.129 8.32428 110.145 8.41186 110.144 8.50012ZM114.96 29.0001H112.286V26.6851H114.263C114.97 26.6851 115.293 26.4651 115.549 25.8026L116.344 23.7301L112.216 12.9026H115.196L117.705 20.6851L120.301 12.9026H123.282L118.006 26.8601C117.45 28.3376 116.526 29.0001 114.96 29.0001ZM124.767 23.2226V20.5551C125.132 20.8051 126.61 21.8051 128.263 21.8051C129.528 21.8051 130.084 21.4301 130.084 20.7026C130.084 18.5201 124.617 20.1301 124.617 15.9851C124.617 14.1101 126.16 12.6751 128.993 12.6751C130.556 12.6751 131.667 13.0951 132.102 13.3601V16.0001C131.565 15.6451 130.493 14.9401 129.034 14.9401C127.77 14.9401 127.298 15.3376 127.298 15.9551C127.298 17.7401 132.744 16.5051 132.744 20.5651C132.744 22.7701 130.964 24.1576 128.368 24.1576C126.661 24.1476 125.261 23.5526 124.767 23.2226ZM139.157 13.3426V23.9276H136.483V15.2176H134.538V12.9026H138.741C138.798 12.9008 138.853 12.911 138.906 12.9326C138.958 12.9542 139.005 12.9868 139.044 13.0282C139.083 13.0696 139.113 13.119 139.133 13.1731C139.152 13.2273 139.161 13.285 139.157 13.3426ZM139.072 10.6076H136.177V7.83012H139.072V10.6076ZM142.023 23.2226V20.5551C142.386 20.8051 143.866 21.8051 145.517 21.8051C146.784 21.8051 147.34 21.4301 147.34 20.7026C147.34 18.5201 141.873 20.1301 141.873 15.9851C141.873 14.1101 143.417 12.6751 146.249 12.6751C147.814 12.6751 148.923 13.0951 149.358 13.3601V16.0001C148.461 15.3419 147.394 14.973 146.293 14.9401C145.026 14.9401 144.554 15.3376 144.554 15.9551C144.554 17.7401 150.002 16.5051 150.002 20.5651C150.002 22.7701 148.223 24.1576 145.626 24.1576C143.922 24.1476 142.515 23.5526 142.023 23.2226Z" fill="#675C70"/>
<path d="M12.1558 4C12.4281 4 12.7369 4.035 12.7369 4.035C11.8233 5.16172 11.2728 6.5525 11.1615 8.015C9.44024 8.3111 7.85556 9.16371 6.63759 10.449C5.41961 11.7343 4.63176 13.3854 4.38842 15.1625C2.81548 15.3375 1.0359 16.0775 0.0124034 17.135C-0.230708 9.88 5.1761 4 12.1558 4ZM13.9062 25.795C13.5843 25.8439 13.2592 25.8682 12.9338 25.8675C12.3721 25.8606 11.8115 25.813 11.2563 25.725C10.8226 26.799 10.2501 27.8081 9.55454 28.725C7.37264 28.2302 5.36557 27.1265 3.75383 25.5353C2.14208 23.944 0.988009 21.9267 0.4184 19.705C1.51483 18.3675 4.04806 17.5925 5.62099 17.5925C8.97594 17.5925 10.7555 19.4225 11.373 22.275C9.35276 21.7125 8.15422 20.55 7.36654 18.825C6.90621 18.6531 6.41943 18.5684 5.92974 18.575C5.48788 18.5731 5.04864 18.6449 4.6291 18.7875C5.51889 22.275 8.80576 24.88 12.8098 24.88C16.5075 24.88 18.0805 22.945 18.0805 22.945V19.985C18.0805 19.985 16.2669 21.9225 14.0084 22.31C13.7543 20.5017 12.9362 18.8272 11.677 17.5382C10.4178 16.2493 8.78574 15.4156 7.02618 15.1625C7.60722 12.205 9.79765 10.55 12.7758 10.55C15.7539 10.55 18.151 12.7675 18.151 12.7675V9.845C18.151 9.845 16.6096 8.365 13.8722 8.05C13.9403 6.75 14.762 5.1275 15.6518 4.5275C19.3811 5.725 22.9767 8.965 24.0027 13.6825C24.0027 13.6825 22.3592 15.3725 19.279 15.3725C16.7458 15.3725 15.1461 14.07 14.2466 11.7825C13.7747 11.6097 13.2766 11.525 12.7758 11.5325C12.3084 11.5272 11.8441 11.612 11.4071 11.7825C12.3989 15.445 15.54 17.9075 19.0408 17.9075C22.4638 17.9075 24.3114 16.29 24.3114 16.29C24.3114 23.6125 18.8682 28.86 12.399 29C13.1526 28.25 13.7336 26.605 13.9062 25.795Z" fill="#675C70"/>
</g>
<defs>
<clipPath id="clip0_2649_48349">
<rect width="150" height="25" fill="white" transform="translate(0 4)"/>
</clipPath>
</defs>
</svg>
