<svg width="150" height="32" viewBox="0 0 150 32" fill="none" xmlns="http://www.w3.org/2000/svg">
<path d="M54.0328 25.2262C47.8695 25.2262 45 22.2774 45 15.8345V10.6803C45 4.26219 47.8695 1.28856 54.0328 1.28856C59.9964 1.28856 62.7911 4.03917 62.9408 10.036H58.0501C57.9503 6.98801 56.8524 5.67466 54.1077 5.67466C51.2381 5.67466 50.1402 7.11191 50.1402 10.7794V15.7354C50.1402 19.4029 51.2381 20.8401 54.1077 20.8401C56.8524 20.8401 57.9503 19.5516 58.0501 16.5284H62.9408C62.7911 22.4756 59.9964 25.2262 54.0328 25.2262ZM66.6088 24.805V7.06235H70.9256L71.1252 10.3581C71.799 7.83053 73.2212 6.71542 75.6666 6.71542H76.9891V11.3989H76.0409C73.3959 11.3989 72.1483 12.3901 71.6492 14.8681V24.805H66.6088ZM79.5592 31V27.06H81.5554C82.5036 27.06 82.9278 26.7874 83.2771 25.7466L83.6514 24.6315L77.563 7.08713H82.9278L86.2464 18.1639L89.2906 7.08713H94.3809L88.068 26.3413C86.8702 30.0088 85.6476 31 82.1542 31H79.5592ZM102.915 25.2262C97.7495 25.2262 95.3541 23.3181 95.3541 19.3781H100.17C100.17 20.9145 100.993 21.5835 102.94 21.5835C104.611 21.5835 105.435 21.0631 105.435 19.9976C105.435 18.7338 104.487 18.1886 101.817 17.8913C97.4002 17.3709 95.6535 15.8841 95.6535 12.514C95.6535 8.67306 98.2486 6.66587 102.94 6.66587C107.656 6.66587 110.051 8.64828 110.051 12.3157H105.235C105.235 10.9281 104.562 10.3085 102.915 10.3085C101.418 10.3085 100.644 10.8785 100.644 11.8945C100.644 13.0592 101.567 13.5548 104.162 13.8769C108.679 14.3973 110.425 16.0576 110.425 19.4772C110.45 23.3677 107.98 25.2262 102.915 25.2262ZM119.583 24.805C115.915 24.805 114.393 23.0951 114.393 19.0312V10.8785H111.798V7.06235H114.493L114.767 2.65147H119.458V7.06235H123.151V10.8785H119.458V18.7338C119.458 20.3941 119.857 20.8649 121.33 20.8649H123.326V24.805H119.583ZM130.986 25.2262C127.468 25.2262 125.347 23.2438 125.347 19.725C125.347 15.9832 127.717 13.9017 132.458 13.9017H135.752V13.3317C135.752 11.498 135.029 10.6059 133.207 10.6059C131.46 10.6059 130.787 11.3989 130.712 12.6131H125.821C126.096 8.67306 128.491 6.66587 133.432 6.66587C138.497 6.66587 140.817 8.77218 140.817 13.4061V24.8297H136.551L136.376 22.6243C135.128 24.3341 133.332 25.2262 130.986 25.2262ZM132.508 21.2862C133.956 21.2862 135.004 20.6171 135.727 19.279V17.247H133.382C131.086 17.247 130.337 18.04 130.337 19.3285C130.337 20.5923 131.086 21.2862 132.508 21.2862ZM144.935 24.805V0H150V24.805H144.935Z" fill="#675C70"/>
<path d="M6.18437 2L0 10.6834L16.5 28L33 10.6834L26.8156 2H6.18437Z" fill="#675C70"/>
</svg>
