<svg width="1200" height="360" viewBox="0 0 1200 360" fill="none" xmlns="http://www.w3.org/2000/svg">
<g clip-path="url(#clip0_9223_243852)">
<rect width="1200" height="360" fill="url(#paint0_linear_9223_243852)"/>
<g clip-path="url(#clip1_9223_243852)">
<line x1="1200" y1="0.500107" x2="-4.37115e-08" y2="0.500002" stroke="#332344"/>
<line x1="1200" y1="48.5002" x2="-4.37115e-08" y2="48.5001" stroke="#332344"/>
<line x1="1200" y1="96.5003" x2="-4.37115e-08" y2="96.5002" stroke="#332344"/>
<line x1="1200" y1="144.5" x2="-4.37115e-08" y2="144.5" stroke="#332344"/>
<line x1="1200" y1="192.501" x2="-4.37115e-08" y2="192.5" stroke="#332344"/>
<line x1="1200" y1="240.501" x2="-4.37115e-08" y2="240.501" stroke="#332344"/>
<line x1="1200" y1="288.501" x2="-4.37115e-08" y2="288.501" stroke="#332344"/>
<line x1="1200" y1="336.501" x2="-4.37115e-08" y2="336.501" stroke="#332344"/>
</g>
<g clip-path="url(#clip2_9223_243852)">
<line x1="40.5" y1="2.18557e-08" x2="40.5" y2="360" stroke="#332344"/>
<line x1="88.5" y1="2.18557e-08" x2="88.5" y2="360" stroke="#332344"/>
<line x1="136.5" y1="2.18557e-08" x2="136.5" y2="360" stroke="#332344"/>
<line x1="184.5" y1="2.18557e-08" x2="184.5" y2="360" stroke="#332344"/>
<line x1="233" y1="4.37114e-08" x2="233" y2="360" stroke="#332344" stroke-width="2"/>
<g filter="url(#filter0_d_9223_243852)">
<rect x="280" y="292" width="4" height="68" fill="url(#paint1_linear_9223_243852)"/>
</g>
<g filter="url(#filter1_d_9223_243852)">
<rect x="280" width="4" height="92" fill="url(#paint2_linear_9223_243852)"/>
</g>
<line x1="333" y1="4.37114e-08" x2="333" y2="360" stroke="#332344" stroke-width="2"/>
<line x1="380.5" y1="2.18557e-08" x2="380.5" y2="360" stroke="#332344"/>
<line x1="428.5" y1="2.18557e-08" x2="428.5" y2="360" stroke="#332344"/>
<line x1="476.5" y1="2.18557e-08" x2="476.5" y2="360" stroke="#332344"/>
<line x1="524.5" y1="2.18557e-08" x2="524.5" y2="360" stroke="#332344"/>
<line x1="572.5" y1="2.18557e-08" x2="572.5" y2="360" stroke="#332344"/>
<line x1="620.5" y1="2.18557e-08" x2="620.5" y2="360" stroke="#332344"/>
<line x1="668.5" y1="2.18557e-08" x2="668.5" y2="360" stroke="#332344"/>
<line x1="716.5" y1="2.18557e-08" x2="716.5" y2="360" stroke="#332344"/>
<line x1="764.5" y1="2.18557e-08" x2="764.5" y2="360" stroke="#332344"/>
<line x1="812.5" y1="2.18557e-08" x2="812.5" y2="360" stroke="#332344"/>
<line x1="860.5" y1="2.18557e-08" x2="860.5" y2="360" stroke="#332344"/>
<line x1="908.5" y1="2.18557e-08" x2="908.5" y2="360" stroke="#332344"/>
<line x1="956.5" y1="2.18557e-08" x2="956.5" y2="360" stroke="#332344"/>
<line x1="1004.5" y1="2.18557e-08" x2="1004.5" y2="360" stroke="#332344"/>
<line x1="1052.5" y1="2.18557e-08" x2="1052.5" y2="360" stroke="#332344"/>
<line x1="1100.5" y1="2.18557e-08" x2="1100.5" y2="360" stroke="#332344"/>
<line x1="1148.5" y1="2.18557e-08" x2="1148.5" y2="360" stroke="#332344"/>
<line x1="1196.5" y1="2.18557e-08" x2="1196.5" y2="360" stroke="#332344"/>
</g>
<rect width="1200" height="360" fill="url(#paint3_radial_9223_243852)"/>
</g>
<defs>
<filter id="filter0_d_9223_243852" x="272" y="284" width="20" height="84" filterUnits="userSpaceOnUse" color-interpolation-filters="sRGB">
<feFlood flood-opacity="0" result="BackgroundImageFix"/>
<feColorMatrix in="SourceAlpha" type="matrix" values="0 0 0 0 0 0 0 0 0 0 0 0 0 0 0 0 0 0 127 0" result="hardAlpha"/>
<feMorphology radius="4" operator="dilate" in="SourceAlpha" result="effect1_dropShadow_9223_243852"/>
<feOffset/>
<feGaussianBlur stdDeviation="2"/>
<feComposite in2="hardAlpha" operator="out"/>
<feColorMatrix type="matrix" values="0 0 0 0 0.47451 0 0 0 0 0.286275 0 0 0 0 1 0 0 0 0.16 0"/>
<feBlend mode="normal" in2="BackgroundImageFix" result="effect1_dropShadow_9223_243852"/>
<feBlend mode="normal" in="SourceGraphic" in2="effect1_dropShadow_9223_243852" result="shape"/>
</filter>
<filter id="filter1_d_9223_243852" x="272" y="-8" width="20" height="108" filterUnits="userSpaceOnUse" color-interpolation-filters="sRGB">
<feFlood flood-opacity="0" result="BackgroundImageFix"/>
<feColorMatrix in="SourceAlpha" type="matrix" values="0 0 0 0 0 0 0 0 0 0 0 0 0 0 0 0 0 0 127 0" result="hardAlpha"/>
<feMorphology radius="4" operator="dilate" in="SourceAlpha" result="effect1_dropShadow_9223_243852"/>
<feOffset/>
<feGaussianBlur stdDeviation="2"/>
<feComposite in2="hardAlpha" operator="out"/>
<feColorMatrix type="matrix" values="0 0 0 0 0.47451 0 0 0 0 0.286275 0 0 0 0 1 0 0 0 0.16 0"/>
<feBlend mode="normal" in2="BackgroundImageFix" result="effect1_dropShadow_9223_243852"/>
<feBlend mode="normal" in="SourceGraphic" in2="effect1_dropShadow_9223_243852" result="shape"/>
</filter>
<linearGradient id="paint0_linear_9223_243852" x1="1.78814e-05" y1="180" x2="1200" y2="180" gradientUnits="userSpaceOnUse">
<stop stop-color="#211C25"/>
<stop offset="1" stop-color="#271B2E"/>
</linearGradient>
<linearGradient id="paint1_linear_9223_243852" x1="282" y1="292" x2="282" y2="360" gradientUnits="userSpaceOnUse">
<stop offset="0.5625" stop-color="#5839B8"/>
<stop offset="1" stop-color="#4F33A4"/>
</linearGradient>
<linearGradient id="paint2_linear_9223_243852" x1="282" y1="0" x2="282" y2="92" gradientUnits="userSpaceOnUse">
<stop stop-color="#594274"/>
<stop offset="0.6875" stop-color="#7949FF"/>
</linearGradient>
<radialGradient id="paint3_radial_9223_243852" cx="0" cy="0" r="1" gradientUnits="userSpaceOnUse" gradientTransform="translate(600 180) rotate(90) scale(180 613.468)">
<stop offset="0.759796" stop-color="#211B26" stop-opacity="0"/>
<stop offset="1" stop-color="#211B26"/>
</radialGradient>
<clipPath id="clip0_9223_243852">
<rect width="1200" height="360" fill="white"/>
</clipPath>
<clipPath id="clip1_9223_243852">
<rect width="1200" height="360" fill="white"/>
</clipPath>
<clipPath id="clip2_9223_243852">
<rect width="1300" height="360" fill="white" transform="translate(-56)"/>
</clipPath>
</defs>
</svg>
