<svg width="114" height="32" viewBox="0 0 114 32" fill="none" xmlns="http://www.w3.org/2000/svg">
	<path d="M59.8843 1.18565V14.6315C59.8843 15.7358 58.9826 16.6307 57.8701 16.6307V3.1849C57.8722 2.08062 58.7739 1.18565 59.8843 1.18565Z" fill="white" />
	<path d="M65.7333 4.64162V5.59853H68.9634V7.24321H65.7764V14.6315C65.7764 15.7358 64.8747 16.6286 63.7643 16.6286V7.24321H61.877V5.59853H63.7643V4.62026C63.7643 3.52452 64.0849 2.65732 64.7283 2.01867C65.3718 1.38002 66.2735 1.06177 67.4334 1.06177C67.881 1.06177 68.3006 1.1173 68.6923 1.22837C69.0839 1.33944 69.4196 1.49964 69.6994 1.70682L69.0925 3.22549C68.632 2.87946 68.1134 2.70431 67.541 2.70431C66.3337 2.70645 65.7333 3.35151 65.7333 4.64162Z" fill="white" />
	<path d="M79.3617 5.93387C80.2354 6.73485 80.6722 7.92672 80.6722 9.51373V14.6058C80.6722 15.7229 79.7598 16.6286 78.6343 16.6286V15.0715C78.2749 15.6204 77.7649 16.0391 77.1 16.3274C76.435 16.6158 75.6474 16.761 74.7371 16.761C73.4072 16.761 72.3441 16.4428 71.5458 15.8041C70.7474 15.1676 70.3471 14.3303 70.3471 13.2922C70.3471 12.2542 70.728 11.4211 71.4898 10.791C72.2516 10.1609 73.461 9.84694 75.118 9.84694H78.5224V9.42402C78.5224 8.50556 78.2534 7.80069 77.7154 7.31156C77.1774 6.82243 76.3855 6.57893 75.3418 6.57893C74.6403 6.57893 73.9538 6.69427 73.2802 6.92282C72.6088 7.1535 72.0407 7.46108 71.578 7.84555C71.0164 6.84379 71.5092 5.58785 72.6002 5.21192C72.6906 5.17988 72.7831 5.14998 72.8757 5.12221C73.7278 4.86376 74.6295 4.73347 75.5871 4.73347C77.2291 4.73347 78.488 5.13289 79.3617 5.93387ZM77.2226 14.5717C77.8187 14.2085 78.2534 13.6938 78.5224 13.0274V11.3827H75.2062C73.3835 11.3827 72.4732 11.9914 72.4732 13.2068C72.4732 13.8006 72.7057 14.2662 73.1683 14.608C73.631 14.9497 74.2723 15.1206 75.0943 15.1206C75.9164 15.1163 76.6265 14.9348 77.2226 14.5717Z" fill="white" />
	<path d="M98.1827 9.92597C98.7056 10.586 98.966 11.419 98.966 12.4272C98.966 13.7771 98.4539 14.813 97.4317 15.5392C96.4095 16.2655 94.9182 16.6286 92.962 16.6286H85.4797V2.73208C85.4797 1.81149 86.2307 1.06604 87.1582 1.06604H92.5123C94.3049 1.06604 95.6886 1.42274 96.6677 2.13402C97.6447 2.84529 98.1354 3.8321 98.1354 5.09231C98.1354 5.90824 97.946 6.61097 97.5651 7.20476C97.1842 7.79856 96.672 8.24924 96.0307 8.56109C96.9432 8.80886 97.6598 9.26596 98.1827 9.92597ZM87.722 2.86665V7.84769H92.3143C93.4635 7.84769 94.3479 7.63623 94.9698 7.21331C95.5896 6.79039 95.8995 6.1731 95.8995 5.35717C95.8995 4.54123 95.5896 3.92181 94.9698 3.50102C94.3501 3.07811 93.4656 2.86665 92.3143 2.86665H87.722ZM95.7402 14.2064C96.3815 13.792 96.7043 13.1384 96.7043 12.2499C96.7043 10.5155 95.4282 9.64829 92.8738 9.64829H87.722V14.8301H92.8738C94.1435 14.828 95.0989 14.6208 95.7402 14.2064Z" fill="white" />
	<path d="M101.469 3.26821C101.213 3.02044 101.086 2.7214 101.086 2.3647C101.086 2.00799 101.213 1.70469 101.469 1.45051C101.725 1.19633 102.045 1.07031 102.433 1.07031C102.818 1.07031 103.141 1.18992 103.395 1.42915C103.651 1.66838 103.778 1.96741 103.778 2.32411C103.778 2.69363 103.651 3.00548 103.395 3.25966C103.139 3.51384 102.818 3.63986 102.433 3.63986C102.043 3.63986 101.723 3.51598 101.469 3.26821ZM103.425 5.73523V14.655C103.425 15.7443 102.534 16.6286 101.436 16.6286V7.70885C101.436 6.61951 102.327 5.73523 103.425 5.73523Z" fill="white" />
	<path d="M112.181 14.9155C112.011 14.9455 111.83 14.9625 111.645 14.9625C111.049 14.9625 110.591 14.7917 110.268 14.4499C109.95 14.1103 109.786 13.619 109.786 12.9825V6.60029H112.319L111.297 4.84454H109.788V2.26644C108.602 2.26644 107.638 3.21908 107.638 4.40026V4.84454H105.624V6.60029H107.638V13.0701C107.638 14.2555 107.97 15.1697 108.626 15.8062C109.054 16.2228 109.599 16.5004 110.255 16.6393C110.606 16.7204 110.987 16.7589 111.402 16.7589C111.897 16.7589 112.375 16.6884 112.838 16.5496C113.3 16.4064 113.69 16.2014 114 15.9365C113.69 15.2359 112.943 14.7853 112.181 14.9155Z" fill="white" />
	<path d="M53.3983 16.6286H55.6901L47.4051 1.0639H46.8391C45.7739 1.0639 44.7926 1.62779 44.2589 2.54198L36.0664 16.6286H38.3604L40.6243 12.7369H51.3561L53.3983 16.6286ZM41.6615 10.9534L46.2667 3.03752L50.4221 10.9534H41.6615Z" fill="white" />
	<path d="M45.4522 23.1627C44.9981 22.9021 44.4752 22.7739 43.8834 22.7739C43.2981 22.7739 42.773 22.9064 42.3082 23.1691C41.8434 23.4318 41.4775 23.797 41.2107 24.2627C40.9439 24.7283 40.8126 25.2623 40.8126 25.8668C40.8126 26.4713 40.9482 27.0052 41.2215 27.4709C41.4948 27.9365 41.88 28.3039 42.3749 28.5709C42.872 28.8379 43.4466 28.9725 44.1008 28.9725C44.6086 28.9725 45.0692 28.8892 45.4802 28.7204C45.8912 28.5517 46.2355 28.3082 46.5131 27.9878L45.902 27.2765C45.6782 27.5221 45.4178 27.7037 45.123 27.8276C44.826 27.9493 44.4967 28.0113 44.1352 28.0113C43.6962 28.0113 43.3089 27.9237 42.9688 27.7486C42.631 27.5734 42.3663 27.3278 42.1791 27.0095C42.0392 26.7767 41.9531 26.5182 41.9165 26.2363H46.8833C46.8919 26.1829 46.8962 26.1252 46.9005 26.0654C46.9048 26.0035 46.9069 25.9501 46.9069 25.9052C46.9069 25.2794 46.7778 24.7305 46.5196 24.2605C46.2613 23.7906 45.9063 23.4211 45.4522 23.1627ZM42.8548 23.9594C43.1539 23.7885 43.4982 23.7009 43.8813 23.7009C44.2729 23.7009 44.6172 23.7864 44.9142 23.9594C45.2112 24.1324 45.4436 24.3695 45.6136 24.6749C45.7427 24.9056 45.818 25.1619 45.846 25.4417H41.9144C41.9467 25.1641 42.0263 24.9099 42.1511 24.6792C42.3211 24.3716 42.5557 24.1303 42.8548 23.9594Z" fill="#A96CFF" />
	<path d="M55.0327 22.8295H53.8212L52.1405 25.0188L50.462 22.8295H49.2267L51.5207 25.7984L49.1105 28.902H50.3458L52.1319 26.5738L53.9029 28.902H55.1597L52.728 25.7942L55.0327 22.8295Z" fill="#A96CFF" />
	<path d="M59.4765 23.9978C59.7928 23.8227 60.1501 23.7351 60.5503 23.7351C60.8817 23.7351 61.1916 23.8056 61.48 23.9466C61.7683 24.0875 62.0137 24.3075 62.2138 24.6044L63.0574 24.0662C62.8185 23.639 62.4828 23.3165 62.0481 23.0986C61.6134 22.8807 61.1185 22.7718 60.5654 22.7718C59.9413 22.7718 59.3861 22.9042 58.8976 23.1669C58.4091 23.4297 58.0261 23.7949 57.7485 24.2605C57.4709 24.7262 57.3332 25.2602 57.3332 25.8646C57.3332 26.4691 57.4709 27.0031 57.7485 27.4687C58.0261 27.9344 58.4091 28.3018 58.8976 28.5688C59.3861 28.8358 59.9413 28.9703 60.5654 28.9703C61.1206 28.9703 61.6134 28.8571 62.0481 28.6328C62.4828 28.4086 62.8185 28.0839 63.0574 27.6653L62.2138 27.1377C62.0137 27.4346 61.7683 27.6546 61.48 27.7955C61.1916 27.9365 60.8817 28.007 60.5503 28.007C60.1501 28.007 59.7928 27.9194 59.4765 27.7443C59.1602 27.5691 58.9105 27.3214 58.7255 26.9988C58.5404 26.6763 58.4479 26.3004 58.4479 25.8646C58.4479 25.4289 58.5404 25.053 58.7255 24.7369C58.9105 24.4207 59.1623 24.1751 59.4765 23.9978Z" fill="#A96CFF" />
	<path d="M70.7269 23.058C70.3461 22.8679 69.9049 22.7718 69.4056 22.7718C68.8504 22.7718 68.3662 22.8829 67.9509 23.105C67.6626 23.2588 67.4301 23.4574 67.2472 23.6945V20.4009H66.139V28.902H67.2472V25.7749C67.2472 25.3328 67.3269 24.9611 67.4839 24.6642C67.641 24.3673 67.867 24.1409 68.1597 23.9871C68.4523 23.8355 68.7945 23.7586 69.1861 23.7586C69.7091 23.7586 70.1158 23.9081 70.4042 24.205C70.6925 24.5019 70.8367 24.9462 70.8367 25.5336V28.902H71.945V25.4076C71.945 24.8116 71.8374 24.3182 71.6222 23.9295C71.4048 23.5407 71.1078 23.2502 70.7269 23.058Z" fill="#A96CFF" />
	<path d="M77.9575 22.7718C77.4733 22.7718 77.0085 22.838 76.5674 22.9726C76.1241 23.1071 75.7453 23.2994 75.4311 23.5514L75.8938 24.3759C76.1327 24.1772 76.4253 24.0192 76.7718 23.8996C77.1183 23.7821 77.4712 23.7223 77.8327 23.7223C78.3793 23.7223 78.7882 23.8504 79.0615 24.1068C79.3348 24.3631 79.4703 24.724 79.4703 25.1897V25.4076H77.7165C77.1075 25.4076 76.6255 25.4887 76.2682 25.6489C75.911 25.8091 75.6528 26.0227 75.4957 26.2897C75.3386 26.5567 75.259 26.8557 75.259 27.1825C75.259 27.5264 75.3515 27.834 75.5366 28.1053C75.7216 28.3765 75.9842 28.588 76.3263 28.7418C76.6685 28.8956 77.0666 28.9703 77.5207 28.9703C78.0823 28.9703 78.5472 28.8657 78.9173 28.6542C79.1777 28.5068 79.38 28.3189 79.5285 28.0967V28.8998H80.5786V25.2367C80.5786 24.4037 80.3505 23.7864 79.8964 23.3805C79.4424 22.9747 78.7968 22.7718 77.9575 22.7718ZM78.7946 27.8489C78.4826 28.0326 78.1189 28.1245 77.7036 28.1245C77.2797 28.1245 76.9504 28.0348 76.7115 27.8554C76.4727 27.6759 76.3543 27.4367 76.3543 27.1398C76.3543 26.8814 76.4512 26.6592 76.6427 26.4755C76.8342 26.2918 77.2086 26.2 77.7617 26.2H79.4703V27.048C79.3305 27.3983 79.1067 27.6653 78.7946 27.8489Z" fill="#A96CFF" />
	<path d="M88.9519 23.058C88.571 22.8679 88.1298 22.7718 87.6306 22.7718C87.0754 22.7718 86.5912 22.8829 86.1758 23.105C85.866 23.2695 85.6163 23.4852 85.4248 23.7479V22.8295H84.3618V28.902H85.47V25.7749C85.47 25.3328 85.5496 24.9611 85.7067 24.6642C85.8638 24.3673 86.0898 24.1409 86.3824 23.9871C86.6751 23.8355 87.0173 23.7586 87.4089 23.7586C87.9318 23.7586 88.3386 23.9081 88.6269 24.205C88.9153 24.5019 89.0595 24.9462 89.0595 25.5336V28.902H90.1677V25.4076C90.1677 24.8116 90.0601 24.3182 89.8449 23.9295C89.6319 23.5407 89.3328 23.2502 88.9519 23.058Z" fill="#A96CFF" />
	<path d="M98.7584 23.7607C98.5302 23.4724 98.2548 23.246 97.9277 23.0879C97.4973 22.8786 97.0196 22.7718 96.4966 22.7718C95.9049 22.7718 95.3755 22.8935 94.9085 23.1392C94.4437 23.3827 94.0735 23.7244 93.8002 24.1644C93.5269 24.6044 93.3914 25.1171 93.3914 25.7044C93.3914 26.2854 93.5269 26.7959 93.8002 27.2402C94.0735 27.6823 94.4437 28.0284 94.9085 28.2761C95.3733 28.5239 95.9027 28.6478 96.4966 28.6478C97.0196 28.6478 97.4973 28.5389 97.9277 28.321C98.229 28.1693 98.485 27.96 98.7002 27.7016V28.1886C98.7002 28.8763 98.5302 29.3868 98.1924 29.7243C97.8545 30.0597 97.323 30.2284 96.5999 30.2284C96.1459 30.2284 95.7112 30.1579 95.2958 30.0169C94.8805 29.876 94.5298 29.6837 94.2457 29.4381L93.7142 30.2861C94.0456 30.5766 94.4738 30.7987 95.001 30.9568C95.5283 31.1127 96.0727 31.1917 96.6344 31.1917C97.6738 31.1917 98.4614 30.9397 99.0015 30.4356C99.5417 29.9315 99.8085 29.1455 99.8085 28.0754V22.8295H98.7584V23.7607ZM98.4528 26.7361C98.272 27.033 98.0245 27.268 97.7082 27.4346C97.3919 27.6033 97.0303 27.6866 96.6236 27.6866C96.2169 27.6866 95.8532 27.6033 95.5326 27.4346C95.2141 27.2658 94.9623 27.033 94.7815 26.7361C94.6008 26.4392 94.5104 26.0953 94.5104 25.7044C94.5104 25.3157 94.6008 24.9718 94.7815 24.6728C94.9623 24.3759 95.2119 24.1431 95.5326 23.9786C95.8511 23.8141 96.2147 23.733 96.6236 23.733C97.0325 23.733 97.394 23.8141 97.7082 23.9786C98.0245 24.1431 98.272 24.3738 98.4528 24.6728C98.6335 24.9718 98.7239 25.3136 98.7239 25.7044C98.7239 26.0953 98.6335 26.4392 98.4528 26.7361Z" fill="#A96CFF" />
	<path d="M107.728 23.1627C107.274 22.9021 106.751 22.7739 106.159 22.7739C105.574 22.7739 105.049 22.9064 104.584 23.1691C104.119 23.4318 103.753 23.797 103.486 24.2627C103.219 24.7283 103.088 25.2623 103.088 25.8668C103.088 26.4713 103.224 27.0052 103.497 27.4709C103.77 27.9365 104.155 28.3039 104.65 28.5709C105.148 28.8379 105.722 28.9725 106.376 28.9725C106.884 28.9725 107.345 28.8892 107.756 28.7204C108.167 28.5517 108.511 28.3082 108.789 27.9878L108.177 27.2765C107.954 27.5221 107.693 27.7037 107.398 27.8276C107.101 27.9493 106.772 28.0113 106.411 28.0113C105.972 28.0113 105.584 27.9237 105.244 27.7486C104.906 27.5734 104.642 27.3278 104.455 27.0095C104.315 26.7767 104.229 26.5182 104.192 26.2363H109.159C109.167 26.1829 109.172 26.1252 109.176 26.0654C109.18 26.0035 109.182 25.9501 109.182 25.9052C109.182 25.2794 109.053 24.7305 108.795 24.2605C108.537 23.7906 108.182 23.4211 107.728 23.1627ZM105.13 23.9594C105.429 23.7885 105.774 23.7009 106.157 23.7009C106.548 23.7009 106.893 23.7864 107.19 23.9594C107.487 24.1324 107.719 24.3695 107.889 24.6749C108.018 24.9056 108.094 25.1619 108.122 25.4417H104.19C104.222 25.1641 104.302 24.9099 104.427 24.6792C104.594 24.3716 104.829 24.1303 105.13 23.9594Z" fill="#A96CFF" />
	<path d="M37.4125 25.3627C37.1844 25.3627 36.9886 25.4417 36.8272 25.5977C36.6658 25.7557 36.584 25.9522 36.584 26.185C36.584 26.4264 36.6658 26.6272 36.8272 26.7874C36.9886 26.9476 37.1844 27.0287 37.4125 27.0287C37.6406 27.0287 37.8364 26.9454 37.9978 26.7831C38.1592 26.6186 38.241 26.42 38.241 26.185C38.241 25.9522 38.1592 25.7557 37.9978 25.5977C37.8364 25.4417 37.6406 25.3627 37.4125 25.3627Z" fill="#A96CFF" />
	<path d="M113.23 25.5998C113.069 25.4439 112.873 25.3648 112.645 25.3648C112.417 25.3648 112.221 25.4439 112.06 25.5998C111.898 25.7578 111.816 25.9522 111.816 26.1872C111.816 26.4285 111.898 26.6293 112.06 26.7895C112.221 26.9497 112.417 27.0309 112.645 27.0309C112.873 27.0309 113.069 26.9476 113.23 26.7852C113.392 26.6208 113.473 26.4221 113.473 26.1872C113.471 25.9522 113.392 25.7557 113.23 25.5998Z" fill="#A96CFF" />
	<path d="M25.2231 25.8752L0 25.8816L13.6994 2.30924C14.2524 1.36088 15.2617 0.75 16.3678 0.75H16.385C16.7702 0.75 17.149 0.76068 17.5277 0.786311L4.39215 23.3825H23.7748L25.2231 25.8752Z" fill="white" />
	<path d="M30.8827 29.1347L3.45813 29.1411C2.3219 29.1411 1.28035 28.5259 0.714387 27.5434C0.537927 27.238 0.372226 26.9282 0.217285 26.6121L26.5035 26.6057L16.811 9.94529L18.2615 7.45264L30.8827 29.1347Z" fill="white" />
	<path d="M31.9716 27.6866C31.793 27.9877 31.608 28.2868 31.41 28.5773L18.2594 5.98744L8.5691 22.65H5.67041L18.2766 0.96582L31.9932 24.5296C32.5634 25.5079 32.5462 26.7104 31.9716 27.6866Z" fill="white" />
</svg>
